<?xml version="1.0" encoding="utf-8"?>
<svg xmlns="http://www.w3.org/2000/svg" xmlns:xlink="http://www.w3.org/1999/xlink" width="600" height="400" viewBox="0 0 2400 1600">
<defs>
  <clipPath id="clip520">
    <rect x="0" y="0" width="2400" height="1600"/>
  </clipPath>
</defs>
<path clip-path="url(#clip520)" d="M0 1600 L2400 1600 L2400 0 L0 0  Z" fill="#ffffff" fill-rule="evenodd" fill-opacity="1"/>
<defs>
  <clipPath id="clip521">
    <rect x="480" y="0" width="1681" height="1600"/>
  </clipPath>
</defs>
<path clip-path="url(#clip520)" d="M193.936 1423.18 L2352.76 1423.18 L2352.76 47.2441 L193.936 47.2441  Z" fill="#ffffff" fill-rule="evenodd" fill-opacity="1"/>
<defs>
  <clipPath id="clip522">
    <rect x="193" y="47" width="2160" height="1377"/>
  </clipPath>
</defs>
<polyline clip-path="url(#clip520)" style="stroke:#000000; stroke-linecap:round; stroke-linejoin:round; stroke-width:4; stroke-opacity:1; fill:none" points="193.936,1423.18 2352.76,1423.18 "/>
<polyline clip-path="url(#clip520)" style="stroke:#000000; stroke-linecap:round; stroke-linejoin:round; stroke-width:4; stroke-opacity:1; fill:none" points="245.902,1423.18 245.902,1404.28 "/>
<polyline clip-path="url(#clip520)" style="stroke:#000000; stroke-linecap:round; stroke-linejoin:round; stroke-width:4; stroke-opacity:1; fill:none" points="897.043,1423.18 897.043,1404.28 "/>
<polyline clip-path="url(#clip520)" style="stroke:#000000; stroke-linecap:round; stroke-linejoin:round; stroke-width:4; stroke-opacity:1; fill:none" points="1548.18,1423.18 1548.18,1404.28 "/>
<polyline clip-path="url(#clip520)" style="stroke:#000000; stroke-linecap:round; stroke-linejoin:round; stroke-width:4; stroke-opacity:1; fill:none" points="2199.33,1423.18 2199.33,1404.28 "/>
<path clip-path="url(#clip520)" d="M245.902 1454.1 Q242.291 1454.1 240.462 1457.66 Q238.657 1461.2 238.657 1468.33 Q238.657 1475.44 240.462 1479.01 Q242.291 1482.55 245.902 1482.55 Q249.536 1482.55 251.342 1479.01 Q253.17 1475.44 253.17 1468.33 Q253.17 1461.2 251.342 1457.66 Q249.536 1454.1 245.902 1454.1 M245.902 1450.39 Q251.712 1450.39 254.768 1455 Q257.846 1459.58 257.846 1468.33 Q257.846 1477.06 254.768 1481.67 Q251.712 1486.25 245.902 1486.25 Q240.092 1486.25 237.013 1481.67 Q233.957 1477.06 233.957 1468.33 Q233.957 1459.58 237.013 1455 Q240.092 1450.39 245.902 1450.39 Z" fill="#000000" fill-rule="nonzero" fill-opacity="1" /><path clip-path="url(#clip520)" d="M887.425 1481.64 L895.064 1481.64 L895.064 1455.28 L886.754 1456.95 L886.754 1452.69 L895.018 1451.02 L899.694 1451.02 L899.694 1481.64 L907.333 1481.64 L907.333 1485.58 L887.425 1485.58 L887.425 1481.64 Z" fill="#000000" fill-rule="nonzero" fill-opacity="1" /><path clip-path="url(#clip520)" d="M1542.84 1481.64 L1559.16 1481.64 L1559.16 1485.58 L1537.21 1485.58 L1537.21 1481.64 Q1539.87 1478.89 1544.46 1474.26 Q1549.06 1469.61 1550.24 1468.27 Q1552.49 1465.74 1553.37 1464.01 Q1554.27 1462.25 1554.27 1460.56 Q1554.27 1457.8 1552.33 1456.07 Q1550.41 1454.33 1547.31 1454.33 Q1545.11 1454.33 1542.65 1455.09 Q1540.22 1455.86 1537.44 1457.41 L1537.44 1452.69 Q1540.27 1451.55 1542.72 1450.97 Q1545.18 1450.39 1547.21 1450.39 Q1552.58 1450.39 1555.78 1453.08 Q1558.97 1455.77 1558.97 1460.26 Q1558.97 1462.39 1558.16 1464.31 Q1557.37 1466.2 1555.27 1468.8 Q1554.69 1469.47 1551.59 1472.69 Q1548.49 1475.88 1542.84 1481.64 Z" fill="#000000" fill-rule="nonzero" fill-opacity="1" /><path clip-path="url(#clip520)" d="M2203.57 1466.95 Q2206.93 1467.66 2208.81 1469.93 Q2210.7 1472.2 2210.7 1475.53 Q2210.7 1480.65 2207.18 1483.45 Q2203.67 1486.25 2197.19 1486.25 Q2195.01 1486.25 2192.69 1485.81 Q2190.4 1485.39 2187.95 1484.54 L2187.95 1480.02 Q2189.89 1481.16 2192.21 1481.74 Q2194.52 1482.32 2197.05 1482.32 Q2201.44 1482.32 2203.74 1480.58 Q2206.05 1478.84 2206.05 1475.53 Q2206.05 1472.48 2203.9 1470.77 Q2201.77 1469.03 2197.95 1469.03 L2193.92 1469.03 L2193.92 1465.19 L2198.13 1465.19 Q2201.58 1465.19 2203.41 1463.82 Q2205.24 1462.43 2205.24 1459.84 Q2205.24 1457.18 2203.34 1455.77 Q2201.47 1454.33 2197.95 1454.33 Q2196.03 1454.33 2193.83 1454.75 Q2191.63 1455.16 2188.99 1456.04 L2188.99 1451.88 Q2191.65 1451.14 2193.97 1450.77 Q2196.31 1450.39 2198.37 1450.39 Q2203.69 1450.39 2206.79 1452.83 Q2209.89 1455.23 2209.89 1459.35 Q2209.89 1462.22 2208.25 1464.21 Q2206.61 1466.18 2203.57 1466.95 Z" fill="#000000" fill-rule="nonzero" fill-opacity="1" /><path clip-path="url(#clip520)" d="M1131.68 1550.12 Q1124.58 1550.12 1121.84 1551.75 Q1119.1 1553.37 1119.1 1557.29 Q1119.1 1560.4 1121.14 1562.25 Q1123.21 1564.07 1126.74 1564.07 Q1131.61 1564.07 1134.54 1560.63 Q1137.5 1557.16 1137.5 1551.43 L1137.5 1550.12 L1131.68 1550.12 M1143.36 1547.71 L1143.36 1568.04 L1137.5 1568.04 L1137.5 1562.63 Q1135.5 1565.88 1132.5 1567.44 Q1129.51 1568.97 1125.18 1568.97 Q1119.71 1568.97 1116.46 1565.91 Q1113.25 1562.82 1113.25 1557.67 Q1113.25 1551.65 1117.26 1548.6 Q1121.3 1545.54 1129.29 1545.54 L1137.5 1545.54 L1137.5 1544.97 Q1137.5 1540.93 1134.83 1538.73 Q1132.19 1536.5 1127.38 1536.5 Q1124.32 1536.5 1121.43 1537.23 Q1118.53 1537.97 1115.86 1539.43 L1115.86 1534.02 Q1119.07 1532.78 1122.1 1532.17 Q1125.12 1531.54 1127.99 1531.54 Q1135.72 1531.54 1139.54 1535.55 Q1143.36 1539.56 1143.36 1547.71 Z" fill="#000000" fill-rule="nonzero" fill-opacity="1" /><path clip-path="url(#clip520)" d="M1176.08 1537.87 Q1175.09 1537.3 1173.91 1537.04 Q1172.77 1536.76 1171.37 1536.76 Q1166.4 1536.76 1163.73 1540 Q1161.09 1543.22 1161.09 1549.27 L1161.09 1568.04 L1155.2 1568.04 L1155.2 1532.4 L1161.09 1532.4 L1161.09 1537.93 Q1162.93 1534.69 1165.89 1533.13 Q1168.85 1531.54 1173.09 1531.54 Q1173.69 1531.54 1174.42 1531.63 Q1175.15 1531.7 1176.05 1531.85 L1176.08 1537.87 Z" fill="#000000" fill-rule="nonzero" fill-opacity="1" /><path clip-path="url(#clip520)" d="M1206.44 1533.76 L1206.44 1539.24 Q1203.96 1537.87 1201.45 1537.2 Q1198.96 1536.5 1196.42 1536.5 Q1190.72 1536.5 1187.57 1540.13 Q1184.42 1543.73 1184.42 1550.25 Q1184.42 1556.78 1187.57 1560.4 Q1190.72 1564 1196.42 1564 Q1198.96 1564 1201.45 1563.33 Q1203.96 1562.63 1206.44 1561.26 L1206.44 1566.68 Q1203.99 1567.82 1201.35 1568.39 Q1198.74 1568.97 1195.78 1568.97 Q1187.73 1568.97 1182.98 1563.91 Q1178.24 1558.85 1178.24 1550.25 Q1178.24 1541.53 1183.02 1536.53 Q1187.82 1531.54 1196.16 1531.54 Q1198.87 1531.54 1201.45 1532.11 Q1204.02 1532.65 1206.44 1533.76 Z" fill="#000000" fill-rule="nonzero" fill-opacity="1" /><path clip-path="url(#clip520)" d="M1237.35 1518.52 L1243.2 1518.52 L1243.2 1568.04 L1237.35 1568.04 L1237.35 1518.52 Z" fill="#000000" fill-rule="nonzero" fill-opacity="1" /><path clip-path="url(#clip520)" d="M1285.95 1548.76 L1285.95 1551.62 L1259.02 1551.62 Q1259.41 1557.67 1262.65 1560.85 Q1265.93 1564 1271.75 1564 Q1275.13 1564 1278.28 1563.17 Q1281.46 1562.35 1284.58 1560.69 L1284.58 1566.23 Q1281.43 1567.57 1278.12 1568.27 Q1274.81 1568.97 1271.4 1568.97 Q1262.87 1568.97 1257.88 1564 Q1252.91 1559.04 1252.91 1550.57 Q1252.91 1541.82 1257.62 1536.69 Q1262.37 1531.54 1270.39 1531.54 Q1277.58 1531.54 1281.75 1536.18 Q1285.95 1540.8 1285.95 1548.76 M1280.09 1547.04 Q1280.03 1542.23 1277.39 1539.37 Q1274.78 1536.5 1270.45 1536.5 Q1265.55 1536.5 1262.59 1539.27 Q1259.66 1542.04 1259.21 1547.07 L1280.09 1547.04 Z" fill="#000000" fill-rule="nonzero" fill-opacity="1" /><path clip-path="url(#clip520)" d="M1325.19 1546.53 L1325.19 1568.04 L1319.34 1568.04 L1319.34 1546.72 Q1319.34 1541.66 1317.36 1539.14 Q1315.39 1536.63 1311.44 1536.63 Q1306.7 1536.63 1303.97 1539.65 Q1301.23 1542.68 1301.23 1547.9 L1301.23 1568.04 L1295.34 1568.04 L1295.34 1532.4 L1301.23 1532.4 L1301.23 1537.93 Q1303.33 1534.72 1306.16 1533.13 Q1309.03 1531.54 1312.75 1531.54 Q1318.89 1531.54 1322.04 1535.36 Q1325.19 1539.14 1325.19 1546.53 Z" fill="#000000" fill-rule="nonzero" fill-opacity="1" /><path clip-path="url(#clip520)" d="M1360.33 1549.81 Q1360.33 1543.44 1357.69 1539.94 Q1355.08 1536.44 1350.34 1536.44 Q1345.63 1536.44 1342.99 1539.94 Q1340.38 1543.44 1340.38 1549.81 Q1340.38 1556.14 1342.99 1559.64 Q1345.63 1563.14 1350.34 1563.14 Q1355.08 1563.14 1357.69 1559.64 Q1360.33 1556.14 1360.33 1549.81 M1366.19 1563.62 Q1366.19 1572.72 1362.15 1577.15 Q1358.11 1581.6 1349.77 1581.6 Q1346.68 1581.6 1343.94 1581.13 Q1341.2 1580.68 1338.63 1579.72 L1338.63 1574.03 Q1341.2 1575.43 1343.72 1576.1 Q1346.23 1576.76 1348.84 1576.76 Q1354.6 1576.76 1357.47 1573.74 Q1360.33 1570.75 1360.33 1564.67 L1360.33 1561.77 Q1358.52 1564.92 1355.69 1566.48 Q1352.85 1568.04 1348.91 1568.04 Q1342.35 1568.04 1338.34 1563.05 Q1334.33 1558.05 1334.33 1549.81 Q1334.33 1541.53 1338.34 1536.53 Q1342.35 1531.54 1348.91 1531.54 Q1352.85 1531.54 1355.69 1533.1 Q1358.52 1534.66 1360.33 1537.81 L1360.33 1532.4 L1366.19 1532.4 L1366.19 1563.62 Z" fill="#000000" fill-rule="nonzero" fill-opacity="1" /><path clip-path="url(#clip520)" d="M1384.05 1522.27 L1384.05 1532.4 L1396.11 1532.4 L1396.11 1536.95 L1384.05 1536.95 L1384.05 1556.3 Q1384.05 1560.66 1385.22 1561.9 Q1386.43 1563.14 1390.09 1563.14 L1396.11 1563.14 L1396.11 1568.04 L1390.09 1568.04 Q1383.31 1568.04 1380.74 1565.53 Q1378.16 1562.98 1378.16 1556.3 L1378.16 1536.95 L1373.86 1536.95 L1373.86 1532.4 L1378.16 1532.4 L1378.16 1522.27 L1384.05 1522.27 Z" fill="#000000" fill-rule="nonzero" fill-opacity="1" /><path clip-path="url(#clip520)" d="M1433.44 1546.53 L1433.44 1568.04 L1427.59 1568.04 L1427.59 1546.72 Q1427.59 1541.66 1425.61 1539.14 Q1423.64 1536.63 1419.69 1536.63 Q1414.95 1536.63 1412.21 1539.65 Q1409.48 1542.68 1409.48 1547.9 L1409.48 1568.04 L1403.59 1568.04 L1403.59 1518.52 L1409.48 1518.52 L1409.48 1537.93 Q1411.58 1534.72 1414.41 1533.13 Q1417.27 1531.54 1421 1531.54 Q1427.14 1531.54 1430.29 1535.36 Q1433.44 1539.14 1433.44 1546.53 Z" fill="#000000" fill-rule="nonzero" fill-opacity="1" /><polyline clip-path="url(#clip520)" style="stroke:#000000; stroke-linecap:round; stroke-linejoin:round; stroke-width:4; stroke-opacity:1; fill:none" points="193.936,1423.18 193.936,47.2441 "/>
<polyline clip-path="url(#clip520)" style="stroke:#000000; stroke-linecap:round; stroke-linejoin:round; stroke-width:4; stroke-opacity:1; fill:none" points="193.936,1384.24 212.834,1384.24 "/>
<polyline clip-path="url(#clip520)" style="stroke:#000000; stroke-linecap:round; stroke-linejoin:round; stroke-width:4; stroke-opacity:1; fill:none" points="193.936,1059.73 212.834,1059.73 "/>
<polyline clip-path="url(#clip520)" style="stroke:#000000; stroke-linecap:round; stroke-linejoin:round; stroke-width:4; stroke-opacity:1; fill:none" points="193.936,735.212 212.834,735.212 "/>
<polyline clip-path="url(#clip520)" style="stroke:#000000; stroke-linecap:round; stroke-linejoin:round; stroke-width:4; stroke-opacity:1; fill:none" points="193.936,410.699 212.834,410.699 "/>
<polyline clip-path="url(#clip520)" style="stroke:#000000; stroke-linecap:round; stroke-linejoin:round; stroke-width:4; stroke-opacity:1; fill:none" points="193.936,86.1857 212.834,86.1857 "/>
<path clip-path="url(#clip520)" d="M50.9921 1384.69 L80.6679 1384.69 L80.6679 1388.62 L50.9921 1388.62 L50.9921 1384.69 Z" fill="#000000" fill-rule="nonzero" fill-opacity="1" /><path clip-path="url(#clip520)" d="M91.5706 1397.58 L99.2095 1397.58 L99.2095 1371.22 L90.8993 1372.88 L90.8993 1368.62 L99.1632 1366.96 L103.839 1366.96 L103.839 1397.58 L111.478 1397.58 L111.478 1401.52 L91.5706 1401.52 L91.5706 1397.58 Z" fill="#000000" fill-rule="nonzero" fill-opacity="1" /><path clip-path="url(#clip520)" d="M120.922 1395.64 L125.807 1395.64 L125.807 1401.52 L120.922 1401.52 L120.922 1395.64 Z" fill="#000000" fill-rule="nonzero" fill-opacity="1" /><path clip-path="url(#clip520)" d="M145.992 1370.04 Q142.381 1370.04 140.552 1373.6 Q138.746 1377.14 138.746 1384.27 Q138.746 1391.38 140.552 1394.94 Q142.381 1398.49 145.992 1398.49 Q149.626 1398.49 151.431 1394.94 Q153.26 1391.38 153.26 1384.27 Q153.26 1377.14 151.431 1373.6 Q149.626 1370.04 145.992 1370.04 M145.992 1366.33 Q151.802 1366.33 154.857 1370.94 Q157.936 1375.52 157.936 1384.27 Q157.936 1393 154.857 1397.61 Q151.802 1402.19 145.992 1402.19 Q140.181 1402.19 137.103 1397.61 Q134.047 1393 134.047 1384.27 Q134.047 1375.52 137.103 1370.94 Q140.181 1366.33 145.992 1366.33 Z" fill="#000000" fill-rule="nonzero" fill-opacity="1" /><path clip-path="url(#clip520)" d="M51.9875 1060.18 L81.6633 1060.18 L81.6633 1064.11 L51.9875 1064.11 L51.9875 1060.18 Z" fill="#000000" fill-rule="nonzero" fill-opacity="1" /><path clip-path="url(#clip520)" d="M101.756 1045.52 Q98.1447 1045.52 96.316 1049.09 Q94.5104 1052.63 94.5104 1059.76 Q94.5104 1066.87 96.316 1070.43 Q98.1447 1073.97 101.756 1073.97 Q105.39 1073.97 107.196 1070.43 Q109.024 1066.87 109.024 1059.76 Q109.024 1052.63 107.196 1049.09 Q105.39 1045.52 101.756 1045.52 M101.756 1041.82 Q107.566 1041.82 110.621 1046.43 Q113.7 1051.01 113.7 1059.76 Q113.7 1068.49 110.621 1073.09 Q107.566 1077.68 101.756 1077.68 Q95.9456 1077.68 92.8669 1073.09 Q89.8114 1068.49 89.8114 1059.76 Q89.8114 1051.01 92.8669 1046.43 Q95.9456 1041.82 101.756 1041.82 Z" fill="#000000" fill-rule="nonzero" fill-opacity="1" /><path clip-path="url(#clip520)" d="M121.918 1071.13 L126.802 1071.13 L126.802 1077.01 L121.918 1077.01 L121.918 1071.13 Z" fill="#000000" fill-rule="nonzero" fill-opacity="1" /><path clip-path="url(#clip520)" d="M137.033 1042.45 L155.39 1042.45 L155.39 1046.38 L141.316 1046.38 L141.316 1054.85 Q142.334 1054.51 143.353 1054.34 Q144.371 1054.16 145.39 1054.16 Q151.177 1054.16 154.556 1057.33 Q157.936 1060.5 157.936 1065.92 Q157.936 1071.5 154.464 1074.6 Q150.992 1077.68 144.672 1077.68 Q142.496 1077.68 140.228 1077.31 Q137.982 1076.94 135.575 1076.19 L135.575 1071.5 Q137.658 1072.63 139.881 1073.19 Q142.103 1073.74 144.58 1073.74 Q148.584 1073.74 150.922 1071.63 Q153.26 1069.53 153.26 1065.92 Q153.26 1062.31 150.922 1060.2 Q148.584 1058.09 144.58 1058.09 Q142.705 1058.09 140.83 1058.51 Q138.978 1058.93 137.033 1059.81 L137.033 1042.45 Z" fill="#000000" fill-rule="nonzero" fill-opacity="1" /><path clip-path="url(#clip520)" d="M100.76 721.011 Q97.1493 721.011 95.3206 724.575 Q93.515 728.117 93.515 735.247 Q93.515 742.353 95.3206 745.918 Q97.1493 749.46 100.76 749.46 Q104.395 749.46 106.2 745.918 Q108.029 742.353 108.029 735.247 Q108.029 728.117 106.2 724.575 Q104.395 721.011 100.76 721.011 M100.76 717.307 Q106.571 717.307 109.626 721.913 Q112.705 726.497 112.705 735.247 Q112.705 743.973 109.626 748.58 Q106.571 753.163 100.76 753.163 Q94.9502 753.163 91.8715 748.58 Q88.816 743.973 88.816 735.247 Q88.816 726.497 91.8715 721.913 Q94.9502 717.307 100.76 717.307 Z" fill="#000000" fill-rule="nonzero" fill-opacity="1" /><path clip-path="url(#clip520)" d="M120.922 746.612 L125.807 746.612 L125.807 752.492 L120.922 752.492 L120.922 746.612 Z" fill="#000000" fill-rule="nonzero" fill-opacity="1" /><path clip-path="url(#clip520)" d="M145.992 721.011 Q142.381 721.011 140.552 724.575 Q138.746 728.117 138.746 735.247 Q138.746 742.353 140.552 745.918 Q142.381 749.46 145.992 749.46 Q149.626 749.46 151.431 745.918 Q153.26 742.353 153.26 735.247 Q153.26 728.117 151.431 724.575 Q149.626 721.011 145.992 721.011 M145.992 717.307 Q151.802 717.307 154.857 721.913 Q157.936 726.497 157.936 735.247 Q157.936 743.973 154.857 748.58 Q151.802 753.163 145.992 753.163 Q140.181 753.163 137.103 748.58 Q134.047 743.973 134.047 735.247 Q134.047 726.497 137.103 721.913 Q140.181 717.307 145.992 717.307 Z" fill="#000000" fill-rule="nonzero" fill-opacity="1" /><path clip-path="url(#clip520)" d="M101.756 396.498 Q98.1447 396.498 96.316 400.062 Q94.5104 403.604 94.5104 410.734 Q94.5104 417.84 96.316 421.405 Q98.1447 424.946 101.756 424.946 Q105.39 424.946 107.196 421.405 Q109.024 417.84 109.024 410.734 Q109.024 403.604 107.196 400.062 Q105.39 396.498 101.756 396.498 M101.756 392.794 Q107.566 392.794 110.621 397.4 Q113.7 401.984 113.7 410.734 Q113.7 419.46 110.621 424.067 Q107.566 428.65 101.756 428.65 Q95.9456 428.65 92.8669 424.067 Q89.8114 419.46 89.8114 410.734 Q89.8114 401.984 92.8669 397.4 Q95.9456 392.794 101.756 392.794 Z" fill="#000000" fill-rule="nonzero" fill-opacity="1" /><path clip-path="url(#clip520)" d="M121.918 422.099 L126.802 422.099 L126.802 427.979 L121.918 427.979 L121.918 422.099 Z" fill="#000000" fill-rule="nonzero" fill-opacity="1" /><path clip-path="url(#clip520)" d="M137.033 393.419 L155.39 393.419 L155.39 397.354 L141.316 397.354 L141.316 405.826 Q142.334 405.479 143.353 405.317 Q144.371 405.132 145.39 405.132 Q151.177 405.132 154.556 408.303 Q157.936 411.474 157.936 416.891 Q157.936 422.47 154.464 425.571 Q150.992 428.65 144.672 428.65 Q142.496 428.65 140.228 428.28 Q137.982 427.909 135.575 427.169 L135.575 422.47 Q137.658 423.604 139.881 424.159 Q142.103 424.715 144.58 424.715 Q148.584 424.715 150.922 422.608 Q153.26 420.502 153.26 416.891 Q153.26 413.28 150.922 411.173 Q148.584 409.067 144.58 409.067 Q142.705 409.067 140.83 409.484 Q138.978 409.9 137.033 410.78 L137.033 393.419 Z" fill="#000000" fill-rule="nonzero" fill-opacity="1" /><path clip-path="url(#clip520)" d="M91.5706 99.5305 L99.2095 99.5305 L99.2095 73.1649 L90.8993 74.8316 L90.8993 70.5723 L99.1632 68.9057 L103.839 68.9057 L103.839 99.5305 L111.478 99.5305 L111.478 103.466 L91.5706 103.466 L91.5706 99.5305 Z" fill="#000000" fill-rule="nonzero" fill-opacity="1" /><path clip-path="url(#clip520)" d="M120.922 97.5861 L125.807 97.5861 L125.807 103.466 L120.922 103.466 L120.922 97.5861 Z" fill="#000000" fill-rule="nonzero" fill-opacity="1" /><path clip-path="url(#clip520)" d="M145.992 71.9844 Q142.381 71.9844 140.552 75.5492 Q138.746 79.0908 138.746 86.2204 Q138.746 93.3268 140.552 96.8916 Q142.381 100.433 145.992 100.433 Q149.626 100.433 151.431 96.8916 Q153.26 93.3268 153.26 86.2204 Q153.26 79.0908 151.431 75.5492 Q149.626 71.9844 145.992 71.9844 M145.992 68.2807 Q151.802 68.2807 154.857 72.8871 Q157.936 77.4704 157.936 86.2204 Q157.936 94.9472 154.857 99.5537 Q151.802 104.137 145.992 104.137 Q140.181 104.137 137.103 99.5537 Q134.047 94.9472 134.047 86.2204 Q134.047 77.4704 137.103 72.8871 Q140.181 68.2807 145.992 68.2807 Z" fill="#000000" fill-rule="nonzero" fill-opacity="1" /><polyline clip-path="url(#clip522)" style="stroke:#009af9; stroke-linecap:round; stroke-linejoin:round; stroke-width:4; stroke-opacity:1; fill:none" points="255.035,86.1857 264.168,86.441 273.3,87.2067 282.433,88.4822 291.566,90.2667 300.699,92.5583 309.832,95.3558 318.965,98.6564 328.097,102.458 337.23,106.757 346.363,111.551 355.496,116.836 364.629,122.607 373.762,128.86 382.894,135.59 392.027,142.791 401.16,150.46 410.293,158.587 419.426,167.169 428.559,176.197 437.691,185.666 446.824,195.566 455.957,205.892 465.09,216.633 474.223,227.783 483.356,239.331 492.488,251.271 501.621,263.59 510.754,276.281 519.887,289.333 529.02,302.736 538.153,316.478 547.285,330.551 556.418,344.941 565.551,359.639 574.684,374.632 583.817,389.909 592.95,405.457 602.082,421.266 611.215,437.32 620.348,453.61 629.481,470.121 638.614,486.841 647.747,503.755 656.879,520.852 666.012,538.118 675.145,555.539 684.278,573.1 693.411,590.79 702.544,608.593 711.677,626.496 720.809,644.484 729.942,662.544 739.075,680.661 748.208,698.821 757.341,717.009 766.474,735.212 775.606,753.415 784.739,771.603 793.872,789.763 803.005,807.88 812.138,825.94 821.271,843.928 830.403,861.831 839.536,879.634 848.669,897.323 857.802,914.886 866.935,932.306 876.068,949.572 885.2,966.669 894.333,983.584 903.466,1000.3 912.599,1016.81 921.732,1033.1 930.865,1049.16 939.997,1064.97 949.13,1080.51 958.263,1095.79 967.396,1110.79 976.529,1125.48 985.662,1139.87 994.794,1153.95 1003.93,1167.69 1013.06,1181.09 1022.19,1194.14 1031.33,1206.83 1040.46,1219.15 1049.59,1231.09 1058.72,1242.64 1067.86,1253.79 1076.99,1264.53 1086.12,1274.86 1095.26,1284.76 1104.39,1294.23 1113.52,1303.26 1122.65,1311.84 1131.79,1319.96 1140.92,1327.63 1150.05,1334.83 1159.19,1341.56 1168.32,1347.82 1177.45,1353.59 1186.58,1358.87 1195.72,1363.67 1204.85,1367.97 1213.98,1371.77 1223.12,1375.07 1232.25,1377.87 1241.38,1380.16 1250.51,1381.94 1259.65,1383.22 1268.78,1383.98 1277.91,1384.24 1287.05,1383.98 1296.18,1383.22 1305.31,1381.94 1314.44,1380.16 1323.58,1377.87 1332.71,1375.07 1341.84,1371.77 1350.98,1367.97 1360.11,1363.67 1369.24,1358.87 1378.37,1353.59 1387.51,1347.82 1396.64,1341.56 1405.77,1334.83 1414.9,1327.63 1424.04,1319.96 1433.17,1311.84 1442.3,1303.25 1451.44,1294.23 1460.57,1284.76 1469.7,1274.86 1478.83,1264.53 1487.97,1253.79 1497.1,1242.64 1506.23,1231.09 1515.37,1219.15 1524.5,1206.83 1533.63,1194.14 1542.76,1181.09 1551.9,1167.69 1561.03,1153.95 1570.16,1139.87 1579.3,1125.48 1588.43,1110.78 1597.56,1095.79 1606.69,1080.51 1615.83,1064.97 1624.96,1049.16 1634.09,1033.1 1643.23,1016.81 1652.36,1000.3 1661.49,983.583 1670.62,966.669 1679.76,949.572 1688.89,932.306 1698.02,914.885 1707.16,897.324 1716.29,879.634 1725.42,861.831 1734.55,843.928 1743.69,825.94 1752.82,807.88 1761.95,789.763 1771.09,771.603 1780.22,753.415 1789.35,735.212 1798.48,717.009 1807.62,698.821 1816.75,680.661 1825.88,662.544 1835.02,644.484 1844.15,626.496 1853.28,608.593 1862.41,590.79 1871.55,573.101 1880.68,555.538 1889.81,538.118 1898.95,520.852 1908.08,503.755 1917.21,486.84 1926.34,470.121 1935.48,453.61 1944.61,437.321 1953.74,421.265 1962.88,405.458 1972.01,389.909 1981.14,374.633 1990.27,359.639 1999.41,344.942 2008.54,330.55 2017.67,316.479 2026.8,302.735 2035.94,289.333 2045.07,276.281 2054.2,263.591 2063.34,251.27 2072.47,239.332 2081.6,227.783 2090.73,216.633 2099.87,205.891 2109,195.567 2118.13,185.665 2127.27,176.198 2136.4,167.169 2145.53,158.588 2154.66,150.459 2163.8,142.792 2172.93,135.59 2182.06,128.86 2191.2,122.607 2200.33,116.836 2209.46,111.551 2218.59,106.758 2227.73,102.458 2236.86,98.6566 2245.99,95.3557 2255.13,92.5584 2264.26,90.2666 2273.39,88.4823 2282.52,87.2067 2291.66,86.441 "/>
</svg>
