<?xml version="1.0" encoding="utf-8"?>
<svg xmlns="http://www.w3.org/2000/svg" xmlns:xlink="http://www.w3.org/1999/xlink" width="600" height="400" viewBox="0 0 2400 1600">
<defs>
  <clipPath id="clip460">
    <rect x="0" y="0" width="2400" height="1600"/>
  </clipPath>
</defs>
<path clip-path="url(#clip460)" d="M0 1600 L2400 1600 L2400 0 L0 0  Z" fill="#ffffff" fill-rule="evenodd" fill-opacity="1"/>
<defs>
  <clipPath id="clip461">
    <rect x="480" y="0" width="1681" height="1600"/>
  </clipPath>
</defs>
<path clip-path="url(#clip460)" d="M193.936 1486.45 L2352.76 1486.45 L2352.76 47.2441 L193.936 47.2441  Z" fill="#ffffff" fill-rule="evenodd" fill-opacity="1"/>
<defs>
  <clipPath id="clip462">
    <rect x="193" y="47" width="2160" height="1440"/>
  </clipPath>
</defs>
<polyline clip-path="url(#clip462)" style="stroke:#000000; stroke-linecap:round; stroke-linejoin:round; stroke-width:2; stroke-opacity:0.1; fill:none" points="252.759,1486.45 252.759,47.2441 "/>
<polyline clip-path="url(#clip462)" style="stroke:#000000; stroke-linecap:round; stroke-linejoin:round; stroke-width:2; stroke-opacity:0.1; fill:none" points="707.87,1486.45 707.87,47.2441 "/>
<polyline clip-path="url(#clip462)" style="stroke:#000000; stroke-linecap:round; stroke-linejoin:round; stroke-width:2; stroke-opacity:0.1; fill:none" points="1162.98,1486.45 1162.98,47.2441 "/>
<polyline clip-path="url(#clip462)" style="stroke:#000000; stroke-linecap:round; stroke-linejoin:round; stroke-width:2; stroke-opacity:0.1; fill:none" points="1618.09,1486.45 1618.09,47.2441 "/>
<polyline clip-path="url(#clip462)" style="stroke:#000000; stroke-linecap:round; stroke-linejoin:round; stroke-width:2; stroke-opacity:0.1; fill:none" points="2073.2,1486.45 2073.2,47.2441 "/>
<polyline clip-path="url(#clip462)" style="stroke:#000000; stroke-linecap:round; stroke-linejoin:round; stroke-width:2; stroke-opacity:0.1; fill:none" points="193.936,1445.72 2352.76,1445.72 "/>
<polyline clip-path="url(#clip462)" style="stroke:#000000; stroke-linecap:round; stroke-linejoin:round; stroke-width:2; stroke-opacity:0.1; fill:none" points="193.936,1106.28 2352.76,1106.28 "/>
<polyline clip-path="url(#clip462)" style="stroke:#000000; stroke-linecap:round; stroke-linejoin:round; stroke-width:2; stroke-opacity:0.1; fill:none" points="193.936,766.846 2352.76,766.846 "/>
<polyline clip-path="url(#clip462)" style="stroke:#000000; stroke-linecap:round; stroke-linejoin:round; stroke-width:2; stroke-opacity:0.1; fill:none" points="193.936,427.411 2352.76,427.411 "/>
<polyline clip-path="url(#clip462)" style="stroke:#000000; stroke-linecap:round; stroke-linejoin:round; stroke-width:2; stroke-opacity:0.1; fill:none" points="193.936,87.9763 2352.76,87.9763 "/>
<polyline clip-path="url(#clip460)" style="stroke:#000000; stroke-linecap:round; stroke-linejoin:round; stroke-width:4; stroke-opacity:1; fill:none" points="193.936,1486.45 2352.76,1486.45 "/>
<polyline clip-path="url(#clip460)" style="stroke:#000000; stroke-linecap:round; stroke-linejoin:round; stroke-width:4; stroke-opacity:1; fill:none" points="252.759,1486.45 252.759,1467.55 "/>
<polyline clip-path="url(#clip460)" style="stroke:#000000; stroke-linecap:round; stroke-linejoin:round; stroke-width:4; stroke-opacity:1; fill:none" points="707.87,1486.45 707.87,1467.55 "/>
<polyline clip-path="url(#clip460)" style="stroke:#000000; stroke-linecap:round; stroke-linejoin:round; stroke-width:4; stroke-opacity:1; fill:none" points="1162.98,1486.45 1162.98,1467.55 "/>
<polyline clip-path="url(#clip460)" style="stroke:#000000; stroke-linecap:round; stroke-linejoin:round; stroke-width:4; stroke-opacity:1; fill:none" points="1618.09,1486.45 1618.09,1467.55 "/>
<polyline clip-path="url(#clip460)" style="stroke:#000000; stroke-linecap:round; stroke-linejoin:round; stroke-width:4; stroke-opacity:1; fill:none" points="2073.2,1486.45 2073.2,1467.55 "/>
<path clip-path="url(#clip460)" d="M252.759 1517.37 Q249.148 1517.37 247.319 1520.93 Q245.514 1524.47 245.514 1531.6 Q245.514 1538.71 247.319 1542.27 Q249.148 1545.82 252.759 1545.82 Q256.393 1545.82 258.199 1542.27 Q260.028 1538.71 260.028 1531.6 Q260.028 1524.47 258.199 1520.93 Q256.393 1517.37 252.759 1517.37 M252.759 1513.66 Q258.569 1513.66 261.625 1518.27 Q264.703 1522.85 264.703 1531.6 Q264.703 1540.33 261.625 1544.94 Q258.569 1549.52 252.759 1549.52 Q246.949 1549.52 243.87 1544.94 Q240.815 1540.33 240.815 1531.6 Q240.815 1522.85 243.87 1518.27 Q246.949 1513.66 252.759 1513.66 Z" fill="#000000" fill-rule="nonzero" fill-opacity="1" /><path clip-path="url(#clip460)" d="M671.563 1544.91 L687.882 1544.91 L687.882 1548.85 L665.938 1548.85 L665.938 1544.91 Q668.6 1542.16 673.183 1537.53 Q677.789 1532.88 678.97 1531.53 Q681.215 1529.01 682.095 1527.27 Q682.998 1525.51 682.998 1523.82 Q682.998 1521.07 681.053 1519.33 Q679.132 1517.6 676.03 1517.6 Q673.831 1517.6 671.377 1518.36 Q668.947 1519.13 666.169 1520.68 L666.169 1515.95 Q668.993 1514.82 671.447 1514.24 Q673.901 1513.66 675.938 1513.66 Q681.308 1513.66 684.502 1516.35 Q687.697 1519.03 687.697 1523.52 Q687.697 1525.65 686.887 1527.57 Q686.1 1529.47 683.993 1532.07 Q683.414 1532.74 680.313 1535.95 Q677.211 1539.15 671.563 1544.91 Z" fill="#000000" fill-rule="nonzero" fill-opacity="1" /><path clip-path="url(#clip460)" d="M707.697 1517.37 Q704.086 1517.37 702.257 1520.93 Q700.451 1524.47 700.451 1531.6 Q700.451 1538.71 702.257 1542.27 Q704.086 1545.82 707.697 1545.82 Q711.331 1545.82 713.136 1542.27 Q714.965 1538.71 714.965 1531.6 Q714.965 1524.47 713.136 1520.93 Q711.331 1517.37 707.697 1517.37 M707.697 1513.66 Q713.507 1513.66 716.562 1518.27 Q719.641 1522.85 719.641 1531.6 Q719.641 1540.33 716.562 1544.94 Q713.507 1549.52 707.697 1549.52 Q701.887 1549.52 698.808 1544.94 Q695.752 1540.33 695.752 1531.6 Q695.752 1522.85 698.808 1518.27 Q701.887 1513.66 707.697 1513.66 Z" fill="#000000" fill-rule="nonzero" fill-opacity="1" /><path clip-path="url(#clip460)" d="M737.859 1517.37 Q734.247 1517.37 732.419 1520.93 Q730.613 1524.47 730.613 1531.6 Q730.613 1538.71 732.419 1542.27 Q734.247 1545.82 737.859 1545.82 Q741.493 1545.82 743.298 1542.27 Q745.127 1538.71 745.127 1531.6 Q745.127 1524.47 743.298 1520.93 Q741.493 1517.37 737.859 1517.37 M737.859 1513.66 Q743.669 1513.66 746.724 1518.27 Q749.803 1522.85 749.803 1531.6 Q749.803 1540.33 746.724 1544.94 Q743.669 1549.52 737.859 1549.52 Q732.048 1549.52 728.97 1544.94 Q725.914 1540.33 725.914 1531.6 Q725.914 1522.85 728.97 1518.27 Q732.048 1513.66 737.859 1513.66 Z" fill="#000000" fill-rule="nonzero" fill-opacity="1" /><path clip-path="url(#clip460)" d="M1136.07 1518.36 L1124.27 1536.81 L1136.07 1536.81 L1136.07 1518.36 M1134.85 1514.29 L1140.72 1514.29 L1140.72 1536.81 L1145.66 1536.81 L1145.66 1540.7 L1140.72 1540.7 L1140.72 1548.85 L1136.07 1548.85 L1136.07 1540.7 L1120.47 1540.7 L1120.47 1536.19 L1134.85 1514.29 Z" fill="#000000" fill-rule="nonzero" fill-opacity="1" /><path clip-path="url(#clip460)" d="M1163.39 1517.37 Q1159.78 1517.37 1157.95 1520.93 Q1156.14 1524.47 1156.14 1531.6 Q1156.14 1538.71 1157.95 1542.27 Q1159.78 1545.82 1163.39 1545.82 Q1167.02 1545.82 1168.83 1542.27 Q1170.66 1538.71 1170.66 1531.6 Q1170.66 1524.47 1168.83 1520.93 Q1167.02 1517.37 1163.39 1517.37 M1163.39 1513.66 Q1169.2 1513.66 1172.25 1518.27 Q1175.33 1522.85 1175.33 1531.6 Q1175.33 1540.33 1172.25 1544.94 Q1169.2 1549.52 1163.39 1549.52 Q1157.58 1549.52 1154.5 1544.94 Q1151.44 1540.33 1151.44 1531.6 Q1151.44 1522.85 1154.5 1518.27 Q1157.58 1513.66 1163.39 1513.66 Z" fill="#000000" fill-rule="nonzero" fill-opacity="1" /><path clip-path="url(#clip460)" d="M1193.55 1517.37 Q1189.94 1517.37 1188.11 1520.93 Q1186.3 1524.47 1186.3 1531.6 Q1186.3 1538.71 1188.11 1542.27 Q1189.94 1545.82 1193.55 1545.82 Q1197.18 1545.82 1198.99 1542.27 Q1200.82 1538.71 1200.82 1531.6 Q1200.82 1524.47 1198.99 1520.93 Q1197.18 1517.37 1193.55 1517.37 M1193.55 1513.66 Q1199.36 1513.66 1202.41 1518.27 Q1205.49 1522.85 1205.49 1531.6 Q1205.49 1540.33 1202.41 1544.94 Q1199.36 1549.52 1193.55 1549.52 Q1187.74 1549.52 1184.66 1544.94 Q1181.6 1540.33 1181.6 1531.6 Q1181.6 1522.85 1184.66 1518.27 Q1187.74 1513.66 1193.55 1513.66 Z" fill="#000000" fill-rule="nonzero" fill-opacity="1" /><path clip-path="url(#clip460)" d="M1588.42 1529.7 Q1585.27 1529.7 1583.42 1531.86 Q1581.59 1534.01 1581.59 1537.76 Q1581.59 1541.49 1583.42 1543.66 Q1585.27 1545.82 1588.42 1545.82 Q1591.57 1545.82 1593.39 1543.66 Q1595.25 1541.49 1595.25 1537.76 Q1595.25 1534.01 1593.39 1531.86 Q1591.57 1529.7 1588.42 1529.7 M1597.7 1515.05 L1597.7 1519.31 Q1595.94 1518.48 1594.13 1518.04 Q1592.35 1517.6 1590.59 1517.6 Q1585.96 1517.6 1583.51 1520.72 Q1581.08 1523.85 1580.73 1530.17 Q1582.1 1528.15 1584.16 1527.09 Q1586.22 1526 1588.69 1526 Q1593.9 1526 1596.91 1529.17 Q1599.94 1532.32 1599.94 1537.76 Q1599.94 1543.08 1596.8 1546.3 Q1593.65 1549.52 1588.42 1549.52 Q1582.42 1549.52 1579.25 1544.94 Q1576.08 1540.33 1576.08 1531.6 Q1576.08 1523.41 1579.97 1518.55 Q1583.86 1513.66 1590.41 1513.66 Q1592.17 1513.66 1593.95 1514.01 Q1595.75 1514.36 1597.7 1515.05 Z" fill="#000000" fill-rule="nonzero" fill-opacity="1" /><path clip-path="url(#clip460)" d="M1618 1517.37 Q1614.39 1517.37 1612.56 1520.93 Q1610.75 1524.47 1610.75 1531.6 Q1610.75 1538.71 1612.56 1542.27 Q1614.39 1545.82 1618 1545.82 Q1621.63 1545.82 1623.44 1542.27 Q1625.27 1538.71 1625.27 1531.6 Q1625.27 1524.47 1623.44 1520.93 Q1621.63 1517.37 1618 1517.37 M1618 1513.66 Q1623.81 1513.66 1626.87 1518.27 Q1629.94 1522.85 1629.94 1531.6 Q1629.94 1540.33 1626.87 1544.94 Q1623.81 1549.52 1618 1549.52 Q1612.19 1549.52 1609.11 1544.94 Q1606.06 1540.33 1606.06 1531.6 Q1606.06 1522.85 1609.11 1518.27 Q1612.19 1513.66 1618 1513.66 Z" fill="#000000" fill-rule="nonzero" fill-opacity="1" /><path clip-path="url(#clip460)" d="M1648.16 1517.37 Q1644.55 1517.37 1642.72 1520.93 Q1640.92 1524.47 1640.92 1531.6 Q1640.92 1538.71 1642.72 1542.27 Q1644.55 1545.82 1648.16 1545.82 Q1651.8 1545.82 1653.6 1542.27 Q1655.43 1538.71 1655.43 1531.6 Q1655.43 1524.47 1653.6 1520.93 Q1651.8 1517.37 1648.16 1517.37 M1648.16 1513.66 Q1653.97 1513.66 1657.03 1518.27 Q1660.11 1522.85 1660.11 1531.6 Q1660.11 1540.33 1657.03 1544.94 Q1653.97 1549.52 1648.16 1549.52 Q1642.35 1549.52 1639.27 1544.94 Q1636.22 1540.33 1636.22 1531.6 Q1636.22 1522.85 1639.27 1518.27 Q1642.35 1513.66 1648.16 1513.66 Z" fill="#000000" fill-rule="nonzero" fill-opacity="1" /><path clip-path="url(#clip460)" d="M2043 1532.44 Q2039.66 1532.44 2037.74 1534.22 Q2035.84 1536 2035.84 1539.13 Q2035.84 1542.25 2037.74 1544.03 Q2039.66 1545.82 2043 1545.82 Q2046.33 1545.82 2048.25 1544.03 Q2050.17 1542.23 2050.17 1539.13 Q2050.17 1536 2048.25 1534.22 Q2046.35 1532.44 2043 1532.44 M2038.32 1530.45 Q2035.31 1529.7 2033.62 1527.64 Q2031.95 1525.58 2031.95 1522.62 Q2031.95 1518.48 2034.89 1516.07 Q2037.86 1513.66 2043 1513.66 Q2048.16 1513.66 2051.1 1516.07 Q2054.04 1518.48 2054.04 1522.62 Q2054.04 1525.58 2052.35 1527.64 Q2050.68 1529.7 2047.69 1530.45 Q2051.07 1531.23 2052.95 1533.52 Q2054.85 1535.82 2054.85 1539.13 Q2054.85 1544.15 2051.77 1546.83 Q2048.71 1549.52 2043 1549.52 Q2037.28 1549.52 2034.2 1546.83 Q2031.14 1544.15 2031.14 1539.13 Q2031.14 1535.82 2033.04 1533.52 Q2034.94 1531.23 2038.32 1530.45 M2036.61 1523.06 Q2036.61 1525.75 2038.27 1527.25 Q2039.96 1528.76 2043 1528.76 Q2046 1528.76 2047.69 1527.25 Q2049.41 1525.75 2049.41 1523.06 Q2049.41 1520.38 2047.69 1518.87 Q2046 1517.37 2043 1517.37 Q2039.96 1517.37 2038.27 1518.87 Q2036.61 1520.38 2036.61 1523.06 Z" fill="#000000" fill-rule="nonzero" fill-opacity="1" /><path clip-path="url(#clip460)" d="M2073.16 1517.37 Q2069.55 1517.37 2067.72 1520.93 Q2065.91 1524.47 2065.91 1531.6 Q2065.91 1538.71 2067.72 1542.27 Q2069.55 1545.82 2073.16 1545.82 Q2076.79 1545.82 2078.6 1542.27 Q2080.43 1538.71 2080.43 1531.6 Q2080.43 1524.47 2078.6 1520.93 Q2076.79 1517.37 2073.16 1517.37 M2073.16 1513.66 Q2078.97 1513.66 2082.02 1518.27 Q2085.1 1522.85 2085.1 1531.6 Q2085.1 1540.33 2082.02 1544.94 Q2078.97 1549.52 2073.16 1549.52 Q2067.35 1549.52 2064.27 1544.94 Q2061.21 1540.33 2061.21 1531.6 Q2061.21 1522.85 2064.27 1518.27 Q2067.35 1513.66 2073.16 1513.66 Z" fill="#000000" fill-rule="nonzero" fill-opacity="1" /><path clip-path="url(#clip460)" d="M2103.32 1517.37 Q2099.71 1517.37 2097.88 1520.93 Q2096.07 1524.47 2096.07 1531.6 Q2096.07 1538.71 2097.88 1542.27 Q2099.71 1545.82 2103.32 1545.82 Q2106.95 1545.82 2108.76 1542.27 Q2110.59 1538.71 2110.59 1531.6 Q2110.59 1524.47 2108.76 1520.93 Q2106.95 1517.37 2103.32 1517.37 M2103.32 1513.66 Q2109.13 1513.66 2112.19 1518.27 Q2115.26 1522.85 2115.26 1531.6 Q2115.26 1540.33 2112.19 1544.94 Q2109.13 1549.52 2103.32 1549.52 Q2097.51 1549.52 2094.43 1544.94 Q2091.38 1540.33 2091.38 1531.6 Q2091.38 1522.85 2094.43 1518.27 Q2097.51 1513.66 2103.32 1513.66 Z" fill="#000000" fill-rule="nonzero" fill-opacity="1" /><polyline clip-path="url(#clip460)" style="stroke:#000000; stroke-linecap:round; stroke-linejoin:round; stroke-width:4; stroke-opacity:1; fill:none" points="193.936,1486.45 193.936,47.2441 "/>
<polyline clip-path="url(#clip460)" style="stroke:#000000; stroke-linecap:round; stroke-linejoin:round; stroke-width:4; stroke-opacity:1; fill:none" points="193.936,1445.72 212.834,1445.72 "/>
<polyline clip-path="url(#clip460)" style="stroke:#000000; stroke-linecap:round; stroke-linejoin:round; stroke-width:4; stroke-opacity:1; fill:none" points="193.936,1106.28 212.834,1106.28 "/>
<polyline clip-path="url(#clip460)" style="stroke:#000000; stroke-linecap:round; stroke-linejoin:round; stroke-width:4; stroke-opacity:1; fill:none" points="193.936,766.846 212.834,766.846 "/>
<polyline clip-path="url(#clip460)" style="stroke:#000000; stroke-linecap:round; stroke-linejoin:round; stroke-width:4; stroke-opacity:1; fill:none" points="193.936,427.411 212.834,427.411 "/>
<polyline clip-path="url(#clip460)" style="stroke:#000000; stroke-linecap:round; stroke-linejoin:round; stroke-width:4; stroke-opacity:1; fill:none" points="193.936,87.9763 212.834,87.9763 "/>
<path clip-path="url(#clip460)" d="M50.9921 1446.17 L80.6679 1446.17 L80.6679 1450.1 L50.9921 1450.1 L50.9921 1446.17 Z" fill="#000000" fill-rule="nonzero" fill-opacity="1" /><path clip-path="url(#clip460)" d="M91.5706 1459.06 L99.2095 1459.06 L99.2095 1432.69 L90.8993 1434.36 L90.8993 1430.1 L99.1632 1428.44 L103.839 1428.44 L103.839 1459.06 L111.478 1459.06 L111.478 1463 L91.5706 1463 L91.5706 1459.06 Z" fill="#000000" fill-rule="nonzero" fill-opacity="1" /><path clip-path="url(#clip460)" d="M120.922 1457.12 L125.807 1457.12 L125.807 1463 L120.922 1463 L120.922 1457.12 Z" fill="#000000" fill-rule="nonzero" fill-opacity="1" /><path clip-path="url(#clip460)" d="M145.992 1431.51 Q142.381 1431.51 140.552 1435.08 Q138.746 1438.62 138.746 1445.75 Q138.746 1452.86 140.552 1456.42 Q142.381 1459.96 145.992 1459.96 Q149.626 1459.96 151.431 1456.42 Q153.26 1452.86 153.26 1445.75 Q153.26 1438.62 151.431 1435.08 Q149.626 1431.51 145.992 1431.51 M145.992 1427.81 Q151.802 1427.81 154.857 1432.42 Q157.936 1437 157.936 1445.75 Q157.936 1454.48 154.857 1459.08 Q151.802 1463.67 145.992 1463.67 Q140.181 1463.67 137.103 1459.08 Q134.047 1454.48 134.047 1445.75 Q134.047 1437 137.103 1432.42 Q140.181 1427.81 145.992 1427.81 Z" fill="#000000" fill-rule="nonzero" fill-opacity="1" /><path clip-path="url(#clip460)" d="M51.9875 1106.73 L81.6633 1106.73 L81.6633 1110.67 L51.9875 1110.67 L51.9875 1106.73 Z" fill="#000000" fill-rule="nonzero" fill-opacity="1" /><path clip-path="url(#clip460)" d="M101.756 1092.08 Q98.1447 1092.08 96.316 1095.64 Q94.5104 1099.19 94.5104 1106.32 Q94.5104 1113.42 96.316 1116.99 Q98.1447 1120.53 101.756 1120.53 Q105.39 1120.53 107.196 1116.99 Q109.024 1113.42 109.024 1106.32 Q109.024 1099.19 107.196 1095.64 Q105.39 1092.08 101.756 1092.08 M101.756 1088.38 Q107.566 1088.38 110.621 1092.98 Q113.7 1097.57 113.7 1106.32 Q113.7 1115.04 110.621 1119.65 Q107.566 1124.23 101.756 1124.23 Q95.9456 1124.23 92.8669 1119.65 Q89.8114 1115.04 89.8114 1106.32 Q89.8114 1097.57 92.8669 1092.98 Q95.9456 1088.38 101.756 1088.38 Z" fill="#000000" fill-rule="nonzero" fill-opacity="1" /><path clip-path="url(#clip460)" d="M121.918 1117.68 L126.802 1117.68 L126.802 1123.56 L121.918 1123.56 L121.918 1117.68 Z" fill="#000000" fill-rule="nonzero" fill-opacity="1" /><path clip-path="url(#clip460)" d="M137.033 1089 L155.39 1089 L155.39 1092.94 L141.316 1092.94 L141.316 1101.41 Q142.334 1101.06 143.353 1100.9 Q144.371 1100.71 145.39 1100.71 Q151.177 1100.71 154.556 1103.89 Q157.936 1107.06 157.936 1112.47 Q157.936 1118.05 154.464 1121.15 Q150.992 1124.23 144.672 1124.23 Q142.496 1124.23 140.228 1123.86 Q137.982 1123.49 135.575 1122.75 L135.575 1118.05 Q137.658 1119.19 139.881 1119.74 Q142.103 1120.3 144.58 1120.3 Q148.584 1120.3 150.922 1118.19 Q153.26 1116.08 153.26 1112.47 Q153.26 1108.86 150.922 1106.76 Q148.584 1104.65 144.58 1104.65 Q142.705 1104.65 140.83 1105.07 Q138.978 1105.48 137.033 1106.36 L137.033 1089 Z" fill="#000000" fill-rule="nonzero" fill-opacity="1" /><path clip-path="url(#clip460)" d="M100.76 752.645 Q97.1493 752.645 95.3206 756.209 Q93.515 759.751 93.515 766.881 Q93.515 773.987 95.3206 777.552 Q97.1493 781.094 100.76 781.094 Q104.395 781.094 106.2 777.552 Q108.029 773.987 108.029 766.881 Q108.029 759.751 106.2 756.209 Q104.395 752.645 100.76 752.645 M100.76 748.941 Q106.571 748.941 109.626 753.547 Q112.705 758.131 112.705 766.881 Q112.705 775.608 109.626 780.214 Q106.571 784.797 100.76 784.797 Q94.9502 784.797 91.8715 780.214 Q88.816 775.608 88.816 766.881 Q88.816 758.131 91.8715 753.547 Q94.9502 748.941 100.76 748.941 Z" fill="#000000" fill-rule="nonzero" fill-opacity="1" /><path clip-path="url(#clip460)" d="M120.922 778.246 L125.807 778.246 L125.807 784.126 L120.922 784.126 L120.922 778.246 Z" fill="#000000" fill-rule="nonzero" fill-opacity="1" /><path clip-path="url(#clip460)" d="M145.992 752.645 Q142.381 752.645 140.552 756.209 Q138.746 759.751 138.746 766.881 Q138.746 773.987 140.552 777.552 Q142.381 781.094 145.992 781.094 Q149.626 781.094 151.431 777.552 Q153.26 773.987 153.26 766.881 Q153.26 759.751 151.431 756.209 Q149.626 752.645 145.992 752.645 M145.992 748.941 Q151.802 748.941 154.857 753.547 Q157.936 758.131 157.936 766.881 Q157.936 775.608 154.857 780.214 Q151.802 784.797 145.992 784.797 Q140.181 784.797 137.103 780.214 Q134.047 775.608 134.047 766.881 Q134.047 758.131 137.103 753.547 Q140.181 748.941 145.992 748.941 Z" fill="#000000" fill-rule="nonzero" fill-opacity="1" /><path clip-path="url(#clip460)" d="M101.756 413.21 Q98.1447 413.21 96.316 416.775 Q94.5104 420.316 94.5104 427.446 Q94.5104 434.552 96.316 438.117 Q98.1447 441.659 101.756 441.659 Q105.39 441.659 107.196 438.117 Q109.024 434.552 109.024 427.446 Q109.024 420.316 107.196 416.775 Q105.39 413.21 101.756 413.21 M101.756 409.506 Q107.566 409.506 110.621 414.113 Q113.7 418.696 113.7 427.446 Q113.7 436.173 110.621 440.779 Q107.566 445.362 101.756 445.362 Q95.9456 445.362 92.8669 440.779 Q89.8114 436.173 89.8114 427.446 Q89.8114 418.696 92.8669 414.113 Q95.9456 409.506 101.756 409.506 Z" fill="#000000" fill-rule="nonzero" fill-opacity="1" /><path clip-path="url(#clip460)" d="M121.918 438.812 L126.802 438.812 L126.802 444.691 L121.918 444.691 L121.918 438.812 Z" fill="#000000" fill-rule="nonzero" fill-opacity="1" /><path clip-path="url(#clip460)" d="M137.033 410.131 L155.39 410.131 L155.39 414.066 L141.316 414.066 L141.316 422.538 Q142.334 422.191 143.353 422.029 Q144.371 421.844 145.39 421.844 Q151.177 421.844 154.556 425.015 Q157.936 428.187 157.936 433.603 Q157.936 439.182 154.464 442.284 Q150.992 445.362 144.672 445.362 Q142.496 445.362 140.228 444.992 Q137.982 444.622 135.575 443.881 L135.575 439.182 Q137.658 440.316 139.881 440.872 Q142.103 441.427 144.58 441.427 Q148.584 441.427 150.922 439.321 Q153.26 437.214 153.26 433.603 Q153.26 429.992 150.922 427.886 Q148.584 425.779 144.58 425.779 Q142.705 425.779 140.83 426.196 Q138.978 426.613 137.033 427.492 L137.033 410.131 Z" fill="#000000" fill-rule="nonzero" fill-opacity="1" /><path clip-path="url(#clip460)" d="M91.5706 101.321 L99.2095 101.321 L99.2095 74.9555 L90.8993 76.6222 L90.8993 72.3629 L99.1632 70.6963 L103.839 70.6963 L103.839 101.321 L111.478 101.321 L111.478 105.256 L91.5706 105.256 L91.5706 101.321 Z" fill="#000000" fill-rule="nonzero" fill-opacity="1" /><path clip-path="url(#clip460)" d="M120.922 99.3767 L125.807 99.3767 L125.807 105.256 L120.922 105.256 L120.922 99.3767 Z" fill="#000000" fill-rule="nonzero" fill-opacity="1" /><path clip-path="url(#clip460)" d="M145.992 73.775 Q142.381 73.775 140.552 77.3398 Q138.746 80.8814 138.746 88.011 Q138.746 95.1174 140.552 98.6822 Q142.381 102.224 145.992 102.224 Q149.626 102.224 151.431 98.6822 Q153.26 95.1174 153.26 88.011 Q153.26 80.8814 151.431 77.3398 Q149.626 73.775 145.992 73.775 M145.992 70.0713 Q151.802 70.0713 154.857 74.6777 Q157.936 79.261 157.936 88.011 Q157.936 96.7378 154.857 101.344 Q151.802 105.928 145.992 105.928 Q140.181 105.928 137.103 101.344 Q134.047 96.7378 134.047 88.011 Q134.047 79.261 137.103 74.6777 Q140.181 70.0713 145.992 70.0713 Z" fill="#000000" fill-rule="nonzero" fill-opacity="1" /><polyline clip-path="url(#clip462)" style="stroke:#009af9; stroke-linecap:round; stroke-linejoin:round; stroke-width:4; stroke-opacity:1; fill:none" points="255.035,766.846 257.31,766.846 259.586,766.846 261.861,766.846 264.137,766.846 266.412,766.846 268.688,766.846 270.964,766.846 273.239,766.846 275.515,766.846 277.79,766.846 280.066,766.846 282.341,766.846 284.617,766.846 286.892,766.846 289.168,766.846 291.444,766.846 293.719,766.846 295.995,766.846 298.27,766.846 300.546,766.846 302.821,766.846 305.097,766.846 307.372,766.846 309.648,766.846 311.924,766.846 314.199,766.846 316.475,766.846 318.75,766.846 321.026,766.846 323.301,766.846 325.577,766.846 327.852,766.846 330.128,766.846 332.404,766.846 334.679,766.846 336.955,766.846 339.23,766.846 341.506,766.846 343.781,766.846 346.057,766.846 348.332,766.846 350.608,766.846 352.884,766.846 355.159,766.846 357.435,766.846 359.71,766.846 361.986,766.846 364.261,766.846 366.537,766.846 368.812,766.846 371.088,766.846 373.364,766.846 375.639,766.846 377.915,766.846 380.19,766.846 382.466,766.846 384.741,766.846 387.017,766.846 389.292,766.846 391.568,766.846 393.844,766.846 396.119,766.846 398.395,766.846 400.67,766.846 402.946,766.846 405.221,766.846 407.497,766.846 409.772,766.846 412.048,766.846 414.324,766.846 416.599,766.846 418.875,766.846 421.15,766.846 423.426,766.846 425.701,766.846 427.977,766.846 430.252,766.846 432.528,766.846 434.804,766.846 437.079,766.846 439.355,766.846 441.63,766.846 443.906,766.846 446.181,766.846 448.457,766.846 450.732,766.846 453.008,766.846 455.284,766.846 457.559,766.846 459.835,766.846 462.11,766.846 464.386,766.846 466.661,766.846 468.937,766.846 471.212,766.846 473.488,766.846 475.764,766.846 478.039,766.846 480.315,766.846 482.59,766.846 484.866,766.846 487.141,766.846 489.417,766.846 491.692,766.846 493.968,766.846 496.244,766.846 498.519,766.846 500.795,766.846 503.07,766.846 505.346,766.846 507.621,766.846 509.897,766.846 512.172,766.846 514.448,766.846 516.724,766.846 518.999,766.846 521.275,766.846 523.55,766.846 525.826,766.846 528.101,766.846 530.377,766.846 532.652,766.846 534.928,766.846 537.204,766.846 539.479,766.846 541.755,766.846 544.03,766.846 546.306,766.846 548.581,766.846 550.857,766.846 553.133,766.846 555.408,766.846 557.684,766.846 559.959,766.846 562.235,766.846 564.51,766.846 566.786,766.846 569.061,766.846 571.337,766.846 573.613,766.846 575.888,766.846 578.164,766.846 580.439,766.846 582.715,766.846 584.99,766.846 587.266,766.846 589.541,766.846 591.817,766.846 594.093,766.846 596.368,766.846 598.644,766.846 600.919,766.846 603.195,766.846 605.47,766.846 607.746,766.846 610.021,766.846 612.297,766.846 614.573,766.846 616.848,766.846 619.124,766.846 621.399,766.846 623.675,766.846 625.95,766.846 628.226,766.846 630.501,766.846 632.777,766.846 635.053,766.846 637.328,766.846 639.604,766.846 641.879,766.846 644.155,766.846 646.43,766.846 648.706,766.846 650.981,766.846 653.257,766.846 655.533,766.846 657.808,766.846 660.084,766.846 662.359,766.846 664.635,766.846 666.91,766.846 669.186,766.846 671.461,766.846 673.737,766.846 676.013,766.846 678.288,766.846 680.564,766.846 682.839,766.846 685.115,766.846 687.39,766.846 689.666,766.846 691.941,766.846 694.217,766.846 696.493,766.846 698.768,766.846 701.044,766.846 703.319,766.846 705.595,766.846 707.87,766.846 710.146,766.846 712.421,766.846 714.697,766.846 716.973,766.846 719.248,766.846 721.524,766.846 723.799,766.846 726.075,766.846 728.35,766.846 730.626,766.846 732.901,766.846 735.177,766.846 737.453,766.846 739.728,766.846 742.004,766.846 744.279,766.846 746.555,766.846 748.83,766.846 751.106,766.846 753.381,766.846 755.657,766.846 757.933,766.846 760.208,766.846 762.484,766.846 764.759,766.846 767.035,766.846 769.31,766.846 771.586,766.846 773.861,766.846 776.137,766.846 778.413,766.846 780.688,766.846 782.964,766.846 785.239,766.846 787.515,766.846 789.79,766.846 792.066,766.846 794.341,766.846 796.617,766.846 798.893,766.846 801.168,766.846 803.444,766.846 805.719,766.846 807.995,766.846 810.27,766.846 812.546,766.846 814.821,766.846 817.097,766.846 819.373,766.846 821.648,766.846 823.924,766.846 826.199,766.846 828.475,766.846 830.75,766.846 833.026,766.846 835.301,766.846 837.577,766.846 839.853,766.846 842.128,766.846 844.404,766.846 846.679,766.846 848.955,766.846 851.23,766.846 853.506,766.846 855.781,766.846 858.057,766.846 860.333,766.846 862.608,766.846 864.884,766.846 867.159,766.846 869.435,766.846 871.71,766.846 873.986,766.846 876.261,766.846 878.537,766.846 880.813,766.846 883.088,766.846 885.364,766.846 887.639,766.846 889.915,766.846 892.19,766.846 894.466,766.846 896.741,766.846 899.017,766.846 901.293,766.846 903.568,766.846 905.844,766.846 908.119,766.846 910.395,766.846 912.67,766.846 914.946,766.846 917.221,766.846 919.497,766.846 921.773,766.846 924.048,766.846 926.324,766.846 928.599,766.846 930.875,766.846 933.15,766.846 935.426,766.846 937.701,766.846 939.977,766.846 942.253,766.846 944.528,766.846 946.804,766.846 949.079,766.846 951.355,766.846 953.63,766.846 955.906,766.846 958.181,766.846 960.457,766.846 962.733,766.846 965.008,766.846 967.284,766.846 969.559,766.846 971.835,766.846 974.11,766.846 976.386,766.846 978.661,766.846 980.937,766.846 983.213,766.846 985.488,766.846 987.764,766.846 990.039,766.846 992.315,766.846 994.59,766.846 996.866,766.846 999.141,766.846 1001.42,766.846 1003.69,766.846 1005.97,766.846 1008.24,766.846 1010.52,766.846 1012.79,766.846 1015.07,766.846 1017.35,766.846 1019.62,766.846 1021.9,766.846 1024.17,766.846 1026.45,766.846 1028.72,766.846 1031,766.846 1033.27,766.846 1035.55,766.846 1037.83,766.846 1040.1,766.846 1042.38,766.846 1044.65,766.846 1046.93,766.846 1049.2,766.846 1051.48,766.846 1053.75,766.846 1056.03,766.846 1058.31,766.846 1060.58,766.846 1062.86,766.846 1065.13,766.846 1067.41,766.846 1069.68,766.846 1071.96,766.846 1074.23,766.846 1076.51,766.846 1078.79,766.846 1081.06,766.846 1083.34,766.846 1085.61,766.846 1087.89,766.846 1090.16,766.846 1092.44,766.846 1094.71,766.846 1096.99,766.846 1099.27,766.846 1101.54,766.846 1103.82,766.846 1106.09,766.846 1108.37,766.846 1110.64,766.846 1112.92,766.846 1115.19,766.846 1117.47,766.846 1119.75,766.846 1122.02,766.846 1124.3,766.846 1126.57,766.846 1128.85,766.846 1131.12,766.846 1133.4,766.846 1135.67,766.846 1137.95,766.846 1140.23,766.846 1142.5,766.846 1144.78,766.846 1147.05,766.846 1149.33,766.846 1151.6,766.846 1153.88,766.846 1156.15,766.846 1158.43,766.846 1160.71,766.846 1162.98,766.846 1165.26,766.846 1167.53,766.846 1169.81,766.846 1172.08,766.846 1174.36,766.846 1176.63,766.846 1178.91,766.846 1181.19,766.846 1183.46,766.846 1185.74,766.846 1188.01,766.846 1190.29,766.846 1192.56,766.846 1194.84,766.846 1197.11,766.846 1199.39,766.846 1201.67,766.846 1203.94,766.846 1206.22,766.846 1208.49,766.846 1210.77,766.846 1213.04,766.846 1215.32,766.846 1217.59,766.846 1219.87,766.846 1222.15,766.846 1224.42,766.846 1226.7,766.846 1228.97,766.846 1231.25,766.846 1233.52,766.846 1235.8,766.846 1238.07,766.846 1240.35,766.846 1242.63,766.846 1244.9,766.846 1247.18,766.846 1249.45,766.846 1251.73,766.846 1254,766.846 1256.28,766.846 1258.55,766.846 1260.83,766.846 1263.11,766.846 1265.38,766.846 1267.66,766.846 1269.93,766.846 1272.21,766.846 1274.48,87.9763 1276.76,88.2433 1279.03,89.0443 1281.31,90.3784 1283.59,92.2449 1285.86,94.6419 1288.14,97.5681 1290.41,101.02 1292.69,104.997 1294.96,109.494 1297.24,114.508 1299.51,120.036 1301.79,126.072 1304.07,132.613 1306.34,139.652 1308.62,147.185 1310.89,155.206 1313.17,163.707 1315.44,172.684 1317.72,182.127 1319.99,192.031 1322.27,202.386 1324.55,213.187 1326.82,224.422 1329.1,236.085 1331.37,248.164 1333.65,260.652 1335.92,273.538 1338.2,286.813 1340.47,300.464 1342.75,314.484 1345.03,328.858 1347.3,343.578 1349.58,358.63 1351.85,374.004 1354.13,389.686 1356.4,405.666 1358.68,421.929 1360.95,438.464 1363.23,455.257 1365.51,472.296 1367.78,489.565 1370.06,507.054 1372.33,524.746 1374.61,542.63 1376.88,560.689 1379.16,578.911 1381.43,597.28 1383.71,615.783 1385.99,634.405 1388.26,653.131 1390.54,671.946 1392.81,690.837 1395.09,709.787 1397.36,728.781 1399.64,747.806 1401.91,766.846 1404.19,785.886 1406.47,804.911 1408.74,823.905 1411.02,842.855 1413.29,861.745 1415.57,880.561 1417.84,899.287 1420.12,917.909 1422.39,936.412 1424.67,954.781 1426.95,973.003 1429.22,991.063 1431.5,1008.95 1433.77,1026.64 1436.05,1044.13 1438.32,1061.4 1440.6,1078.43 1442.87,1095.23 1445.15,1111.76 1447.43,1128.03 1449.7,1144.01 1451.98,1159.69 1454.25,1175.06 1456.53,1190.11 1458.8,1204.83 1461.08,1219.21 1463.35,1233.23 1465.63,1246.88 1467.91,1260.15 1470.18,1273.04 1472.46,1285.53 1474.73,1297.61 1477.01,1309.27 1479.28,1320.51 1481.56,1331.31 1483.83,1341.66 1486.11,1351.56 1488.39,1361.01 1490.66,1369.98 1492.94,1378.49 1495.21,1386.51 1497.49,1394.04 1499.76,1401.08 1502.04,1407.62 1504.31,1413.66 1506.59,1419.18 1508.87,1424.2 1511.14,1428.7 1513.42,1432.67 1515.69,1436.12 1517.97,1439.05 1520.24,1441.45 1522.52,1443.31 1524.79,1444.65 1527.07,1445.45 1529.35,1445.72 1531.62,1445.45 1533.9,1444.65 1536.17,1443.31 1538.45,1441.45 1540.72,1439.05 1543,1436.12 1545.27,1432.67 1547.55,1428.69 1549.83,1424.2 1552.1,1419.18 1554.38,1413.66 1556.65,1407.62 1558.93,1401.08 1561.2,1394.04 1563.48,1386.51 1565.75,1378.49 1568.03,1369.99 1570.31,1361.01 1572.58,1351.57 1574.86,1341.66 1577.13,1331.31 1579.41,1320.51 1581.68,1309.27 1583.96,1297.61 1586.23,1285.53 1588.51,1273.04 1590.79,1260.15 1593.06,1246.88 1595.34,1233.23 1597.61,1219.21 1599.89,1204.83 1602.16,1190.11 1604.44,1175.06 1606.71,1159.69 1608.99,1144.01 1611.27,1128.03 1613.54,1111.76 1615.82,1095.23 1618.09,1078.44 1620.37,1061.4 1622.64,1044.13 1624.92,1026.64 1627.19,1008.95 1629.47,991.062 1631.75,973.003 1634.02,954.781 1636.3,936.412 1638.57,917.909 1640.85,899.287 1643.12,880.561 1645.4,861.745 1647.67,842.855 1649.95,823.905 1652.23,804.91 1654.5,785.886 1656.78,766.846 1659.05,747.806 1661.33,728.781 1663.6,709.787 1665.88,690.837 1668.15,671.947 1670.43,653.131 1672.71,634.405 1674.98,615.783 1677.26,597.28 1679.53,578.911 1681.81,560.689 1684.08,542.629 1686.36,524.747 1688.63,507.054 1690.91,489.566 1693.19,472.295 1695.46,455.257 1697.74,438.464 1700.01,421.929 1702.29,405.665 1704.56,389.686 1706.84,374.003 1709.11,358.63 1711.39,343.577 1713.67,328.859 1715.94,314.483 1718.22,300.465 1720.49,286.812 1722.77,273.539 1725.04,260.652 1727.32,248.164 1729.59,236.084 1731.87,224.422 1734.15,213.186 1736.42,202.387 1738.7,192.03 1740.97,182.127 1743.25,172.683 1745.52,163.707 1747.8,155.205 1750.07,147.185 1752.35,139.652 1754.63,132.613 1756.9,126.072 1759.18,120.036 1761.45,114.508 1763.73,109.494 1766,104.997 1768.28,101.021 1770.55,97.5679 1772.83,94.6421 1775.11,92.2448 1777.38,90.3785 1779.66,89.0442 1781.93,88.2433 1784.21,766.846 1786.48,766.846 1788.76,766.846 1791.03,766.846 1793.31,766.846 1795.59,766.846 1797.86,766.846 1800.14,766.846 1802.41,766.846 1804.69,766.846 1806.96,766.846 1809.24,766.846 1811.51,766.846 1813.79,766.846 1816.07,766.846 1818.34,766.846 1820.62,766.846 1822.89,766.846 1825.17,766.846 1827.44,766.846 1829.72,766.846 1831.99,766.846 1834.27,766.846 1836.55,766.846 1838.82,766.846 1841.1,766.846 1843.37,766.846 1845.65,766.846 1847.92,766.846 1850.2,766.846 1852.47,766.846 1854.75,766.846 1857.03,766.846 1859.3,766.846 1861.58,766.846 1863.85,766.846 1866.13,766.846 1868.4,766.846 1870.68,766.846 1872.95,766.846 1875.23,766.846 1877.51,766.846 1879.78,766.846 1882.06,766.846 1884.33,766.846 1886.61,766.846 1888.88,766.846 1891.16,766.846 1893.43,766.846 1895.71,766.846 1897.99,766.846 1900.26,766.846 1902.54,766.846 1904.81,766.846 1907.09,766.846 1909.36,766.846 1911.64,766.846 1913.91,766.846 1916.19,766.846 1918.47,766.846 1920.74,766.846 1923.02,766.846 1925.29,766.846 1927.57,766.846 1929.84,766.846 1932.12,766.846 1934.39,766.846 1936.67,766.846 1938.95,766.846 1941.22,766.846 1943.5,766.846 1945.77,766.846 1948.05,766.846 1950.32,766.846 1952.6,766.846 1954.87,766.846 1957.15,766.846 1959.43,766.846 1961.7,766.846 1963.98,766.846 1966.25,766.846 1968.53,766.846 1970.8,766.846 1973.08,766.846 1975.35,766.846 1977.63,766.846 1979.91,766.846 1982.18,766.846 1984.46,766.846 1986.73,766.846 1989.01,766.846 1991.28,766.846 1993.56,766.846 1995.83,766.846 1998.11,766.846 2000.39,766.846 2002.66,766.846 2004.94,766.846 2007.21,766.846 2009.49,766.846 2011.76,766.846 2014.04,766.846 2016.31,766.846 2018.59,766.846 2020.87,766.846 2023.14,766.846 2025.42,766.846 2027.69,766.846 2029.97,766.846 2032.24,766.846 2034.52,766.846 2036.79,766.846 2039.07,766.846 2041.35,766.846 2043.62,766.846 2045.9,766.846 2048.17,766.846 2050.45,766.846 2052.72,766.846 2055,766.846 2057.27,766.846 2059.55,766.846 2061.83,766.846 2064.1,766.846 2066.38,766.846 2068.65,766.846 2070.93,766.846 2073.2,766.846 2075.48,766.846 2077.75,766.846 2080.03,766.846 2082.31,766.846 2084.58,766.846 2086.86,766.846 2089.13,766.846 2091.41,766.846 2093.68,766.846 2095.96,766.846 2098.23,766.846 2100.51,766.846 2102.79,766.846 2105.06,766.846 2107.34,766.846 2109.61,766.846 2111.89,766.846 2114.16,766.846 2116.44,766.846 2118.71,766.846 2120.99,766.846 2123.27,766.846 2125.54,766.846 2127.82,766.846 2130.09,766.846 2132.37,766.846 2134.64,766.846 2136.92,766.846 2139.19,766.846 2141.47,766.846 2143.75,766.846 2146.02,766.846 2148.3,766.846 2150.57,766.846 2152.85,766.846 2155.12,766.846 2157.4,766.846 2159.67,766.846 2161.95,766.846 2164.23,766.846 2166.5,766.846 2168.78,766.846 2171.05,766.846 2173.33,766.846 2175.6,766.846 2177.88,766.846 2180.15,766.846 2182.43,766.846 2184.71,766.846 2186.98,766.846 2189.26,766.846 2191.53,766.846 2193.81,766.846 2196.08,766.846 2198.36,766.846 2200.63,766.846 2202.91,766.846 2205.19,766.846 2207.46,766.846 2209.74,766.846 2212.01,766.846 2214.29,766.846 2216.56,766.846 2218.84,766.846 2221.11,766.846 2223.39,766.846 2225.67,766.846 2227.94,766.846 2230.22,766.846 2232.49,766.846 2234.77,766.846 2237.04,766.846 2239.32,766.846 2241.59,766.846 2243.87,766.846 2246.15,766.846 2248.42,766.846 2250.7,766.846 2252.97,766.846 2255.25,766.846 2257.52,766.846 2259.8,766.846 2262.08,766.846 2264.35,766.846 2266.63,766.846 2268.9,766.846 2271.18,766.846 2273.45,766.846 2275.73,766.846 2278,766.846 2280.28,766.846 2282.56,766.846 2284.83,766.846 2287.11,766.846 2289.38,766.846 2291.66,766.846 "/>
<path clip-path="url(#clip460)" d="M2012.48 198.898 L2280.8 198.898 L2280.8 95.2176 L2012.48 95.2176  Z" fill="#ffffff" fill-rule="evenodd" fill-opacity="1"/>
<polyline clip-path="url(#clip460)" style="stroke:#000000; stroke-linecap:round; stroke-linejoin:round; stroke-width:4; stroke-opacity:1; fill:none" points="2012.48,198.898 2280.8,198.898 2280.8,95.2176 2012.48,95.2176 2012.48,198.898 "/>
<polyline clip-path="url(#clip460)" style="stroke:#009af9; stroke-linecap:round; stroke-linejoin:round; stroke-width:4; stroke-opacity:1; fill:none" points="2036.47,147.058 2180.39,147.058 "/>
<path clip-path="url(#clip460)" d="M2218.22 166.745 Q2216.42 171.375 2214.7 172.787 Q2212.99 174.199 2210.12 174.199 L2206.72 174.199 L2206.72 170.634 L2209.22 170.634 Q2210.98 170.634 2211.95 169.8 Q2212.92 168.967 2214.1 165.865 L2214.86 163.921 L2204.38 138.412 L2208.89 138.412 L2216.99 158.689 L2225.1 138.412 L2229.61 138.412 L2218.22 166.745 Z" fill="#000000" fill-rule="nonzero" fill-opacity="1" /><path clip-path="url(#clip460)" d="M2236.9 160.402 L2244.54 160.402 L2244.54 134.037 L2236.23 135.703 L2236.23 131.444 L2244.49 129.778 L2249.17 129.778 L2249.17 160.402 L2256.81 160.402 L2256.81 164.338 L2236.9 164.338 L2236.9 160.402 Z" fill="#000000" fill-rule="nonzero" fill-opacity="1" /></svg>
