<?xml version="1.0" encoding="utf-8"?>
<svg xmlns="http://www.w3.org/2000/svg" xmlns:xlink="http://www.w3.org/1999/xlink" width="600" height="400" viewBox="0 0 2400 1600">
<defs>
  <clipPath id="clip800">
    <rect x="0" y="0" width="2400" height="1600"/>
  </clipPath>
</defs>
<path clip-path="url(#clip800)" d="M0 1600 L2400 1600 L2400 0 L0 0  Z" fill="#ffffff" fill-rule="evenodd" fill-opacity="1"/>
<defs>
  <clipPath id="clip801">
    <rect x="480" y="0" width="1681" height="1600"/>
  </clipPath>
</defs>
<path clip-path="url(#clip800)" d="M530.515 1486.45 L1969.72 1486.45 L1969.72 47.2441 L530.515 47.2441  Z" fill="#ffffff" fill-rule="evenodd" fill-opacity="1"/>
<defs>
  <clipPath id="clip802">
    <rect x="530" y="47" width="1440" height="1440"/>
  </clipPath>
</defs>
<polyline clip-path="url(#clip800)" style="stroke:#000000; stroke-linecap:round; stroke-linejoin:round; stroke-width:4; stroke-opacity:1; fill:none" points="530.515,1486.45 1969.72,1486.45 "/>
<polyline clip-path="url(#clip800)" style="stroke:#000000; stroke-linecap:round; stroke-linejoin:round; stroke-width:4; stroke-opacity:1; fill:none" points="530.515,47.2441 1969.72,47.2441 "/>
<polyline clip-path="url(#clip800)" style="stroke:#000000; stroke-linecap:round; stroke-linejoin:round; stroke-width:4; stroke-opacity:1; fill:none" points="887.611,1486.45 887.611,1467.55 "/>
<polyline clip-path="url(#clip800)" style="stroke:#000000; stroke-linecap:round; stroke-linejoin:round; stroke-width:4; stroke-opacity:1; fill:none" points="1248.31,1486.45 1248.31,1467.55 "/>
<polyline clip-path="url(#clip800)" style="stroke:#000000; stroke-linecap:round; stroke-linejoin:round; stroke-width:4; stroke-opacity:1; fill:none" points="1609.02,1486.45 1609.02,1467.55 "/>
<polyline clip-path="url(#clip800)" style="stroke:#000000; stroke-linecap:round; stroke-linejoin:round; stroke-width:4; stroke-opacity:1; fill:none" points="1969.72,1486.45 1969.72,1467.55 "/>
<polyline clip-path="url(#clip800)" style="stroke:#000000; stroke-linecap:round; stroke-linejoin:round; stroke-width:4; stroke-opacity:1; fill:none" points="887.611,47.2441 887.611,66.1417 "/>
<polyline clip-path="url(#clip800)" style="stroke:#000000; stroke-linecap:round; stroke-linejoin:round; stroke-width:4; stroke-opacity:1; fill:none" points="1248.31,47.2441 1248.31,66.1417 "/>
<polyline clip-path="url(#clip800)" style="stroke:#000000; stroke-linecap:round; stroke-linejoin:round; stroke-width:4; stroke-opacity:1; fill:none" points="1609.02,47.2441 1609.02,66.1417 "/>
<polyline clip-path="url(#clip800)" style="stroke:#000000; stroke-linecap:round; stroke-linejoin:round; stroke-width:4; stroke-opacity:1; fill:none" points="1969.72,47.2441 1969.72,66.1417 "/>
<path clip-path="url(#clip800)" d="M857.368 1532.02 L887.044 1532.02 L887.044 1535.95 L857.368 1535.95 L857.368 1532.02 Z" fill="#000000" fill-rule="nonzero" fill-opacity="1" /><path clip-path="url(#clip800)" d="M897.946 1544.91 L905.585 1544.91 L905.585 1518.55 L897.275 1520.21 L897.275 1515.95 L905.539 1514.29 L910.215 1514.29 L910.215 1544.91 L917.854 1544.91 L917.854 1548.85 L897.946 1548.85 L897.946 1544.91 Z" fill="#000000" fill-rule="nonzero" fill-opacity="1" /><path clip-path="url(#clip800)" d="M1248.31 1517.37 Q1244.7 1517.37 1242.87 1520.93 Q1241.07 1524.47 1241.07 1531.6 Q1241.07 1538.71 1242.87 1542.27 Q1244.7 1545.82 1248.31 1545.82 Q1251.95 1545.82 1253.75 1542.27 Q1255.58 1538.71 1255.58 1531.6 Q1255.58 1524.47 1253.75 1520.93 Q1251.95 1517.37 1248.31 1517.37 M1248.31 1513.66 Q1254.12 1513.66 1257.18 1518.27 Q1260.26 1522.85 1260.26 1531.6 Q1260.26 1540.33 1257.18 1544.94 Q1254.12 1549.52 1248.31 1549.52 Q1242.5 1549.52 1239.42 1544.94 Q1236.37 1540.33 1236.37 1531.6 Q1236.37 1522.85 1239.42 1518.27 Q1242.5 1513.66 1248.31 1513.66 Z" fill="#000000" fill-rule="nonzero" fill-opacity="1" /><path clip-path="url(#clip800)" d="M1599.4 1544.91 L1607.04 1544.91 L1607.04 1518.55 L1598.73 1520.21 L1598.73 1515.95 L1606.99 1514.29 L1611.67 1514.29 L1611.67 1544.91 L1619.31 1544.91 L1619.31 1548.85 L1599.4 1548.85 L1599.4 1544.91 Z" fill="#000000" fill-rule="nonzero" fill-opacity="1" /><path clip-path="url(#clip800)" d="M1964.37 1544.91 L1980.69 1544.91 L1980.69 1548.85 L1958.75 1548.85 L1958.75 1544.91 Q1961.41 1542.16 1965.99 1537.53 Q1970.6 1532.88 1971.78 1531.53 Q1974.02 1529.01 1974.9 1527.27 Q1975.81 1525.51 1975.81 1523.82 Q1975.81 1521.07 1973.86 1519.33 Q1971.94 1517.6 1968.84 1517.6 Q1966.64 1517.6 1964.19 1518.36 Q1961.76 1519.13 1958.98 1520.68 L1958.98 1515.95 Q1961.8 1514.82 1964.26 1514.24 Q1966.71 1513.66 1968.75 1513.66 Q1974.12 1513.66 1977.31 1516.35 Q1980.51 1519.03 1980.51 1523.52 Q1980.51 1525.65 1979.7 1527.57 Q1978.91 1529.47 1976.8 1532.07 Q1976.22 1532.74 1973.12 1535.95 Q1970.02 1539.15 1964.37 1544.91 Z" fill="#000000" fill-rule="nonzero" fill-opacity="1" /><polyline clip-path="url(#clip800)" style="stroke:#000000; stroke-linecap:round; stroke-linejoin:round; stroke-width:4; stroke-opacity:1; fill:none" points="530.515,1486.45 530.515,47.2441 "/>
<polyline clip-path="url(#clip800)" style="stroke:#000000; stroke-linecap:round; stroke-linejoin:round; stroke-width:4; stroke-opacity:1; fill:none" points="1969.72,1486.45 1969.72,47.2441 "/>
<polyline clip-path="url(#clip800)" style="stroke:#000000; stroke-linecap:round; stroke-linejoin:round; stroke-width:4; stroke-opacity:1; fill:none" points="530.515,1129.35 542.848,1129.35 "/>
<polyline clip-path="url(#clip800)" style="stroke:#000000; stroke-linecap:round; stroke-linejoin:round; stroke-width:4; stroke-opacity:1; fill:none" points="530.515,768.649 542.848,768.649 "/>
<polyline clip-path="url(#clip800)" style="stroke:#000000; stroke-linecap:round; stroke-linejoin:round; stroke-width:4; stroke-opacity:1; fill:none" points="530.515,407.947 542.848,407.947 "/>
<polyline clip-path="url(#clip800)" style="stroke:#000000; stroke-linecap:round; stroke-linejoin:round; stroke-width:4; stroke-opacity:1; fill:none" points="530.515,47.2441 542.848,47.2441 "/>
<polyline clip-path="url(#clip800)" style="stroke:#000000; stroke-linecap:round; stroke-linejoin:round; stroke-width:4; stroke-opacity:1; fill:none" points="1969.72,1129.35 1957.39,1129.35 "/>
<polyline clip-path="url(#clip800)" style="stroke:#000000; stroke-linecap:round; stroke-linejoin:round; stroke-width:4; stroke-opacity:1; fill:none" points="1969.72,768.649 1957.39,768.649 "/>
<polyline clip-path="url(#clip800)" style="stroke:#000000; stroke-linecap:round; stroke-linejoin:round; stroke-width:4; stroke-opacity:1; fill:none" points="1969.72,407.947 1957.39,407.947 "/>
<polyline clip-path="url(#clip800)" style="stroke:#000000; stroke-linecap:round; stroke-linejoin:round; stroke-width:4; stroke-opacity:1; fill:none" points="1969.72,47.2441 1957.39,47.2441 "/>
<path clip-path="url(#clip800)" d="M434.029 1129.8 L463.705 1129.8 L463.705 1133.74 L434.029 1133.74 L434.029 1129.8 Z" fill="#000000" fill-rule="nonzero" fill-opacity="1" /><path clip-path="url(#clip800)" d="M474.608 1142.7 L482.247 1142.7 L482.247 1116.33 L473.936 1118 L473.936 1113.74 L482.2 1112.07 L486.876 1112.07 L486.876 1142.7 L494.515 1142.7 L494.515 1146.63 L474.608 1146.63 L474.608 1142.7 Z" fill="#000000" fill-rule="nonzero" fill-opacity="1" /><path clip-path="url(#clip800)" d="M482.571 754.448 Q478.96 754.448 477.131 758.013 Q475.325 761.555 475.325 768.684 Q475.325 775.791 477.131 779.355 Q478.96 782.897 482.571 782.897 Q486.205 782.897 488.01 779.355 Q489.839 775.791 489.839 768.684 Q489.839 761.555 488.01 758.013 Q486.205 754.448 482.571 754.448 M482.571 750.745 Q488.381 750.745 491.436 755.351 Q494.515 759.934 494.515 768.684 Q494.515 777.411 491.436 782.017 Q488.381 786.601 482.571 786.601 Q476.76 786.601 473.682 782.017 Q470.626 777.411 470.626 768.684 Q470.626 759.934 473.682 755.351 Q476.76 750.745 482.571 750.745 Z" fill="#000000" fill-rule="nonzero" fill-opacity="1" /><path clip-path="url(#clip800)" d="M474.608 421.292 L482.247 421.292 L482.247 394.926 L473.936 396.593 L473.936 392.333 L482.2 390.667 L486.876 390.667 L486.876 421.292 L494.515 421.292 L494.515 425.227 L474.608 425.227 L474.608 421.292 Z" fill="#000000" fill-rule="nonzero" fill-opacity="1" /><path clip-path="url(#clip800)" d="M478.196 60.5889 L494.515 60.5889 L494.515 64.5241 L472.571 64.5241 L472.571 60.5889 Q475.233 57.8343 479.816 53.2047 Q484.422 48.552 485.603 47.2094 Q487.848 44.6862 488.728 42.9501 Q489.631 41.1909 489.631 39.5011 Q489.631 36.7465 487.686 35.0104 Q485.765 33.2743 482.663 33.2743 Q480.464 33.2743 478.01 34.0381 Q475.58 34.802 472.802 36.3529 L472.802 31.6308 Q475.626 30.4965 478.08 29.9178 Q480.534 29.3391 482.571 29.3391 Q487.941 29.3391 491.135 32.0243 Q494.33 34.7094 494.33 39.2002 Q494.33 41.3298 493.52 43.2511 Q492.733 45.1492 490.626 47.7418 Q490.047 48.4131 486.946 51.6306 Q483.844 54.8251 478.196 60.5889 Z" fill="#000000" fill-rule="nonzero" fill-opacity="1" /><polyline clip-path="url(#clip802)" style="stroke:#f5f891; stroke-linecap:round; stroke-linejoin:round; stroke-width:4; stroke-opacity:1; fill:none" points="835.914,1187.06 837.112,1188.24 839.606,1190.67 840.719,1191.75 843.362,1194.28 844.326,1195.19 847.187,1197.89 847.933,1198.58 851.079,1201.49 851.54,1201.92 855.043,1205.1 855.147,1205.19 858.754,1208.41 859.085,1208.71 862.362,1211.58 863.205,1212.31 865.969,1214.69 867.402,1215.92 869.576,1217.76 871.678,1219.53 873.183,1220.78 876.036,1223.13 876.79,1223.75 880.397,1226.68 880.478,1226.74 884.004,1229.55 885.022,1230.35 887.611,1232.37 889.655,1233.96 891.218,1235.16 894.378,1237.56 894.825,1237.9 898.432,1240.59 899.21,1241.17 902.039,1243.24 904.148,1244.78 905.646,1245.85 909.185,1248.38 909.253,1248.43 912.86,1250.95 914.354,1251.99 916.467,1253.44 919.63,1255.6 920.074,1255.9 923.681,1258.3 925.042,1259.21 927.288,1260.67 930.577,1262.81 930.895,1263.02 934.502,1265.31 936.263,1266.42 938.109,1267.57 941.716,1269.8 942.086,1270.03 945.323,1271.98 948.074,1273.63 948.93,1274.14 952.537,1276.26 954.227,1277.24 956.144,1278.34 959.751,1280.4 960.551,1280.85 963.358,1282.41 966.965,1284.4 967.061,1284.45 970.572,1286.34 973.781,1288.06 974.179,1288.27 977.786,1290.15 980.718,1291.67 981.393,1292.01 985,1293.83 987.887,1295.28 988.607,1295.63 992.214,1297.39 995.309,1298.88 995.822,1299.13 999.429,1300.82 1003.01,1302.49 1003.04,1302.5 1006.64,1304.14 1010.25,1305.76 1011.02,1306.1 1013.86,1307.34 1017.46,1308.89 1019.36,1309.7 1021.07,1310.42 1024.68,1311.92 1028.07,1313.31 1028.28,1313.4 1031.89,1314.83 1035.5,1316.25 1037.22,1316.92 1039.11,1317.64 1042.71,1319 1046.32,1320.34 1046.83,1320.52 1049.93,1321.64 1053.53,1322.92 1056.99,1324.13 1057.14,1324.18 1060.75,1325.4 1064.36,1326.61 1067.8,1327.74 1067.96,1327.79 1071.57,1328.93 1075.18,1330.06 1078.78,1331.17 1079.38,1331.35 1082.39,1332.24 1086,1333.28 1089.6,1334.31 1091.9,1334.95 1093.21,1335.31 1096.82,1336.28 1100.43,1337.23 1104.03,1338.16 1105.6,1338.56 1107.64,1339.07 1111.25,1339.94 1114.85,1340.79 1118.46,1341.63 1120.86,1342.17 1122.07,1342.43 1125.67,1343.21 1129.28,1343.97 1132.89,1344.7 1136.5,1345.42 1138.33,1345.77 1140.1,1346.11 1143.71,1346.77 1147.32,1347.41 1150.92,1348.02 1154.53,1348.62 1158.14,1349.2 1159.32,1349.38 1161.74,1349.75 1165.35,1350.27 1168.96,1350.77 1172.57,1351.25 1176.17,1351.71 1179.78,1352.15 1183.39,1352.56 1186.99,1352.96 1187.31,1352.99 1190.6,1353.32 1194.21,1353.66 1197.82,1353.98 1201.42,1354.28 1205.03,1354.56 1208.64,1354.81 1212.24,1355.05 1215.85,1355.26 1219.46,1355.45 1223.06,1355.61 1226.67,1355.76 1230.28,1355.88 1233.89,1355.98 1237.49,1356.06 1241.1,1356.12 1244.71,1356.15 1248.31,1356.16 1251.92,1356.15 1255.53,1356.12 1259.13,1356.06 1262.74,1355.98 1266.35,1355.88 1269.96,1355.76 1273.56,1355.61 1277.17,1355.45 1280.78,1355.26 1284.38,1355.05 1287.99,1354.81 1291.6,1354.56 1295.2,1354.28 1298.81,1353.98 1302.42,1353.66 1306.03,1353.32 1309.32,1352.99 1309.63,1352.96 1313.24,1352.56 1316.85,1352.15 1320.45,1351.71 1324.06,1351.25 1327.67,1350.77 1331.28,1350.27 1334.88,1349.75 1337.31,1349.38 1338.49,1349.2 1342.1,1348.62 1345.7,1348.02 1349.31,1347.41 1352.92,1346.77 1356.52,1346.11 1358.29,1345.77 1360.13,1345.42 1363.74,1344.7 1367.35,1343.97 1370.95,1343.21 1374.56,1342.43 1375.77,1342.17 1378.17,1341.63 1381.77,1340.79 1385.38,1339.94 1388.99,1339.07 1391.03,1338.56 1392.59,1338.16 1396.2,1337.23 1399.81,1336.28 1403.42,1335.31 1404.73,1334.95 1407.02,1334.31 1410.63,1333.28 1414.24,1332.24 1417.25,1331.35 1417.84,1331.17 1421.45,1330.06 1425.06,1328.93 1428.66,1327.79 1428.83,1327.74 1432.27,1326.61 1435.88,1325.4 1439.49,1324.18 1439.64,1324.13 1443.09,1322.92 1446.7,1321.64 1449.8,1320.52 1450.31,1320.34 1453.91,1319 1457.52,1317.64 1459.41,1316.92 1461.13,1316.25 1464.74,1314.83 1468.34,1313.4 1468.56,1313.31 1471.95,1311.92 1475.56,1310.42 1477.26,1309.7 1479.16,1308.89 1482.77,1307.34 1485.61,1306.1 1486.38,1305.76 1489.98,1304.14 1493.59,1302.5 1493.62,1302.49 1497.2,1300.82 1500.81,1299.13 1501.32,1298.88 1504.41,1297.39 1508.02,1295.63 1508.74,1295.28 1511.63,1293.83 1515.23,1292.01 1515.91,1291.67 1518.84,1290.15 1522.45,1288.27 1522.85,1288.06 1526.05,1286.34 1529.57,1284.45 1529.66,1284.4 1533.27,1282.41 1536.08,1280.85 1536.88,1280.4 1540.48,1278.34 1542.4,1277.24 1544.09,1276.26 1547.7,1274.14 1548.55,1273.63 1551.3,1271.98 1554.54,1270.03 1554.91,1269.8 1558.52,1267.57 1560.36,1266.42 1562.12,1265.31 1565.73,1263.02 1566.05,1262.81 1569.34,1260.67 1571.58,1259.21 1572.95,1258.3 1576.55,1255.9 1577,1255.6 1580.16,1253.44 1582.27,1251.99 1583.77,1250.95 1587.37,1248.43 1587.44,1248.38 1590.98,1245.85 1592.48,1244.78 1594.59,1243.24 1597.42,1241.17 1598.2,1240.59 1601.8,1237.9 1602.25,1237.56 1605.41,1235.16 1606.97,1233.96 1609.02,1232.37 1611.6,1230.35 1612.62,1229.55 1616.15,1226.74 1616.23,1226.68 1619.84,1223.75 1620.59,1223.13 1623.44,1220.78 1624.95,1219.53 1627.05,1217.76 1629.22,1215.92 1630.66,1214.69 1633.42,1212.31 1634.27,1211.58 1637.54,1208.71 1637.87,1208.41 1641.48,1205.19 1641.58,1205.1 1645.09,1201.92 1645.55,1201.49 1648.69,1198.58 1649.44,1197.89 1652.3,1195.19 1653.26,1194.28 1655.91,1191.75 1657.02,1190.67 1659.51,1188.24 1660.71,1187.06 1663.12,1184.68 1664.34,1183.46 1666.73,1181.05 1667.91,1179.85 1670.34,1177.36 1671.41,1176.24 1673.94,1173.6 1674.86,1172.64 1677.55,1169.78 1678.25,1169.03 1681.16,1165.88 1681.58,1165.42 1684.76,1161.92 1684.86,1161.82 1688.08,1158.21 1688.37,1157.88 1691.24,1154.6 1691.98,1153.76 1694.36,1150.99 1695.58,1149.56 1697.42,1147.39 1699.19,1145.28 1700.44,1143.78 1702.8,1140.93 1703.41,1140.17 1706.34,1136.57 1706.41,1136.49 1709.21,1132.96 1710.01,1131.94 1712.03,1129.35 1713.62,1127.31 1714.82,1125.75 1717.23,1122.59 1717.56,1122.14 1720.26,1118.53 1720.83,1117.75 1722.91,1114.92 1724.44,1112.82 1725.52,1111.32 1728.05,1107.78 1728.1,1107.71 1730.62,1104.1 1731.66,1102.61 1733.11,1100.5 1735.26,1097.33 1735.56,1096.89 1737.97,1093.28 1738.87,1091.92 1740.34,1089.67 1742.48,1086.39 1742.68,1086.07 1744.97,1082.46 1746.08,1080.7 1747.23,1078.85 1749.46,1075.25 1749.69,1074.88 1751.65,1071.64 1753.3,1068.89 1753.8,1068.03 1755.92,1064.43 1756.9,1062.74 1758.01,1060.82 1760.06,1057.21 1760.51,1056.41 1762.07,1053.6 1764.07,1050 1764.12,1049.9 1766.01,1046.39 1767.73,1043.18 1767.94,1042.78 1769.82,1039.18 1771.33,1036.25 1771.68,1035.57 1773.5,1031.96 1774.94,1029.08 1775.29,1028.36 1777.05,1024.75 1778.55,1021.65 1778.79,1021.14 1780.48,1017.53 1782.15,1013.96 1782.17,1013.93 1783.8,1010.32 1785.42,1006.71 1785.76,1005.95 1787,1003.11 1788.56,999.499 1789.37,997.6 1790.09,995.892 1791.58,992.285 1792.97,988.892 1793.06,988.678 1794.5,985.071 1795.91,981.464 1796.58,979.746 1797.3,977.857 1798.66,974.25 1800,970.643 1800.19,970.136 1801.3,967.036 1802.58,963.429 1803.8,959.973 1803.85,959.822 1805.07,956.215 1806.27,952.608 1807.4,949.163 1807.46,949.001 1808.6,945.394 1809.72,941.787 1810.83,938.18 1811.01,937.582 1811.9,934.573 1812.95,930.966 1813.97,927.359 1814.62,925.064 1814.98,923.752 1815.95,920.145 1816.9,916.538 1817.83,912.931 1818.22,911.366 1818.73,909.324 1819.6,905.717 1820.46,902.109 1821.29,898.502 1821.83,896.106 1822.1,894.895 1822.87,891.288 1823.63,887.681 1824.37,884.074 1825.08,880.467 1825.44,878.629 1825.77,876.86 1826.43,873.253 1827.07,869.646 1827.69,866.039 1828.29,862.432 1828.86,858.825 1829.04,857.648 1829.41,855.218 1829.93,851.611 1830.43,848.004 1830.91,844.397 1831.37,840.79 1831.81,837.183 1832.23,833.576 1832.62,829.969 1832.65,829.652 1832.98,826.362 1833.33,822.755 1833.65,819.148 1833.94,815.541 1834.22,811.934 1834.48,808.327 1834.71,804.72 1834.92,801.113 1835.11,797.506 1835.28,793.899 1835.42,790.292 1835.55,786.685 1835.65,783.078 1835.72,779.471 1835.78,775.864 1835.81,772.257 1835.82,768.649 1835.81,765.042 1835.78,761.435 1835.72,757.828 1835.65,754.221 1835.55,750.614 1835.42,747.007 1835.28,743.4 1835.11,739.793 1834.92,736.186 1834.71,732.579 1834.48,728.972 1834.22,725.365 1833.94,721.758 1833.65,718.151 1833.33,714.544 1832.98,710.937 1832.65,707.647 1832.62,707.33 1832.23,703.723 1831.81,700.116 1831.37,696.509 1830.91,692.902 1830.43,689.295 1829.93,685.688 1829.41,682.081 1829.04,679.651 1828.86,678.474 1828.29,674.867 1827.69,671.26 1827.07,667.653 1826.43,664.046 1825.77,660.439 1825.44,658.67 1825.08,656.832 1824.37,653.225 1823.63,649.618 1822.87,646.011 1822.1,642.404 1821.83,641.193 1821.29,638.797 1820.46,635.189 1819.6,631.582 1818.73,627.975 1818.22,625.933 1817.83,624.368 1816.9,620.761 1815.95,617.154 1814.98,613.547 1814.62,612.235 1813.97,609.94 1812.95,606.333 1811.9,602.726 1811.01,599.717 1810.83,599.119 1809.72,595.512 1808.6,591.905 1807.46,588.298 1807.4,588.136 1806.27,584.691 1805.07,581.084 1803.85,577.477 1803.8,577.326 1802.58,573.87 1801.3,570.263 1800.19,567.163 1800,566.656 1798.66,563.049 1797.3,559.442 1796.58,557.553 1795.91,555.835 1794.5,552.228 1793.06,548.621 1792.97,548.407 1791.58,545.014 1790.09,541.407 1789.37,539.699 1788.56,537.8 1787,534.193 1785.76,531.353 1785.42,530.586 1783.8,526.979 1782.17,523.372 1782.15,523.342 1780.48,519.765 1778.79,516.158 1778.55,515.645 1777.05,512.551 1775.29,508.944 1774.94,508.223 1773.5,505.337 1771.68,501.729 1771.33,501.054 1769.82,498.122 1767.94,494.515 1767.73,494.117 1766.01,490.908 1764.12,487.397 1764.07,487.301 1762.07,483.694 1760.51,480.887 1760.06,480.087 1758.01,476.48 1756.9,474.563 1755.92,472.873 1753.8,469.266 1753.3,468.41 1751.65,465.659 1749.69,462.422 1749.46,462.052 1747.23,458.445 1746.08,456.599 1744.97,454.838 1742.68,451.231 1742.48,450.913 1740.34,447.624 1738.87,445.378 1737.97,444.017 1735.56,440.41 1735.26,439.966 1733.11,436.803 1731.66,434.69 1730.62,433.196 1728.1,429.589 1728.05,429.521 1725.52,425.982 1724.44,424.484 1722.91,422.375 1720.83,419.546 1720.26,418.768 1717.56,415.161 1717.23,414.714 1714.82,411.554 1713.62,409.991 1712.03,407.947 1710.01,405.358 1709.21,404.34 1706.41,400.814 1706.34,400.733 1703.41,397.126 1702.8,396.372 1700.44,393.519 1699.19,392.014 1697.42,389.912 1695.58,387.738 1694.36,386.305 1691.98,383.541 1691.24,382.698 1688.37,379.421 1688.08,379.091 1684.86,375.484 1684.76,375.379 1681.58,371.877 1681.16,371.415 1678.25,368.269 1677.55,367.523 1674.86,364.662 1673.94,363.699 1671.41,361.055 1670.34,359.942 1667.91,357.448 1666.73,356.25 1664.34,353.841 1663.12,352.622 1660.71,350.234 1659.51,349.057 1657.02,346.627 1655.91,345.552 1653.26,343.02 1652.3,342.106 1649.44,339.413 1648.69,338.717 1645.55,335.806 1645.09,335.384 1641.58,332.199 1641.48,332.105 1637.87,328.885 1637.54,328.592 1634.27,325.719 1633.42,324.985 1630.66,322.604 1629.22,321.378 1627.05,319.538 1624.95,317.771 1623.44,316.52 1620.59,314.164 1619.84,313.548 1616.23,310.622 1616.15,310.557 1612.62,307.754 1611.6,306.95 1609.02,304.928 1606.97,303.343 1605.41,302.144 1602.25,299.736 1601.8,299.399 1598.2,296.705 1597.42,296.129 1594.59,294.057 1592.48,292.522 1590.98,291.444 1587.44,288.915 1587.37,288.867 1583.77,286.345 1582.27,285.308 1580.16,283.858 1577,281.701 1576.55,281.402 1572.95,278.995 1571.58,278.094 1569.34,276.625 1566.05,274.487 1565.73,274.282 1562.12,271.991 1560.36,270.88 1558.52,269.73 1554.91,267.499 1554.54,267.273 1551.3,265.317 1548.55,263.666 1547.7,263.158 1544.09,261.042 1542.4,260.059 1540.48,258.958 1536.88,256.903 1536.08,256.452 1533.27,254.89 1529.66,252.897 1529.57,252.845 1526.05,250.955 1522.85,249.238 1522.45,249.027 1518.84,247.148 1515.91,245.631 1515.23,245.286 1511.63,243.468 1508.74,242.024 1508.02,241.668 1504.41,239.912 1501.32,238.417 1500.81,238.173 1497.2,236.478 1493.62,234.809 1493.59,234.796 1489.98,233.163 1486.38,231.543 1485.61,231.202 1482.77,229.964 1479.16,228.406 1477.26,227.595 1475.56,226.878 1471.95,225.382 1468.56,223.988 1468.34,223.902 1464.74,222.468 1461.13,221.048 1459.41,220.381 1457.52,219.66 1453.91,218.302 1450.31,216.96 1449.8,216.774 1446.7,215.659 1443.09,214.379 1439.64,213.167 1439.49,213.115 1435.88,211.896 1432.27,210.693 1428.83,209.56 1428.66,209.508 1425.06,208.365 1421.45,207.241 1417.84,206.133 1417.25,205.953 1414.24,205.064 1410.63,204.017 1407.02,202.988 1404.73,202.346 1403.42,201.986 1399.81,201.017 1396.2,200.066 1392.59,199.134 1391.03,198.739 1388.99,198.233 1385.38,197.36 1381.77,196.507 1378.17,195.673 1375.77,195.132 1374.56,194.864 1370.95,194.088 1367.35,193.332 1363.74,192.596 1360.13,191.879 1358.29,191.525 1356.52,191.191 1352.92,190.532 1349.31,189.893 1345.7,189.274 1342.1,188.676 1338.49,188.099 1337.31,187.918 1334.88,187.552 1331.28,187.03 1327.67,186.529 1324.06,186.049 1320.45,185.591 1316.85,185.153 1313.24,184.738 1309.63,184.344 1309.32,184.311 1306.03,183.979 1302.42,183.637 1298.81,183.317 1295.2,183.018 1291.6,182.741 1287.99,182.486 1284.38,182.253 1280.78,182.042 1277.17,181.852 1273.56,181.685 1269.96,181.54 1266.35,181.418 1262.74,181.317 1259.13,181.239 1255.53,181.183 1251.92,181.15 1248.31,181.138 1244.71,181.15 1241.1,181.183 1237.49,181.239 1233.89,181.317 1230.28,181.418 1226.67,181.54 1223.06,181.685 1219.46,181.852 1215.85,182.042 1212.24,182.253 1208.64,182.486 1205.03,182.741 1201.42,183.018 1197.82,183.317 1194.21,183.637 1190.6,183.979 1187.31,184.311 1186.99,184.344 1183.39,184.738 1179.78,185.153 1176.17,185.591 1172.57,186.049 1168.96,186.529 1165.35,187.03 1161.74,187.552 1159.32,187.918 1158.14,188.099 1154.53,188.676 1150.92,189.274 1147.32,189.893 1143.71,190.532 1140.1,191.191 1138.33,191.525 1136.5,191.879 1132.89,192.596 1129.28,193.332 1125.67,194.088 1122.07,194.864 1120.86,195.132 1118.46,195.673 1114.85,196.507 1111.25,197.36 1107.64,198.233 1105.6,198.739 1104.03,199.134 1100.43,200.066 1096.82,201.017 1093.21,201.986 1091.9,202.346 1089.6,202.988 1086,204.017 1082.39,205.064 1079.38,205.953 1078.78,206.133 1075.18,207.241 1071.57,208.365 1067.96,209.508 1067.8,209.56 1064.36,210.693 1060.75,211.896 1057.14,213.115 1056.99,213.167 1053.53,214.379 1049.93,215.659 1046.83,216.774 1046.32,216.96 1042.71,218.302 1039.11,219.66 1037.22,220.381 1035.5,221.048 1031.89,222.468 1028.28,223.902 1028.07,223.988 1024.68,225.382 1021.07,226.878 1019.36,227.595 1017.46,228.406 1013.86,229.964 1011.02,231.202 1010.25,231.543 1006.64,233.163 1003.04,234.796 1003.01,234.809 999.429,236.478 995.822,238.173 995.309,238.417 992.214,239.912 988.607,241.668 987.887,242.024 985,243.468 981.393,245.286 980.718,245.631 977.786,247.148 974.179,249.027 973.781,249.238 970.572,250.955 967.061,252.845 966.965,252.897 963.358,254.89 960.551,256.452 959.751,256.903 956.144,258.958 954.227,260.059 952.537,261.042 948.93,263.158 948.074,263.666 945.323,265.317 942.086,267.273 941.716,267.499 938.109,269.73 936.263,270.88 934.502,271.991 930.895,274.282 930.577,274.487 927.288,276.625 925.042,278.094 923.681,278.995 920.074,281.402 919.63,281.701 916.467,283.858 914.354,285.308 912.86,286.345 909.253,288.867 909.185,288.915 905.646,291.444 904.148,292.522 902.039,294.057 899.21,296.129 898.432,296.705 894.825,299.399 894.378,299.736 891.218,302.144 889.655,303.343 887.611,304.928 885.022,306.95 884.004,307.754 880.478,310.557 880.397,310.622 876.79,313.548 876.036,314.164 873.183,316.52 871.678,317.771 869.576,319.538 867.402,321.378 865.969,322.604 863.205,324.985 862.362,325.719 859.085,328.592 858.754,328.885 855.147,332.105 855.043,332.199 851.54,335.384 851.079,335.806 847.933,338.717 847.187,339.413 844.326,342.106 843.362,343.02 840.719,345.552 839.606,346.627 837.112,349.057 835.914,350.234 833.505,352.622 832.286,353.841 829.898,356.25 828.721,357.448 826.291,359.942 825.216,361.055 822.684,363.699 821.769,364.662 819.077,367.523 818.381,368.269 815.47,371.415 815.048,371.877 811.863,375.379 811.769,375.484 808.549,379.091 808.256,379.421 805.383,382.698 804.649,383.541 802.268,386.305 801.042,387.738 799.202,389.912 797.435,392.014 796.184,393.519 793.828,396.372 793.212,397.126 790.286,400.733 790.221,400.814 "/>
<polyline clip-path="url(#clip802)" style="stroke:#f5f891; stroke-linecap:round; stroke-linejoin:round; stroke-width:4; stroke-opacity:1; fill:none" points="790.221,400.814 787.418,404.34 786.614,405.358 784.592,407.947 783.007,409.991 781.808,411.554 779.4,414.714 779.063,415.161 776.369,418.768 775.793,419.546 773.721,422.375 772.186,424.484 771.108,425.982 768.579,429.521 768.531,429.589 766.009,433.196 764.972,434.69 763.522,436.803 761.365,439.966 761.065,440.41 758.659,444.017 757.758,445.378 756.289,447.624 754.151,450.913 753.946,451.231 751.655,454.838 750.544,456.599 749.394,458.445 747.163,462.052 746.937,462.422 744.981,465.659 743.33,468.41 742.822,469.266 740.706,472.873 739.723,474.563 738.621,476.48 736.566,480.087 736.116,480.887 734.554,483.694 732.561,487.301 732.509,487.397 730.619,490.908 728.902,494.117 728.691,494.515 726.812,498.122 725.294,501.054 724.95,501.729 723.132,505.337 721.687,508.223 721.332,508.944 719.576,512.551 718.08,515.645 717.836,516.158 716.142,519.765 714.473,523.342 714.46,523.372 712.827,526.979 711.207,530.586 710.866,531.353 709.628,534.193 708.07,537.8 707.259,539.699 706.542,541.407 705.046,545.014 703.652,548.407 703.566,548.621 702.132,552.228 700.712,555.835 700.045,557.553 699.324,559.442 697.966,563.049 696.624,566.656 696.438,567.163 695.323,570.263 694.042,573.87 692.831,577.326 692.779,577.477 691.559,581.084 690.357,584.691 689.224,588.136 689.172,588.298 688.029,591.905 686.904,595.512 685.797,599.119 685.617,599.717 684.728,602.726 683.681,606.333 682.652,609.94 682.01,612.235 681.65,613.547 680.68,617.154 679.73,620.761 678.798,624.368 678.403,625.933 677.897,627.975 677.024,631.582 676.171,635.189 675.337,638.797 674.796,641.193 674.528,642.404 673.752,646.011 672.996,649.618 672.259,653.225 671.543,656.832 671.189,658.67 670.855,660.439 670.196,664.046 669.556,667.653 668.938,671.26 668.34,674.867 667.763,678.474 667.582,679.651 667.216,682.081 666.694,685.688 666.193,689.295 665.713,692.902 665.254,696.509 664.817,700.116 664.402,703.723 664.008,707.33 663.975,707.647 663.643,710.937 663.301,714.544 662.981,718.151 662.682,721.758 662.405,725.365 662.15,728.972 661.917,732.579 661.705,736.186 661.516,739.793 661.349,743.4 661.204,747.007 661.081,750.614 660.981,754.221 660.903,757.828 660.847,761.435 660.813,765.042 660.802,768.649 660.813,772.257 660.847,775.864 660.903,779.471 660.981,783.078 661.081,786.685 661.204,790.292 661.349,793.899 661.516,797.506 661.705,801.113 661.917,804.72 662.15,808.327 662.405,811.934 662.682,815.541 662.981,819.148 663.301,822.755 663.643,826.362 663.975,829.652 664.008,829.969 664.402,833.576 664.817,837.183 665.254,840.79 665.713,844.397 666.193,848.004 666.694,851.611 667.216,855.218 667.582,857.648 667.763,858.825 668.34,862.432 668.938,866.039 669.556,869.646 670.196,873.253 670.855,876.86 671.189,878.629 671.543,880.467 672.259,884.074 672.996,887.681 673.752,891.288 674.528,894.895 674.796,896.106 675.337,898.502 676.171,902.109 677.024,905.717 677.897,909.324 678.403,911.366 678.798,912.931 679.73,916.538 680.68,920.145 681.65,923.752 682.01,925.064 682.652,927.359 683.681,930.966 684.728,934.573 685.617,937.582 685.797,938.18 686.904,941.787 688.029,945.394 689.172,949.001 689.224,949.163 690.357,952.608 691.559,956.215 692.779,959.822 692.831,959.973 694.042,963.429 695.323,967.036 696.438,970.136 696.624,970.643 697.966,974.25 699.324,977.857 700.045,979.746 700.712,981.464 702.132,985.071 703.566,988.678 703.652,988.892 705.046,992.285 706.542,995.892 707.259,997.6 708.07,999.499 709.628,1003.11 710.866,1005.95 711.207,1006.71 712.827,1010.32 714.46,1013.93 714.473,1013.96 716.142,1017.53 717.836,1021.14 718.08,1021.65 719.576,1024.75 721.332,1028.36 721.687,1029.08 723.132,1031.96 724.95,1035.57 725.294,1036.25 726.812,1039.18 728.691,1042.78 728.902,1043.18 730.619,1046.39 732.509,1049.9 732.561,1050 734.554,1053.6 736.116,1056.41 736.566,1057.21 738.621,1060.82 739.723,1062.74 740.706,1064.43 742.822,1068.03 743.33,1068.89 744.981,1071.64 746.937,1074.88 747.163,1075.25 749.394,1078.85 750.544,1080.7 751.655,1082.46 753.946,1086.07 754.151,1086.39 756.289,1089.67 757.758,1091.92 758.659,1093.28 761.065,1096.89 761.365,1097.33 763.522,1100.5 764.972,1102.61 766.009,1104.1 768.531,1107.71 768.579,1107.78 771.108,1111.32 772.186,1112.82 773.721,1114.92 775.793,1117.75 776.369,1118.53 779.063,1122.14 779.4,1122.59 781.808,1125.75 783.007,1127.31 784.592,1129.35 786.614,1131.94 787.418,1132.96 790.221,1136.49 790.286,1136.57 793.212,1140.17 793.828,1140.93 796.184,1143.78 797.435,1145.28 799.202,1147.39 801.042,1149.56 802.268,1150.99 804.649,1153.76 805.383,1154.6 808.256,1157.88 808.549,1158.21 811.769,1161.82 811.863,1161.92 815.048,1165.42 815.47,1165.88 818.381,1169.03 819.077,1169.78 821.769,1172.64 822.684,1173.6 825.216,1176.24 826.291,1177.36 828.721,1179.85 829.898,1181.05 832.286,1183.46 833.505,1184.68 835.914,1187.06 "/>
<polyline clip-path="url(#clip802)" style="stroke:#f5f891; stroke-linecap:round; stroke-linejoin:round; stroke-width:4; stroke-opacity:1; fill:none" points="934.904,1089.67 938.109,1092.78 938.64,1093.28 941.716,1096.19 942.463,1096.89 945.323,1099.54 946.378,1100.5 948.93,1102.81 950.388,1104.1 952.537,1106.01 954.5,1107.71 956.144,1109.13 958.719,1111.32 959.751,1112.19 963.051,1114.92 963.358,1115.18 966.965,1118.12 967.484,1118.53 970.572,1121 972.031,1122.14 974.179,1123.82 976.712,1125.75 977.786,1126.57 981.393,1129.25 981.533,1129.35 985,1131.91 986.468,1132.96 988.607,1134.5 991.568,1136.57 992.214,1137.02 995.822,1139.51 996.814,1140.17 999.429,1141.95 1002.23,1143.78 1003.04,1144.32 1006.64,1146.65 1007.82,1147.39 1010.25,1148.94 1013.6,1150.99 1013.86,1151.15 1017.46,1153.36 1019.57,1154.6 1021.07,1155.5 1024.68,1157.59 1025.78,1158.21 1028.28,1159.65 1031.89,1161.64 1032.22,1161.82 1035.5,1163.63 1038.92,1165.42 1039.11,1165.52 1042.71,1167.43 1045.9,1169.03 1046.32,1169.25 1049.93,1171.07 1053.2,1172.64 1053.53,1172.8 1057.14,1174.54 1060.75,1176.2 1060.86,1176.24 1064.36,1177.86 1067.96,1179.45 1068.9,1179.85 1071.57,1181.03 1075.18,1182.55 1077.41,1183.46 1078.78,1184.03 1082.39,1185.5 1086,1186.9 1086.45,1187.06 1089.6,1188.3 1093.21,1189.64 1096.1,1190.67 1096.82,1190.94 1100.43,1192.24 1104.03,1193.47 1106.5,1194.28 1107.64,1194.67 1111.25,1195.86 1114.85,1196.99 1117.83,1197.89 1118.46,1198.08 1122.07,1199.18 1125.67,1200.22 1129.28,1201.21 1130.35,1201.49 1132.89,1202.2 1136.5,1203.15 1140.1,1204.06 1143.71,1204.92 1144.49,1205.1 1147.32,1205.78 1150.92,1206.61 1154.53,1207.4 1158.14,1208.14 1161.04,1208.71 1161.74,1208.85 1165.35,1209.56 1168.96,1210.24 1172.57,1210.87 1176.17,1211.46 1179.78,1212.02 1181.78,1212.31 1183.39,1212.56 1186.99,1213.09 1190.6,1213.58 1194.21,1214.04 1197.82,1214.46 1201.42,1214.85 1205.03,1215.2 1208.64,1215.53 1212.24,1215.83 1213.49,1215.92 1215.85,1216.11 1219.46,1216.36 1223.06,1216.59 1226.67,1216.78 1230.28,1216.94 1233.89,1217.07 1237.49,1217.18 1241.1,1217.25 1244.71,1217.29 1248.31,1217.31 1251.92,1217.29 1255.53,1217.25 1259.13,1217.18 1262.74,1217.07 1266.35,1216.94 1269.96,1216.78 1273.56,1216.59 1277.17,1216.36 1280.78,1216.11 1283.13,1215.92 1284.38,1215.83 1287.99,1215.53 1291.6,1215.2 1295.2,1214.85 1298.81,1214.46 1302.42,1214.04 1306.03,1213.58 1309.63,1213.09 1313.24,1212.56 1314.85,1212.31 1316.85,1212.02 1320.45,1211.46 1324.06,1210.87 1327.67,1210.24 1331.28,1209.56 1334.88,1208.85 1335.59,1208.71 1338.49,1208.14 1342.1,1207.4 1345.7,1206.61 1349.31,1205.78 1352.14,1205.1 1352.92,1204.92 1356.52,1204.06 1360.13,1203.15 1363.74,1202.2 1366.28,1201.49 1367.35,1201.21 1370.95,1200.22 1374.56,1199.18 1378.17,1198.08 1378.8,1197.89 1381.77,1196.99 1385.38,1195.86 1388.99,1194.67 1390.12,1194.28 1392.59,1193.47 1396.2,1192.24 1399.81,1190.94 1400.53,1190.67 1403.42,1189.64 1407.02,1188.3 1410.18,1187.06 1410.63,1186.9 1414.24,1185.5 1417.84,1184.03 1419.22,1183.46 1421.45,1182.55 1425.06,1181.03 1427.72,1179.85 1428.66,1179.45 1432.27,1177.86 1435.77,1176.24 1435.88,1176.2 1439.49,1174.54 1443.09,1172.8 1443.43,1172.64 1446.7,1171.07 1450.31,1169.25 1450.73,1169.03 1453.91,1167.43 1457.52,1165.52 1457.71,1165.42 1461.13,1163.63 1464.41,1161.82 1464.74,1161.64 1468.34,1159.65 1470.85,1158.21 1471.95,1157.59 1475.56,1155.5 1477.05,1154.6 1479.16,1153.36 1482.77,1151.15 1483.03,1150.99 1486.38,1148.94 1488.81,1147.39 1489.98,1146.65 1493.59,1144.32 1494.4,1143.78 1497.2,1141.95 1499.81,1140.17 1500.81,1139.51 1504.41,1137.02 1505.06,1136.57 1508.02,1134.5 1510.16,1132.96 1511.63,1131.91 1515.09,1129.35 1515.23,1129.25 1518.84,1126.57 1519.91,1125.75 1522.45,1123.82 1524.6,1122.14 1526.05,1121 1529.14,1118.53 1529.66,1118.12 1533.27,1115.18 1533.58,1114.92 1536.88,1112.19 1537.91,1111.32 1540.48,1109.13 1542.13,1107.71 1544.09,1106.01 1546.24,1104.1 1547.7,1102.81 1550.25,1100.5 1551.3,1099.54 1554.16,1096.89 1554.91,1096.19 1557.99,1093.28 1558.52,1092.78 1561.72,1089.67 1562.12,1089.28 1565.38,1086.07 1565.73,1085.71 1568.95,1082.46 1569.34,1082.06 1572.44,1078.85 1572.95,1078.32 1575.86,1075.25 1576.55,1074.5 1579.2,1071.64 1580.16,1070.59 1582.47,1068.03 1583.77,1066.57 1585.67,1064.43 1587.37,1062.46 1588.8,1060.82 1590.98,1058.24 1591.86,1057.21 1594.59,1053.91 1594.84,1053.6 1597.78,1050 1598.2,1049.48 1600.67,1046.39 1601.8,1044.93 1603.48,1042.78 1605.41,1040.25 1606.23,1039.18 1608.91,1035.57 1609.02,1035.43 1611.57,1031.96 1612.62,1030.49 1614.17,1028.36 1616.23,1025.4 1616.69,1024.75 1619.17,1021.14 1619.84,1020.15 1621.61,1017.53 1623.44,1014.73 1623.98,1013.93 1626.31,1010.32 1627.05,1009.15 1628.6,1006.71 1630.66,1003.36 1630.82,1003.11 1633.02,999.499 1634.27,997.388 1635.16,995.892 1637.25,992.285 1637.87,991.187 1639.32,988.678 1641.3,985.071 1641.48,984.744 1643.29,981.464 1645.09,978.045 1645.19,977.857 1647.09,974.25 1648.69,971.063 1648.91,970.643 1650.73,967.036 1652.3,963.762 1652.47,963.429 1654.21,959.822 1655.86,956.215 1655.91,956.108 1657.53,952.608 1659.11,949.001 1659.51,948.059 1660.69,945.394 1662.21,941.787 1663.12,939.553 1663.7,938.18 1665.17,934.573 1666.56,930.966 1666.73,930.517 1667.96,927.359 1669.31,923.752 1670.34,920.863 1670.6,920.145 1671.9,916.538 1673.13,912.931 1673.94,910.461 1674.33,909.324 1675.52,905.717 1676.66,902.109 1677.55,899.134 1677.75,898.502 1678.84,894.895 1679.88,891.288 1680.87,887.681 1681.16,886.613 1681.86,884.074 1682.82,880.467 1683.72,876.86 1684.58,873.253 1684.76,872.471 1685.45,869.646 1686.28,866.039 1687.06,862.432 1687.8,858.825 1688.37,855.922 1688.52,855.218 1689.23,851.611 1689.9,848.004 1690.53,844.397 1691.13,840.79 1691.69,837.183 1691.98,835.185 1692.23,833.576 1692.75,829.969 1693.24,826.362 1693.7,822.755 1694.12,819.148 1694.51,815.541 1694.87,811.934 1695.2,808.327 1695.49,804.72 1695.58,803.469 1695.77,801.113 1696.03,797.506 1696.25,793.899 1696.44,790.292 1696.6,786.685 1696.74,783.078 1696.84,779.471 1696.91,775.864 1696.96,772.257 1696.97,768.649 1696.96,765.042 1696.91,761.435 1696.84,757.828 1696.74,754.221 1696.6,750.614 1696.44,747.007 1696.25,743.4 1696.03,739.793 1695.77,736.186 1695.58,733.83 1695.49,732.579 1695.2,728.972 1694.87,725.365 1694.51,721.758 1694.12,718.151 1693.7,714.544 1693.24,710.937 1692.75,707.33 1692.23,703.723 1691.98,702.114 1691.69,700.116 1691.13,696.509 1690.53,692.902 1689.9,689.295 1689.23,685.688 1688.52,682.081 1688.37,681.377 1687.8,678.474 1687.06,674.867 1686.28,671.26 1685.45,667.653 1684.76,664.828 1684.58,664.046 1683.72,660.439 1682.82,656.832 1681.86,653.225 1681.16,650.686 1680.87,649.618 1679.88,646.011 1678.84,642.404 1677.75,638.797 1677.55,638.165 1676.66,635.189 1675.52,631.582 1674.33,627.975 1673.94,626.838 1673.13,624.368 1671.9,620.761 1670.6,617.154 1670.34,616.436 1669.31,613.547 1667.96,609.94 1666.73,606.782 1666.56,606.333 1665.17,602.726 1663.7,599.119 1663.12,597.746 1662.21,595.512 1660.69,591.905 1659.51,589.24 1659.11,588.298 1657.53,584.691 1655.91,581.191 1655.86,581.084 1654.21,577.477 1652.47,573.87 1652.3,573.537 1650.73,570.263 1648.91,566.656 1648.69,566.236 1647.09,563.049 1645.19,559.442 1645.09,559.254 1643.29,555.835 1641.48,552.555 1641.3,552.228 1639.32,548.621 1637.87,546.112 1637.25,545.014 1635.16,541.407 1634.27,539.91 1633.02,537.8 1630.82,534.193 1630.66,533.938 1628.6,530.586 1627.05,528.152 1626.31,526.979 1623.98,523.372 1623.44,522.565 1621.61,519.765 1619.84,517.15 1619.17,516.158 1616.69,512.551 1616.23,511.904 1614.17,508.944 1612.62,506.805 1611.57,505.337 1609.02,501.869 1608.91,501.729 1606.23,498.122 1605.41,497.049 1603.48,494.515 1601.8,492.367 1600.67,490.908 1598.2,487.82 1597.78,487.301 1594.84,483.694 1594.59,483.387 1591.86,480.087 1590.98,479.055 1588.8,476.48 1587.37,474.836 1585.67,472.873 1583.77,470.724 1582.47,469.266 1580.16,466.714 1579.2,465.659 1576.55,462.799 1575.86,462.052 1572.95,458.976 1572.44,458.445 1569.34,455.24 1568.95,454.838 1565.73,451.588 1565.38,451.231 1562.12,448.016 1561.72,447.624 1558.52,444.523 1557.99,444.017 1554.91,441.106 1554.16,440.41 1551.3,437.763 1550.25,436.803 1547.7,434.492 1546.24,433.196 1544.09,431.293 1542.13,429.589 1540.48,428.165 1537.91,425.982 1536.88,425.108 1533.58,422.375 1533.27,422.12 1529.66,419.182 1529.14,418.768 1526.05,416.298 1524.6,415.161 1522.45,413.481 1519.91,411.554 1518.84,410.733 1515.23,408.049 1515.09,407.947 1511.63,405.389 1510.16,404.34 1508.02,402.798 1505.06,400.733 1504.41,400.277 1500.81,397.791 1499.81,397.126 1497.2,395.351 1494.4,393.519 1493.59,392.984 1489.98,390.649 1488.81,389.912 1486.38,388.359 1483.03,386.305 1482.77,386.146 1479.16,383.939 1477.05,382.698 1475.56,381.801 1471.95,379.71 1470.85,379.091 1468.34,377.647 1464.74,375.66 1464.41,375.484 1461.13,373.673 1457.71,371.877 1457.52,371.776 1453.91,369.871 1450.73,368.269 1450.31,368.053 1446.7,366.233 1443.43,364.662 1443.09,364.498 1439.49,362.756 1435.88,361.104 1435.77,361.055 1432.27,359.436 1428.66,357.851 1427.72,357.448 1425.06,356.272 1421.45,354.748 1419.22,353.841 1417.84,353.264 1414.24,351.797 1410.63,350.404 1410.18,350.234 1407.02,349 1403.42,347.656 1400.53,346.627 1399.81,346.361 1396.2,345.063 1392.59,343.83 1390.12,343.02 1388.99,342.631 1385.38,341.439 1381.77,340.306 1378.8,339.413 1378.17,339.215 1374.56,338.119 1370.95,337.078 1367.35,336.089 1366.28,335.806 1363.74,335.102 1360.13,334.147 1356.52,333.24 1352.92,332.379 1352.14,332.199 1349.31,331.517 1345.7,330.688 1342.1,329.903 1338.49,329.159 1335.59,328.592 1334.88,328.447 1331.28,327.735 1327.67,327.064 1324.06,326.431 1320.45,325.836 1316.85,325.277 1314.85,324.985 1313.24,324.736 1309.63,324.21 1306.03,323.72 1302.42,323.264 1298.81,322.842 1295.2,322.452 1291.6,322.094 1287.99,321.767 1284.38,321.471 1283.13,321.378 1280.78,321.192 1277.17,320.937 1273.56,320.714 1269.96,320.521 1266.35,320.359 1262.74,320.226 1259.13,320.123 1255.53,320.05 1251.92,320.006 1248.31,319.991 1244.71,320.006 1241.1,320.05 1237.49,320.123 1233.89,320.226 1230.28,320.359 1226.67,320.521 1223.06,320.714 1219.46,320.937 1215.85,321.192 1213.49,321.378 1212.24,321.471 1208.64,321.767 1205.03,322.094 1201.42,322.452 1197.82,322.842 1194.21,323.264 1190.6,323.72 1186.99,324.21 1183.39,324.736 1181.78,324.985 1179.78,325.277 1176.17,325.836 1172.57,326.431 1168.96,327.064 1165.35,327.735 1161.74,328.447 1161.04,328.592 1158.14,329.159 1154.53,329.903 1150.92,330.688 1147.32,331.517 1144.49,332.199 1143.71,332.379 1140.1,333.24 1136.5,334.147 1132.89,335.102 1130.35,335.806 1129.28,336.089 1125.67,337.078 1122.07,338.119 1118.46,339.215 1117.83,339.413 1114.85,340.306 1111.25,341.439 1107.64,342.631 1106.5,343.02 1104.03,343.83 1100.43,345.063 1096.82,346.361 1096.1,346.627 1093.21,347.656 1089.6,349 1086.45,350.234 1086,350.404 1082.39,351.797 1078.78,353.264 1077.41,353.841 1075.18,354.748 1071.57,356.272 1068.9,357.448 1067.96,357.851 1064.36,359.436 1060.86,361.055 1060.75,361.104 1057.14,362.756 1053.53,364.498 1053.2,364.662 1049.93,366.233 1046.32,368.053 1045.9,368.269 1042.71,369.871 1039.11,371.776 1038.92,371.877 1035.5,373.673 1032.22,375.484 1031.89,375.66 1028.28,377.647 1025.78,379.091 1024.68,379.71 1021.07,381.801 1019.57,382.698 1017.46,383.939 1013.86,386.146 1013.6,386.305 1010.25,388.359 1007.82,389.912 1006.64,390.649 1003.04,392.984 1002.23,393.519 999.429,395.351 996.814,397.126 995.822,397.791 992.214,400.277 991.568,400.733 988.607,402.798 986.468,404.34 985,405.389 981.533,407.947 981.393,408.049 977.786,410.733 976.712,411.554 974.179,413.481 972.031,415.161 970.572,416.298 967.484,418.768 966.965,419.182 963.358,422.12 963.051,422.375 959.751,425.108 958.719,425.982 956.144,428.165 954.5,429.589 952.537,431.293 950.388,433.196 948.93,434.492 946.378,436.803 945.323,437.763 942.463,440.41 941.716,441.106 938.64,444.017 938.109,444.523 934.904,447.624 934.502,448.016 931.252,451.231 930.895,451.588 927.68,454.838 927.288,455.24 924.187,458.445 923.681,458.976 920.77,462.052 920.074,462.799 917.427,465.659 916.467,466.714 914.156,469.266 912.86,470.724 910.957,472.873 909.253,474.836 907.829,476.48 905.646,479.055 904.771,480.087 902.039,483.387 901.784,483.694 898.846,487.301 898.432,487.82 895.962,490.908 894.825,492.367 893.145,494.515 891.218,497.049 890.397,498.122 887.713,501.729 887.611,501.869 885.053,505.337 884.004,506.805 882.462,508.944 880.397,511.904 879.941,512.551 877.455,516.158 876.79,517.15 875.015,519.765 873.183,522.565 872.648,523.372 870.313,526.979 869.576,528.152 868.023,530.586 865.969,533.938 865.81,534.193 863.603,537.8 862.362,539.91 861.465,541.407 859.374,545.014 858.754,546.112 857.311,548.621 855.324,552.228 855.147,552.555 853.337,555.835 851.54,559.254 851.439,559.442 849.535,563.049 847.933,566.236 847.717,566.656 845.897,570.263 844.326,573.537 844.162,573.87 842.42,577.477 840.768,581.084 840.719,581.191 839.1,584.691 837.515,588.298 837.112,589.24 835.936,591.905 834.412,595.512 833.505,597.746 832.928,599.119 831.461,602.726 830.067,606.333 829.898,606.782 828.664,609.94 827.32,613.547 826.291,616.436 826.025,617.154 824.727,620.761 823.494,624.368 822.684,626.838 822.295,627.975 821.103,631.582 819.97,635.189 819.077,638.165 818.879,638.797 817.783,642.404 816.742,646.011 815.753,649.618 815.47,650.686 814.766,653.225 813.81,656.832 812.903,660.439 812.043,664.046 811.863,664.828 811.18,667.653 810.351,671.26 809.566,674.867 808.823,678.474 808.256,681.377 808.111,682.081 807.399,685.688 806.727,689.295 806.095,692.902 805.5,696.509 804.941,700.116 804.649,702.114 804.4,703.723 803.874,707.33 803.384,710.937 802.928,714.544 802.505,718.151 802.116,721.758 801.758,725.365 801.431,728.972 801.135,732.579 801.042,733.83 800.855,736.186 800.601,739.793 800.378,743.4 800.185,747.007 800.022,750.614 799.89,754.221 799.787,757.828 799.714,761.435 799.67,765.042 799.655,768.649 799.67,772.257 799.714,775.864 799.787,779.471 799.89,783.078 800.022,786.685 800.185,790.292 800.378,793.899 800.601,797.506 800.855,801.113 801.042,803.469 801.135,804.72 801.431,808.327 801.758,811.934 802.116,815.541 802.505,819.148 802.928,822.755 803.384,826.362 803.874,829.969 804.4,833.576 804.649,835.185 804.941,837.183 805.5,840.79 806.095,844.397 806.727,848.004 807.399,851.611 808.111,855.218 808.256,855.922 808.823,858.825 809.566,862.432 810.351,866.039 811.18,869.646 811.863,872.471 812.043,873.253 812.903,876.86 813.81,880.467 814.766,884.074 815.47,886.613 815.753,887.681 816.742,891.288 817.783,894.895 818.879,898.502 819.077,899.134 819.97,902.109 821.103,905.717 822.295,909.324 822.684,910.461 823.494,912.931 824.727,916.538 826.025,920.145 826.291,920.863 827.32,923.752 828.664,927.359 829.898,930.517 830.067,930.966 831.461,934.573 832.928,938.18 833.505,939.553 834.412,941.787 835.936,945.394 837.112,948.059 837.515,949.001 839.1,952.608 840.719,956.108 840.768,956.215 842.42,959.822 844.162,963.429 844.326,963.762 845.897,967.036 847.717,970.643 847.933,971.063 849.535,974.25 851.439,977.857 851.54,978.045 853.337,981.464 855.147,984.744 855.324,985.071 857.311,988.678 858.754,991.187 859.374,992.285 861.465,995.892 862.362,997.388 863.603,999.499 865.81,1003.11 865.969,1003.36 868.023,1006.71 869.576,1009.15 870.313,1010.32 872.648,1013.93 873.183,1014.73 875.015,1017.53 876.79,1020.15 877.455,1021.14 879.941,1024.75 880.397,1025.4 882.462,1028.36 884.004,1030.49 885.053,1031.96 887.611,1035.43 887.713,1035.57 890.397,1039.18 891.218,1040.25 893.145,1042.78 894.825,1044.93 895.962,1046.39 898.432,1049.48 898.846,1050 901.784,1053.6 902.039,1053.91 904.771,1057.21 905.646,1058.24 907.829,1060.82 909.253,1062.46 910.957,1064.43 912.86,1066.57 914.156,1068.03 916.467,1070.59 917.427,1071.64 920.074,1074.5 920.77,1075.25 923.681,1078.32 924.187,1078.85 927.288,1082.06 927.68,1082.46 930.895,1085.71 931.252,1086.07 934.502,1089.28 934.904,1089.67 "/>
<polyline clip-path="url(#clip802)" style="stroke:#fbac10; stroke-linecap:round; stroke-linejoin:round; stroke-width:4; stroke-opacity:1; fill:none" points="1019.24,1006.71 1021.07,1008.46 1023.05,1010.32 1024.68,1011.83 1026.98,1013.93 1028.28,1015.1 1031.05,1017.53 1031.89,1018.27 1035.25,1021.14 1035.5,1021.35 1039.11,1024.35 1039.6,1024.75 1042.71,1027.26 1044.1,1028.36 1046.32,1030.09 1048.78,1031.96 1049.93,1032.83 1053.53,1035.5 1053.63,1035.57 1057.14,1038.1 1058.67,1039.18 1060.75,1040.63 1063.93,1042.78 1064.36,1043.07 1067.96,1045.46 1069.41,1046.39 1071.57,1047.78 1075.13,1050 1075.18,1050.02 1078.78,1052.22 1081.14,1053.6 1082.39,1054.34 1086,1056.41 1087.44,1057.21 1089.6,1058.41 1093.21,1060.36 1094.09,1060.82 1096.82,1062.25 1100.43,1064.08 1101.13,1064.43 1104.03,1065.86 1107.64,1067.58 1108.61,1068.03 1111.25,1069.26 1114.85,1070.87 1116.62,1071.64 1118.46,1072.44 1122.07,1073.96 1125.25,1075.25 1125.67,1075.42 1129.28,1076.84 1132.89,1078.21 1134.65,1078.85 1136.5,1079.53 1140.1,1080.81 1143.71,1082.03 1145.03,1082.46 1147.32,1083.21 1150.92,1084.35 1154.53,1085.44 1156.71,1086.07 1158.14,1086.48 1161.74,1087.49 1165.35,1088.45 1168.96,1089.36 1170.29,1089.67 1172.57,1090.23 1176.17,1091.06 1179.78,1091.85 1183.39,1092.59 1186.99,1093.28 1186.99,1093.28 1190.6,1093.95 1194.21,1094.57 1197.82,1095.15 1201.42,1095.69 1205.03,1096.18 1208.64,1096.63 1210.86,1096.89 1212.24,1097.05 1215.85,1097.43 1219.46,1097.77 1223.06,1098.07 1226.67,1098.32 1230.28,1098.54 1233.89,1098.72 1237.49,1098.86 1241.1,1098.95 1244.71,1099.01 1248.31,1099.03 1251.92,1099.01 1255.53,1098.95 1259.13,1098.86 1262.74,1098.72 1266.35,1098.54 1269.96,1098.32 1273.56,1098.07 1277.17,1097.77 1280.78,1097.43 1284.38,1097.05 1285.77,1096.89 1287.99,1096.63 1291.6,1096.18 1295.2,1095.69 1298.81,1095.15 1302.42,1094.57 1306.03,1093.95 1309.63,1093.28 1309.64,1093.28 1313.24,1092.59 1316.85,1091.85 1320.45,1091.06 1324.06,1090.23 1326.33,1089.67 1327.67,1089.36 1331.28,1088.45 1334.88,1087.49 1338.49,1086.48 1339.91,1086.07 1342.1,1085.44 1345.7,1084.35 1349.31,1083.21 1351.6,1082.46 1352.92,1082.03 1356.52,1080.81 1360.13,1079.53 1361.97,1078.85 1363.74,1078.21 1367.35,1076.84 1370.95,1075.42 1371.38,1075.25 1374.56,1073.96 1378.17,1072.44 1380.01,1071.64 1381.77,1070.87 1385.38,1069.26 1388.01,1068.03 1388.99,1067.58 1392.59,1065.86 1395.5,1064.43 1396.2,1064.08 1399.81,1062.25 1402.53,1060.82 1403.42,1060.36 1407.02,1058.41 1409.18,1057.21 1410.63,1056.41 1414.24,1054.34 1415.49,1053.6 1417.84,1052.22 1421.45,1050.02 1421.49,1050 1425.06,1047.78 1427.22,1046.39 1428.66,1045.46 1432.27,1043.07 1432.7,1042.78 1435.88,1040.63 1437.95,1039.18 1439.49,1038.1 1443,1035.57 1443.09,1035.5 1446.7,1032.83 1447.85,1031.96 1450.31,1030.09 1452.52,1028.36 1453.91,1027.26 1457.03,1024.75 1457.52,1024.35 1461.13,1021.35 1461.38,1021.14 1464.74,1018.27 1465.58,1017.53 1468.34,1015.1 1469.65,1013.93 1471.95,1011.83 1473.58,1010.32 1475.56,1008.46 1477.39,1006.71 1479.16,1004.99 1481.08,1003.11 1482.77,1001.42 1484.66,999.499 1486.38,997.725 1488.13,995.892 1489.98,993.916 1491.5,992.285 1493.59,989.982 1494.76,988.678 1497.2,985.917 1497.94,985.071 1500.81,981.713 1501.02,981.464 1504.01,977.857 1504.41,977.364 1506.92,974.25 1508.02,972.859 1509.75,970.643 1511.63,968.186 1512.5,967.036 1515.16,963.429 1515.23,963.333 1517.76,959.822 1518.84,958.289 1520.29,956.215 1522.45,953.036 1522.74,952.608 1525.12,949.001 1526.05,947.556 1527.44,945.394 1529.66,941.829 1529.69,941.787 1531.88,938.18 1533.27,935.826 1534.01,934.573 1536.07,930.966 1536.88,929.519 1538.08,927.359 1540.02,923.752 1540.48,922.871 1541.91,920.145 1543.74,916.538 1544.09,915.834 1545.53,912.931 1547.25,909.324 1547.7,908.35 1548.92,905.717 1550.54,902.109 1551.3,900.342 1552.11,898.502 1553.62,894.895 1554.91,891.714 1555.08,891.288 1556.51,887.681 1557.87,884.074 1558.52,882.31 1559.2,880.467 1560.47,876.86 1561.69,873.253 1562.12,871.934 1562.88,869.646 1564.02,866.039 1565.1,862.432 1565.73,860.249 1566.15,858.825 1567.15,855.218 1568.11,851.611 1569.02,848.004 1569.34,846.671 1569.89,844.397 1570.72,840.79 1571.51,837.183 1572.25,833.576 1572.95,829.975 1572.95,829.969 1573.61,826.362 1574.24,822.755 1574.82,819.148 1575.35,815.541 1575.85,811.934 1576.3,808.327 1576.55,806.104 1576.71,804.72 1577.09,801.113 1577.43,797.506 1577.73,793.899 1577.99,790.292 1578.2,786.685 1578.38,783.078 1578.52,779.471 1578.62,775.864 1578.68,772.257 1578.7,768.649 1578.68,765.042 1578.62,761.435 1578.52,757.828 1578.38,754.221 1578.2,750.614 1577.99,747.007 1577.73,743.4 1577.43,739.793 1577.09,736.186 1576.71,732.579 1576.55,731.195 1576.3,728.972 1575.85,725.365 1575.35,721.758 1574.82,718.151 1574.24,714.544 1573.61,710.937 1572.95,707.33 1572.95,707.324 1572.25,703.723 1571.51,700.116 1570.72,696.509 1569.89,692.902 1569.34,690.628 1569.02,689.295 1568.11,685.688 1567.15,682.081 1566.15,678.474 1565.73,677.05 1565.1,674.867 1564.02,671.26 1562.88,667.653 1562.12,665.365 1561.69,664.046 1560.47,660.439 1559.2,656.832 1558.52,654.989 1557.87,653.225 1556.51,649.618 1555.08,646.011 1554.91,645.585 1553.62,642.404 1552.11,638.797 1551.3,636.957 1550.54,635.189 1548.92,631.582 1547.7,628.949 1547.25,627.975 1545.53,624.368 1544.09,621.465 1543.74,620.761 1541.91,617.154 1540.48,614.428 1540.02,613.547 1538.08,609.94 1536.88,607.78 1536.07,606.333 1534.01,602.726 1533.27,601.473 1531.88,599.119 1529.69,595.512 1529.66,595.47 1527.44,591.905 1526.05,589.743 1525.12,588.298 1522.74,584.691 1522.45,584.263 1520.29,581.084 1518.84,579.01 1517.76,577.477 1515.23,573.966 1515.16,573.87 1512.5,570.263 1511.63,569.113 1509.75,566.656 1508.02,564.44 1506.92,563.049 1504.41,559.935 1504.01,559.442 1501.02,555.835 1500.81,555.586 1497.94,552.228 1497.2,551.382 1494.76,548.621 1493.59,547.317 1491.5,545.014 1489.98,543.383 1488.13,541.407 1486.38,539.574 1484.66,537.8 1482.77,535.884 1481.08,534.193 1479.16,532.305 1477.39,530.586 1475.56,528.835 1473.58,526.979 1471.95,525.468 1469.65,523.372 1468.34,522.199 1465.58,519.765 1464.74,519.027 1461.38,516.158 1461.13,515.947 1457.52,512.952 1457.03,512.551 1453.91,510.04 1452.52,508.944 1450.31,507.211 1447.85,505.337 1446.7,504.465 1443.09,501.799 1443,501.729 1439.49,499.198 1437.95,498.122 1435.88,496.674 1432.7,494.515 1432.27,494.226 1428.66,491.839 1427.22,490.908 1425.06,489.52 1421.49,487.301 1421.45,487.275 1417.84,485.08 1415.49,483.694 1414.24,482.957 1410.63,480.892 1409.18,480.087 1407.02,478.885 1403.42,476.942 1402.53,476.48 1399.81,475.048 1396.2,473.22 1395.5,472.873 1392.59,471.437 1388.99,469.717 1388.01,469.266 1385.38,468.042 1381.77,466.425 1380.01,465.659 1378.17,464.858 1374.56,463.339 1371.38,462.052 1370.95,461.879 1367.35,460.454 1363.74,459.089 1361.97,458.445 1360.13,457.767 1356.52,456.49 1352.92,455.268 1351.6,454.838 1349.31,454.085 1345.7,452.946 1342.1,451.86 1339.91,451.231 1338.49,450.816 1334.88,449.809 1331.28,448.852 1327.67,447.944 1326.33,447.624 1324.06,447.071 1320.45,446.238 1316.85,445.452 1313.24,444.712 1309.64,444.017 1309.63,444.016 1306.03,443.349 1302.42,442.727 1298.81,442.147 1295.2,441.611 1291.6,441.117 1287.99,440.664 1285.77,440.41 1284.38,440.249 1280.78,439.869 1277.17,439.531 1273.56,439.233 1269.96,438.975 1266.35,438.758 1262.74,438.58 1259.13,438.443 1255.53,438.344 1251.92,438.285 1248.31,438.266 1244.71,438.285 1241.1,438.344 1237.49,438.443 1233.89,438.58 1230.28,438.758 1226.67,438.975 1223.06,439.233 1219.46,439.531 1215.85,439.869 1212.24,440.249 1210.86,440.41 1208.64,440.664 1205.03,441.117 1201.42,441.611 1197.82,442.147 1194.21,442.727 1190.6,443.349 1186.99,444.016 1186.99,444.017 1183.39,444.712 1179.78,445.452 1176.17,446.238 1172.57,447.071 1170.29,447.624 1168.96,447.944 1165.35,448.852 1161.74,449.809 1158.14,450.816 1156.71,451.231 1154.53,451.86 1150.92,452.946 1147.32,454.085 1145.03,454.838 1143.71,455.268 1140.1,456.49 1136.5,457.767 1134.65,458.445 1132.89,459.089 1129.28,460.454 1125.67,461.879 1125.25,462.052 1122.07,463.339 1118.46,464.858 1116.62,465.659 1114.85,466.425 1111.25,468.042 1108.61,469.266 1107.64,469.717 1104.03,471.437 1101.13,472.873 1100.43,473.22 1096.82,475.048 1094.09,476.48 1093.21,476.942 1089.6,478.885 1087.44,480.087 1086,480.892 1082.39,482.957 1081.14,483.694 1078.78,485.08 1075.18,487.275 1075.13,487.301 1071.57,489.52 1069.41,490.908 1067.96,491.839 1064.36,494.226 1063.93,494.515 1060.75,496.674 1058.67,498.122 1057.14,499.198 1053.63,501.729 1053.53,501.799 1049.93,504.465 1048.78,505.337 1046.32,507.211 1044.1,508.944 1042.71,510.04 1039.6,512.551 1039.11,512.952 1035.5,515.947 1035.25,516.158 1031.89,519.027 1031.05,519.765 1028.28,522.199 1026.98,523.372 1024.68,525.468 1023.05,526.979 1021.07,528.835 1019.24,530.586 1017.46,532.305 1015.55,534.193 1013.86,535.884 1011.97,537.8 1010.25,539.574 1008.5,541.407 1006.64,543.383 1005.13,545.014 1003.04,547.317 1001.86,548.621 999.429,551.382 998.691,552.228 995.822,555.586 995.611,555.835 992.615,559.442 992.214,559.935 989.704,563.049 988.607,564.44 986.875,566.656 985,569.113 984.129,570.263 981.463,573.87 981.393,573.966 978.862,577.477 977.786,579.01 976.338,581.084 974.179,584.263 973.89,584.691 971.502,588.298 970.572,589.743 969.184,591.905 966.965,595.47 966.939,595.512 964.744,599.119 963.358,601.473 962.621,602.726 960.556,606.333 959.751,607.78 958.549,609.94 956.606,613.547 956.144,614.428 954.712,617.154 952.884,620.761 952.537,621.465 951.101,624.368 949.381,627.975 948.93,628.949 947.706,631.582 946.089,635.189 945.323,636.957 944.522,638.797 943.003,642.404 941.716,645.585 941.543,646.011 940.118,649.618 938.753,653.225 938.109,654.989 937.431,656.832 936.154,660.439 934.932,664.046 934.502,665.365 933.749,667.653 932.61,671.26 931.524,674.867 930.895,677.05 930.48,678.474 929.473,682.081 928.516,685.688 927.608,689.295 927.288,690.628 926.735,692.902 925.902,696.509 925.116,700.116 924.376,703.723 923.681,707.324 923.68,707.33 923.013,710.937 922.391,714.544 921.811,718.151 921.275,721.758 920.781,725.365 920.328,728.972 920.074,731.195 919.913,732.579 919.533,736.186 919.194,739.793 918.897,743.4 918.639,747.007 918.422,750.614 918.244,754.221 918.106,757.828 918.008,761.435 917.949,765.042 917.929,768.649 917.949,772.257 918.008,775.864 918.106,779.471 918.244,783.078 918.422,786.685 918.639,790.292 918.897,793.899 919.194,797.506 919.533,801.113 919.913,804.72 920.074,806.104 920.328,808.327 920.781,811.934 921.275,815.541 921.811,819.148 922.391,822.755 923.013,826.362 923.68,829.969 923.681,829.975 924.376,833.576 925.116,837.183 925.902,840.79 926.735,844.397 927.288,846.671 927.608,848.004 928.516,851.611 929.473,855.218 930.48,858.825 930.895,860.249 931.524,862.432 932.61,866.039 933.749,869.646 934.502,871.934 934.932,873.253 936.154,876.86 937.431,880.467 938.109,882.31 938.753,884.074 940.118,887.681 941.543,891.288 941.716,891.714 943.003,894.895 944.522,898.502 945.323,900.342 946.089,902.109 947.706,905.717 948.93,908.35 949.381,909.324 951.101,912.931 952.537,915.834 952.884,916.538 954.712,920.145 956.144,922.871 956.606,923.752 958.549,927.359 959.751,929.519 960.556,930.966 962.621,934.573 963.358,935.826 964.744,938.18 966.939,941.787 966.965,941.829 969.184,945.394 970.572,947.556 971.502,949.001 973.89,952.608 974.179,953.036 976.338,956.215 977.786,958.289 978.862,959.822 981.393,963.333 981.463,963.429 984.129,967.036 985,968.186 986.875,970.643 988.607,972.859 989.704,974.25 992.214,977.364 992.615,977.857 995.611,981.464 995.822,981.713 998.691,985.071 999.429,985.917 1001.86,988.678 1003.04,989.982 1005.13,992.285 1006.64,993.916 1008.5,995.892 1010.25,997.725 1011.97,999.499 1013.86,1001.42 1015.55,1003.11 1017.46,1004.99 1019.24,1006.71 "/>
<polyline clip-path="url(#clip802)" style="stroke:#ea6428; stroke-linecap:round; stroke-linejoin:round; stroke-width:4; stroke-opacity:1; fill:none" points="1063.29,963.429 1064.36,964.436 1067.16,967.036 1067.96,967.764 1071.19,970.643 1071.57,970.973 1075.18,974.068 1075.39,974.25 1078.78,977.055 1079.78,977.857 1082.39,979.938 1084.36,981.464 1086,982.722 1089.15,985.071 1089.6,985.409 1093.21,988.005 1094.17,988.678 1096.82,990.512 1099.45,992.285 1100.43,992.932 1104.03,995.269 1105.02,995.892 1107.64,997.527 1110.91,999.499 1111.25,999.703 1114.85,1001.81 1117.16,1003.11 1118.46,1003.83 1122.07,1005.79 1123.83,1006.71 1125.67,1007.68 1129.28,1009.49 1130.98,1010.32 1132.89,1011.24 1136.5,1012.93 1138.73,1013.93 1140.1,1014.54 1143.71,1016.1 1147.18,1017.53 1147.32,1017.59 1150.92,1019.03 1154.53,1020.4 1156.56,1021.14 1158.14,1021.72 1161.74,1022.97 1165.35,1024.17 1167.18,1024.75 1168.96,1025.31 1172.57,1026.4 1176.17,1027.44 1179.58,1028.36 1179.78,1028.41 1183.39,1029.34 1186.99,1030.21 1190.6,1031.03 1194.21,1031.8 1195.05,1031.96 1197.82,1032.51 1201.42,1033.18 1205.03,1033.79 1208.64,1034.36 1212.24,1034.87 1215.85,1035.33 1217.93,1035.57 1219.46,1035.75 1223.06,1036.11 1226.67,1036.43 1230.28,1036.7 1233.89,1036.92 1237.49,1037.09 1241.1,1037.21 1244.71,1037.28 1248.31,1037.3 1251.92,1037.28 1255.53,1037.21 1259.13,1037.09 1262.74,1036.92 1266.35,1036.7 1269.96,1036.43 1273.56,1036.11 1277.17,1035.75 1278.7,1035.57 1280.78,1035.33 1284.38,1034.87 1287.99,1034.36 1291.6,1033.79 1295.2,1033.18 1298.81,1032.51 1301.58,1031.96 1302.42,1031.8 1306.03,1031.03 1309.63,1030.21 1313.24,1029.34 1316.85,1028.41 1317.05,1028.36 1320.45,1027.44 1324.06,1026.4 1327.67,1025.31 1329.45,1024.75 1331.28,1024.17 1334.88,1022.97 1338.49,1021.72 1340.06,1021.14 1342.1,1020.4 1345.7,1019.03 1349.31,1017.59 1349.45,1017.53 1352.92,1016.1 1356.52,1014.54 1357.9,1013.93 1360.13,1012.93 1363.74,1011.24 1365.64,1010.32 1367.35,1009.49 1370.95,1007.68 1372.8,1006.71 1374.56,1005.79 1378.17,1003.83 1379.47,1003.11 1381.77,1001.81 1385.38,999.703 1385.72,999.499 1388.99,997.527 1391.61,995.892 1392.59,995.269 1396.2,992.932 1397.17,992.285 1399.81,990.512 1402.45,988.678 1403.42,988.005 1407.02,985.409 1407.48,985.071 1410.63,982.722 1412.27,981.464 1414.24,979.938 1416.85,977.857 1417.84,977.055 1421.23,974.25 1421.45,974.068 1425.06,970.973 1425.43,970.643 1428.66,967.764 1429.46,967.036 1432.27,964.436 1433.34,963.429 1435.88,960.983 1437.06,959.822 1439.49,957.398 1440.65,956.215 1443.09,953.673 1444.1,952.608 1446.7,949.8 1447.43,949.001 1450.31,945.769 1450.64,945.394 1453.73,941.787 1453.91,941.569 1456.72,938.18 1457.52,937.186 1459.6,934.573 1461.13,932.607 1462.39,930.966 1464.74,927.817 1465.07,927.359 1467.67,923.752 1468.34,922.79 1470.18,920.145 1471.95,917.509 1472.6,916.538 1474.93,912.931 1475.56,911.941 1477.19,909.324 1479.16,906.057 1479.37,905.717 1481.47,902.109 1482.77,899.803 1483.5,898.502 1485.45,894.895 1486.38,893.135 1487.34,891.288 1489.16,887.681 1489.98,885.978 1490.91,884.074 1492.59,880.467 1493.59,878.238 1494.21,876.86 1495.77,873.253 1497.2,869.787 1497.26,869.646 1498.69,866.039 1500.07,862.432 1500.81,860.4 1501.38,858.825 1502.64,855.218 1503.84,851.611 1504.41,849.788 1504.98,848.004 1506.07,844.397 1507.1,840.79 1508.02,837.388 1508.07,837.183 1509,833.576 1509.88,829.969 1510.69,826.362 1511.46,822.755 1511.63,821.911 1512.18,819.148 1512.84,815.541 1513.46,811.934 1514.02,808.327 1514.53,804.72 1515,801.113 1515.23,799.035 1515.41,797.506 1515.78,793.899 1516.09,790.292 1516.36,786.685 1516.58,783.078 1516.75,779.471 1516.87,775.864 1516.94,772.257 1516.97,768.649 1516.94,765.042 1516.87,761.435 1516.75,757.828 1516.58,754.221 1516.36,750.614 1516.09,747.007 1515.78,743.4 1515.41,739.793 1515.23,738.264 1515,736.186 1514.53,732.579 1514.02,728.972 1513.46,725.365 1512.84,721.758 1512.18,718.151 1511.63,715.388 1511.46,714.544 1510.69,710.937 1509.88,707.33 1509,703.723 1508.07,700.116 1508.02,699.911 1507.1,696.509 1506.07,692.902 1504.98,689.295 1504.41,687.511 1503.84,685.688 1502.64,682.081 1501.38,678.474 1500.81,676.899 1500.07,674.867 1498.69,671.26 1497.26,667.653 1497.2,667.512 1495.77,664.046 1494.21,660.439 1493.59,659.061 1492.59,656.832 1490.91,653.225 1489.98,651.321 1489.16,649.618 1487.34,646.011 1486.38,644.164 1485.45,642.404 1483.5,638.797 1482.77,637.496 1481.47,635.189 1479.37,631.582 1479.16,631.242 1477.19,627.975 1475.56,625.358 1474.93,624.368 1472.6,620.761 1471.95,619.79 1470.18,617.154 1468.34,614.509 1467.67,613.547 1465.07,609.94 1464.74,609.482 1462.39,606.333 1461.13,604.692 1459.6,602.726 1457.52,600.113 1456.72,599.119 1453.91,595.73 1453.73,595.512 1450.64,591.905 1450.31,591.53 1447.43,588.298 1446.7,587.499 1444.1,584.691 1443.09,583.626 1440.65,581.084 1439.49,579.901 1437.06,577.477 1435.88,576.316 1433.34,573.87 1432.27,572.863 1429.46,570.263 1428.66,569.535 1425.43,566.656 1425.06,566.326 1421.45,563.231 1421.23,563.049 1417.84,560.244 1416.85,559.442 1414.24,557.361 1412.27,555.835 1410.63,554.577 1407.48,552.228 1407.02,551.89 1403.42,549.294 1402.45,548.621 1399.81,546.787 1397.17,545.014 1396.2,544.367 1392.59,542.03 1391.61,541.407 1388.99,539.772 1385.72,537.8 1385.38,537.596 1381.77,535.492 1379.47,534.193 1378.17,533.464 1374.56,531.508 1372.8,530.586 1370.95,529.623 1367.35,527.806 1365.64,526.979 1363.74,526.057 1360.13,524.373 1357.9,523.372 1356.52,522.754 1352.92,521.197 1349.45,519.765 1349.31,519.706 1345.7,518.27 1342.1,516.898 1340.06,516.158 1338.49,515.584 1334.88,514.325 1331.28,513.128 1329.45,512.551 1327.67,511.985 1324.06,510.895 1320.45,509.863 1317.05,508.944 1316.85,508.888 1313.24,507.96 1309.63,507.087 1306.03,506.268 1302.42,505.504 1301.58,505.337 1298.81,504.786 1295.2,504.119 1291.6,503.505 1287.99,502.941 1284.38,502.429 1280.78,501.967 1278.7,501.729 1277.17,501.553 1273.56,501.186 1269.96,500.869 1266.35,500.601 1262.74,500.383 1259.13,500.213 1255.53,500.091 1251.92,500.019 1248.31,499.995 1244.71,500.019 1241.1,500.091 1237.49,500.213 1233.89,500.383 1230.28,500.601 1226.67,500.869 1223.06,501.186 1219.46,501.553 1217.93,501.729 1215.85,501.967 1212.24,502.429 1208.64,502.941 1205.03,503.505 1201.42,504.119 1197.82,504.786 1195.05,505.337 1194.21,505.504 1190.6,506.268 1186.99,507.087 1183.39,507.96 1179.78,508.888 1179.58,508.944 1176.17,509.863 1172.57,510.895 1168.96,511.985 1167.18,512.551 1165.35,513.128 1161.74,514.325 1158.14,515.584 1156.56,516.158 1154.53,516.898 1150.92,518.27 1147.32,519.706 1147.18,519.765 1143.71,521.197 1140.1,522.754 1138.73,523.372 1136.5,524.373 1132.89,526.057 1130.98,526.979 1129.28,527.806 1125.67,529.623 1123.83,530.586 1122.07,531.508 1118.46,533.464 1117.16,534.193 1114.85,535.492 1111.25,537.596 1110.91,537.8 1107.64,539.772 1105.02,541.407 1104.03,542.03 1100.43,544.367 1099.45,545.014 1096.82,546.787 1094.17,548.621 1093.21,549.294 1089.6,551.89 1089.15,552.228 1086,554.577 1084.36,555.835 1082.39,557.361 1079.78,559.442 1078.78,560.244 1075.39,563.049 1075.18,563.231 1071.57,566.326 1071.19,566.656 1067.96,569.535 1067.16,570.263 1064.36,572.863 1063.29,573.87 1060.75,576.316 1059.56,577.477 1057.14,579.901 1055.98,581.084 1053.53,583.626 1052.53,584.691 1049.93,587.499 1049.2,588.298 1046.32,591.53 1045.99,591.905 1042.9,595.512 1042.71,595.73 1039.91,599.119 1039.11,600.113 1037.02,602.726 1035.5,604.692 1034.24,606.333 1031.89,609.482 1031.55,609.94 1028.96,613.547 1028.28,614.509 1026.45,617.154 1024.68,619.79 1024.03,620.761 1021.69,624.368 1021.07,625.358 1019.44,627.975 1017.46,631.242 1017.26,631.582 1015.16,635.189 1013.86,637.496 1013.13,638.797 1011.17,642.404 1010.25,644.164 1009.29,646.011 1007.47,649.618 1006.64,651.321 1005.72,653.225 1004.04,656.832 1003.04,659.061 1002.42,660.439 1000.86,664.046 999.429,667.512 999.37,667.653 997.934,671.26 996.562,674.867 995.822,676.899 995.248,678.474 993.989,682.081 992.792,685.688 992.214,687.511 991.649,689.295 990.559,692.902 989.527,696.509 988.607,699.911 988.552,700.116 987.623,703.723 986.75,707.33 985.932,710.937 985.168,714.544 985,715.388 984.45,718.151 983.783,721.758 983.168,725.365 982.605,728.972 982.093,732.579 981.631,736.186 981.393,738.264 981.217,739.793 980.85,743.4 980.533,747.007 980.265,750.614 980.047,754.221 979.877,757.828 979.755,761.435 979.683,765.042 979.658,768.649 979.683,772.257 979.755,775.864 979.877,779.471 980.047,783.078 980.265,786.685 980.533,790.292 980.85,793.899 981.217,797.506 981.393,799.035 981.631,801.113 982.093,804.72 982.605,808.327 983.168,811.934 983.783,815.541 984.45,819.148 985,821.911 985.168,822.755 985.932,826.362 986.75,829.969 987.623,833.576 988.552,837.183 988.607,837.388 989.527,840.79 990.559,844.397 991.649,848.004 992.214,849.788 992.792,851.611 993.989,855.218 995.248,858.825 995.822,860.4 996.562,862.432 997.934,866.039 999.37,869.646 999.429,869.787 1000.86,873.253 1002.42,876.86 1003.04,878.238 1004.04,880.467 1005.72,884.074 1006.64,885.978 1007.47,887.681 1009.29,891.288 1010.25,893.135 1011.17,894.895 1013.13,898.502 1013.86,899.803 1015.16,902.109 1017.26,905.717 1017.46,906.057 1019.44,909.324 1021.07,911.941 1021.69,912.931 1024.03,916.538 1024.68,917.509 1026.45,920.145 1028.28,922.79 1028.96,923.752 1031.55,927.359 1031.89,927.817 1034.24,930.966 1035.5,932.607 1037.02,934.573 1039.11,937.186 1039.91,938.18 1042.71,941.569 1042.9,941.787 1045.99,945.394 1046.32,945.769 1049.2,949.001 1049.93,949.8 1052.53,952.608 1053.53,953.673 1055.98,956.215 1057.14,957.398 1059.56,959.822 1060.75,960.983 1063.29,963.429 "/>
<polyline clip-path="url(#clip802)" style="stroke:#b73456; stroke-linecap:round; stroke-linejoin:round; stroke-width:4; stroke-opacity:1; fill:none" points="1099.35,927.359 1100.43,928.361 1103.29,930.966 1104.03,931.628 1107.43,934.573 1107.64,934.753 1111.25,937.741 1111.79,938.18 1114.85,940.601 1116.4,941.787 1118.46,943.341 1121.27,945.394 1122.07,945.966 1125.67,948.48 1126.45,949.001 1129.28,950.887 1131.96,952.608 1132.89,953.194 1136.5,955.401 1137.87,956.215 1140.1,957.514 1143.71,959.536 1144.24,959.822 1147.32,961.468 1150.92,963.316 1151.15,963.429 1154.53,965.078 1158.14,966.761 1158.75,967.036 1161.74,968.363 1165.35,969.888 1167.22,970.643 1168.96,971.338 1172.57,972.713 1176.17,974.016 1176.86,974.25 1179.78,975.248 1183.39,976.41 1186.99,977.503 1188.24,977.857 1190.6,978.528 1194.21,979.487 1197.82,980.38 1201.42,981.207 1202.63,981.464 1205.03,981.971 1208.64,982.672 1212.24,983.31 1215.85,983.885 1219.46,984.397 1223.06,984.849 1225.12,985.071 1226.67,985.24 1230.28,985.57 1233.89,985.84 1237.49,986.05 1241.1,986.2 1244.71,986.289 1248.31,986.319 1251.92,986.289 1255.53,986.2 1259.13,986.05 1262.74,985.84 1266.35,985.57 1269.96,985.24 1271.51,985.071 1273.56,984.849 1277.17,984.397 1280.78,983.885 1284.38,983.31 1287.99,982.672 1291.6,981.971 1293.99,981.464 1295.2,981.207 1298.81,980.38 1302.42,979.487 1306.03,978.528 1308.39,977.857 1309.63,977.503 1313.24,976.41 1316.85,975.248 1319.77,974.25 1320.45,974.016 1324.06,972.713 1327.67,971.338 1329.4,970.643 1331.28,969.888 1334.88,968.363 1337.87,967.036 1338.49,966.761 1342.1,965.078 1345.47,963.429 1345.7,963.316 1349.31,961.468 1352.39,959.822 1352.92,959.536 1356.52,957.514 1358.75,956.215 1360.13,955.401 1363.74,953.194 1364.66,952.608 1367.35,950.887 1370.18,949.001 1370.95,948.48 1374.56,945.966 1375.36,945.394 1378.17,943.341 1380.23,941.787 1381.77,940.601 1384.84,938.18 1385.38,937.741 1388.99,934.753 1389.2,934.573 1392.59,931.628 1393.34,930.966 1396.2,928.361 1397.28,927.359 1399.81,924.944 1401.03,923.752 1403.42,921.364 1404.61,920.145 1407.02,917.612 1408.03,916.538 1410.63,913.674 1411.29,912.931 1414.24,909.535 1414.42,909.324 1417.4,905.717 1417.84,905.172 1420.27,902.109 1421.45,900.564 1423,898.502 1425.06,895.692 1425.63,894.895 1428.14,891.288 1428.66,890.517 1430.55,887.681 1432.27,885 1432.86,884.074 1435.06,880.467 1435.88,879.088 1437.18,876.86 1439.2,873.253 1439.49,872.724 1441.13,869.646 1442.98,866.039 1443.09,865.809 1444.74,862.432 1446.42,858.825 1446.7,858.209 1448.03,855.218 1449.55,851.611 1450.31,849.739 1451,848.004 1452.38,844.397 1453.68,840.79 1453.91,840.108 1454.91,837.183 1456.07,833.576 1457.17,829.969 1457.52,828.725 1458.19,826.362 1459.15,822.755 1460.04,819.148 1460.87,815.541 1461.13,814.331 1461.64,811.934 1462.34,808.327 1462.97,804.72 1463.55,801.113 1464.06,797.506 1464.51,793.899 1464.74,791.847 1464.9,790.292 1465.23,786.685 1465.5,783.078 1465.71,779.471 1465.86,775.864 1465.95,772.257 1465.98,768.649 1465.95,765.042 1465.86,761.435 1465.71,757.828 1465.5,754.221 1465.23,750.614 1464.9,747.007 1464.74,745.452 1464.51,743.4 1464.06,739.793 1463.55,736.186 1462.97,732.579 1462.34,728.972 1461.64,725.365 1461.13,722.968 1460.87,721.758 1460.04,718.151 1459.15,714.544 1458.19,710.937 1457.52,708.574 1457.17,707.33 1456.07,703.723 1454.91,700.116 1453.91,697.191 1453.68,696.509 1452.38,692.902 1451,689.295 1450.31,687.56 1449.55,685.688 1448.03,682.081 1446.7,679.09 1446.42,678.474 1444.74,674.867 1443.09,671.49 1442.98,671.26 1441.13,667.653 1439.49,664.575 1439.2,664.046 1437.18,660.439 1435.88,658.211 1435.06,656.832 1432.86,653.225 1432.27,652.299 1430.55,649.618 1428.66,646.782 1428.14,646.011 1425.63,642.404 1425.06,641.607 1423,638.797 1421.45,636.735 1420.27,635.189 1417.84,632.127 1417.4,631.582 1414.42,627.975 1414.24,627.764 1411.29,624.368 1410.63,623.625 1408.03,620.761 1407.02,619.687 1404.61,617.154 1403.42,615.935 1401.03,613.547 1399.81,612.355 1397.28,609.94 1396.2,608.938 1393.34,606.333 1392.59,605.671 1389.2,602.726 1388.99,602.546 1385.38,599.558 1384.84,599.119 1381.77,596.698 1380.23,595.512 1378.17,593.958 1375.36,591.905 1374.56,591.333 1370.95,588.819 1370.18,588.298 1367.35,586.412 1364.66,584.691 1363.74,584.105 1360.13,581.898 1358.75,581.084 1356.52,579.785 1352.92,577.763 1352.39,577.477 1349.31,575.831 1345.7,573.983 1345.47,573.87 1342.1,572.221 1338.49,570.538 1337.87,570.263 1334.88,568.936 1331.28,567.411 1329.4,566.656 1327.67,565.961 1324.06,564.586 1320.45,563.283 1319.77,563.049 1316.85,562.051 1313.24,560.889 1309.63,559.796 1308.39,559.442 1306.03,558.771 1302.42,557.812 1298.81,556.919 1295.2,556.092 1293.99,555.835 1291.6,555.328 1287.99,554.627 1284.38,553.989 1280.78,553.414 1277.17,552.902 1273.56,552.45 1271.51,552.228 1269.96,552.059 1266.35,551.729 1262.74,551.459 1259.13,551.249 1255.53,551.099 1251.92,551.01 1248.31,550.98 1244.71,551.01 1241.1,551.099 1237.49,551.249 1233.89,551.459 1230.28,551.729 1226.67,552.059 1225.12,552.228 1223.06,552.45 1219.46,552.902 1215.85,553.414 1212.24,553.989 1208.64,554.627 1205.03,555.328 1202.63,555.835 1201.42,556.092 1197.82,556.919 1194.21,557.812 1190.6,558.771 1188.24,559.442 1186.99,559.796 1183.39,560.889 1179.78,562.051 1176.86,563.049 1176.17,563.283 1172.57,564.586 1168.96,565.961 1167.22,566.656 1165.35,567.411 1161.74,568.936 1158.75,570.263 1158.14,570.538 1154.53,572.221 1151.15,573.87 1150.92,573.983 1147.32,575.831 1144.24,577.477 1143.71,577.763 1140.1,579.785 1137.87,581.084 1136.5,581.898 1132.89,584.105 1131.96,584.691 1129.28,586.412 1126.45,588.298 1125.67,588.819 1122.07,591.333 1121.27,591.905 1118.46,593.958 1116.4,595.512 1114.85,596.698 1111.79,599.119 1111.25,599.558 1107.64,602.546 1107.43,602.726 1104.03,605.671 1103.29,606.333 1100.43,608.938 1099.35,609.94 1096.82,612.355 1095.6,613.547 1093.21,615.935 1092.02,617.154 1089.6,619.687 1088.6,620.761 1086,623.625 1085.33,624.368 1082.39,627.764 1082.21,627.975 1079.22,631.582 1078.78,632.127 1076.36,635.189 1075.18,636.735 1073.62,638.797 1071.57,641.607 1071,642.404 1068.48,646.011 1067.96,646.782 1066.08,649.618 1064.36,652.299 1063.77,653.225 1061.56,656.832 1060.75,658.211 1059.45,660.439 1057.43,664.046 1057.14,664.575 1055.49,667.653 1053.65,671.26 1053.53,671.49 1051.88,674.867 1050.2,678.474 1049.93,679.09 1048.6,682.081 1047.07,685.688 1046.32,687.56 1045.63,689.295 1044.25,692.902 1042.95,696.509 1042.71,697.191 1041.71,700.116 1040.55,703.723 1039.46,707.33 1039.11,708.574 1038.43,710.937 1037.48,714.544 1036.58,718.151 1035.76,721.758 1035.5,722.968 1034.99,725.365 1034.29,728.972 1033.65,732.579 1033.08,736.186 1032.57,739.793 1032.11,743.4 1031.89,745.452 1031.72,747.007 1031.39,750.614 1031.12,754.221 1030.91,757.828 1030.76,761.435 1030.67,765.042 1030.64,768.649 1030.67,772.257 1030.76,775.864 1030.91,779.471 1031.12,783.078 1031.39,786.685 1031.72,790.292 1031.89,791.847 1032.11,793.899 1032.57,797.506 1033.08,801.113 1033.65,804.72 1034.29,808.327 1034.99,811.934 1035.5,814.331 1035.76,815.541 1036.58,819.148 1037.48,822.755 1038.43,826.362 1039.11,828.725 1039.46,829.969 1040.55,833.576 1041.71,837.183 1042.71,840.108 1042.95,840.79 1044.25,844.397 1045.63,848.004 1046.32,849.739 1047.07,851.611 1048.6,855.218 1049.93,858.209 1050.2,858.825 1051.88,862.432 1053.53,865.809 1053.65,866.039 1055.49,869.646 1057.14,872.724 1057.43,873.253 1059.45,876.86 1060.75,879.088 1061.56,880.467 1063.77,884.074 1064.36,885 1066.08,887.681 1067.96,890.517 1068.48,891.288 1071,894.895 1071.57,895.692 1073.62,898.502 1075.18,900.564 1076.36,902.109 1078.78,905.172 1079.22,905.717 1082.21,909.324 1082.39,909.535 1085.33,912.931 1086,913.674 1088.6,916.538 1089.6,917.612 1092.02,920.145 1093.21,921.364 1095.6,923.752 1096.82,924.944 1099.35,927.359 "/>
<polyline clip-path="url(#clip802)" style="stroke:#751b6d; stroke-linecap:round; stroke-linejoin:round; stroke-width:4; stroke-opacity:1; fill:none" points="1136.45,894.895 1136.5,894.939 1140.1,898.04 1140.66,898.502 1143.71,900.97 1145.17,902.109 1147.32,903.743 1150.01,905.717 1150.92,906.369 1154.53,908.851 1155.25,909.324 1158.14,911.194 1160.94,912.931 1161.74,913.417 1165.35,915.512 1167.2,916.538 1168.96,917.492 1172.57,919.36 1174.16,920.145 1176.17,921.119 1179.78,922.774 1182.03,923.752 1183.39,924.329 1186.99,925.783 1190.6,927.147 1191.2,927.359 1194.21,928.412 1197.82,929.588 1201.42,930.678 1202.45,930.966 1205.03,931.677 1208.64,932.591 1212.24,933.423 1215.85,934.173 1218,934.573 1219.46,934.84 1223.06,935.425 1226.67,935.931 1230.28,936.358 1233.89,936.707 1237.49,936.977 1241.1,937.171 1244.71,937.287 1248.31,937.325 1251.92,937.287 1255.53,937.171 1259.13,936.977 1262.74,936.707 1266.35,936.358 1269.96,935.931 1273.56,935.425 1277.17,934.84 1278.62,934.573 1280.78,934.173 1284.38,933.423 1287.99,932.591 1291.6,931.677 1294.17,930.966 1295.2,930.678 1298.81,929.588 1302.42,928.412 1305.43,927.359 1306.03,927.147 1309.63,925.783 1313.24,924.329 1314.59,923.752 1316.85,922.774 1320.45,921.119 1322.47,920.145 1324.06,919.36 1327.67,917.492 1329.42,916.538 1331.28,915.512 1334.88,913.417 1335.68,912.931 1338.49,911.194 1341.38,909.324 1342.1,908.851 1345.7,906.369 1346.61,905.717 1349.31,903.743 1351.46,902.109 1352.92,900.97 1355.97,898.502 1356.52,898.04 1360.13,894.939 1360.18,894.895 1363.74,891.649 1364.12,891.288 1367.35,888.16 1367.82,887.681 1370.95,884.457 1371.31,884.074 1374.56,880.517 1374.6,880.467 1377.7,876.86 1378.17,876.303 1380.63,873.253 1381.77,871.793 1383.41,869.646 1385.38,866.951 1386.03,866.039 1388.51,862.432 1388.99,861.717 1390.86,858.825 1392.59,856.02 1393.08,855.218 1395.18,851.611 1396.2,849.759 1397.16,848.004 1399.02,844.397 1399.81,842.804 1400.78,840.79 1402.44,837.183 1403.42,834.929 1403.99,833.576 1405.45,829.969 1406.81,826.362 1407.02,825.764 1408.08,822.755 1409.25,819.148 1410.34,815.541 1410.63,814.511 1411.34,811.934 1412.26,808.327 1413.09,804.72 1413.84,801.113 1414.24,798.961 1414.5,797.506 1415.09,793.899 1415.59,790.292 1416.02,786.685 1416.37,783.078 1416.64,779.471 1416.83,775.864 1416.95,772.257 1416.99,768.649 1416.95,765.042 1416.83,761.435 1416.64,757.828 1416.37,754.221 1416.02,750.614 1415.59,747.007 1415.09,743.4 1414.5,739.793 1414.24,738.338 1413.84,736.186 1413.09,732.579 1412.26,728.972 1411.34,725.365 1410.63,722.788 1410.34,721.758 1409.25,718.151 1408.08,714.544 1407.02,711.535 1406.81,710.937 1405.45,707.33 1403.99,703.723 1403.42,702.37 1402.44,700.116 1400.78,696.509 1399.81,694.495 1399.02,692.902 1397.16,689.295 1396.2,687.54 1395.18,685.688 1393.08,682.081 1392.59,681.279 1390.86,678.474 1388.99,675.582 1388.51,674.867 1386.03,671.26 1385.38,670.348 1383.41,667.653 1381.77,665.506 1380.63,664.046 1378.17,660.996 1377.7,660.439 1374.6,656.832 1374.56,656.782 1371.31,653.225 1370.95,652.842 1367.82,649.618 1367.35,649.139 1364.12,646.011 1363.74,645.65 1360.18,642.404 1360.13,642.36 1356.52,639.259 1355.97,638.797 1352.92,636.329 1351.46,635.189 1349.31,633.556 1346.61,631.582 1345.7,630.93 1342.1,628.448 1341.38,627.975 1338.49,626.105 1335.68,624.368 1334.88,623.882 1331.28,621.787 1329.42,620.761 1327.67,619.807 1324.06,617.939 1322.47,617.154 1320.45,616.18 1316.85,614.525 1314.59,613.547 1313.24,612.97 1309.63,611.516 1306.03,610.152 1305.43,609.94 1302.42,608.887 1298.81,607.711 1295.2,606.621 1294.17,606.333 1291.6,605.622 1287.99,604.708 1284.38,603.876 1280.78,603.126 1278.62,602.726 1277.17,602.459 1273.56,601.874 1269.96,601.368 1266.35,600.941 1262.74,600.592 1259.13,600.321 1255.53,600.128 1251.92,600.012 1248.31,599.974 1244.71,600.012 1241.1,600.128 1237.49,600.321 1233.89,600.592 1230.28,600.941 1226.67,601.368 1223.06,601.874 1219.46,602.459 1218,602.726 1215.85,603.126 1212.24,603.876 1208.64,604.708 1205.03,605.622 1202.45,606.333 1201.42,606.621 1197.82,607.711 1194.21,608.887 1191.2,609.94 1190.6,610.152 1186.99,611.516 1183.39,612.97 1182.03,613.547 1179.78,614.525 1176.17,616.18 1174.16,617.154 1172.57,617.939 1168.96,619.807 1167.2,620.761 1165.35,621.787 1161.74,623.882 1160.94,624.368 1158.14,626.105 1155.25,627.975 1154.53,628.448 1150.92,630.93 1150.01,631.582 1147.32,633.556 1145.17,635.189 1143.71,636.329 1140.66,638.797 1140.1,639.259 1136.5,642.36 1136.45,642.404 1132.89,645.65 1132.51,646.011 1129.28,649.139 1128.8,649.618 1125.67,652.842 1125.31,653.225 1122.07,656.782 1122.02,656.832 1118.92,660.439 1118.46,660.996 1115.99,664.046 1114.85,665.506 1113.22,667.653 1111.25,670.348 1110.59,671.26 1108.11,674.867 1107.64,675.582 1105.77,678.474 1104.03,681.279 1103.55,682.081 1101.45,685.688 1100.43,687.54 1099.47,689.295 1097.6,692.902 1096.82,694.495 1095.84,696.509 1094.19,700.116 1093.21,702.37 1092.63,703.723 1091.18,707.33 1089.82,710.937 1089.6,711.535 1088.55,714.544 1087.38,718.151 1086.28,721.758 1086,722.788 1085.29,725.365 1084.37,728.972 1083.54,732.579 1082.79,736.186 1082.39,738.338 1082.12,739.793 1081.54,743.4 1081.03,747.007 1080.61,750.614 1080.26,754.221 1079.99,757.828 1079.79,761.435 1079.68,765.042 1079.64,768.649 1079.68,772.257 1079.79,775.864 1079.99,779.471 1080.26,783.078 1080.61,786.685 1081.03,790.292 1081.54,793.899 1082.12,797.506 1082.39,798.961 1082.79,801.113 1083.54,804.72 1084.37,808.327 1085.29,811.934 1086,814.511 1086.28,815.541 1087.38,819.148 1088.55,822.755 1089.6,825.764 1089.82,826.362 1091.18,829.969 1092.63,833.576 1093.21,834.929 1094.19,837.183 1095.84,840.79 1096.82,842.804 1097.6,844.397 1099.47,848.004 1100.43,849.759 1101.45,851.611 1103.55,855.218 1104.03,856.02 1105.77,858.825 1107.64,861.717 1108.11,862.432 1110.59,866.039 1111.25,866.951 1113.22,869.646 1114.85,871.793 1115.99,873.253 1118.46,876.303 1118.92,876.86 1122.02,880.467 1122.07,880.517 1125.31,884.074 1125.67,884.457 1128.8,887.681 1129.28,888.16 1132.51,891.288 1132.89,891.649 1136.45,894.895 "/>
<polyline clip-path="url(#clip802)" style="stroke:#300a5c; stroke-linecap:round; stroke-linejoin:round; stroke-width:4; stroke-opacity:1; fill:none" points="1173.84,855.218 1176.17,857.173 1178.25,858.825 1179.78,859.996 1183.14,862.432 1183.39,862.604 1186.99,864.988 1188.68,866.039 1190.6,867.191 1194.21,869.222 1195.01,869.646 1197.82,871.075 1201.42,872.781 1202.5,873.253 1205.03,874.327 1208.64,875.734 1211.81,876.86 1212.24,877.01 1215.85,878.136 1219.46,879.141 1223.06,880.026 1225.14,880.467 1226.67,880.784 1230.28,881.416 1233.89,881.932 1237.49,882.333 1241.1,882.619 1244.71,882.791 1248.31,882.848 1251.92,882.791 1255.53,882.619 1259.13,882.333 1262.74,881.932 1266.35,881.416 1269.96,880.784 1271.49,880.467 1273.56,880.026 1277.17,879.141 1280.78,878.136 1284.38,877.01 1284.82,876.86 1287.99,875.734 1291.6,874.327 1294.13,873.253 1295.2,872.781 1298.81,871.075 1301.61,869.646 1302.42,869.222 1306.03,867.191 1307.94,866.039 1309.63,864.988 1313.24,862.604 1313.49,862.432 1316.85,859.996 1318.38,858.825 1320.45,857.173 1322.79,855.218 1324.06,854.109 1326.79,851.611 1327.67,850.773 1330.44,848.004 1331.28,847.127 1333.77,844.397 1334.88,843.125 1336.84,840.79 1338.49,838.713 1339.66,837.183 1342.1,833.822 1342.27,833.576 1344.65,829.969 1345.7,828.278 1346.85,826.362 1348.89,822.755 1349.31,821.949 1350.74,819.148 1352.45,815.541 1352.92,814.462 1353.99,811.934 1355.4,808.327 1356.52,805.152 1356.67,804.72 1357.8,801.113 1358.81,797.506 1359.69,793.899 1360.13,791.822 1360.45,790.292 1361.08,786.685 1361.6,783.078 1362,779.471 1362.28,775.864 1362.45,772.257 1362.51,768.649 1362.45,765.042 1362.28,761.435 1362,757.828 1361.6,754.221 1361.08,750.614 1360.45,747.007 1360.13,745.477 1359.69,743.4 1358.81,739.793 1357.8,736.186 1356.67,732.579 1356.52,732.147 1355.4,728.972 1353.99,725.365 1352.92,722.837 1352.45,721.758 1350.74,718.151 1349.31,715.35 1348.89,714.544 1346.85,710.937 1345.7,709.021 1344.65,707.33 1342.27,703.723 1342.1,703.477 1339.66,700.116 1338.49,698.586 1336.84,696.509 1334.88,694.174 1333.77,692.902 1331.28,690.172 1330.44,689.295 1327.67,686.526 1326.79,685.688 1324.06,683.19 1322.79,682.081 1320.45,680.126 1318.38,678.474 1316.85,677.303 1313.49,674.867 1313.24,674.695 1309.63,672.311 1307.94,671.26 1306.03,670.108 1302.42,668.077 1301.61,667.653 1298.81,666.224 1295.2,664.518 1294.13,664.046 1291.6,662.972 1287.99,661.565 1284.82,660.439 1284.38,660.289 1280.78,659.163 1277.17,658.158 1273.56,657.273 1271.49,656.832 1269.96,656.515 1266.35,655.883 1262.74,655.367 1259.13,654.966 1255.53,654.68 1251.92,654.508 1248.31,654.451 1244.71,654.508 1241.1,654.68 1237.49,654.966 1233.89,655.367 1230.28,655.883 1226.67,656.515 1225.14,656.832 1223.06,657.273 1219.46,658.158 1215.85,659.163 1212.24,660.289 1211.81,660.439 1208.64,661.565 1205.03,662.972 1202.5,664.046 1201.42,664.518 1197.82,666.224 1195.01,667.653 1194.21,668.077 1190.6,670.108 1188.68,671.26 1186.99,672.311 1183.39,674.695 1183.14,674.867 1179.78,677.303 1178.25,678.474 1176.17,680.126 1173.84,682.081 1172.57,683.19 1169.84,685.688 1168.96,686.526 1166.19,689.295 1165.35,690.172 1162.85,692.902 1161.74,694.174 1159.79,696.509 1158.14,698.586 1156.97,700.116 1154.53,703.477 1154.36,703.723 1151.97,707.33 1150.92,709.021 1149.77,710.937 1147.74,714.544 1147.32,715.35 1145.89,718.151 1144.18,721.758 1143.71,722.837 1142.64,725.365 1141.23,728.972 1140.1,732.147 1139.95,732.579 1138.83,736.186 1137.82,739.793 1136.94,743.4 1136.5,745.477 1136.18,747.007 1135.55,750.614 1135.03,754.221 1134.63,757.828 1134.34,761.435 1134.17,765.042 1134.11,768.649 1134.17,772.257 1134.34,775.864 1134.63,779.471 1135.03,783.078 1135.55,786.685 1136.18,790.292 1136.5,791.822 1136.94,793.899 1137.82,797.506 1138.83,801.113 1139.95,804.72 1140.1,805.152 1141.23,808.327 1142.64,811.934 1143.71,814.462 1144.18,815.541 1145.89,819.148 1147.32,821.949 1147.74,822.755 1149.77,826.362 1150.92,828.278 1151.97,829.969 1154.36,833.576 1154.53,833.822 1156.97,837.183 1158.14,838.713 1159.79,840.79 1161.74,843.125 1162.85,844.397 1165.35,847.127 1166.19,848.004 1168.96,850.773 1169.84,851.611 1172.57,854.109 1173.84,855.218 "/>
</svg>
