<?xml version="1.0" encoding="utf-8"?>
<svg xmlns="http://www.w3.org/2000/svg" xmlns:xlink="http://www.w3.org/1999/xlink" width="600" height="400" viewBox="0 0 2400 1600">
<defs>
  <clipPath id="clip270">
    <rect x="0" y="0" width="2400" height="1600"/>
  </clipPath>
</defs>
<path clip-path="url(#clip270)" d="M0 1600 L2400 1600 L2400 0 L0 0  Z" fill="#ffffff" fill-rule="evenodd" fill-opacity="1"/>
<defs>
  <clipPath id="clip271">
    <rect x="480" y="0" width="1681" height="1600"/>
  </clipPath>
</defs>
<path clip-path="url(#clip270)" d="M193.936 1486.45 L2352.76 1486.45 L2352.76 47.2441 L193.936 47.2441  Z" fill="#ffffff" fill-rule="evenodd" fill-opacity="1"/>
<defs>
  <clipPath id="clip272">
    <rect x="193" y="47" width="2160" height="1440"/>
  </clipPath>
</defs>
<polyline clip-path="url(#clip270)" style="stroke:#000000; stroke-linecap:round; stroke-linejoin:round; stroke-width:4; stroke-opacity:1; fill:none" points="193.936,1486.45 2352.76,1486.45 "/>
<polyline clip-path="url(#clip270)" style="stroke:#000000; stroke-linecap:round; stroke-linejoin:round; stroke-width:4; stroke-opacity:1; fill:none" points="250.478,1486.45 250.478,1467.55 "/>
<polyline clip-path="url(#clip270)" style="stroke:#000000; stroke-linecap:round; stroke-linejoin:round; stroke-width:4; stroke-opacity:1; fill:none" points="575.337,1486.45 575.337,1467.55 "/>
<polyline clip-path="url(#clip270)" style="stroke:#000000; stroke-linecap:round; stroke-linejoin:round; stroke-width:4; stroke-opacity:1; fill:none" points="900.195,1486.45 900.195,1467.55 "/>
<polyline clip-path="url(#clip270)" style="stroke:#000000; stroke-linecap:round; stroke-linejoin:round; stroke-width:4; stroke-opacity:1; fill:none" points="1225.05,1486.45 1225.05,1467.55 "/>
<polyline clip-path="url(#clip270)" style="stroke:#000000; stroke-linecap:round; stroke-linejoin:round; stroke-width:4; stroke-opacity:1; fill:none" points="1549.91,1486.45 1549.91,1467.55 "/>
<polyline clip-path="url(#clip270)" style="stroke:#000000; stroke-linecap:round; stroke-linejoin:round; stroke-width:4; stroke-opacity:1; fill:none" points="1874.77,1486.45 1874.77,1467.55 "/>
<polyline clip-path="url(#clip270)" style="stroke:#000000; stroke-linecap:round; stroke-linejoin:round; stroke-width:4; stroke-opacity:1; fill:none" points="2199.63,1486.45 2199.63,1467.55 "/>
<path clip-path="url(#clip270)" d="M250.478 1517.37 Q246.867 1517.37 245.039 1520.93 Q243.233 1524.47 243.233 1531.6 Q243.233 1538.71 245.039 1542.27 Q246.867 1545.82 250.478 1545.82 Q254.113 1545.82 255.918 1542.27 Q257.747 1538.71 257.747 1531.6 Q257.747 1524.47 255.918 1520.93 Q254.113 1517.37 250.478 1517.37 M250.478 1513.66 Q256.289 1513.66 259.344 1518.27 Q262.423 1522.85 262.423 1531.6 Q262.423 1540.33 259.344 1544.94 Q256.289 1549.52 250.478 1549.52 Q244.668 1549.52 241.59 1544.94 Q238.534 1540.33 238.534 1531.6 Q238.534 1522.85 241.59 1518.27 Q244.668 1513.66 250.478 1513.66 Z" fill="#000000" fill-rule="nonzero" fill-opacity="1" /><path clip-path="url(#clip270)" d="M565.719 1544.91 L573.358 1544.91 L573.358 1518.55 L565.048 1520.21 L565.048 1515.95 L573.311 1514.29 L577.987 1514.29 L577.987 1544.91 L585.626 1544.91 L585.626 1548.85 L565.719 1548.85 L565.719 1544.91 Z" fill="#000000" fill-rule="nonzero" fill-opacity="1" /><path clip-path="url(#clip270)" d="M894.848 1544.91 L911.167 1544.91 L911.167 1548.85 L889.223 1548.85 L889.223 1544.91 Q891.885 1542.16 896.468 1537.53 Q901.075 1532.88 902.255 1531.53 Q904.501 1529.01 905.38 1527.27 Q906.283 1525.51 906.283 1523.82 Q906.283 1521.07 904.339 1519.33 Q902.417 1517.6 899.316 1517.6 Q897.117 1517.6 894.663 1518.36 Q892.232 1519.13 889.455 1520.68 L889.455 1515.95 Q892.279 1514.82 894.732 1514.24 Q897.186 1513.66 899.223 1513.66 Q904.593 1513.66 907.788 1516.35 Q910.982 1519.03 910.982 1523.52 Q910.982 1525.65 910.172 1527.57 Q909.385 1529.47 907.278 1532.07 Q906.7 1532.74 903.598 1535.95 Q900.496 1539.15 894.848 1544.91 Z" fill="#000000" fill-rule="nonzero" fill-opacity="1" /><path clip-path="url(#clip270)" d="M1229.3 1530.21 Q1232.66 1530.93 1234.53 1533.2 Q1236.43 1535.47 1236.43 1538.8 Q1236.43 1543.92 1232.91 1546.72 Q1229.39 1549.52 1222.91 1549.52 Q1220.74 1549.52 1218.42 1549.08 Q1216.13 1548.66 1213.68 1547.81 L1213.68 1543.29 Q1215.62 1544.43 1217.94 1545.01 Q1220.25 1545.58 1222.77 1545.58 Q1227.17 1545.58 1229.46 1543.85 Q1231.78 1542.11 1231.78 1538.8 Q1231.78 1535.75 1229.63 1534.03 Q1227.5 1532.3 1223.68 1532.3 L1219.65 1532.3 L1219.65 1528.45 L1223.86 1528.45 Q1227.31 1528.45 1229.14 1527.09 Q1230.97 1525.7 1230.97 1523.11 Q1230.97 1520.45 1229.07 1519.03 Q1227.19 1517.6 1223.68 1517.6 Q1221.75 1517.6 1219.56 1518.01 Q1217.36 1518.43 1214.72 1519.31 L1214.72 1515.14 Q1217.38 1514.4 1219.69 1514.03 Q1222.03 1513.66 1224.09 1513.66 Q1229.42 1513.66 1232.52 1516.09 Q1235.62 1518.5 1235.62 1522.62 Q1235.62 1525.49 1233.98 1527.48 Q1232.33 1529.45 1229.3 1530.21 Z" fill="#000000" fill-rule="nonzero" fill-opacity="1" /><path clip-path="url(#clip270)" d="M1552.92 1518.36 L1541.12 1536.81 L1552.92 1536.81 L1552.92 1518.36 M1551.69 1514.29 L1557.57 1514.29 L1557.57 1536.81 L1562.5 1536.81 L1562.5 1540.7 L1557.57 1540.7 L1557.57 1548.85 L1552.92 1548.85 L1552.92 1540.7 L1537.32 1540.7 L1537.32 1536.19 L1551.69 1514.29 Z" fill="#000000" fill-rule="nonzero" fill-opacity="1" /><path clip-path="url(#clip270)" d="M1865.05 1514.29 L1883.4 1514.29 L1883.4 1518.22 L1869.33 1518.22 L1869.33 1526.7 Q1870.35 1526.35 1871.37 1526.19 Q1872.39 1526 1873.4 1526 Q1879.19 1526 1882.57 1529.17 Q1885.95 1532.34 1885.95 1537.76 Q1885.95 1543.34 1882.48 1546.44 Q1879.01 1549.52 1872.69 1549.52 Q1870.51 1549.52 1868.24 1549.15 Q1866 1548.78 1863.59 1548.04 L1863.59 1543.34 Q1865.67 1544.47 1867.9 1545.03 Q1870.12 1545.58 1872.59 1545.58 Q1876.6 1545.58 1878.94 1543.48 Q1881.27 1541.37 1881.27 1537.76 Q1881.27 1534.15 1878.94 1532.04 Q1876.6 1529.94 1872.59 1529.94 Q1870.72 1529.94 1868.84 1530.35 Q1866.99 1530.77 1865.05 1531.65 L1865.05 1514.29 Z" fill="#000000" fill-rule="nonzero" fill-opacity="1" /><path clip-path="url(#clip270)" d="M2200.03 1529.7 Q2196.89 1529.7 2195.03 1531.86 Q2193.21 1534.01 2193.21 1537.76 Q2193.21 1541.49 2195.03 1543.66 Q2196.89 1545.82 2200.03 1545.82 Q2203.18 1545.82 2205.01 1543.66 Q2206.86 1541.49 2206.86 1537.76 Q2206.86 1534.01 2205.01 1531.86 Q2203.18 1529.7 2200.03 1529.7 M2209.32 1515.05 L2209.32 1519.31 Q2207.56 1518.48 2205.75 1518.04 Q2203.97 1517.6 2202.21 1517.6 Q2197.58 1517.6 2195.13 1520.72 Q2192.7 1523.85 2192.35 1530.17 Q2193.71 1528.15 2195.77 1527.09 Q2197.83 1526 2200.31 1526 Q2205.52 1526 2208.53 1529.17 Q2211.56 1532.32 2211.56 1537.76 Q2211.56 1543.08 2208.41 1546.3 Q2205.27 1549.52 2200.03 1549.52 Q2194.04 1549.52 2190.87 1544.94 Q2187.7 1540.33 2187.7 1531.6 Q2187.7 1523.41 2191.58 1518.55 Q2195.47 1513.66 2202.02 1513.66 Q2203.78 1513.66 2205.57 1514.01 Q2207.37 1514.36 2209.32 1515.05 Z" fill="#000000" fill-rule="nonzero" fill-opacity="1" /><polyline clip-path="url(#clip270)" style="stroke:#000000; stroke-linecap:round; stroke-linejoin:round; stroke-width:4; stroke-opacity:1; fill:none" points="193.936,1486.45 193.936,47.2441 "/>
<polyline clip-path="url(#clip270)" style="stroke:#000000; stroke-linecap:round; stroke-linejoin:round; stroke-width:4; stroke-opacity:1; fill:none" points="193.936,1376.42 212.834,1376.42 "/>
<polyline clip-path="url(#clip270)" style="stroke:#000000; stroke-linecap:round; stroke-linejoin:round; stroke-width:4; stroke-opacity:1; fill:none" points="193.936,1071.63 212.834,1071.63 "/>
<polyline clip-path="url(#clip270)" style="stroke:#000000; stroke-linecap:round; stroke-linejoin:round; stroke-width:4; stroke-opacity:1; fill:none" points="193.936,766.846 212.834,766.846 "/>
<polyline clip-path="url(#clip270)" style="stroke:#000000; stroke-linecap:round; stroke-linejoin:round; stroke-width:4; stroke-opacity:1; fill:none" points="193.936,462.06 212.834,462.06 "/>
<polyline clip-path="url(#clip270)" style="stroke:#000000; stroke-linecap:round; stroke-linejoin:round; stroke-width:4; stroke-opacity:1; fill:none" points="193.936,157.274 212.834,157.274 "/>
<path clip-path="url(#clip270)" d="M50.9921 1376.87 L80.6679 1376.87 L80.6679 1380.8 L50.9921 1380.8 L50.9921 1376.87 Z" fill="#000000" fill-rule="nonzero" fill-opacity="1" /><path clip-path="url(#clip270)" d="M91.5706 1389.76 L99.2095 1389.76 L99.2095 1363.4 L90.8993 1365.06 L90.8993 1360.8 L99.1632 1359.14 L103.839 1359.14 L103.839 1389.76 L111.478 1389.76 L111.478 1393.7 L91.5706 1393.7 L91.5706 1389.76 Z" fill="#000000" fill-rule="nonzero" fill-opacity="1" /><path clip-path="url(#clip270)" d="M120.922 1387.82 L125.807 1387.82 L125.807 1393.7 L120.922 1393.7 L120.922 1387.82 Z" fill="#000000" fill-rule="nonzero" fill-opacity="1" /><path clip-path="url(#clip270)" d="M145.992 1362.22 Q142.381 1362.22 140.552 1365.78 Q138.746 1369.32 138.746 1376.45 Q138.746 1383.56 140.552 1387.12 Q142.381 1390.67 145.992 1390.67 Q149.626 1390.67 151.431 1387.12 Q153.26 1383.56 153.26 1376.45 Q153.26 1369.32 151.431 1365.78 Q149.626 1362.22 145.992 1362.22 M145.992 1358.51 Q151.802 1358.51 154.857 1363.12 Q157.936 1367.7 157.936 1376.45 Q157.936 1385.18 154.857 1389.79 Q151.802 1394.37 145.992 1394.37 Q140.181 1394.37 137.103 1389.79 Q134.047 1385.18 134.047 1376.45 Q134.047 1367.7 137.103 1363.12 Q140.181 1358.51 145.992 1358.51 Z" fill="#000000" fill-rule="nonzero" fill-opacity="1" /><path clip-path="url(#clip270)" d="M51.9875 1072.08 L81.6633 1072.08 L81.6633 1076.02 L51.9875 1076.02 L51.9875 1072.08 Z" fill="#000000" fill-rule="nonzero" fill-opacity="1" /><path clip-path="url(#clip270)" d="M101.756 1057.43 Q98.1447 1057.43 96.316 1061 Q94.5104 1064.54 94.5104 1071.67 Q94.5104 1078.77 96.316 1082.34 Q98.1447 1085.88 101.756 1085.88 Q105.39 1085.88 107.196 1082.34 Q109.024 1078.77 109.024 1071.67 Q109.024 1064.54 107.196 1061 Q105.39 1057.43 101.756 1057.43 M101.756 1053.73 Q107.566 1053.73 110.621 1058.33 Q113.7 1062.92 113.7 1071.67 Q113.7 1080.39 110.621 1085 Q107.566 1089.58 101.756 1089.58 Q95.9456 1089.58 92.8669 1085 Q89.8114 1080.39 89.8114 1071.67 Q89.8114 1062.92 92.8669 1058.33 Q95.9456 1053.73 101.756 1053.73 Z" fill="#000000" fill-rule="nonzero" fill-opacity="1" /><path clip-path="url(#clip270)" d="M121.918 1083.03 L126.802 1083.03 L126.802 1088.91 L121.918 1088.91 L121.918 1083.03 Z" fill="#000000" fill-rule="nonzero" fill-opacity="1" /><path clip-path="url(#clip270)" d="M137.033 1054.35 L155.39 1054.35 L155.39 1058.29 L141.316 1058.29 L141.316 1066.76 Q142.334 1066.41 143.353 1066.25 Q144.371 1066.06 145.39 1066.06 Q151.177 1066.06 154.556 1069.24 Q157.936 1072.41 157.936 1077.82 Q157.936 1083.4 154.464 1086.5 Q150.992 1089.58 144.672 1089.58 Q142.496 1089.58 140.228 1089.21 Q137.982 1088.84 135.575 1088.1 L135.575 1083.4 Q137.658 1084.54 139.881 1085.09 Q142.103 1085.65 144.58 1085.65 Q148.584 1085.65 150.922 1083.54 Q153.26 1081.44 153.26 1077.82 Q153.26 1074.21 150.922 1072.11 Q148.584 1070 144.58 1070 Q142.705 1070 140.83 1070.42 Q138.978 1070.83 137.033 1071.71 L137.033 1054.35 Z" fill="#000000" fill-rule="nonzero" fill-opacity="1" /><path clip-path="url(#clip270)" d="M100.76 752.645 Q97.1493 752.645 95.3206 756.209 Q93.515 759.751 93.515 766.881 Q93.515 773.987 95.3206 777.552 Q97.1493 781.094 100.76 781.094 Q104.395 781.094 106.2 777.552 Q108.029 773.987 108.029 766.881 Q108.029 759.751 106.2 756.209 Q104.395 752.645 100.76 752.645 M100.76 748.941 Q106.571 748.941 109.626 753.547 Q112.705 758.131 112.705 766.881 Q112.705 775.608 109.626 780.214 Q106.571 784.797 100.76 784.797 Q94.9502 784.797 91.8715 780.214 Q88.816 775.608 88.816 766.881 Q88.816 758.131 91.8715 753.547 Q94.9502 748.941 100.76 748.941 Z" fill="#000000" fill-rule="nonzero" fill-opacity="1" /><path clip-path="url(#clip270)" d="M120.922 778.246 L125.807 778.246 L125.807 784.126 L120.922 784.126 L120.922 778.246 Z" fill="#000000" fill-rule="nonzero" fill-opacity="1" /><path clip-path="url(#clip270)" d="M145.992 752.645 Q142.381 752.645 140.552 756.209 Q138.746 759.751 138.746 766.881 Q138.746 773.987 140.552 777.552 Q142.381 781.094 145.992 781.094 Q149.626 781.094 151.431 777.552 Q153.26 773.987 153.26 766.881 Q153.26 759.751 151.431 756.209 Q149.626 752.645 145.992 752.645 M145.992 748.941 Q151.802 748.941 154.857 753.547 Q157.936 758.131 157.936 766.881 Q157.936 775.608 154.857 780.214 Q151.802 784.797 145.992 784.797 Q140.181 784.797 137.103 780.214 Q134.047 775.608 134.047 766.881 Q134.047 758.131 137.103 753.547 Q140.181 748.941 145.992 748.941 Z" fill="#000000" fill-rule="nonzero" fill-opacity="1" /><path clip-path="url(#clip270)" d="M101.756 447.859 Q98.1447 447.859 96.316 451.424 Q94.5104 454.965 94.5104 462.095 Q94.5104 469.201 96.316 472.766 Q98.1447 476.308 101.756 476.308 Q105.39 476.308 107.196 472.766 Q109.024 469.201 109.024 462.095 Q109.024 454.965 107.196 451.424 Q105.39 447.859 101.756 447.859 M101.756 444.155 Q107.566 444.155 110.621 448.762 Q113.7 453.345 113.7 462.095 Q113.7 470.822 110.621 475.428 Q107.566 480.011 101.756 480.011 Q95.9456 480.011 92.8669 475.428 Q89.8114 470.822 89.8114 462.095 Q89.8114 453.345 92.8669 448.762 Q95.9456 444.155 101.756 444.155 Z" fill="#000000" fill-rule="nonzero" fill-opacity="1" /><path clip-path="url(#clip270)" d="M121.918 473.461 L126.802 473.461 L126.802 479.34 L121.918 479.34 L121.918 473.461 Z" fill="#000000" fill-rule="nonzero" fill-opacity="1" /><path clip-path="url(#clip270)" d="M137.033 444.78 L155.39 444.78 L155.39 448.715 L141.316 448.715 L141.316 457.187 Q142.334 456.84 143.353 456.678 Q144.371 456.493 145.39 456.493 Q151.177 456.493 154.556 459.664 Q157.936 462.836 157.936 468.252 Q157.936 473.831 154.464 476.933 Q150.992 480.011 144.672 480.011 Q142.496 480.011 140.228 479.641 Q137.982 479.271 135.575 478.53 L135.575 473.831 Q137.658 474.965 139.881 475.521 Q142.103 476.076 144.58 476.076 Q148.584 476.076 150.922 473.97 Q153.26 471.863 153.26 468.252 Q153.26 464.641 150.922 462.535 Q148.584 460.428 144.58 460.428 Q142.705 460.428 140.83 460.845 Q138.978 461.262 137.033 462.141 L137.033 444.78 Z" fill="#000000" fill-rule="nonzero" fill-opacity="1" /><path clip-path="url(#clip270)" d="M91.5706 170.619 L99.2095 170.619 L99.2095 144.254 L90.8993 145.92 L90.8993 141.661 L99.1632 139.994 L103.839 139.994 L103.839 170.619 L111.478 170.619 L111.478 174.554 L91.5706 174.554 L91.5706 170.619 Z" fill="#000000" fill-rule="nonzero" fill-opacity="1" /><path clip-path="url(#clip270)" d="M120.922 168.675 L125.807 168.675 L125.807 174.554 L120.922 174.554 L120.922 168.675 Z" fill="#000000" fill-rule="nonzero" fill-opacity="1" /><path clip-path="url(#clip270)" d="M145.992 143.073 Q142.381 143.073 140.552 146.638 Q138.746 150.179 138.746 157.309 Q138.746 164.415 140.552 167.98 Q142.381 171.522 145.992 171.522 Q149.626 171.522 151.431 167.98 Q153.26 164.415 153.26 157.309 Q153.26 150.179 151.431 146.638 Q149.626 143.073 145.992 143.073 M145.992 139.369 Q151.802 139.369 154.857 143.976 Q157.936 148.559 157.936 157.309 Q157.936 166.036 154.857 170.642 Q151.802 175.226 145.992 175.226 Q140.181 175.226 137.103 170.642 Q134.047 166.036 134.047 157.309 Q134.047 148.559 137.103 143.976 Q140.181 139.369 145.992 139.369 Z" fill="#000000" fill-rule="nonzero" fill-opacity="1" /><polyline clip-path="url(#clip272)" style="stroke:#009af9; stroke-linecap:round; stroke-linejoin:round; stroke-width:4; stroke-opacity:1; fill:none" points="255.035,1401.46 259.591,1396.8 264.147,1382.33 268.703,1356.05 273.259,1328.27 277.816,1311.5 282.372,1332.07 286.928,1387.71 291.484,1445.72 296.04,1441.66 300.597,1372.25 305.153,1316.72 309.709,1342.35 314.265,1396.4 318.822,1384.15 323.378,1347.16 327.934,1358.02 332.49,1371.71 337.046,1353.62 341.603,1353.96 346.159,1359.91 350.715,1347.36 355.271,1346.94 359.827,1349.43 364.384,1344.52 368.94,1339.23 373.496,1342.27 378.052,1336.58 382.608,1330.09 387.165,1335.19 391.721,1333 396.277,1312.32 400.833,1309.27 405.389,1324.04 409.946,1319.43 414.502,1296.22 419.058,1296.12 423.614,1310.36 428.17,1304.87 432.727,1288.07 437.283,1280.8 441.839,1275.41 446.395,1266.83 450.951,1271.9 455.508,1287.22 460.064,1286.95 464.62,1263.23 469.176,1233.67 473.732,1215.81 478.289,1213.15 482.845,1220.53 487.401,1230.72 491.957,1236.62 496.513,1234.75 501.07,1227.25 505.626,1218.37 510.182,1210.84 514.738,1205.34 519.294,1201.04 523.851,1195.44 528.407,1184.98 532.963,1168.22 537.519,1148.51 542.075,1131.84 546.632,1123.6 551.188,1127.18 555.744,1139.34 560.3,1146.66 564.856,1136.25 569.413,1113.98 573.969,1098.76 578.525,1094.23 583.081,1088.8 587.637,1083.39 592.194,1082.48 596.75,1075.67 601.306,1058.23 605.862,1048 610.418,1050.32 614.975,1043.58 619.531,1026.59 624.087,1018.27 628.643,1018.54 633.199,1010.29 637.756,998.567 642.312,991.576 646.868,984.785 651.424,974.478 655.981,967.227 660.537,959.905 665.093,950.305 669.649,941.145 674.205,935.963 678.762,925.927 683.318,916.24 687.874,912.206 692.43,901.237 696.986,888.97 701.543,887.202 706.099,882.251 710.655,864.835 715.211,851.244 719.767,849.651 724.324,850.323 728.88,842.526 733.436,827.122 737.992,813.433 742.548,803.7 747.105,797.248 751.661,791.315 756.217,783.925 760.773,775.858 765.329,766.846 769.886,757.834 774.442,749.766 778.998,742.377 783.554,736.444 788.11,729.992 792.667,720.259 797.223,706.57 801.779,691.166 806.335,683.369 810.891,684.041 815.448,682.448 820.004,668.856 824.56,651.441 829.116,646.49 833.672,644.722 838.229,632.455 842.785,621.486 847.341,617.452 851.897,607.765 856.453,597.729 861.01,592.547 865.566,583.387 870.122,573.787 874.678,566.464 879.234,559.214 883.791,548.907 888.347,542.116 892.903,535.125 897.459,523.403 902.015,515.157 906.572,515.417 911.128,507.102 915.684,490.111 920.24,483.374 924.796,485.696 929.353,475.465 933.909,458.017 938.465,451.215 943.021,450.306 947.577,444.897 952.134,439.466 956.69,434.936 961.246,419.716 965.802,397.439 970.358,387.029 974.915,394.354 979.471,406.512 984.027,410.095 988.583,401.855 993.139,385.179 997.696,365.477 1002.25,348.717 1006.81,338.255 1011.36,332.653 1015.92,328.354 1020.48,322.853 1025.03,315.318 1029.59,306.441 1034.15,298.94 1038.7,297.068 1043.26,302.967 1047.81,313.161 1052.37,320.539 1056.93,317.884 1061.48,300.023 1066.04,270.462 1070.59,246.741 1075.15,246.473 1079.71,261.787 1084.26,266.862 1088.82,258.277 1093.38,252.896 1097.93,245.624 1102.49,228.824 1107.04,223.336 1111.6,237.576 1116.16,237.468 1120.71,214.26 1125.27,209.657 1129.83,224.421 1134.38,221.367 1138.94,200.692 1143.49,198.503 1148.05,203.607 1152.61,197.109 1157.16,191.423 1161.72,194.46 1166.28,189.175 1170.83,184.263 1175.39,186.75 1179.94,186.333 1184.5,173.781 1189.06,179.728 1193.61,180.072 1198.17,161.982 1202.72,175.672 1207.28,186.531 1211.84,149.547 1216.39,137.292 1220.95,191.346 1225.51,216.975 1230.06,161.445 1234.62,92.0338 1239.17,87.9765 1243.73,145.982 1248.29,201.624 1252.84,222.189 1257.4,205.425 1261.96,177.645 1266.51,151.364 1271.07,136.888 1275.62,132.229 1280.18,136.888 1284.74,151.364 1289.29,177.645 1293.85,205.425 1298.41,222.189 1302.96,201.624 1307.52,145.982 1312.07,87.9763 1316.63,92.0337 1321.19,161.445 1325.74,216.975 1330.3,191.346 1334.85,137.292 1339.41,149.547 1343.97,186.53 1348.52,175.672 1353.08,161.982 1357.64,180.072 1362.19,179.728 1366.75,173.781 1371.3,186.334 1375.86,186.749 1380.42,184.263 1384.97,189.175 1389.53,194.46 1394.09,191.423 1398.64,197.109 1403.2,203.607 1407.75,198.503 1412.31,200.692 1416.87,221.368 1421.42,224.421 1425.98,209.656 1430.53,214.26 1435.09,237.467 1439.65,237.576 1444.2,223.336 1448.76,228.824 1453.32,245.624 1457.87,252.896 1462.43,258.277 1466.98,266.862 1471.54,261.787 1476.1,246.473 1480.65,246.741 1485.21,270.462 1489.77,300.023 1494.32,317.884 1498.88,320.539 1503.43,313.161 1507.99,302.967 1512.55,297.068 1517.1,298.94 1521.66,306.441 1526.22,315.318 1530.77,322.853 1535.33,328.354 1539.88,332.653 1544.44,338.255 1549,348.717 1553.55,365.477 1558.11,385.179 1562.66,401.855 1567.22,410.095 1571.78,406.512 1576.33,394.354 1580.89,387.029 1585.45,397.439 1590,419.716 1594.56,434.936 1599.11,439.466 1603.67,444.897 1608.23,450.306 1612.78,451.215 1617.34,458.017 1621.9,475.465 1626.45,485.696 1631.01,483.374 1635.56,490.111 1640.12,507.102 1644.68,515.417 1649.23,515.157 1653.79,523.403 1658.35,535.125 1662.9,542.116 1667.46,548.907 1672.01,559.214 1676.57,566.464 1681.13,573.787 1685.68,583.387 1690.24,592.547 1694.79,597.729 1699.35,607.765 1703.91,617.452 1708.46,621.486 1713.02,632.455 1717.58,644.722 1722.13,646.49 1726.69,651.441 1731.24,668.856 1735.8,682.448 1740.36,684.041 1744.91,683.369 1749.47,691.166 1754.03,706.57 1758.58,720.259 1763.14,729.992 1767.69,736.444 1772.25,742.377 1776.81,749.766 1781.36,757.834 1785.92,766.846 1790.47,775.858 1795.03,783.925 1799.59,791.315 1804.14,797.248 1808.7,803.7 1813.26,813.433 1817.81,827.122 1822.37,842.526 1826.92,850.323 1831.48,849.651 1836.04,851.244 1840.59,864.835 1845.15,882.251 1849.71,887.202 1854.26,888.97 1858.82,901.237 1863.37,912.206 1867.93,916.24 1872.49,925.927 1877.04,935.963 1881.6,941.145 1886.16,950.305 1890.71,959.905 1895.27,967.227 1899.82,974.478 1904.38,984.785 1908.94,991.576 1913.49,998.567 1918.05,1010.29 1922.6,1018.54 1927.16,1018.27 1931.72,1026.59 1936.27,1043.58 1940.83,1050.32 1945.39,1048 1949.94,1058.23 1954.5,1075.67 1959.05,1082.48 1963.61,1083.39 1968.17,1088.8 1972.72,1094.23 1977.28,1098.76 1981.84,1113.98 1986.39,1136.25 1990.95,1146.66 1995.5,1139.34 2000.06,1127.18 2004.62,1123.6 2009.17,1131.84 2013.73,1148.51 2018.29,1168.22 2022.84,1184.98 2027.4,1195.44 2031.95,1201.04 2036.51,1205.34 2041.07,1210.84 2045.62,1218.37 2050.18,1227.25 2054.73,1234.75 2059.29,1236.62 2063.85,1230.72 2068.4,1220.53 2072.96,1213.15 2077.52,1215.81 2082.07,1233.67 2086.63,1263.23 2091.18,1286.95 2095.74,1287.22 2100.3,1271.9 2104.85,1266.83 2109.41,1275.41 2113.97,1280.8 2118.52,1288.07 2123.08,1304.87 2127.63,1310.36 2132.19,1296.12 2136.75,1296.22 2141.3,1319.43 2145.86,1324.04 2150.41,1309.27 2154.97,1312.32 2159.53,1333 2164.08,1335.19 2168.64,1330.08 2173.2,1336.58 2177.75,1342.27 2182.31,1339.23 2186.86,1344.52 2191.42,1349.43 2195.98,1346.94 2200.53,1347.36 2205.09,1359.91 2209.65,1353.96 2214.2,1353.62 2218.76,1371.71 2223.31,1358.02 2227.87,1347.16 2232.43,1384.15 2236.98,1396.4 2241.54,1342.35 2246.1,1316.72 2250.65,1372.25 2255.21,1441.66 2259.76,1445.72 2264.32,1387.71 2268.88,1332.07 2273.43,1311.5 2277.99,1328.27 2282.54,1356.05 2287.1,1382.33 2291.66,1396.8 "/>
</svg>
