<?xml version="1.0" encoding="utf-8"?>
<svg xmlns="http://www.w3.org/2000/svg" xmlns:xlink="http://www.w3.org/1999/xlink" width="600" height="400" viewBox="0 0 2400 1600">
<defs>
  <clipPath id="clip250">
    <rect x="0" y="0" width="2400" height="1600"/>
  </clipPath>
</defs>
<path clip-path="url(#clip250)" d="M0 1600 L2400 1600 L2400 0 L0 0  Z" fill="#ffffff" fill-rule="evenodd" fill-opacity="1"/>
<defs>
  <clipPath id="clip251">
    <rect x="480" y="0" width="1681" height="1600"/>
  </clipPath>
</defs>
<path clip-path="url(#clip250)" d="M178.867 1486.45 L2352.76 1486.45 L2352.76 47.2441 L178.867 47.2441  Z" fill="#ffffff" fill-rule="evenodd" fill-opacity="1"/>
<defs>
  <clipPath id="clip252">
    <rect x="178" y="47" width="2175" height="1440"/>
  </clipPath>
</defs>
<polyline clip-path="url(#clip250)" style="stroke:#000000; stroke-linecap:round; stroke-linejoin:round; stroke-width:4; stroke-opacity:1; fill:none" points="178.867,1486.45 2352.76,1486.45 "/>
<polyline clip-path="url(#clip250)" style="stroke:#000000; stroke-linecap:round; stroke-linejoin:round; stroke-width:4; stroke-opacity:1; fill:none" points="230.718,1486.45 230.718,1467.55 "/>
<polyline clip-path="url(#clip250)" style="stroke:#000000; stroke-linecap:round; stroke-linejoin:round; stroke-width:4; stroke-opacity:1; fill:none" points="917.556,1486.45 917.556,1467.55 "/>
<polyline clip-path="url(#clip250)" style="stroke:#000000; stroke-linecap:round; stroke-linejoin:round; stroke-width:4; stroke-opacity:1; fill:none" points="1604.39,1486.45 1604.39,1467.55 "/>
<polyline clip-path="url(#clip250)" style="stroke:#000000; stroke-linecap:round; stroke-linejoin:round; stroke-width:4; stroke-opacity:1; fill:none" points="2291.23,1486.45 2291.23,1467.55 "/>
<path clip-path="url(#clip250)" d="M230.718 1517.37 Q227.107 1517.37 225.278 1520.93 Q223.473 1524.47 223.473 1531.6 Q223.473 1538.71 225.278 1542.27 Q227.107 1545.82 230.718 1545.82 Q234.352 1545.82 236.158 1542.27 Q237.987 1538.71 237.987 1531.6 Q237.987 1524.47 236.158 1520.93 Q234.352 1517.37 230.718 1517.37 M230.718 1513.66 Q236.528 1513.66 239.584 1518.27 Q242.662 1522.85 242.662 1531.6 Q242.662 1540.33 239.584 1544.94 Q236.528 1549.52 230.718 1549.52 Q224.908 1549.52 221.829 1544.94 Q218.774 1540.33 218.774 1531.6 Q218.774 1522.85 221.829 1518.27 Q224.908 1513.66 230.718 1513.66 Z" fill="#000000" fill-rule="nonzero" fill-opacity="1" /><path clip-path="url(#clip250)" d="M907.938 1544.91 L915.576 1544.91 L915.576 1518.55 L907.266 1520.21 L907.266 1515.95 L915.53 1514.29 L920.206 1514.29 L920.206 1544.91 L927.845 1544.91 L927.845 1548.85 L907.938 1548.85 L907.938 1544.91 Z" fill="#000000" fill-rule="nonzero" fill-opacity="1" /><path clip-path="url(#clip250)" d="M1599.05 1544.91 L1615.37 1544.91 L1615.37 1548.85 L1593.42 1548.85 L1593.42 1544.91 Q1596.08 1542.16 1600.67 1537.53 Q1605.27 1532.88 1606.45 1531.53 Q1608.7 1529.01 1609.58 1527.27 Q1610.48 1525.51 1610.48 1523.82 Q1610.48 1521.07 1608.54 1519.33 Q1606.62 1517.6 1603.51 1517.6 Q1601.31 1517.6 1598.86 1518.36 Q1596.43 1519.13 1593.65 1520.68 L1593.65 1515.95 Q1596.48 1514.82 1598.93 1514.24 Q1601.38 1513.66 1603.42 1513.66 Q1608.79 1513.66 1611.99 1516.35 Q1615.18 1519.03 1615.18 1523.52 Q1615.18 1525.65 1614.37 1527.57 Q1613.58 1529.47 1611.48 1532.07 Q1610.9 1532.74 1607.8 1535.95 Q1604.69 1539.15 1599.05 1544.91 Z" fill="#000000" fill-rule="nonzero" fill-opacity="1" /><path clip-path="url(#clip250)" d="M2295.48 1530.21 Q2298.83 1530.93 2300.71 1533.2 Q2302.61 1535.47 2302.61 1538.8 Q2302.61 1543.92 2299.09 1546.72 Q2295.57 1549.52 2289.09 1549.52 Q2286.91 1549.52 2284.6 1549.08 Q2282.31 1548.66 2279.85 1547.81 L2279.85 1543.29 Q2281.8 1544.43 2284.11 1545.01 Q2286.43 1545.58 2288.95 1545.58 Q2293.35 1545.58 2295.64 1543.85 Q2297.96 1542.11 2297.96 1538.8 Q2297.96 1535.75 2295.8 1534.03 Q2293.67 1532.3 2289.85 1532.3 L2285.83 1532.3 L2285.83 1528.45 L2290.04 1528.45 Q2293.49 1528.45 2295.32 1527.09 Q2297.15 1525.7 2297.15 1523.11 Q2297.15 1520.45 2295.25 1519.03 Q2293.37 1517.6 2289.85 1517.6 Q2287.93 1517.6 2285.73 1518.01 Q2283.53 1518.43 2280.9 1519.31 L2280.9 1515.14 Q2283.56 1514.4 2285.87 1514.03 Q2288.21 1513.66 2290.27 1513.66 Q2295.59 1513.66 2298.7 1516.09 Q2301.8 1518.5 2301.8 1522.62 Q2301.8 1525.49 2300.15 1527.48 Q2298.51 1529.45 2295.48 1530.21 Z" fill="#000000" fill-rule="nonzero" fill-opacity="1" /><polyline clip-path="url(#clip250)" style="stroke:#000000; stroke-linecap:round; stroke-linejoin:round; stroke-width:4; stroke-opacity:1; fill:none" points="178.867,1486.45 178.867,47.2441 "/>
<polyline clip-path="url(#clip250)" style="stroke:#000000; stroke-linecap:round; stroke-linejoin:round; stroke-width:4; stroke-opacity:1; fill:none" points="178.867,1347.24 197.764,1347.24 "/>
<polyline clip-path="url(#clip250)" style="stroke:#000000; stroke-linecap:round; stroke-linejoin:round; stroke-width:4; stroke-opacity:1; fill:none" points="178.867,992.959 197.764,992.959 "/>
<polyline clip-path="url(#clip250)" style="stroke:#000000; stroke-linecap:round; stroke-linejoin:round; stroke-width:4; stroke-opacity:1; fill:none" points="178.867,638.682 197.764,638.682 "/>
<polyline clip-path="url(#clip250)" style="stroke:#000000; stroke-linecap:round; stroke-linejoin:round; stroke-width:4; stroke-opacity:1; fill:none" points="178.867,284.404 197.764,284.404 "/>
<path clip-path="url(#clip250)" d="M50.9921 1347.69 L80.6679 1347.69 L80.6679 1351.62 L50.9921 1351.62 L50.9921 1347.69 Z" fill="#000000" fill-rule="nonzero" fill-opacity="1" /><path clip-path="url(#clip250)" d="M103.608 1334.03 L91.8021 1352.48 L103.608 1352.48 L103.608 1334.03 M102.381 1329.96 L108.26 1329.96 L108.26 1352.48 L113.191 1352.48 L113.191 1356.37 L108.26 1356.37 L108.26 1364.52 L103.608 1364.52 L103.608 1356.37 L88.0058 1356.37 L88.0058 1351.86 L102.381 1329.96 Z" fill="#000000" fill-rule="nonzero" fill-opacity="1" /><path clip-path="url(#clip250)" d="M130.922 1333.04 Q127.311 1333.04 125.482 1336.6 Q123.677 1340.14 123.677 1347.27 Q123.677 1354.38 125.482 1357.94 Q127.311 1361.48 130.922 1361.48 Q134.556 1361.48 136.362 1357.94 Q138.191 1354.38 138.191 1347.27 Q138.191 1340.14 136.362 1336.6 Q134.556 1333.04 130.922 1333.04 M130.922 1329.33 Q136.732 1329.33 139.788 1333.94 Q142.867 1338.52 142.867 1347.27 Q142.867 1356 139.788 1360.61 Q136.732 1365.19 130.922 1365.19 Q125.112 1365.19 122.033 1360.61 Q118.978 1356 118.978 1347.27 Q118.978 1338.52 122.033 1333.94 Q125.112 1329.33 130.922 1329.33 Z" fill="#000000" fill-rule="nonzero" fill-opacity="1" /><path clip-path="url(#clip250)" d="M50.9921 993.411 L80.6679 993.411 L80.6679 997.346 L50.9921 997.346 L50.9921 993.411 Z" fill="#000000" fill-rule="nonzero" fill-opacity="1" /><path clip-path="url(#clip250)" d="M94.7882 1006.3 L111.108 1006.3 L111.108 1010.24 L89.1632 1010.24 L89.1632 1006.3 Q91.8252 1003.55 96.4085 998.92 Q101.015 994.267 102.196 992.925 Q104.441 990.402 105.321 988.665 Q106.223 986.906 106.223 985.216 Q106.223 982.462 104.279 980.726 Q102.358 978.99 99.2558 978.99 Q97.0567 978.99 94.603 979.753 Q92.1725 980.517 89.3947 982.068 L89.3947 977.346 Q92.2188 976.212 94.6724 975.633 Q97.1261 975.054 99.1632 975.054 Q104.534 975.054 107.728 977.74 Q110.922 980.425 110.922 984.915 Q110.922 987.045 110.112 988.966 Q109.325 990.864 107.219 993.457 Q106.64 994.128 103.538 997.346 Q100.436 1000.54 94.7882 1006.3 Z" fill="#000000" fill-rule="nonzero" fill-opacity="1" /><path clip-path="url(#clip250)" d="M130.922 978.758 Q127.311 978.758 125.482 982.323 Q123.677 985.865 123.677 992.994 Q123.677 1000.1 125.482 1003.67 Q127.311 1007.21 130.922 1007.21 Q134.556 1007.21 136.362 1003.67 Q138.191 1000.1 138.191 992.994 Q138.191 985.865 136.362 982.323 Q134.556 978.758 130.922 978.758 M130.922 975.054 Q136.732 975.054 139.788 979.661 Q142.867 984.244 142.867 992.994 Q142.867 1001.72 139.788 1006.33 Q136.732 1010.91 130.922 1010.91 Q125.112 1010.91 122.033 1006.33 Q118.978 1001.72 118.978 992.994 Q118.978 984.244 122.033 979.661 Q125.112 975.054 130.922 975.054 Z" fill="#000000" fill-rule="nonzero" fill-opacity="1" /><path clip-path="url(#clip250)" d="M130.922 624.48 Q127.311 624.48 125.482 628.045 Q123.677 631.587 123.677 638.716 Q123.677 645.823 125.482 649.388 Q127.311 652.929 130.922 652.929 Q134.556 652.929 136.362 649.388 Q138.191 645.823 138.191 638.716 Q138.191 631.587 136.362 628.045 Q134.556 624.48 130.922 624.48 M130.922 620.777 Q136.732 620.777 139.788 625.383 Q142.867 629.966 142.867 638.716 Q142.867 647.443 139.788 652.05 Q136.732 656.633 130.922 656.633 Q125.112 656.633 122.033 652.05 Q118.978 647.443 118.978 638.716 Q118.978 629.966 122.033 625.383 Q125.112 620.777 130.922 620.777 Z" fill="#000000" fill-rule="nonzero" fill-opacity="1" /><path clip-path="url(#clip250)" d="M94.7882 297.749 L111.108 297.749 L111.108 301.684 L89.1632 301.684 L89.1632 297.749 Q91.8252 294.994 96.4085 290.364 Q101.015 285.712 102.196 284.369 Q104.441 281.846 105.321 280.11 Q106.223 278.351 106.223 276.661 Q106.223 273.906 104.279 272.17 Q102.358 270.434 99.2558 270.434 Q97.0567 270.434 94.603 271.198 Q92.1725 271.962 89.3947 273.513 L89.3947 268.79 Q92.2188 267.656 94.6724 267.078 Q97.1261 266.499 99.1632 266.499 Q104.534 266.499 107.728 269.184 Q110.922 271.869 110.922 276.36 Q110.922 278.49 110.112 280.411 Q109.325 282.309 107.219 284.902 Q106.64 285.573 103.538 288.79 Q100.436 291.985 94.7882 297.749 Z" fill="#000000" fill-rule="nonzero" fill-opacity="1" /><path clip-path="url(#clip250)" d="M130.922 270.203 Q127.311 270.203 125.482 273.767 Q123.677 277.309 123.677 284.439 Q123.677 291.545 125.482 295.11 Q127.311 298.651 130.922 298.651 Q134.556 298.651 136.362 295.11 Q138.191 291.545 138.191 284.439 Q138.191 277.309 136.362 273.767 Q134.556 270.203 130.922 270.203 M130.922 266.499 Q136.732 266.499 139.788 271.105 Q142.867 275.689 142.867 284.439 Q142.867 293.165 139.788 297.772 Q136.732 302.355 130.922 302.355 Q125.112 302.355 122.033 297.772 Q118.978 293.165 118.978 284.439 Q118.978 275.689 122.033 271.105 Q125.112 266.499 130.922 266.499 Z" fill="#000000" fill-rule="nonzero" fill-opacity="1" /><polyline clip-path="url(#clip252)" style="stroke:#009af9; stroke-linecap:round; stroke-linejoin:round; stroke-width:4; stroke-opacity:1; fill:none" points="240.392,359.362 250.066,1445.72 259.739,810.291 269.413,716.223 279.087,699.928 288.761,697.012 298.434,685.898 308.108,681.851 317.782,677.779 327.456,675.438 337.129,673.449 346.803,672.054 356.477,670.764 366.151,669.838 375.825,668.947 385.498,668.28 395.172,667.679 404.846,667.126 414.52,666.72 424.193,666.273 433.867,665.981 443.541,665.666 453.215,665.392 462.888,665.19 472.562,664.931 482.236,664.805 491.91,664.623 501.584,664.495 511.257,664.397 520.931,664.249 530.605,664.216 540.279,664.115 549.952,664.088 559.626,664.059 569.3,664 578.974,664.035 588.647,664 598.321,664.059 607.995,664.088 617.669,664.115 627.343,664.216 637.016,664.249 646.69,664.397 656.364,664.495 666.038,664.623 675.711,664.805 685.385,664.931 695.059,665.19 704.733,665.392 714.406,665.666 724.08,665.981 733.754,666.273 743.428,666.72 753.102,667.126 762.775,667.679 772.449,668.28 782.123,668.947 791.797,669.838 801.47,670.764 811.144,672.054 820.818,673.449 830.492,675.438 840.165,677.779 849.839,681.851 859.513,685.898 869.187,697.012 878.861,699.928 888.534,716.223 898.208,810.291 907.882,1445.72 917.556,359.362 927.095,87.9763 936.634,674.96 946.174,734.323 955.713,713.301 965.253,709.546 974.792,706.092 984.331,702.333 993.871,699.635 1003.41,697.348 1012.95,695.517 1022.49,694.128 1032.03,692.899 1041.57,692.071 1051.11,691.364 1060.65,690.783 1070.19,690.44 1079.73,690.129 1089.26,690.067 1098.8,690.067 1108.34,690.129 1117.88,690.44 1127.42,690.783 1136.96,691.364 1146.5,692.071 1156.04,692.899 1165.58,694.128 1175.12,695.517 1184.66,697.348 1194.2,699.635 1203.74,702.333 1213.28,706.092 1222.82,709.546 1232.36,713.301 1241.9,734.323 1251.43,674.96 1260.97,87.9763 1270.65,359.362 1280.32,1445.72 1290,810.291 1299.67,716.223 1309.34,699.928 1319.02,697.012 1328.69,685.898 1338.36,681.851 1348.04,677.779 1357.71,675.438 1367.39,673.449 1377.06,672.054 1386.73,670.764 1396.41,669.838 1406.08,668.947 1415.75,668.28 1425.43,667.679 1435.1,667.126 1444.78,666.72 1454.45,666.273 1464.12,665.981 1473.8,665.666 1483.47,665.392 1493.14,665.19 1502.82,664.931 1512.49,664.805 1522.17,664.623 1531.84,664.495 1541.51,664.397 1551.19,664.249 1560.86,664.216 1570.53,664.115 1580.21,664.088 1589.88,664.059 1599.56,664 1609.23,664.035 1618.9,664 1628.58,664.059 1638.25,664.088 1647.93,664.115 1657.6,664.216 1667.27,664.249 1676.95,664.397 1686.62,664.495 1696.29,664.623 1705.97,664.805 1715.64,664.931 1725.32,665.19 1734.99,665.392 1744.66,665.666 1754.34,665.981 1764.01,666.273 1773.68,666.72 1783.36,667.126 1793.03,667.679 1802.71,668.28 1812.38,668.947 1822.05,669.838 1831.73,670.764 1841.4,672.054 1851.07,673.449 1860.75,675.438 1870.42,677.779 1880.1,681.851 1889.77,685.898 1899.44,697.012 1909.12,699.928 1918.79,716.223 1928.46,810.291 1938.14,1445.72 1947.81,359.362 1957.35,87.9763 1966.89,674.96 1976.43,734.323 1985.97,713.301 1995.51,709.546 2005.05,706.092 2014.59,702.333 2024.13,699.635 2033.67,697.348 2043.21,695.517 2052.75,694.128 2062.28,692.899 2071.82,692.071 2081.36,691.364 2090.9,690.783 2100.44,690.44 2109.98,690.129 2119.52,690.067 2129.06,690.067 2138.6,690.129 2148.14,690.44 2157.68,690.783 2167.22,691.364 2176.76,692.071 2186.3,692.899 2195.84,694.128 2205.38,695.517 2214.92,697.348 2224.45,699.635 2233.99,702.333 2243.53,706.092 2253.07,709.546 2262.61,713.301 2272.15,734.323 2281.69,674.96 2291.23,87.9763 "/>
<polyline clip-path="url(#clip252)" style="stroke:#e26f46; stroke-linecap:round; stroke-linejoin:round; stroke-width:4; stroke-opacity:1; fill:none" points="240.392,378.713 250.066,512.065 259.739,581.765 269.413,606.584 279.087,616.367 288.761,621.045 298.434,624.284 308.108,626.05 317.782,627.389 327.456,628.534 337.129,629.396 346.803,630.516 356.477,631.077 366.151,631.647 375.825,632.027 385.498,632.359 395.172,633.112 404.846,633.487 414.52,633.987 424.193,634.112 433.867,634.241 443.541,634.839 453.215,635.167 462.888,635.702 472.562,635.748 482.236,635.796 491.91,636.265 501.584,636.548 511.257,637.115 520.931,637.183 530.605,637.251 540.279,637.573 549.952,637.789 559.626,638.371 569.3,638.509 578.974,638.682 588.647,638.854 598.321,638.992 607.995,639.574 617.669,639.791 627.343,640.112 637.016,640.18 646.69,640.248 656.364,640.815 666.038,641.098 675.711,641.567 685.385,641.615 695.059,641.661 704.733,642.196 714.406,642.524 724.08,643.122 733.754,643.252 743.428,643.377 753.102,643.877 762.775,644.251 772.449,645.004 782.123,645.337 791.797,645.716 801.47,646.286 811.144,646.847 820.818,647.967 830.492,648.829 840.165,649.974 849.839,651.313 859.513,653.08 869.187,656.318 878.861,660.997 888.534,670.779 898.208,695.598 907.882,765.298 917.556,898.65 927.095,791.18 936.634,444.322 946.174,538.027 955.713,606.437 965.253,632.875 974.792,633.401 984.331,639.063 993.871,641.58 1003.41,638.361 1012.95,641.8 1022.49,638.101 1032.03,639.707 1041.57,642.219 1051.11,637.216 1060.65,640.411 1070.19,638.431 1079.73,638.439 1089.26,641.388 1098.8,635.975 1108.34,638.924 1117.88,638.932 1127.42,636.952 1136.96,640.147 1146.5,635.144 1156.04,637.656 1165.58,639.263 1175.12,635.563 1184.66,639.002 1194.2,635.783 1203.74,638.3 1213.28,643.962 1222.82,644.488 1232.36,670.926 1241.9,739.337 1251.43,833.041 1260.97,486.183 1270.65,378.713 1280.32,512.065 1290,581.765 1299.67,606.584 1309.34,616.367 1319.02,621.045 1328.69,624.284 1338.36,626.05 1348.04,627.389 1357.71,628.534 1367.39,629.396 1377.06,630.516 1386.73,631.077 1396.41,631.647 1406.08,632.027 1415.75,632.359 1425.43,633.112 1435.1,633.487 1444.78,633.987 1454.45,634.112 1464.12,634.241 1473.8,634.839 1483.47,635.167 1493.14,635.702 1502.82,635.748 1512.49,635.796 1522.17,636.265 1531.84,636.548 1541.51,637.115 1551.19,637.183 1560.86,637.251 1570.53,637.573 1580.21,637.789 1589.88,638.371 1599.56,638.509 1609.23,638.682 1618.9,638.854 1628.58,638.992 1638.25,639.574 1647.93,639.791 1657.6,640.112 1667.27,640.18 1676.95,640.248 1686.62,640.815 1696.29,641.098 1705.97,641.567 1715.64,641.615 1725.32,641.661 1734.99,642.196 1744.66,642.524 1754.34,643.122 1764.01,643.252 1773.68,643.377 1783.36,643.877 1793.03,644.251 1802.71,645.004 1812.38,645.337 1822.05,645.716 1831.73,646.286 1841.4,646.847 1851.07,647.967 1860.75,648.829 1870.42,649.974 1880.1,651.313 1889.77,653.08 1899.44,656.318 1909.12,660.997 1918.79,670.779 1928.46,695.598 1938.14,765.298 1947.81,898.65 1957.35,791.18 1966.89,444.322 1976.43,538.027 1985.97,606.437 1995.51,632.875 2005.05,633.401 2014.59,639.063 2024.13,641.58 2033.67,638.361 2043.21,641.8 2052.75,638.101 2062.28,639.707 2071.82,642.219 2081.36,637.216 2090.9,640.411 2100.44,638.431 2109.98,638.439 2119.52,641.388 2129.06,635.975 2138.6,638.924 2148.14,638.932 2157.68,636.952 2167.22,640.147 2176.76,635.144 2186.3,637.656 2195.84,639.263 2205.38,635.563 2214.92,639.002 2224.45,635.783 2233.99,638.3 2243.53,643.962 2253.07,644.488 2262.61,670.926 2272.15,739.337 2281.69,833.041 2291.23,486.183 "/>
</svg>
