<?xml version="1.0" encoding="utf-8"?>
<svg xmlns="http://www.w3.org/2000/svg" xmlns:xlink="http://www.w3.org/1999/xlink" width="600" height="400" viewBox="0 0 2400 1600">
<defs>
  <clipPath id="clip260">
    <rect x="0" y="0" width="2400" height="1600"/>
  </clipPath>
</defs>
<path clip-path="url(#clip260)" d="M0 1600 L2400 1600 L2400 0 L0 0  Z" fill="#ffffff" fill-rule="evenodd" fill-opacity="1"/>
<defs>
  <clipPath id="clip261">
    <rect x="480" y="0" width="1681" height="1600"/>
  </clipPath>
</defs>
<path clip-path="url(#clip260)" d="M178.867 1486.45 L2352.76 1486.45 L2352.76 47.2441 L178.867 47.2441  Z" fill="#ffffff" fill-rule="evenodd" fill-opacity="1"/>
<defs>
  <clipPath id="clip262">
    <rect x="178" y="47" width="2175" height="1440"/>
  </clipPath>
</defs>
<polyline clip-path="url(#clip260)" style="stroke:#000000; stroke-linecap:round; stroke-linejoin:round; stroke-width:4; stroke-opacity:1; fill:none" points="178.867,1486.45 2352.76,1486.45 "/>
<polyline clip-path="url(#clip260)" style="stroke:#000000; stroke-linecap:round; stroke-linejoin:round; stroke-width:4; stroke-opacity:1; fill:none" points="230.718,1486.45 230.718,1467.55 "/>
<polyline clip-path="url(#clip260)" style="stroke:#000000; stroke-linecap:round; stroke-linejoin:round; stroke-width:4; stroke-opacity:1; fill:none" points="917.556,1486.45 917.556,1467.55 "/>
<polyline clip-path="url(#clip260)" style="stroke:#000000; stroke-linecap:round; stroke-linejoin:round; stroke-width:4; stroke-opacity:1; fill:none" points="1604.39,1486.45 1604.39,1467.55 "/>
<polyline clip-path="url(#clip260)" style="stroke:#000000; stroke-linecap:round; stroke-linejoin:round; stroke-width:4; stroke-opacity:1; fill:none" points="2291.23,1486.45 2291.23,1467.55 "/>
<path clip-path="url(#clip260)" d="M230.718 1517.37 Q227.107 1517.37 225.278 1520.93 Q223.473 1524.47 223.473 1531.6 Q223.473 1538.71 225.278 1542.27 Q227.107 1545.82 230.718 1545.82 Q234.352 1545.82 236.158 1542.27 Q237.987 1538.71 237.987 1531.6 Q237.987 1524.47 236.158 1520.93 Q234.352 1517.37 230.718 1517.37 M230.718 1513.66 Q236.528 1513.66 239.584 1518.27 Q242.662 1522.85 242.662 1531.6 Q242.662 1540.33 239.584 1544.94 Q236.528 1549.52 230.718 1549.52 Q224.908 1549.52 221.829 1544.94 Q218.774 1540.33 218.774 1531.6 Q218.774 1522.85 221.829 1518.27 Q224.908 1513.66 230.718 1513.66 Z" fill="#000000" fill-rule="nonzero" fill-opacity="1" /><path clip-path="url(#clip260)" d="M907.938 1544.91 L915.576 1544.91 L915.576 1518.55 L907.266 1520.21 L907.266 1515.95 L915.53 1514.29 L920.206 1514.29 L920.206 1544.91 L927.845 1544.91 L927.845 1548.85 L907.938 1548.85 L907.938 1544.91 Z" fill="#000000" fill-rule="nonzero" fill-opacity="1" /><path clip-path="url(#clip260)" d="M1599.05 1544.91 L1615.37 1544.91 L1615.37 1548.85 L1593.42 1548.85 L1593.42 1544.91 Q1596.08 1542.16 1600.67 1537.53 Q1605.27 1532.88 1606.45 1531.53 Q1608.7 1529.01 1609.58 1527.27 Q1610.48 1525.51 1610.48 1523.82 Q1610.48 1521.07 1608.54 1519.33 Q1606.62 1517.6 1603.51 1517.6 Q1601.31 1517.6 1598.86 1518.36 Q1596.43 1519.13 1593.65 1520.68 L1593.65 1515.95 Q1596.48 1514.82 1598.93 1514.24 Q1601.38 1513.66 1603.42 1513.66 Q1608.79 1513.66 1611.99 1516.35 Q1615.18 1519.03 1615.18 1523.52 Q1615.18 1525.65 1614.37 1527.57 Q1613.58 1529.47 1611.48 1532.07 Q1610.9 1532.74 1607.8 1535.95 Q1604.69 1539.15 1599.05 1544.91 Z" fill="#000000" fill-rule="nonzero" fill-opacity="1" /><path clip-path="url(#clip260)" d="M2295.48 1530.21 Q2298.83 1530.93 2300.71 1533.2 Q2302.61 1535.47 2302.61 1538.8 Q2302.61 1543.92 2299.09 1546.72 Q2295.57 1549.52 2289.09 1549.52 Q2286.91 1549.52 2284.6 1549.08 Q2282.31 1548.66 2279.85 1547.81 L2279.85 1543.29 Q2281.8 1544.43 2284.11 1545.01 Q2286.43 1545.58 2288.95 1545.58 Q2293.35 1545.58 2295.64 1543.85 Q2297.96 1542.11 2297.96 1538.8 Q2297.96 1535.75 2295.8 1534.03 Q2293.67 1532.3 2289.85 1532.3 L2285.83 1532.3 L2285.83 1528.45 L2290.04 1528.45 Q2293.49 1528.45 2295.32 1527.09 Q2297.15 1525.7 2297.15 1523.11 Q2297.15 1520.45 2295.25 1519.03 Q2293.37 1517.6 2289.85 1517.6 Q2287.93 1517.6 2285.73 1518.01 Q2283.53 1518.43 2280.9 1519.31 L2280.9 1515.14 Q2283.56 1514.4 2285.87 1514.03 Q2288.21 1513.66 2290.27 1513.66 Q2295.59 1513.66 2298.7 1516.09 Q2301.8 1518.5 2301.8 1522.62 Q2301.8 1525.49 2300.15 1527.48 Q2298.51 1529.45 2295.48 1530.21 Z" fill="#000000" fill-rule="nonzero" fill-opacity="1" /><polyline clip-path="url(#clip260)" style="stroke:#000000; stroke-linecap:round; stroke-linejoin:round; stroke-width:4; stroke-opacity:1; fill:none" points="178.867,1486.45 178.867,47.2441 "/>
<polyline clip-path="url(#clip260)" style="stroke:#000000; stroke-linecap:round; stroke-linejoin:round; stroke-width:4; stroke-opacity:1; fill:none" points="178.867,1347.06 197.764,1347.06 "/>
<polyline clip-path="url(#clip260)" style="stroke:#000000; stroke-linecap:round; stroke-linejoin:round; stroke-width:4; stroke-opacity:1; fill:none" points="178.867,992.717 197.764,992.717 "/>
<polyline clip-path="url(#clip260)" style="stroke:#000000; stroke-linecap:round; stroke-linejoin:round; stroke-width:4; stroke-opacity:1; fill:none" points="178.867,638.376 197.764,638.376 "/>
<polyline clip-path="url(#clip260)" style="stroke:#000000; stroke-linecap:round; stroke-linejoin:round; stroke-width:4; stroke-opacity:1; fill:none" points="178.867,284.034 197.764,284.034 "/>
<path clip-path="url(#clip260)" d="M50.9921 1347.51 L80.6679 1347.51 L80.6679 1351.45 L50.9921 1351.45 L50.9921 1347.51 Z" fill="#000000" fill-rule="nonzero" fill-opacity="1" /><path clip-path="url(#clip260)" d="M103.608 1333.85 L91.8021 1352.3 L103.608 1352.3 L103.608 1333.85 M102.381 1329.78 L108.26 1329.78 L108.26 1352.3 L113.191 1352.3 L113.191 1356.19 L108.26 1356.19 L108.26 1364.34 L103.608 1364.34 L103.608 1356.19 L88.0058 1356.19 L88.0058 1351.68 L102.381 1329.78 Z" fill="#000000" fill-rule="nonzero" fill-opacity="1" /><path clip-path="url(#clip260)" d="M130.922 1332.86 Q127.311 1332.86 125.482 1336.42 Q123.677 1339.96 123.677 1347.09 Q123.677 1354.2 125.482 1357.76 Q127.311 1361.31 130.922 1361.31 Q134.556 1361.31 136.362 1357.76 Q138.191 1354.2 138.191 1347.09 Q138.191 1339.96 136.362 1336.42 Q134.556 1332.86 130.922 1332.86 M130.922 1329.15 Q136.732 1329.15 139.788 1333.76 Q142.867 1338.34 142.867 1347.09 Q142.867 1355.82 139.788 1360.43 Q136.732 1365.01 130.922 1365.01 Q125.112 1365.01 122.033 1360.43 Q118.978 1355.82 118.978 1347.09 Q118.978 1338.34 122.033 1333.76 Q125.112 1329.15 130.922 1329.15 Z" fill="#000000" fill-rule="nonzero" fill-opacity="1" /><path clip-path="url(#clip260)" d="M50.9921 993.168 L80.6679 993.168 L80.6679 997.104 L50.9921 997.104 L50.9921 993.168 Z" fill="#000000" fill-rule="nonzero" fill-opacity="1" /><path clip-path="url(#clip260)" d="M94.7882 1006.06 L111.108 1006.06 L111.108 1010 L89.1632 1010 L89.1632 1006.06 Q91.8252 1003.31 96.4085 998.678 Q101.015 994.025 102.196 992.682 Q104.441 990.159 105.321 988.423 Q106.223 986.664 106.223 984.974 Q106.223 982.219 104.279 980.483 Q102.358 978.747 99.2558 978.747 Q97.0567 978.747 94.603 979.511 Q92.1725 980.275 89.3947 981.826 L89.3947 977.104 Q92.2188 975.969 94.6724 975.391 Q97.1261 974.812 99.1632 974.812 Q104.534 974.812 107.728 977.497 Q110.922 980.182 110.922 984.673 Q110.922 986.803 110.112 988.724 Q109.325 990.622 107.219 993.215 Q106.64 993.886 103.538 997.104 Q100.436 1000.3 94.7882 1006.06 Z" fill="#000000" fill-rule="nonzero" fill-opacity="1" /><path clip-path="url(#clip260)" d="M130.922 978.516 Q127.311 978.516 125.482 982.081 Q123.677 985.622 123.677 992.752 Q123.677 999.858 125.482 1003.42 Q127.311 1006.96 130.922 1006.96 Q134.556 1006.96 136.362 1003.42 Q138.191 999.858 138.191 992.752 Q138.191 985.622 136.362 982.081 Q134.556 978.516 130.922 978.516 M130.922 974.812 Q136.732 974.812 139.788 979.419 Q142.867 984.002 142.867 992.752 Q142.867 1001.48 139.788 1006.09 Q136.732 1010.67 130.922 1010.67 Q125.112 1010.67 122.033 1006.09 Q118.978 1001.48 118.978 992.752 Q118.978 984.002 122.033 979.419 Q125.112 974.812 130.922 974.812 Z" fill="#000000" fill-rule="nonzero" fill-opacity="1" /><path clip-path="url(#clip260)" d="M130.922 624.174 Q127.311 624.174 125.482 627.739 Q123.677 631.281 123.677 638.41 Q123.677 645.517 125.482 649.082 Q127.311 652.623 130.922 652.623 Q134.556 652.623 136.362 649.082 Q138.191 645.517 138.191 638.41 Q138.191 631.281 136.362 627.739 Q134.556 624.174 130.922 624.174 M130.922 620.471 Q136.732 620.471 139.788 625.077 Q142.867 629.66 142.867 638.41 Q142.867 647.137 139.788 651.744 Q136.732 656.327 130.922 656.327 Q125.112 656.327 122.033 651.744 Q118.978 647.137 118.978 638.41 Q118.978 629.66 122.033 625.077 Q125.112 620.471 130.922 620.471 Z" fill="#000000" fill-rule="nonzero" fill-opacity="1" /><path clip-path="url(#clip260)" d="M94.7882 297.379 L111.108 297.379 L111.108 301.314 L89.1632 301.314 L89.1632 297.379 Q91.8252 294.624 96.4085 289.995 Q101.015 285.342 102.196 283.999 Q104.441 281.476 105.321 279.74 Q106.223 277.981 106.223 276.291 Q106.223 273.537 104.279 271.8 Q102.358 270.064 99.2558 270.064 Q97.0567 270.064 94.603 270.828 Q92.1725 271.592 89.3947 273.143 L89.3947 268.421 Q92.2188 267.287 94.6724 266.708 Q97.1261 266.129 99.1632 266.129 Q104.534 266.129 107.728 268.814 Q110.922 271.5 110.922 275.99 Q110.922 278.12 110.112 280.041 Q109.325 281.939 107.219 284.532 Q106.64 285.203 103.538 288.421 Q100.436 291.615 94.7882 297.379 Z" fill="#000000" fill-rule="nonzero" fill-opacity="1" /><path clip-path="url(#clip260)" d="M130.922 269.833 Q127.311 269.833 125.482 273.398 Q123.677 276.939 123.677 284.069 Q123.677 291.175 125.482 294.74 Q127.311 298.282 130.922 298.282 Q134.556 298.282 136.362 294.74 Q138.191 291.175 138.191 284.069 Q138.191 276.939 136.362 273.398 Q134.556 269.833 130.922 269.833 M130.922 266.129 Q136.732 266.129 139.788 270.736 Q142.867 275.319 142.867 284.069 Q142.867 292.796 139.788 297.402 Q136.732 301.985 130.922 301.985 Q125.112 301.985 122.033 297.402 Q118.978 292.796 118.978 284.069 Q118.978 275.319 122.033 270.736 Q125.112 266.129 130.922 266.129 Z" fill="#000000" fill-rule="nonzero" fill-opacity="1" /><polyline clip-path="url(#clip262)" style="stroke:#009af9; stroke-linecap:round; stroke-linejoin:round; stroke-width:4; stroke-opacity:1; fill:none" points="240.392,359.447 250.066,1445.72 259.739,810.147 269.413,716.043 279.087,699.735 288.761,696.811 298.434,685.691 308.108,681.639 317.782,677.564 327.456,675.22 337.129,673.228 346.803,671.831 356.477,670.54 366.151,669.612 375.825,668.72 385.498,668.052 395.172,667.45 404.846,666.896 414.52,666.489 424.193,666.041 433.867,665.748 443.541,665.434 453.215,665.158 462.888,664.957 472.562,664.697 482.236,664.57 491.91,664.388 501.584,664.259 511.257,664.161 520.931,664.013 530.605,663.98 540.279,663.88 549.952,663.852 559.626,663.823 569.3,663.763 578.974,663.799 588.647,663.763 598.321,663.823 607.995,663.852 617.669,663.88 627.343,663.98 637.016,664.013 646.69,664.161 656.364,664.259 666.038,664.388 675.711,664.57 685.385,664.697 695.059,664.957 704.733,665.158 714.406,665.434 724.08,665.748 733.754,666.041 743.428,666.489 753.102,666.896 762.775,667.45 772.449,668.052 782.123,668.72 791.797,669.612 801.47,670.54 811.144,671.831 820.818,673.228 830.492,675.22 840.165,677.564 849.839,681.639 859.513,685.691 869.187,696.811 878.861,699.735 888.534,716.043 898.208,810.147 907.882,1445.72 917.556,359.447 927.095,87.9763 936.634,674.916 946.174,734.242 955.713,713.199 965.253,709.43 974.792,705.966 984.331,702.199 993.871,699.495 1003.41,697.204 1012.95,695.369 1022.49,693.977 1032.03,692.745 1041.57,691.915 1051.11,691.207 1060.65,690.624 1070.19,690.28 1079.73,689.969 1089.26,689.906 1098.8,689.906 1108.34,689.969 1117.88,690.28 1127.42,690.624 1136.96,691.207 1146.5,691.915 1156.04,692.745 1165.58,693.977 1175.12,695.369 1184.66,697.204 1194.2,699.495 1203.74,702.199 1213.28,705.966 1222.82,709.43 1232.36,713.199 1241.9,734.242 1251.43,674.916 1260.97,87.9763 1270.65,359.447 1280.32,1445.72 1290,810.147 1299.67,716.043 1309.34,699.735 1319.02,696.811 1328.69,685.691 1338.36,681.639 1348.04,677.564 1357.71,675.22 1367.39,673.228 1377.06,671.831 1386.73,670.54 1396.41,669.612 1406.08,668.72 1415.75,668.052 1425.43,667.45 1435.1,666.896 1444.78,666.489 1454.45,666.041 1464.12,665.748 1473.8,665.434 1483.47,665.158 1493.14,664.957 1502.82,664.697 1512.49,664.57 1522.17,664.388 1531.84,664.259 1541.51,664.161 1551.19,664.013 1560.86,663.98 1570.53,663.88 1580.21,663.852 1589.88,663.823 1599.56,663.763 1609.23,663.799 1618.9,663.763 1628.58,663.823 1638.25,663.852 1647.93,663.88 1657.6,663.98 1667.27,664.013 1676.95,664.161 1686.62,664.259 1696.29,664.388 1705.97,664.57 1715.64,664.697 1725.32,664.957 1734.99,665.158 1744.66,665.434 1754.34,665.748 1764.01,666.041 1773.68,666.489 1783.36,666.896 1793.03,667.45 1802.71,668.052 1812.38,668.72 1822.05,669.612 1831.73,670.54 1841.4,671.831 1851.07,673.228 1860.75,675.22 1870.42,677.564 1880.1,681.639 1889.77,685.691 1899.44,696.811 1909.12,699.735 1918.79,716.043 1928.46,810.147 1938.14,1445.72 1947.81,359.447 1957.35,87.9763 1966.89,674.916 1976.43,734.242 1985.97,713.199 1995.51,709.43 2005.05,705.966 2014.59,702.199 2024.13,699.495 2033.67,697.204 2043.21,695.369 2052.75,693.977 2062.28,692.745 2071.82,691.915 2081.36,691.207 2090.9,690.624 2100.44,690.28 2109.98,689.969 2119.52,689.906 2129.06,689.906 2138.6,689.969 2148.14,690.28 2157.68,690.624 2167.22,691.207 2176.76,691.915 2186.3,692.745 2195.84,693.977 2205.38,695.369 2214.92,697.204 2224.45,699.495 2233.99,702.199 2243.53,705.966 2253.07,709.43 2262.61,713.199 2272.15,734.242 2281.69,674.916 2291.23,87.9763 "/>
<polyline clip-path="url(#clip262)" style="stroke:#e26f46; stroke-linecap:round; stroke-linejoin:round; stroke-width:4; stroke-opacity:1; fill:none" points="240.392,378.065 250.066,511.598 259.739,581.374 269.413,606.221 279.087,616.016 288.761,620.702 298.434,623.947 308.108,625.717 317.782,627.059 327.456,628.208 337.129,629.071 346.803,630.193 356.477,630.755 366.151,631.327 375.825,631.708 385.498,632.042 395.172,632.796 404.846,633.171 414.52,633.672 424.193,633.797 433.867,633.927 443.541,634.527 453.215,634.855 462.888,635.39 472.562,635.437 482.236,635.485 491.91,635.955 501.584,636.239 511.257,636.806 520.931,636.875 530.605,636.943 540.279,637.265 549.952,637.482 559.626,638.064 569.3,638.203 578.974,638.376 588.647,638.549 598.321,638.687 607.995,639.269 617.669,639.486 627.343,639.808 637.016,639.877 646.69,639.945 656.364,640.513 666.038,640.796 675.711,641.266 685.385,641.314 695.059,641.361 704.733,641.897 714.406,642.225 724.08,642.824 733.754,642.954 743.428,643.079 753.102,643.58 762.775,643.956 772.449,644.71 782.123,645.043 791.797,645.424 801.47,645.996 811.144,646.558 820.818,647.68 830.492,648.544 840.165,649.692 849.839,651.034 859.513,652.804 869.187,656.049 878.861,660.735 888.534,670.531 898.208,695.377 907.882,765.153 917.556,898.686 927.095,791.176 936.634,443.984 946.174,537.722 955.713,606.146 965.253,632.586 974.792,633.108 984.331,638.77 993.871,641.285 1003.41,638.064 1012.95,641.503 1022.49,637.801 1032.03,639.407 1041.57,641.918 1051.11,636.913 1060.65,640.108 1070.19,638.127 1079.73,638.134 1089.26,641.083 1098.8,635.668 1108.34,638.617 1117.88,638.624 1127.42,636.643 1136.96,639.838 1146.5,634.833 1156.04,637.344 1165.58,638.95 1175.12,635.248 1184.66,638.687 1194.2,635.466 1203.74,637.982 1213.28,643.643 1222.82,644.165 1232.36,670.605 1241.9,739.029 1251.43,832.767 1260.97,485.576 1270.65,378.065 1280.32,511.598 1290,581.374 1299.67,606.221 1309.34,616.016 1319.02,620.702 1328.69,623.947 1338.36,625.717 1348.04,627.059 1357.71,628.208 1367.39,629.071 1377.06,630.193 1386.73,630.755 1396.41,631.327 1406.08,631.708 1415.75,632.042 1425.43,632.796 1435.1,633.171 1444.78,633.672 1454.45,633.797 1464.12,633.927 1473.8,634.527 1483.47,634.855 1493.14,635.39 1502.82,635.437 1512.49,635.485 1522.17,635.955 1531.84,636.239 1541.51,636.806 1551.19,636.875 1560.86,636.943 1570.53,637.265 1580.21,637.482 1589.88,638.064 1599.56,638.203 1609.23,638.376 1618.9,638.549 1628.58,638.687 1638.25,639.269 1647.93,639.486 1657.6,639.808 1667.27,639.877 1676.95,639.945 1686.62,640.513 1696.29,640.796 1705.97,641.266 1715.64,641.314 1725.32,641.361 1734.99,641.897 1744.66,642.225 1754.34,642.824 1764.01,642.954 1773.68,643.079 1783.36,643.58 1793.03,643.956 1802.71,644.71 1812.38,645.043 1822.05,645.424 1831.73,645.996 1841.4,646.558 1851.07,647.68 1860.75,648.544 1870.42,649.692 1880.1,651.034 1889.77,652.804 1899.44,656.049 1909.12,660.735 1918.79,670.531 1928.46,695.377 1938.14,765.153 1947.81,898.686 1957.35,791.176 1966.89,443.984 1976.43,537.722 1985.97,606.146 1995.51,632.586 2005.05,633.108 2014.59,638.77 2024.13,641.285 2033.67,638.064 2043.21,641.503 2052.75,637.801 2062.28,639.407 2071.82,641.918 2081.36,636.913 2090.9,640.108 2100.44,638.127 2109.98,638.134 2119.52,641.083 2129.06,635.668 2138.6,638.617 2148.14,638.624 2157.68,636.643 2167.22,639.838 2176.76,634.833 2186.3,637.344 2195.84,638.95 2205.38,635.248 2214.92,638.687 2224.45,635.466 2233.99,637.982 2243.53,643.643 2253.07,644.165 2262.61,670.605 2272.15,739.029 2281.69,832.767 2291.23,485.576 "/>
</svg>
