<?xml version="1.0" encoding="utf-8"?>
<svg xmlns="http://www.w3.org/2000/svg" xmlns:xlink="http://www.w3.org/1999/xlink" width="600" height="400" viewBox="0 0 2400 1600">
<defs>
  <clipPath id="clip940">
    <rect x="0" y="0" width="2400" height="1600"/>
  </clipPath>
</defs>
<path clip-path="url(#clip940)" d="M0 1600 L2400 1600 L2400 0 L0 0  Z" fill="#ffffff" fill-rule="evenodd" fill-opacity="1"/>
<defs>
  <clipPath id="clip941">
    <rect x="480" y="0" width="1681" height="1600"/>
  </clipPath>
</defs>
<path clip-path="url(#clip940)" d="M193.936 1486.45 L2352.76 1486.45 L2352.76 47.2441 L193.936 47.2441  Z" fill="#ffffff" fill-rule="evenodd" fill-opacity="1"/>
<defs>
  <clipPath id="clip942">
    <rect x="193" y="47" width="2160" height="1440"/>
  </clipPath>
</defs>
<polyline clip-path="url(#clip940)" style="stroke:#000000; stroke-linecap:round; stroke-linejoin:round; stroke-width:4; stroke-opacity:1; fill:none" points="193.936,1486.45 2352.76,1486.45 "/>
<polyline clip-path="url(#clip940)" style="stroke:#000000; stroke-linecap:round; stroke-linejoin:round; stroke-width:4; stroke-opacity:1; fill:none" points="255.041,1486.45 255.041,1467.55 "/>
<polyline clip-path="url(#clip940)" style="stroke:#000000; stroke-linecap:round; stroke-linejoin:round; stroke-width:4; stroke-opacity:1; fill:none" points="594.476,1486.45 594.476,1467.55 "/>
<polyline clip-path="url(#clip940)" style="stroke:#000000; stroke-linecap:round; stroke-linejoin:round; stroke-width:4; stroke-opacity:1; fill:none" points="933.911,1486.45 933.911,1467.55 "/>
<polyline clip-path="url(#clip940)" style="stroke:#000000; stroke-linecap:round; stroke-linejoin:round; stroke-width:4; stroke-opacity:1; fill:none" points="1273.35,1486.45 1273.35,1467.55 "/>
<polyline clip-path="url(#clip940)" style="stroke:#000000; stroke-linecap:round; stroke-linejoin:round; stroke-width:4; stroke-opacity:1; fill:none" points="1612.78,1486.45 1612.78,1467.55 "/>
<polyline clip-path="url(#clip940)" style="stroke:#000000; stroke-linecap:round; stroke-linejoin:round; stroke-width:4; stroke-opacity:1; fill:none" points="1952.22,1486.45 1952.22,1467.55 "/>
<polyline clip-path="url(#clip940)" style="stroke:#000000; stroke-linecap:round; stroke-linejoin:round; stroke-width:4; stroke-opacity:1; fill:none" points="2291.65,1486.45 2291.65,1467.55 "/>
<path clip-path="url(#clip940)" d="M202.067 1532.02 L231.743 1532.02 L231.743 1535.95 L202.067 1535.95 L202.067 1532.02 Z" fill="#000000" fill-rule="nonzero" fill-opacity="1" /><path clip-path="url(#clip940)" d="M242.646 1544.91 L250.284 1544.91 L250.284 1518.55 L241.974 1520.21 L241.974 1515.95 L250.238 1514.29 L254.914 1514.29 L254.914 1544.91 L262.553 1544.91 L262.553 1548.85 L242.646 1548.85 L242.646 1544.91 Z" fill="#000000" fill-rule="nonzero" fill-opacity="1" /><path clip-path="url(#clip940)" d="M271.997 1542.97 L276.882 1542.97 L276.882 1548.85 L271.997 1548.85 L271.997 1542.97 Z" fill="#000000" fill-rule="nonzero" fill-opacity="1" /><path clip-path="url(#clip940)" d="M287.113 1514.29 L305.469 1514.29 L305.469 1518.22 L291.395 1518.22 L291.395 1526.7 Q292.414 1526.35 293.432 1526.19 Q294.451 1526 295.469 1526 Q301.256 1526 304.636 1529.17 Q308.016 1532.34 308.016 1537.76 Q308.016 1543.34 304.543 1546.44 Q301.071 1549.52 294.752 1549.52 Q292.576 1549.52 290.307 1549.15 Q288.062 1548.78 285.655 1548.04 L285.655 1543.34 Q287.738 1544.47 289.96 1545.03 Q292.182 1545.58 294.659 1545.58 Q298.664 1545.58 301.002 1543.48 Q303.34 1541.37 303.34 1537.76 Q303.34 1534.15 301.002 1532.04 Q298.664 1529.94 294.659 1529.94 Q292.784 1529.94 290.909 1530.35 Q289.057 1530.77 287.113 1531.65 L287.113 1514.29 Z" fill="#000000" fill-rule="nonzero" fill-opacity="1" /><path clip-path="url(#clip940)" d="M541.004 1532.02 L570.68 1532.02 L570.68 1535.95 L541.004 1535.95 L541.004 1532.02 Z" fill="#000000" fill-rule="nonzero" fill-opacity="1" /><path clip-path="url(#clip940)" d="M581.583 1544.91 L589.222 1544.91 L589.222 1518.55 L580.912 1520.21 L580.912 1515.95 L589.175 1514.29 L593.851 1514.29 L593.851 1544.91 L601.49 1544.91 L601.49 1548.85 L581.583 1548.85 L581.583 1544.91 Z" fill="#000000" fill-rule="nonzero" fill-opacity="1" /><path clip-path="url(#clip940)" d="M610.934 1542.97 L615.819 1542.97 L615.819 1548.85 L610.934 1548.85 L610.934 1542.97 Z" fill="#000000" fill-rule="nonzero" fill-opacity="1" /><path clip-path="url(#clip940)" d="M636.004 1517.37 Q632.393 1517.37 630.564 1520.93 Q628.758 1524.47 628.758 1531.6 Q628.758 1538.71 630.564 1542.27 Q632.393 1545.82 636.004 1545.82 Q639.638 1545.82 641.444 1542.27 Q643.272 1538.71 643.272 1531.6 Q643.272 1524.47 641.444 1520.93 Q639.638 1517.37 636.004 1517.37 M636.004 1513.66 Q641.814 1513.66 644.869 1518.27 Q647.948 1522.85 647.948 1531.6 Q647.948 1540.33 644.869 1544.94 Q641.814 1549.52 636.004 1549.52 Q630.194 1549.52 627.115 1544.94 Q624.059 1540.33 624.059 1531.6 Q624.059 1522.85 627.115 1518.27 Q630.194 1513.66 636.004 1513.66 Z" fill="#000000" fill-rule="nonzero" fill-opacity="1" /><path clip-path="url(#clip940)" d="M880.937 1532.02 L910.613 1532.02 L910.613 1535.95 L880.937 1535.95 L880.937 1532.02 Z" fill="#000000" fill-rule="nonzero" fill-opacity="1" /><path clip-path="url(#clip940)" d="M930.705 1517.37 Q927.094 1517.37 925.265 1520.93 Q923.46 1524.47 923.46 1531.6 Q923.46 1538.71 925.265 1542.27 Q927.094 1545.82 930.705 1545.82 Q934.339 1545.82 936.145 1542.27 Q937.974 1538.71 937.974 1531.6 Q937.974 1524.47 936.145 1520.93 Q934.339 1517.37 930.705 1517.37 M930.705 1513.66 Q936.515 1513.66 939.571 1518.27 Q942.649 1522.85 942.649 1531.6 Q942.649 1540.33 939.571 1544.94 Q936.515 1549.52 930.705 1549.52 Q924.895 1549.52 921.816 1544.94 Q918.761 1540.33 918.761 1531.6 Q918.761 1522.85 921.816 1518.27 Q924.895 1513.66 930.705 1513.66 Z" fill="#000000" fill-rule="nonzero" fill-opacity="1" /><path clip-path="url(#clip940)" d="M950.867 1542.97 L955.751 1542.97 L955.751 1548.85 L950.867 1548.85 L950.867 1542.97 Z" fill="#000000" fill-rule="nonzero" fill-opacity="1" /><path clip-path="url(#clip940)" d="M965.983 1514.29 L984.339 1514.29 L984.339 1518.22 L970.265 1518.22 L970.265 1526.7 Q971.284 1526.35 972.302 1526.19 Q973.321 1526 974.339 1526 Q980.126 1526 983.506 1529.17 Q986.885 1532.34 986.885 1537.76 Q986.885 1543.34 983.413 1546.44 Q979.941 1549.52 973.622 1549.52 Q971.446 1549.52 969.177 1549.15 Q966.932 1548.78 964.524 1548.04 L964.524 1543.34 Q966.608 1544.47 968.83 1545.03 Q971.052 1545.58 973.529 1545.58 Q977.534 1545.58 979.871 1543.48 Q982.209 1541.37 982.209 1537.76 Q982.209 1534.15 979.871 1532.04 Q977.534 1529.94 973.529 1529.94 Q971.654 1529.94 969.779 1530.35 Q967.927 1530.77 965.983 1531.65 L965.983 1514.29 Z" fill="#000000" fill-rule="nonzero" fill-opacity="1" /><path clip-path="url(#clip940)" d="M1250.73 1517.37 Q1247.12 1517.37 1245.29 1520.93 Q1243.49 1524.47 1243.49 1531.6 Q1243.49 1538.71 1245.29 1542.27 Q1247.12 1545.82 1250.73 1545.82 Q1254.36 1545.82 1256.17 1542.27 Q1258 1538.71 1258 1531.6 Q1258 1524.47 1256.17 1520.93 Q1254.36 1517.37 1250.73 1517.37 M1250.73 1513.66 Q1256.54 1513.66 1259.6 1518.27 Q1262.67 1522.85 1262.67 1531.6 Q1262.67 1540.33 1259.6 1544.94 Q1256.54 1549.52 1250.73 1549.52 Q1244.92 1549.52 1241.84 1544.94 Q1238.79 1540.33 1238.79 1531.6 Q1238.79 1522.85 1241.84 1518.27 Q1244.92 1513.66 1250.73 1513.66 Z" fill="#000000" fill-rule="nonzero" fill-opacity="1" /><path clip-path="url(#clip940)" d="M1270.89 1542.97 L1275.78 1542.97 L1275.78 1548.85 L1270.89 1548.85 L1270.89 1542.97 Z" fill="#000000" fill-rule="nonzero" fill-opacity="1" /><path clip-path="url(#clip940)" d="M1295.96 1517.37 Q1292.35 1517.37 1290.52 1520.93 Q1288.72 1524.47 1288.72 1531.6 Q1288.72 1538.71 1290.52 1542.27 Q1292.35 1545.82 1295.96 1545.82 Q1299.6 1545.82 1301.4 1542.27 Q1303.23 1538.71 1303.23 1531.6 Q1303.23 1524.47 1301.4 1520.93 Q1299.6 1517.37 1295.96 1517.37 M1295.96 1513.66 Q1301.77 1513.66 1304.83 1518.27 Q1307.91 1522.85 1307.91 1531.6 Q1307.91 1540.33 1304.83 1544.94 Q1301.77 1549.52 1295.96 1549.52 Q1290.15 1549.52 1287.07 1544.94 Q1284.02 1540.33 1284.02 1531.6 Q1284.02 1522.85 1287.07 1518.27 Q1290.15 1513.66 1295.96 1513.66 Z" fill="#000000" fill-rule="nonzero" fill-opacity="1" /><path clip-path="url(#clip940)" d="M1590.66 1517.37 Q1587.05 1517.37 1585.22 1520.93 Q1583.42 1524.47 1583.42 1531.6 Q1583.42 1538.71 1585.22 1542.27 Q1587.05 1545.82 1590.66 1545.82 Q1594.3 1545.82 1596.1 1542.27 Q1597.93 1538.71 1597.93 1531.6 Q1597.93 1524.47 1596.1 1520.93 Q1594.3 1517.37 1590.66 1517.37 M1590.66 1513.66 Q1596.47 1513.66 1599.53 1518.27 Q1602.61 1522.85 1602.61 1531.6 Q1602.61 1540.33 1599.53 1544.94 Q1596.47 1549.52 1590.66 1549.52 Q1584.85 1549.52 1581.77 1544.94 Q1578.72 1540.33 1578.72 1531.6 Q1578.72 1522.85 1581.77 1518.27 Q1584.85 1513.66 1590.66 1513.66 Z" fill="#000000" fill-rule="nonzero" fill-opacity="1" /><path clip-path="url(#clip940)" d="M1610.82 1542.97 L1615.71 1542.97 L1615.71 1548.85 L1610.82 1548.85 L1610.82 1542.97 Z" fill="#000000" fill-rule="nonzero" fill-opacity="1" /><path clip-path="url(#clip940)" d="M1625.94 1514.29 L1644.3 1514.29 L1644.3 1518.22 L1630.22 1518.22 L1630.22 1526.7 Q1631.24 1526.35 1632.26 1526.19 Q1633.28 1526 1634.3 1526 Q1640.08 1526 1643.46 1529.17 Q1646.84 1532.34 1646.84 1537.76 Q1646.84 1543.34 1643.37 1546.44 Q1639.9 1549.52 1633.58 1549.52 Q1631.4 1549.52 1629.13 1549.15 Q1626.89 1548.78 1624.48 1548.04 L1624.48 1543.34 Q1626.57 1544.47 1628.79 1545.03 Q1631.01 1545.58 1633.49 1545.58 Q1637.49 1545.58 1639.83 1543.48 Q1642.17 1541.37 1642.17 1537.76 Q1642.17 1534.15 1639.83 1532.04 Q1637.49 1529.94 1633.49 1529.94 Q1631.61 1529.94 1629.74 1530.35 Q1627.88 1530.77 1625.94 1531.65 L1625.94 1514.29 Z" fill="#000000" fill-rule="nonzero" fill-opacity="1" /><path clip-path="url(#clip940)" d="M1919.37 1544.91 L1927.01 1544.91 L1927.01 1518.55 L1918.7 1520.21 L1918.7 1515.95 L1926.96 1514.29 L1931.64 1514.29 L1931.64 1544.91 L1939.28 1544.91 L1939.28 1548.85 L1919.37 1548.85 L1919.37 1544.91 Z" fill="#000000" fill-rule="nonzero" fill-opacity="1" /><path clip-path="url(#clip940)" d="M1948.72 1542.97 L1953.6 1542.97 L1953.6 1548.85 L1948.72 1548.85 L1948.72 1542.97 Z" fill="#000000" fill-rule="nonzero" fill-opacity="1" /><path clip-path="url(#clip940)" d="M1973.79 1517.37 Q1970.18 1517.37 1968.35 1520.93 Q1966.54 1524.47 1966.54 1531.6 Q1966.54 1538.71 1968.35 1542.27 Q1970.18 1545.82 1973.79 1545.82 Q1977.42 1545.82 1979.23 1542.27 Q1981.06 1538.71 1981.06 1531.6 Q1981.06 1524.47 1979.23 1520.93 Q1977.42 1517.37 1973.79 1517.37 M1973.79 1513.66 Q1979.6 1513.66 1982.66 1518.27 Q1985.73 1522.85 1985.73 1531.6 Q1985.73 1540.33 1982.66 1544.94 Q1979.6 1549.52 1973.79 1549.52 Q1967.98 1549.52 1964.9 1544.94 Q1961.85 1540.33 1961.85 1531.6 Q1961.85 1522.85 1964.9 1518.27 Q1967.98 1513.66 1973.79 1513.66 Z" fill="#000000" fill-rule="nonzero" fill-opacity="1" /><path clip-path="url(#clip940)" d="M2259.3 1544.91 L2266.94 1544.91 L2266.94 1518.55 L2258.63 1520.21 L2258.63 1515.95 L2266.89 1514.29 L2271.57 1514.29 L2271.57 1544.91 L2279.21 1544.91 L2279.21 1548.85 L2259.3 1548.85 L2259.3 1544.91 Z" fill="#000000" fill-rule="nonzero" fill-opacity="1" /><path clip-path="url(#clip940)" d="M2288.65 1542.97 L2293.54 1542.97 L2293.54 1548.85 L2288.65 1548.85 L2288.65 1542.97 Z" fill="#000000" fill-rule="nonzero" fill-opacity="1" /><path clip-path="url(#clip940)" d="M2303.77 1514.29 L2322.12 1514.29 L2322.12 1518.22 L2308.05 1518.22 L2308.05 1526.7 Q2309.07 1526.35 2310.09 1526.19 Q2311.11 1526 2312.12 1526 Q2317.91 1526 2321.29 1529.17 Q2324.67 1532.34 2324.67 1537.76 Q2324.67 1543.34 2321.2 1546.44 Q2317.73 1549.52 2311.41 1549.52 Q2309.23 1549.52 2306.96 1549.15 Q2304.72 1548.78 2302.31 1548.04 L2302.31 1543.34 Q2304.39 1544.47 2306.62 1545.03 Q2308.84 1545.58 2311.31 1545.58 Q2315.32 1545.58 2317.66 1543.48 Q2320 1541.37 2320 1537.76 Q2320 1534.15 2317.66 1532.04 Q2315.32 1529.94 2311.31 1529.94 Q2309.44 1529.94 2307.56 1530.35 Q2305.71 1530.77 2303.77 1531.65 L2303.77 1514.29 Z" fill="#000000" fill-rule="nonzero" fill-opacity="1" /><polyline clip-path="url(#clip940)" style="stroke:#000000; stroke-linecap:round; stroke-linejoin:round; stroke-width:4; stroke-opacity:1; fill:none" points="193.936,1486.45 193.936,47.2441 "/>
<polyline clip-path="url(#clip940)" style="stroke:#000000; stroke-linecap:round; stroke-linejoin:round; stroke-width:4; stroke-opacity:1; fill:none" points="193.936,1445.72 212.834,1445.72 "/>
<polyline clip-path="url(#clip940)" style="stroke:#000000; stroke-linecap:round; stroke-linejoin:round; stroke-width:4; stroke-opacity:1; fill:none" points="193.936,1106.28 212.834,1106.28 "/>
<polyline clip-path="url(#clip940)" style="stroke:#000000; stroke-linecap:round; stroke-linejoin:round; stroke-width:4; stroke-opacity:1; fill:none" points="193.936,766.846 212.834,766.846 "/>
<polyline clip-path="url(#clip940)" style="stroke:#000000; stroke-linecap:round; stroke-linejoin:round; stroke-width:4; stroke-opacity:1; fill:none" points="193.936,427.411 212.834,427.411 "/>
<polyline clip-path="url(#clip940)" style="stroke:#000000; stroke-linecap:round; stroke-linejoin:round; stroke-width:4; stroke-opacity:1; fill:none" points="193.936,87.9763 212.834,87.9763 "/>
<path clip-path="url(#clip940)" d="M50.9921 1446.17 L80.6679 1446.17 L80.6679 1450.1 L50.9921 1450.1 L50.9921 1446.17 Z" fill="#000000" fill-rule="nonzero" fill-opacity="1" /><path clip-path="url(#clip940)" d="M91.5706 1459.06 L99.2095 1459.06 L99.2095 1432.69 L90.8993 1434.36 L90.8993 1430.1 L99.1632 1428.44 L103.839 1428.44 L103.839 1459.06 L111.478 1459.06 L111.478 1463 L91.5706 1463 L91.5706 1459.06 Z" fill="#000000" fill-rule="nonzero" fill-opacity="1" /><path clip-path="url(#clip940)" d="M120.922 1457.12 L125.807 1457.12 L125.807 1463 L120.922 1463 L120.922 1457.12 Z" fill="#000000" fill-rule="nonzero" fill-opacity="1" /><path clip-path="url(#clip940)" d="M145.992 1431.51 Q142.381 1431.51 140.552 1435.08 Q138.746 1438.62 138.746 1445.75 Q138.746 1452.86 140.552 1456.42 Q142.381 1459.96 145.992 1459.96 Q149.626 1459.96 151.431 1456.42 Q153.26 1452.86 153.26 1445.75 Q153.26 1438.62 151.431 1435.08 Q149.626 1431.51 145.992 1431.51 M145.992 1427.81 Q151.802 1427.81 154.857 1432.42 Q157.936 1437 157.936 1445.75 Q157.936 1454.48 154.857 1459.08 Q151.802 1463.67 145.992 1463.67 Q140.181 1463.67 137.103 1459.08 Q134.047 1454.48 134.047 1445.75 Q134.047 1437 137.103 1432.42 Q140.181 1427.81 145.992 1427.81 Z" fill="#000000" fill-rule="nonzero" fill-opacity="1" /><path clip-path="url(#clip940)" d="M51.9875 1106.73 L81.6633 1106.73 L81.6633 1110.67 L51.9875 1110.67 L51.9875 1106.73 Z" fill="#000000" fill-rule="nonzero" fill-opacity="1" /><path clip-path="url(#clip940)" d="M101.756 1092.08 Q98.1447 1092.08 96.316 1095.64 Q94.5104 1099.19 94.5104 1106.32 Q94.5104 1113.42 96.316 1116.99 Q98.1447 1120.53 101.756 1120.53 Q105.39 1120.53 107.196 1116.99 Q109.024 1113.42 109.024 1106.32 Q109.024 1099.19 107.196 1095.64 Q105.39 1092.08 101.756 1092.08 M101.756 1088.38 Q107.566 1088.38 110.621 1092.98 Q113.7 1097.57 113.7 1106.32 Q113.7 1115.04 110.621 1119.65 Q107.566 1124.23 101.756 1124.23 Q95.9456 1124.23 92.8669 1119.65 Q89.8114 1115.04 89.8114 1106.32 Q89.8114 1097.57 92.8669 1092.98 Q95.9456 1088.38 101.756 1088.38 Z" fill="#000000" fill-rule="nonzero" fill-opacity="1" /><path clip-path="url(#clip940)" d="M121.918 1117.68 L126.802 1117.68 L126.802 1123.56 L121.918 1123.56 L121.918 1117.68 Z" fill="#000000" fill-rule="nonzero" fill-opacity="1" /><path clip-path="url(#clip940)" d="M137.033 1089 L155.39 1089 L155.39 1092.94 L141.316 1092.94 L141.316 1101.41 Q142.334 1101.06 143.353 1100.9 Q144.371 1100.71 145.39 1100.71 Q151.177 1100.71 154.556 1103.89 Q157.936 1107.06 157.936 1112.47 Q157.936 1118.05 154.464 1121.15 Q150.992 1124.23 144.672 1124.23 Q142.496 1124.23 140.228 1123.86 Q137.982 1123.49 135.575 1122.75 L135.575 1118.05 Q137.658 1119.19 139.881 1119.74 Q142.103 1120.3 144.58 1120.3 Q148.584 1120.3 150.922 1118.19 Q153.26 1116.08 153.26 1112.47 Q153.26 1108.86 150.922 1106.76 Q148.584 1104.65 144.58 1104.65 Q142.705 1104.65 140.83 1105.07 Q138.978 1105.48 137.033 1106.36 L137.033 1089 Z" fill="#000000" fill-rule="nonzero" fill-opacity="1" /><path clip-path="url(#clip940)" d="M100.76 752.645 Q97.1493 752.645 95.3206 756.209 Q93.515 759.751 93.515 766.881 Q93.515 773.987 95.3206 777.552 Q97.1493 781.094 100.76 781.094 Q104.395 781.094 106.2 777.552 Q108.029 773.987 108.029 766.881 Q108.029 759.751 106.2 756.209 Q104.395 752.645 100.76 752.645 M100.76 748.941 Q106.571 748.941 109.626 753.547 Q112.705 758.131 112.705 766.881 Q112.705 775.608 109.626 780.214 Q106.571 784.797 100.76 784.797 Q94.9502 784.797 91.8715 780.214 Q88.816 775.608 88.816 766.881 Q88.816 758.131 91.8715 753.547 Q94.9502 748.941 100.76 748.941 Z" fill="#000000" fill-rule="nonzero" fill-opacity="1" /><path clip-path="url(#clip940)" d="M120.922 778.246 L125.807 778.246 L125.807 784.126 L120.922 784.126 L120.922 778.246 Z" fill="#000000" fill-rule="nonzero" fill-opacity="1" /><path clip-path="url(#clip940)" d="M145.992 752.645 Q142.381 752.645 140.552 756.209 Q138.746 759.751 138.746 766.881 Q138.746 773.987 140.552 777.552 Q142.381 781.094 145.992 781.094 Q149.626 781.094 151.431 777.552 Q153.26 773.987 153.26 766.881 Q153.26 759.751 151.431 756.209 Q149.626 752.645 145.992 752.645 M145.992 748.941 Q151.802 748.941 154.857 753.547 Q157.936 758.131 157.936 766.881 Q157.936 775.608 154.857 780.214 Q151.802 784.797 145.992 784.797 Q140.181 784.797 137.103 780.214 Q134.047 775.608 134.047 766.881 Q134.047 758.131 137.103 753.547 Q140.181 748.941 145.992 748.941 Z" fill="#000000" fill-rule="nonzero" fill-opacity="1" /><path clip-path="url(#clip940)" d="M101.756 413.21 Q98.1447 413.21 96.316 416.775 Q94.5104 420.316 94.5104 427.446 Q94.5104 434.552 96.316 438.117 Q98.1447 441.659 101.756 441.659 Q105.39 441.659 107.196 438.117 Q109.024 434.552 109.024 427.446 Q109.024 420.316 107.196 416.775 Q105.39 413.21 101.756 413.21 M101.756 409.506 Q107.566 409.506 110.621 414.113 Q113.7 418.696 113.7 427.446 Q113.7 436.173 110.621 440.779 Q107.566 445.362 101.756 445.362 Q95.9456 445.362 92.8669 440.779 Q89.8114 436.173 89.8114 427.446 Q89.8114 418.696 92.8669 414.113 Q95.9456 409.506 101.756 409.506 Z" fill="#000000" fill-rule="nonzero" fill-opacity="1" /><path clip-path="url(#clip940)" d="M121.918 438.812 L126.802 438.812 L126.802 444.691 L121.918 444.691 L121.918 438.812 Z" fill="#000000" fill-rule="nonzero" fill-opacity="1" /><path clip-path="url(#clip940)" d="M137.033 410.131 L155.39 410.131 L155.39 414.066 L141.316 414.066 L141.316 422.538 Q142.334 422.191 143.353 422.029 Q144.371 421.844 145.39 421.844 Q151.177 421.844 154.556 425.015 Q157.936 428.187 157.936 433.603 Q157.936 439.182 154.464 442.284 Q150.992 445.362 144.672 445.362 Q142.496 445.362 140.228 444.992 Q137.982 444.622 135.575 443.881 L135.575 439.182 Q137.658 440.316 139.881 440.872 Q142.103 441.427 144.58 441.427 Q148.584 441.427 150.922 439.321 Q153.26 437.214 153.26 433.603 Q153.26 429.992 150.922 427.886 Q148.584 425.779 144.58 425.779 Q142.705 425.779 140.83 426.196 Q138.978 426.613 137.033 427.492 L137.033 410.131 Z" fill="#000000" fill-rule="nonzero" fill-opacity="1" /><path clip-path="url(#clip940)" d="M91.5706 101.321 L99.2095 101.321 L99.2095 74.9555 L90.8993 76.6222 L90.8993 72.3629 L99.1632 70.6963 L103.839 70.6963 L103.839 101.321 L111.478 101.321 L111.478 105.256 L91.5706 105.256 L91.5706 101.321 Z" fill="#000000" fill-rule="nonzero" fill-opacity="1" /><path clip-path="url(#clip940)" d="M120.922 99.3767 L125.807 99.3767 L125.807 105.256 L120.922 105.256 L120.922 99.3767 Z" fill="#000000" fill-rule="nonzero" fill-opacity="1" /><path clip-path="url(#clip940)" d="M145.992 73.775 Q142.381 73.775 140.552 77.3398 Q138.746 80.8814 138.746 88.011 Q138.746 95.1174 140.552 98.6822 Q142.381 102.224 145.992 102.224 Q149.626 102.224 151.431 98.6822 Q153.26 95.1174 153.26 88.011 Q153.26 80.8814 151.431 77.3398 Q149.626 73.775 145.992 73.775 M145.992 70.0713 Q151.802 70.0713 154.857 74.6777 Q157.936 79.261 157.936 88.011 Q157.936 96.7378 154.857 101.344 Q151.802 105.928 145.992 105.928 Q140.181 105.928 137.103 101.344 Q134.047 96.7378 134.047 88.011 Q134.047 79.261 137.103 74.6777 Q140.181 70.0713 145.992 70.0713 Z" fill="#000000" fill-rule="nonzero" fill-opacity="1" /><polyline clip-path="url(#clip942)" style="stroke:#97b476; stroke-linecap:round; stroke-linejoin:round; stroke-width:4; stroke-opacity:1; fill:none" points="599.224,1445.72 608.718,1445.72 618.213,1445.72 627.708,1445.72 637.202,1445.72 646.697,1445.72 656.192,1445.72 665.686,1445.72 675.181,1445.72 684.676,1445.72 694.17,1445.72 703.665,1445.72 713.16,1445.72 722.654,1445.72 732.149,1445.72 741.644,1445.72 751.138,1445.72 760.633,1445.72 770.128,1445.72 779.623,1445.72 789.117,1445.72 798.612,1445.72 808.107,1445.72 817.601,1445.72 827.096,1445.72 836.591,1445.72 846.085,1445.72 855.58,1445.72 865.075,1445.72 874.569,1445.72 884.064,1445.72 893.559,1445.72 903.053,1445.72 912.548,1445.72 922.043,1445.72 931.537,1445.72 941.032,1445.72 950.527,1445.72 960.021,1445.72 969.516,1445.72 979.011,1445.72 988.506,1445.72 998,1445.72 1007.49,1445.72 1016.99,1445.72 1026.48,1445.72 1035.98,1445.72 1045.47,1445.72 1054.97,1445.72 1064.46,1445.72 1073.96,1445.72 1083.45,1445.72 1092.95,1445.72 1102.44,1445.72 1111.94,1445.72 1121.43,1445.72 1130.93,1445.72 1140.42,1445.72 1149.92,1445.72 1159.41,1445.72 1168.9,1445.72 1178.4,1445.72 1187.89,1445.72 1197.39,1445.72 1206.88,1445.72 1216.38,1445.72 1225.87,1445.72 1235.37,1445.72 1244.86,1445.72 1254.36,1445.72 1263.85,1445.72 1273.35,1445.72 1282.84,1445.72 1292.34,1445.72 1301.83,1445.72 1311.32,1445.72 1320.82,1445.72 1330.31,1445.72 1339.81,1445.72 1349.3,1445.72 1358.8,1445.72 1368.29,1445.72 1377.79,1445.72 1387.28,1445.72 1396.78,1445.72 1406.27,1445.72 1415.77,1445.72 1425.26,1445.72 1434.76,1445.72 1444.25,1445.72 1453.74,1445.72 1463.24,1445.72 1472.73,1445.72 1482.23,1445.72 1491.72,1445.72 1501.22,1445.72 1510.71,1445.72 1520.21,1445.72 1529.7,1445.72 1539.2,1445.72 1548.69,1445.72 1558.19,1445.72 1567.68,1445.72 1577.18,1445.72 1586.67,1445.72 1596.17,1445.72 1605.66,1445.72 1615.15,1445.72 1624.65,1445.72 1634.14,1445.72 1643.64,1445.72 1653.13,1445.72 1662.63,1445.72 1672.12,1445.72 1681.62,1445.72 1691.11,1445.72 1700.61,1445.72 1710.1,1445.72 1719.6,1445.72 1729.09,1445.72 1738.59,1445.72 1748.08,1445.72 1757.57,1445.72 1767.07,1445.72 1776.56,1445.72 1786.06,1445.72 1795.55,1445.72 1805.05,1445.72 1814.54,1445.72 1824.04,1445.72 1833.53,1445.72 1843.03,1445.72 1852.52,1445.72 1862.02,1445.72 1871.51,1445.72 1881.01,1445.72 1890.5,1445.72 1899.99,1445.72 1909.49,1445.72 1918.98,1445.72 1928.48,1445.72 1937.97,1445.72 1947.47,1445.72 1952.22,1440.97 1952.22,1431.47 1952.22,1421.98 1952.22,1412.48 1952.22,1402.99 1952.22,1393.49 1952.22,1384 1952.22,1374.51 1952.22,1365.01 1952.22,1355.52 1952.22,1346.02 1952.22,1336.53 1952.22,1327.03 1952.22,1317.54 1952.22,1308.04 1952.22,1298.55 1952.22,1289.05 1952.22,1279.56 1952.22,1270.06 1952.22,1260.57 1952.22,1251.07 1952.22,1241.58 1952.22,1232.09 1952.22,1222.59 1952.22,1213.1 1952.22,1203.6 1952.22,1194.11 1952.22,1184.61 1952.22,1175.12 1952.22,1165.62 1952.22,1156.13 1952.22,1146.63 1952.22,1137.14 1952.22,1127.64 1952.22,1118.15 1952.22,1108.65 1952.22,1099.16 1952.22,1089.67 1952.22,1080.17 1952.22,1070.68 1952.22,1061.18 1952.22,1051.69 1952.22,1042.19 1952.22,1032.7 1952.22,1023.2 1952.22,1013.71 1952.22,1004.21 1952.22,994.718 1952.22,985.224 1952.22,975.729 1952.22,966.234 1952.22,956.74 1952.22,947.245 1952.22,937.75 1952.22,928.256 1952.22,918.761 1952.22,909.266 1952.22,899.772 1952.22,890.277 1952.22,880.782 1952.22,871.287 1952.22,861.793 1952.22,852.298 1952.22,842.803 1952.22,833.309 1952.22,823.814 1952.22,814.319 1952.22,804.825 1952.22,795.33 1952.22,785.835 1952.22,776.341 1952.22,766.846 1952.22,757.351 1952.22,747.857 1952.22,738.362 1952.22,728.867 1952.22,719.373 1952.22,709.878 1952.22,700.383 1952.22,690.889 1952.22,681.394 1952.22,671.899 1952.22,662.404 1952.22,652.91 1952.22,643.415 1952.22,633.92 1952.22,624.426 1952.22,614.931 1952.22,605.436 1952.22,595.942 1952.22,586.447 1952.22,576.952 1952.22,567.458 1952.22,557.963 1952.22,548.468 1952.22,538.974 1952.22,529.479 1952.22,519.984 1952.22,510.49 1952.22,500.995 1952.22,491.5 1952.22,482.006 1952.22,472.511 1952.22,463.016 1952.22,453.522 1952.22,444.027 1952.22,434.532 1952.22,425.037 1952.22,415.543 1952.22,406.048 1952.22,396.553 1952.22,387.059 1952.22,377.564 1952.22,368.069 1952.22,358.575 1952.22,349.08 1952.22,339.585 1952.22,330.091 1952.22,320.596 1952.22,311.101 1952.22,301.607 1952.22,292.112 1952.22,282.617 1952.22,273.123 1952.22,263.628 1952.22,254.133 1952.22,244.639 1952.22,235.144 1952.22,225.649 1952.22,216.154 1952.22,206.66 1952.22,197.165 1952.22,187.67 1952.22,178.176 1952.22,168.681 1952.22,159.186 1952.22,149.692 1952.22,140.197 1952.22,130.702 1952.22,121.208 1952.22,111.713 1952.22,102.218 1952.22,92.7236 1947.47,87.9763 1937.97,87.9763 1928.48,87.9763 1918.98,87.9763 1909.49,87.9763 1899.99,87.9763 1890.5,87.9763 1881.01,87.9763 1871.51,87.9763 1862.02,87.9763 1852.52,87.9763 1843.03,87.9763 1833.53,87.9763 1824.04,87.9763 1814.54,87.9763 1805.05,87.9763 1795.55,87.9763 1786.06,87.9763 1776.56,87.9763 1767.07,87.9763 1757.57,87.9763 1748.08,87.9763 1738.59,87.9763 1729.09,87.9763 1719.6,87.9763 1710.1,87.9763 1700.61,87.9763 1691.11,87.9763 1681.62,87.9763 1672.12,87.9763 1662.63,87.9763 1653.13,87.9763 1643.64,87.9763 1634.14,87.9763 1624.65,87.9763 1615.15,87.9763 1605.66,87.9763 1596.17,87.9763 1586.67,87.9763 1577.18,87.9763 1567.68,87.9763 1558.19,87.9763 1548.69,87.9763 1539.2,87.9763 1529.7,87.9763 1520.21,87.9763 1510.71,87.9763 1501.22,87.9763 1491.72,87.9763 1482.23,87.9763 1472.73,87.9763 1463.24,87.9763 1453.74,87.9763 1444.25,87.9763 1434.76,87.9763 1425.26,87.9763 1415.77,87.9763 1406.27,87.9763 1396.78,87.9763 1387.28,87.9763 1377.79,87.9763 1368.29,87.9763 1358.8,87.9763 1349.3,87.9763 1339.81,87.9763 1330.31,87.9763 1320.82,87.9763 1311.32,87.9763 1301.83,87.9763 1292.34,87.9763 1282.84,87.9763 1273.35,87.9763 1263.85,87.9763 1254.36,87.9763 1244.86,87.9763 1235.37,87.9763 1225.87,87.9763 1216.38,87.9763 1206.88,87.9763 1197.39,87.9763 1187.89,87.9763 1178.4,87.9763 1168.9,87.9763 1159.41,87.9763 1149.92,87.9763 1140.42,87.9763 1130.93,87.9763 1121.43,87.9763 1111.94,87.9763 1102.44,87.9763 1092.95,87.9763 1083.45,87.9763 1073.96,87.9763 1064.46,87.9763 1054.97,87.9763 1045.47,87.9763 1035.98,87.9763 1026.48,87.9763 1016.99,87.9763 1007.49,87.9763 998,87.9763 988.506,87.9763 979.011,87.9763 969.516,87.9763 960.021,87.9763 950.527,87.9763 941.032,87.9763 931.537,87.9763 922.043,87.9763 912.548,87.9763 903.053,87.9763 893.559,87.9763 884.064,87.9763 874.569,87.9763 865.075,87.9763 855.58,87.9763 846.085,87.9763 836.591,87.9763 827.096,87.9763 817.601,87.9763 808.107,87.9763 798.612,87.9763 789.117,87.9763 779.623,87.9763 770.128,87.9763 760.633,87.9763 751.138,87.9763 741.644,87.9763 732.149,87.9763 722.654,87.9763 713.16,87.9763 703.665,87.9763 694.17,87.9763 684.676,87.9763 675.181,87.9763 665.686,87.9763 656.192,87.9763 646.697,87.9763 637.202,87.9763 627.708,87.9763 618.213,87.9763 608.718,87.9763 599.224,87.9763 594.476,92.7236 594.476,102.218 594.476,111.713 594.476,121.208 594.476,130.702 594.476,140.197 594.476,149.692 594.476,159.186 594.476,168.681 594.476,178.176 594.476,187.67 594.476,197.165 594.476,206.66 594.476,216.154 594.476,225.649 594.476,235.144 594.476,244.639 594.476,254.133 594.476,263.628 594.476,273.123 594.476,282.617 594.476,292.112 594.476,301.607 594.476,311.101 594.476,320.596 594.476,330.091 594.476,339.585 594.476,349.08 594.476,358.575 594.476,368.069 594.476,377.564 594.476,387.059 594.476,396.553 594.476,406.048 594.476,415.543 594.476,425.037 594.476,434.532 594.476,444.027 594.476,453.522 594.476,463.016 594.476,472.511 594.476,482.006 594.476,491.5 594.476,500.995 594.476,510.49 594.476,519.984 594.476,529.479 594.476,538.974 594.476,548.468 594.476,557.963 594.476,567.458 594.476,576.952 594.476,586.447 594.476,595.942 594.476,605.436 594.476,614.931 594.476,624.426 594.476,633.92 594.476,643.415 594.476,652.91 594.476,662.404 594.476,671.899 594.476,681.394 594.476,690.889 594.476,700.383 594.476,709.878 594.476,719.373 594.476,728.867 594.476,738.362 594.476,747.857 594.476,757.351 594.476,766.846 594.476,776.341 594.476,785.835 594.476,795.33 594.476,804.825 594.476,814.319 594.476,823.814 594.476,833.309 594.476,842.803 594.476,852.298 594.476,861.793 594.476,871.287 594.476,880.782 594.476,890.277 594.476,899.772 594.476,909.266 594.476,918.761 594.476,928.256 594.476,937.75 594.476,947.245 594.476,956.74 594.476,966.234 594.476,975.729 594.476,985.224 594.476,994.718 594.476,1004.21 594.476,1013.71 594.476,1023.2 594.476,1032.7 594.476,1042.19 594.476,1051.69 594.476,1061.18 594.476,1070.68 594.476,1080.17 594.476,1089.67 594.476,1099.16 594.476,1108.65 594.476,1118.15 594.476,1127.64 594.476,1137.14 594.476,1146.63 594.476,1156.13 594.476,1165.62 594.476,1175.12 594.476,1184.61 594.476,1194.11 594.476,1203.6 594.476,1213.1 594.476,1222.59 594.476,1232.09 594.476,1241.58 594.476,1251.07 594.476,1260.57 594.476,1270.06 594.476,1279.56 594.476,1289.05 594.476,1298.55 594.476,1308.04 594.476,1317.54 594.476,1327.03 594.476,1336.53 594.476,1346.02 594.476,1355.52 594.476,1365.01 594.476,1374.51 594.476,1384 594.476,1393.49 594.476,1402.99 594.476,1412.48 594.476,1421.98 594.476,1431.47 594.476,1440.97 599.224,1445.72 "/>
<path clip-path="url(#clip942)" d="M1409.12 1242.05 L1408.77 1232.37 L1407.74 1222.73 L1406.02 1213.19 L1403.62 1203.8 L1400.56 1194.61 L1396.85 1185.65 L1392.51 1176.99 L1387.57 1168.65 L1382.04 1160.69 L1375.96 1153.14 L1369.35 1146.05 L1362.26 1139.44 L1354.71 1133.36 L1346.75 1127.83 L1338.42 1122.89 L1329.75 1118.55 L1320.79 1114.84 L1311.6 1111.78 L1302.21 1109.38 L1292.67 1107.66 L1283.03 1106.63 L1273.35 1106.28 L1263.66 1106.63 L1254.02 1107.66 L1244.49 1109.38 L1235.09 1111.78 L1225.9 1114.84 L1216.94 1118.55 L1208.28 1122.89 L1199.94 1127.83 L1191.98 1133.36 L1184.43 1139.44 L1177.34 1146.05 L1170.73 1153.14 L1164.65 1160.69 L1159.13 1168.65 L1154.18 1176.99 L1149.84 1185.65 L1146.13 1194.61 L1143.07 1203.8 L1140.67 1213.19 L1138.95 1222.73 L1137.92 1232.37 L1137.57 1242.05 L1137.92 1251.74 L1138.95 1261.38 L1140.67 1270.92 L1143.07 1280.31 L1146.13 1289.5 L1149.84 1298.46 L1154.18 1307.12 L1159.13 1315.46 L1164.65 1323.42 L1170.73 1330.97 L1177.34 1338.06 L1184.43 1344.67 L1191.98 1350.75 L1199.94 1356.28 L1208.28 1361.22 L1216.94 1365.56 L1225.9 1369.27 L1235.09 1372.33 L1244.49 1374.73 L1254.02 1376.45 L1263.66 1377.48 L1273.35 1377.83 L1283.03 1377.48 L1292.67 1376.45 L1302.21 1374.73 L1311.6 1372.33 L1320.79 1369.27 L1329.75 1365.56 L1338.42 1361.22 L1346.75 1356.28 L1354.71 1350.75 L1362.26 1344.67 L1369.35 1338.06 L1375.96 1330.97 L1382.04 1323.42 L1387.57 1315.46 L1392.51 1307.12 L1396.85 1298.46 L1400.56 1289.5 L1403.62 1280.31 L1406.02 1270.92 L1407.74 1261.38 L1408.77 1251.74 L1409.12 1242.05 L1409.12 766.846 L1408.77 766.846 L1407.74 766.846 L1406.02 766.846 L1403.62 766.846 L1400.56 766.846 L1396.85 766.846 L1392.51 766.846 L1387.57 766.846 L1382.04 766.846 L1375.96 766.846 L1369.35 766.846 L1362.26 766.846 L1354.71 766.846 L1346.75 766.846 L1338.42 766.846 L1329.75 766.846 L1320.79 766.846 L1311.6 766.846 L1302.21 766.846 L1292.67 766.846 L1283.03 766.846 L1273.35 766.846 L1263.66 766.846 L1254.02 766.846 L1244.49 766.846 L1235.09 766.846 L1225.9 766.846 L1216.94 766.846 L1208.28 766.846 L1199.94 766.846 L1191.98 766.846 L1184.43 766.846 L1177.34 766.846 L1170.73 766.846 L1164.65 766.846 L1159.13 766.846 L1154.18 766.846 L1149.84 766.846 L1146.13 766.846 L1143.07 766.846 L1140.67 766.846 L1138.95 766.846 L1137.92 766.846 L1137.57 766.846 L1137.92 766.846 L1138.95 766.846 L1140.67 766.846 L1143.07 766.846 L1146.13 766.846 L1149.84 766.846 L1154.18 766.846 L1159.13 766.846 L1164.65 766.846 L1170.73 766.846 L1177.34 766.846 L1184.43 766.846 L1191.98 766.846 L1199.94 766.846 L1208.28 766.846 L1216.94 766.846 L1225.9 766.846 L1235.09 766.846 L1244.49 766.846 L1254.02 766.846 L1263.66 766.846 L1273.35 766.846 L1283.03 766.846 L1292.67 766.846 L1302.21 766.846 L1311.6 766.846 L1320.79 766.846 L1329.75 766.846 L1338.42 766.846 L1346.75 766.846 L1354.71 766.846 L1362.26 766.846 L1369.35 766.846 L1375.96 766.846 L1382.04 766.846 L1387.57 766.846 L1392.51 766.846 L1396.85 766.846 L1400.56 766.846 L1403.62 766.846 L1406.02 766.846 L1407.74 766.846 L1408.77 766.846 L1409.12 766.846  Z" fill="#97b476" fill-rule="evenodd" fill-opacity="1"/>
<polyline clip-path="url(#clip942)" style="stroke:#97b476; stroke-linecap:round; stroke-linejoin:round; stroke-width:4; stroke-opacity:1; fill:none" points="1409.12,1242.05 1408.77,1232.37 1407.74,1222.73 1406.02,1213.19 1403.62,1203.8 1400.56,1194.61 1396.85,1185.65 1392.51,1176.99 1387.57,1168.65 1382.04,1160.69 1375.96,1153.14 1369.35,1146.05 1362.26,1139.44 1354.71,1133.36 1346.75,1127.83 1338.42,1122.89 1329.75,1118.55 1320.79,1114.84 1311.6,1111.78 1302.21,1109.38 1292.67,1107.66 1283.03,1106.63 1273.35,1106.28 1263.66,1106.63 1254.02,1107.66 1244.49,1109.38 1235.09,1111.78 1225.9,1114.84 1216.94,1118.55 1208.28,1122.89 1199.94,1127.83 1191.98,1133.36 1184.43,1139.44 1177.34,1146.05 1170.73,1153.14 1164.65,1160.69 1159.13,1168.65 1154.18,1176.99 1149.84,1185.65 1146.13,1194.61 1143.07,1203.8 1140.67,1213.19 1138.95,1222.73 1137.92,1232.37 1137.57,1242.05 1137.92,1251.74 1138.95,1261.38 1140.67,1270.92 1143.07,1280.31 1146.13,1289.5 1149.84,1298.46 1154.18,1307.12 1159.13,1315.46 1164.65,1323.42 1170.73,1330.97 1177.34,1338.06 1184.43,1344.67 1191.98,1350.75 1199.94,1356.28 1208.28,1361.22 1216.94,1365.56 1225.9,1369.27 1235.09,1372.33 1244.49,1374.73 1254.02,1376.45 1263.66,1377.48 1273.35,1377.83 1283.03,1377.48 1292.67,1376.45 1302.21,1374.73 1311.6,1372.33 1320.79,1369.27 1329.75,1365.56 1338.42,1361.22 1346.75,1356.28 1354.71,1350.75 1362.26,1344.67 1369.35,1338.06 1375.96,1330.97 1382.04,1323.42 1387.57,1315.46 1392.51,1307.12 1396.85,1298.46 1400.56,1289.5 1403.62,1280.31 1406.02,1270.92 1407.74,1261.38 1408.77,1251.74 1409.12,1242.05 "/>
<path clip-path="url(#clip942)" d="M933.911 291.637 L933.565 281.951 L932.529 272.315 L930.808 262.776 L928.411 253.385 L925.351 244.189 L921.641 235.235 L917.303 226.568 L912.357 218.232 L906.83 210.271 L900.748 202.724 L894.144 195.631 L887.05 189.026 L879.503 182.945 L871.542 177.417 L863.207 172.471 L854.54 168.133 L845.585 164.424 L836.389 161.363 L826.998 158.966 L817.46 157.245 L807.823 156.209 L798.137 155.863 L788.451 156.209 L778.815 157.245 L769.276 158.966 L759.885 161.363 L750.689 164.424 L741.735 168.133 L733.068 172.471 L724.732 177.417 L716.771 182.945 L709.224 189.026 L702.13 195.631 L695.526 202.724 L689.445 210.271 L683.917 218.232 L678.971 226.568 L674.633 235.235 L670.924 244.189 L667.863 253.385 L665.466 262.776 L663.745 272.315 L662.709 281.951 L662.363 291.637 L662.709 301.323 L663.745 310.96 L665.466 320.498 L667.863 329.889 L670.924 339.085 L674.633 348.04 L678.971 356.707 L683.917 365.042 L689.445 373.003 L695.526 380.55 L702.13 387.644 L709.224 394.248 L716.771 400.33 L724.732 405.857 L733.068 410.803 L741.735 415.142 L750.689 418.851 L759.885 421.911 L769.276 424.308 L778.815 426.029 L788.451 427.065 L798.137 427.411 L807.823 427.065 L817.46 426.029 L826.998 424.308 L836.389 421.911 L845.585 418.851 L854.54 415.142 L863.207 410.803 L871.542 405.857 L879.503 400.33 L887.05 394.248 L894.144 387.644 L900.748 380.55 L906.83 373.003 L912.357 365.042 L917.303 356.707 L921.641 348.04 L925.351 339.085 L928.411 329.889 L930.808 320.498 L932.529 310.96 L933.565 301.323 L933.911 291.637 L933.911 766.846 L933.565 766.846 L932.529 766.846 L930.808 766.846 L928.411 766.846 L925.351 766.846 L921.641 766.846 L917.303 766.846 L912.357 766.846 L906.83 766.846 L900.748 766.846 L894.144 766.846 L887.05 766.846 L879.503 766.846 L871.542 766.846 L863.207 766.846 L854.54 766.846 L845.585 766.846 L836.389 766.846 L826.998 766.846 L817.46 766.846 L807.823 766.846 L798.137 766.846 L788.451 766.846 L778.815 766.846 L769.276 766.846 L759.885 766.846 L750.689 766.846 L741.735 766.846 L733.068 766.846 L724.732 766.846 L716.771 766.846 L709.224 766.846 L702.13 766.846 L695.526 766.846 L689.445 766.846 L683.917 766.846 L678.971 766.846 L674.633 766.846 L670.924 766.846 L667.863 766.846 L665.466 766.846 L663.745 766.846 L662.709 766.846 L662.363 766.846 L662.709 766.846 L663.745 766.846 L665.466 766.846 L667.863 766.846 L670.924 766.846 L674.633 766.846 L678.971 766.846 L683.917 766.846 L689.445 766.846 L695.526 766.846 L702.13 766.846 L709.224 766.846 L716.771 766.846 L724.732 766.846 L733.068 766.846 L741.735 766.846 L750.689 766.846 L759.885 766.846 L769.276 766.846 L778.815 766.846 L788.451 766.846 L798.137 766.846 L807.823 766.846 L817.46 766.846 L826.998 766.846 L836.389 766.846 L845.585 766.846 L854.54 766.846 L863.207 766.846 L871.542 766.846 L879.503 766.846 L887.05 766.846 L894.144 766.846 L900.748 766.846 L906.83 766.846 L912.357 766.846 L917.303 766.846 L921.641 766.846 L925.351 766.846 L928.411 766.846 L930.808 766.846 L932.529 766.846 L933.565 766.846 L933.911 766.846  Z" fill="#97b476" fill-rule="evenodd" fill-opacity="1"/>
<polyline clip-path="url(#clip942)" style="stroke:#97b476; stroke-linecap:round; stroke-linejoin:round; stroke-width:4; stroke-opacity:1; fill:none" points="933.911,291.637 933.565,281.951 932.529,272.315 930.808,262.776 928.411,253.385 925.351,244.189 921.641,235.235 917.303,226.568 912.357,218.232 906.83,210.271 900.748,202.724 894.144,195.631 887.05,189.026 879.503,182.945 871.542,177.417 863.207,172.471 854.54,168.133 845.585,164.424 836.389,161.363 826.998,158.966 817.46,157.245 807.823,156.209 798.137,155.863 788.451,156.209 778.815,157.245 769.276,158.966 759.885,161.363 750.689,164.424 741.735,168.133 733.068,172.471 724.732,177.417 716.771,182.945 709.224,189.026 702.13,195.631 695.526,202.724 689.445,210.271 683.917,218.232 678.971,226.568 674.633,235.235 670.924,244.189 667.863,253.385 665.466,262.776 663.745,272.315 662.709,281.951 662.363,291.637 662.709,301.323 663.745,310.96 665.466,320.498 667.863,329.889 670.924,339.085 674.633,348.04 678.971,356.707 683.917,365.042 689.445,373.003 695.526,380.55 702.13,387.644 709.224,394.248 716.771,400.33 724.732,405.857 733.068,410.803 741.735,415.142 750.689,418.851 759.885,421.911 769.276,424.308 778.815,426.029 788.451,427.065 798.137,427.411 807.823,427.065 817.46,426.029 826.998,424.308 836.389,421.911 845.585,418.851 854.54,415.142 863.207,410.803 871.542,405.857 879.503,400.33 887.05,394.248 894.144,387.644 900.748,380.55 906.83,373.003 912.357,365.042 917.303,356.707 921.641,348.04 925.351,339.085 928.411,329.889 930.808,320.498 932.529,310.96 933.565,301.323 933.911,291.637 "/>
</svg>
