<?xml version="1.0" encoding="utf-8"?>
<svg xmlns="http://www.w3.org/2000/svg" xmlns:xlink="http://www.w3.org/1999/xlink" width="600" height="400" viewBox="0 0 2400 1600">
<defs>
  <clipPath id="clip880">
    <rect x="0" y="0" width="2400" height="1600"/>
  </clipPath>
</defs>
<path clip-path="url(#clip880)" d="M0 1600 L2400 1600 L2400 0 L0 0  Z" fill="#ffffff" fill-rule="evenodd" fill-opacity="1"/>
<defs>
  <clipPath id="clip881">
    <rect x="480" y="0" width="1681" height="1600"/>
  </clipPath>
</defs>
<path clip-path="url(#clip880)" d="M193.936 1245.05 L1152.76 1245.05 L1152.76 288.638 L193.936 288.638  Z" fill="#ffffff" fill-rule="evenodd" fill-opacity="1"/>
<defs>
  <clipPath id="clip882">
    <rect x="193" y="288" width="960" height="957"/>
  </clipPath>
</defs>
<polyline clip-path="url(#clip880)" style="stroke:#000000; stroke-linecap:round; stroke-linejoin:round; stroke-width:4; stroke-opacity:1; fill:none" points="193.936,1245.05 1152.76,1245.05 "/>
<polyline clip-path="url(#clip880)" style="stroke:#000000; stroke-linecap:round; stroke-linejoin:round; stroke-width:4; stroke-opacity:1; fill:none" points="193.936,288.638 1152.76,288.638 "/>
<polyline clip-path="url(#clip880)" style="stroke:#000000; stroke-linecap:round; stroke-linejoin:round; stroke-width:4; stroke-opacity:1; fill:none" points="312.887,1245.05 312.887,1232.5 "/>
<polyline clip-path="url(#clip880)" style="stroke:#000000; stroke-linecap:round; stroke-linejoin:round; stroke-width:4; stroke-opacity:1; fill:none" points="433.04,1245.05 433.04,1232.5 "/>
<polyline clip-path="url(#clip880)" style="stroke:#000000; stroke-linecap:round; stroke-linejoin:round; stroke-width:4; stroke-opacity:1; fill:none" points="553.193,1245.05 553.193,1232.5 "/>
<polyline clip-path="url(#clip880)" style="stroke:#000000; stroke-linecap:round; stroke-linejoin:round; stroke-width:4; stroke-opacity:1; fill:none" points="673.346,1245.05 673.346,1232.5 "/>
<polyline clip-path="url(#clip880)" style="stroke:#000000; stroke-linecap:round; stroke-linejoin:round; stroke-width:4; stroke-opacity:1; fill:none" points="793.499,1245.05 793.499,1232.5 "/>
<polyline clip-path="url(#clip880)" style="stroke:#000000; stroke-linecap:round; stroke-linejoin:round; stroke-width:4; stroke-opacity:1; fill:none" points="913.652,1245.05 913.652,1232.5 "/>
<polyline clip-path="url(#clip880)" style="stroke:#000000; stroke-linecap:round; stroke-linejoin:round; stroke-width:4; stroke-opacity:1; fill:none" points="1033.8,1245.05 1033.8,1232.5 "/>
<path clip-path="url(#clip880)" d="M259.913 1290.63 L289.589 1290.63 L289.589 1294.56 L259.913 1294.56 L259.913 1290.63 Z" fill="#000000" fill-rule="nonzero" fill-opacity="1" /><path clip-path="url(#clip880)" d="M300.492 1303.52 L308.13 1303.52 L308.13 1277.15 L299.82 1278.82 L299.82 1274.56 L308.084 1272.89 L312.76 1272.89 L312.76 1303.52 L320.399 1303.52 L320.399 1307.45 L300.492 1307.45 L300.492 1303.52 Z" fill="#000000" fill-rule="nonzero" fill-opacity="1" /><path clip-path="url(#clip880)" d="M329.843 1301.57 L334.728 1301.57 L334.728 1307.45 L329.843 1307.45 L329.843 1301.57 Z" fill="#000000" fill-rule="nonzero" fill-opacity="1" /><path clip-path="url(#clip880)" d="M344.959 1272.89 L363.315 1272.89 L363.315 1276.83 L349.241 1276.83 L349.241 1285.3 Q350.26 1284.95 351.278 1284.79 Q352.297 1284.61 353.315 1284.61 Q359.102 1284.61 362.482 1287.78 Q365.862 1290.95 365.862 1296.37 Q365.862 1301.95 362.389 1305.05 Q358.917 1308.13 352.598 1308.13 Q350.422 1308.13 348.153 1307.76 Q345.908 1307.38 343.501 1306.64 L343.501 1301.95 Q345.584 1303.08 347.806 1303.63 Q350.028 1304.19 352.505 1304.19 Q356.51 1304.19 358.848 1302.08 Q361.186 1299.98 361.186 1296.37 Q361.186 1292.76 358.848 1290.65 Q356.51 1288.54 352.505 1288.54 Q350.63 1288.54 348.755 1288.96 Q346.903 1289.38 344.959 1290.26 L344.959 1272.89 Z" fill="#000000" fill-rule="nonzero" fill-opacity="1" /><path clip-path="url(#clip880)" d="M379.568 1290.63 L409.244 1290.63 L409.244 1294.56 L379.568 1294.56 L379.568 1290.63 Z" fill="#000000" fill-rule="nonzero" fill-opacity="1" /><path clip-path="url(#clip880)" d="M420.147 1303.52 L427.786 1303.52 L427.786 1277.15 L419.475 1278.82 L419.475 1274.56 L427.739 1272.89 L432.415 1272.89 L432.415 1303.52 L440.054 1303.52 L440.054 1307.45 L420.147 1307.45 L420.147 1303.52 Z" fill="#000000" fill-rule="nonzero" fill-opacity="1" /><path clip-path="url(#clip880)" d="M449.498 1301.57 L454.383 1301.57 L454.383 1307.45 L449.498 1307.45 L449.498 1301.57 Z" fill="#000000" fill-rule="nonzero" fill-opacity="1" /><path clip-path="url(#clip880)" d="M474.568 1275.97 Q470.957 1275.97 469.128 1279.54 Q467.322 1283.08 467.322 1290.21 Q467.322 1297.32 469.128 1300.88 Q470.957 1304.42 474.568 1304.42 Q478.202 1304.42 480.008 1300.88 Q481.836 1297.32 481.836 1290.21 Q481.836 1283.08 480.008 1279.54 Q478.202 1275.97 474.568 1275.97 M474.568 1272.27 Q480.378 1272.27 483.433 1276.88 Q486.512 1281.46 486.512 1290.21 Q486.512 1298.94 483.433 1303.54 Q480.378 1308.13 474.568 1308.13 Q468.758 1308.13 465.679 1303.54 Q462.623 1298.94 462.623 1290.21 Q462.623 1281.46 465.679 1276.88 Q468.758 1272.27 474.568 1272.27 Z" fill="#000000" fill-rule="nonzero" fill-opacity="1" /><path clip-path="url(#clip880)" d="M500.219 1290.63 L529.895 1290.63 L529.895 1294.56 L500.219 1294.56 L500.219 1290.63 Z" fill="#000000" fill-rule="nonzero" fill-opacity="1" /><path clip-path="url(#clip880)" d="M549.987 1275.97 Q546.376 1275.97 544.547 1279.54 Q542.742 1283.08 542.742 1290.21 Q542.742 1297.32 544.547 1300.88 Q546.376 1304.42 549.987 1304.42 Q553.621 1304.42 555.427 1300.88 Q557.256 1297.32 557.256 1290.21 Q557.256 1283.08 555.427 1279.54 Q553.621 1275.97 549.987 1275.97 M549.987 1272.27 Q555.797 1272.27 558.853 1276.88 Q561.931 1281.46 561.931 1290.21 Q561.931 1298.94 558.853 1303.54 Q555.797 1308.13 549.987 1308.13 Q544.177 1308.13 541.098 1303.54 Q538.043 1298.94 538.043 1290.21 Q538.043 1281.46 541.098 1276.88 Q544.177 1272.27 549.987 1272.27 Z" fill="#000000" fill-rule="nonzero" fill-opacity="1" /><path clip-path="url(#clip880)" d="M570.149 1301.57 L575.033 1301.57 L575.033 1307.45 L570.149 1307.45 L570.149 1301.57 Z" fill="#000000" fill-rule="nonzero" fill-opacity="1" /><path clip-path="url(#clip880)" d="M585.265 1272.89 L603.621 1272.89 L603.621 1276.83 L589.547 1276.83 L589.547 1285.3 Q590.566 1284.95 591.584 1284.79 Q592.603 1284.61 593.621 1284.61 Q599.408 1284.61 602.788 1287.78 Q606.167 1290.95 606.167 1296.37 Q606.167 1301.95 602.695 1305.05 Q599.223 1308.13 592.904 1308.13 Q590.728 1308.13 588.459 1307.76 Q586.214 1307.38 583.806 1306.64 L583.806 1301.95 Q585.89 1303.08 588.112 1303.63 Q590.334 1304.19 592.811 1304.19 Q596.816 1304.19 599.153 1302.08 Q601.491 1299.98 601.491 1296.37 Q601.491 1292.76 599.153 1290.65 Q596.816 1288.54 592.811 1288.54 Q590.936 1288.54 589.061 1288.96 Q587.209 1289.38 585.265 1290.26 L585.265 1272.89 Z" fill="#000000" fill-rule="nonzero" fill-opacity="1" /><path clip-path="url(#clip880)" d="M650.73 1275.97 Q647.119 1275.97 645.291 1279.54 Q643.485 1283.08 643.485 1290.21 Q643.485 1297.32 645.291 1300.88 Q647.119 1304.42 650.73 1304.42 Q654.365 1304.42 656.17 1300.88 Q657.999 1297.32 657.999 1290.21 Q657.999 1283.08 656.17 1279.54 Q654.365 1275.97 650.73 1275.97 M650.73 1272.27 Q656.54 1272.27 659.596 1276.88 Q662.675 1281.46 662.675 1290.21 Q662.675 1298.94 659.596 1303.54 Q656.54 1308.13 650.73 1308.13 Q644.92 1308.13 641.841 1303.54 Q638.786 1298.94 638.786 1290.21 Q638.786 1281.46 641.841 1276.88 Q644.92 1272.27 650.73 1272.27 Z" fill="#000000" fill-rule="nonzero" fill-opacity="1" /><path clip-path="url(#clip880)" d="M670.892 1301.57 L675.776 1301.57 L675.776 1307.45 L670.892 1307.45 L670.892 1301.57 Z" fill="#000000" fill-rule="nonzero" fill-opacity="1" /><path clip-path="url(#clip880)" d="M695.962 1275.97 Q692.35 1275.97 690.522 1279.54 Q688.716 1283.08 688.716 1290.21 Q688.716 1297.32 690.522 1300.88 Q692.35 1304.42 695.962 1304.42 Q699.596 1304.42 701.401 1300.88 Q703.23 1297.32 703.23 1290.21 Q703.23 1283.08 701.401 1279.54 Q699.596 1275.97 695.962 1275.97 M695.962 1272.27 Q701.772 1272.27 704.827 1276.88 Q707.906 1281.46 707.906 1290.21 Q707.906 1298.94 704.827 1303.54 Q701.772 1308.13 695.962 1308.13 Q690.151 1308.13 687.073 1303.54 Q684.017 1298.94 684.017 1290.21 Q684.017 1281.46 687.073 1276.88 Q690.151 1272.27 695.962 1272.27 Z" fill="#000000" fill-rule="nonzero" fill-opacity="1" /><path clip-path="url(#clip880)" d="M771.381 1275.97 Q767.77 1275.97 765.941 1279.54 Q764.136 1283.08 764.136 1290.21 Q764.136 1297.32 765.941 1300.88 Q767.77 1304.42 771.381 1304.42 Q775.015 1304.42 776.821 1300.88 Q778.649 1297.32 778.649 1290.21 Q778.649 1283.08 776.821 1279.54 Q775.015 1275.97 771.381 1275.97 M771.381 1272.27 Q777.191 1272.27 780.247 1276.88 Q783.325 1281.46 783.325 1290.21 Q783.325 1298.94 780.247 1303.54 Q777.191 1308.13 771.381 1308.13 Q765.571 1308.13 762.492 1303.54 Q759.437 1298.94 759.437 1290.21 Q759.437 1281.46 762.492 1276.88 Q765.571 1272.27 771.381 1272.27 Z" fill="#000000" fill-rule="nonzero" fill-opacity="1" /><path clip-path="url(#clip880)" d="M791.543 1301.57 L796.427 1301.57 L796.427 1307.45 L791.543 1307.45 L791.543 1301.57 Z" fill="#000000" fill-rule="nonzero" fill-opacity="1" /><path clip-path="url(#clip880)" d="M806.658 1272.89 L825.015 1272.89 L825.015 1276.83 L810.941 1276.83 L810.941 1285.3 Q811.959 1284.95 812.978 1284.79 Q813.996 1284.61 815.015 1284.61 Q820.802 1284.61 824.182 1287.78 Q827.561 1290.95 827.561 1296.37 Q827.561 1301.95 824.089 1305.05 Q820.617 1308.13 814.297 1308.13 Q812.121 1308.13 809.853 1307.76 Q807.608 1307.38 805.2 1306.64 L805.2 1301.95 Q807.283 1303.08 809.506 1303.63 Q811.728 1304.19 814.205 1304.19 Q818.209 1304.19 820.547 1302.08 Q822.885 1299.98 822.885 1296.37 Q822.885 1292.76 820.547 1290.65 Q818.209 1288.54 814.205 1288.54 Q812.33 1288.54 810.455 1288.96 Q808.603 1289.38 806.658 1290.26 L806.658 1272.89 Z" fill="#000000" fill-rule="nonzero" fill-opacity="1" /><path clip-path="url(#clip880)" d="M880.805 1303.52 L888.443 1303.52 L888.443 1277.15 L880.133 1278.82 L880.133 1274.56 L888.397 1272.89 L893.073 1272.89 L893.073 1303.52 L900.712 1303.52 L900.712 1307.45 L880.805 1307.45 L880.805 1303.52 Z" fill="#000000" fill-rule="nonzero" fill-opacity="1" /><path clip-path="url(#clip880)" d="M910.156 1301.57 L915.041 1301.57 L915.041 1307.45 L910.156 1307.45 L910.156 1301.57 Z" fill="#000000" fill-rule="nonzero" fill-opacity="1" /><path clip-path="url(#clip880)" d="M935.226 1275.97 Q931.615 1275.97 929.786 1279.54 Q927.98 1283.08 927.98 1290.21 Q927.98 1297.32 929.786 1300.88 Q931.615 1304.42 935.226 1304.42 Q938.86 1304.42 940.665 1300.88 Q942.494 1297.32 942.494 1290.21 Q942.494 1283.08 940.665 1279.54 Q938.86 1275.97 935.226 1275.97 M935.226 1272.27 Q941.036 1272.27 944.091 1276.88 Q947.17 1281.46 947.17 1290.21 Q947.17 1298.94 944.091 1303.54 Q941.036 1308.13 935.226 1308.13 Q929.415 1308.13 926.337 1303.54 Q923.281 1298.94 923.281 1290.21 Q923.281 1281.46 926.337 1276.88 Q929.415 1272.27 935.226 1272.27 Z" fill="#000000" fill-rule="nonzero" fill-opacity="1" /><path clip-path="url(#clip880)" d="M1001.46 1303.52 L1009.09 1303.52 L1009.09 1277.15 L1000.78 1278.82 L1000.78 1274.56 L1009.05 1272.89 L1013.72 1272.89 L1013.72 1303.52 L1021.36 1303.52 L1021.36 1307.45 L1001.46 1307.45 L1001.46 1303.52 Z" fill="#000000" fill-rule="nonzero" fill-opacity="1" /><path clip-path="url(#clip880)" d="M1030.81 1301.57 L1035.69 1301.57 L1035.69 1307.45 L1030.81 1307.45 L1030.81 1301.57 Z" fill="#000000" fill-rule="nonzero" fill-opacity="1" /><path clip-path="url(#clip880)" d="M1045.92 1272.89 L1064.28 1272.89 L1064.28 1276.83 L1050.2 1276.83 L1050.2 1285.3 Q1051.22 1284.95 1052.24 1284.79 Q1053.26 1284.61 1054.28 1284.61 Q1060.07 1284.61 1063.45 1287.78 Q1066.83 1290.95 1066.83 1296.37 Q1066.83 1301.95 1063.35 1305.05 Q1059.88 1308.13 1053.56 1308.13 Q1051.39 1308.13 1049.12 1307.76 Q1046.87 1307.38 1044.46 1306.64 L1044.46 1301.95 Q1046.55 1303.08 1048.77 1303.63 Q1050.99 1304.19 1053.47 1304.19 Q1057.47 1304.19 1059.81 1302.08 Q1062.15 1299.98 1062.15 1296.37 Q1062.15 1292.76 1059.81 1290.65 Q1057.47 1288.54 1053.47 1288.54 Q1051.59 1288.54 1049.72 1288.96 Q1047.87 1289.38 1045.92 1290.26 L1045.92 1272.89 Z" fill="#000000" fill-rule="nonzero" fill-opacity="1" /><polyline clip-path="url(#clip880)" style="stroke:#000000; stroke-linecap:round; stroke-linejoin:round; stroke-width:4; stroke-opacity:1; fill:none" points="193.936,1245.05 193.936,288.638 "/>
<polyline clip-path="url(#clip880)" style="stroke:#000000; stroke-linecap:round; stroke-linejoin:round; stroke-width:4; stroke-opacity:1; fill:none" points="1152.76,1245.05 1152.76,288.638 "/>
<polyline clip-path="url(#clip880)" style="stroke:#000000; stroke-linecap:round; stroke-linejoin:round; stroke-width:4; stroke-opacity:1; fill:none" points="193.936,1127.3 212.834,1127.3 "/>
<polyline clip-path="url(#clip880)" style="stroke:#000000; stroke-linecap:round; stroke-linejoin:round; stroke-width:4; stroke-opacity:1; fill:none" points="193.936,1007.15 212.834,1007.15 "/>
<polyline clip-path="url(#clip880)" style="stroke:#000000; stroke-linecap:round; stroke-linejoin:round; stroke-width:4; stroke-opacity:1; fill:none" points="193.936,886.999 212.834,886.999 "/>
<polyline clip-path="url(#clip880)" style="stroke:#000000; stroke-linecap:round; stroke-linejoin:round; stroke-width:4; stroke-opacity:1; fill:none" points="193.936,766.846 212.834,766.846 "/>
<polyline clip-path="url(#clip880)" style="stroke:#000000; stroke-linecap:round; stroke-linejoin:round; stroke-width:4; stroke-opacity:1; fill:none" points="193.936,646.693 212.834,646.693 "/>
<polyline clip-path="url(#clip880)" style="stroke:#000000; stroke-linecap:round; stroke-linejoin:round; stroke-width:4; stroke-opacity:1; fill:none" points="193.936,526.54 212.834,526.54 "/>
<polyline clip-path="url(#clip880)" style="stroke:#000000; stroke-linecap:round; stroke-linejoin:round; stroke-width:4; stroke-opacity:1; fill:none" points="193.936,406.387 212.834,406.387 "/>
<path clip-path="url(#clip880)" d="M51.9875 1127.76 L81.6633 1127.76 L81.6633 1131.69 L51.9875 1131.69 L51.9875 1127.76 Z" fill="#000000" fill-rule="nonzero" fill-opacity="1" /><path clip-path="url(#clip880)" d="M92.566 1140.65 L100.205 1140.65 L100.205 1114.28 L91.8947 1115.95 L91.8947 1111.69 L100.159 1110.02 L104.834 1110.02 L104.834 1140.65 L112.473 1140.65 L112.473 1144.58 L92.566 1144.58 L92.566 1140.65 Z" fill="#000000" fill-rule="nonzero" fill-opacity="1" /><path clip-path="url(#clip880)" d="M121.918 1138.7 L126.802 1138.7 L126.802 1144.58 L121.918 1144.58 L121.918 1138.7 Z" fill="#000000" fill-rule="nonzero" fill-opacity="1" /><path clip-path="url(#clip880)" d="M137.033 1110.02 L155.39 1110.02 L155.39 1113.96 L141.316 1113.96 L141.316 1122.43 Q142.334 1122.08 143.353 1121.92 Q144.371 1121.74 145.39 1121.74 Q151.177 1121.74 154.556 1124.91 Q157.936 1128.08 157.936 1133.5 Q157.936 1139.08 154.464 1142.18 Q150.992 1145.26 144.672 1145.26 Q142.496 1145.26 140.228 1144.89 Q137.982 1144.52 135.575 1143.77 L135.575 1139.08 Q137.658 1140.21 139.881 1140.77 Q142.103 1141.32 144.58 1141.32 Q148.584 1141.32 150.922 1139.21 Q153.26 1137.11 153.26 1133.5 Q153.26 1129.89 150.922 1127.78 Q148.584 1125.67 144.58 1125.67 Q142.705 1125.67 140.83 1126.09 Q138.978 1126.51 137.033 1127.39 L137.033 1110.02 Z" fill="#000000" fill-rule="nonzero" fill-opacity="1" /><path clip-path="url(#clip880)" d="M50.9921 1007.6 L80.6679 1007.6 L80.6679 1011.54 L50.9921 1011.54 L50.9921 1007.6 Z" fill="#000000" fill-rule="nonzero" fill-opacity="1" /><path clip-path="url(#clip880)" d="M91.5706 1020.5 L99.2095 1020.5 L99.2095 994.131 L90.8993 995.798 L90.8993 991.538 L99.1632 989.872 L103.839 989.872 L103.839 1020.5 L111.478 1020.5 L111.478 1024.43 L91.5706 1024.43 L91.5706 1020.5 Z" fill="#000000" fill-rule="nonzero" fill-opacity="1" /><path clip-path="url(#clip880)" d="M120.922 1018.55 L125.807 1018.55 L125.807 1024.43 L120.922 1024.43 L120.922 1018.55 Z" fill="#000000" fill-rule="nonzero" fill-opacity="1" /><path clip-path="url(#clip880)" d="M145.992 992.95 Q142.381 992.95 140.552 996.515 Q138.746 1000.06 138.746 1007.19 Q138.746 1014.29 140.552 1017.86 Q142.381 1021.4 145.992 1021.4 Q149.626 1021.4 151.431 1017.86 Q153.26 1014.29 153.26 1007.19 Q153.26 1000.06 151.431 996.515 Q149.626 992.95 145.992 992.95 M145.992 989.247 Q151.802 989.247 154.857 993.853 Q157.936 998.436 157.936 1007.19 Q157.936 1015.91 154.857 1020.52 Q151.802 1025.1 145.992 1025.1 Q140.181 1025.1 137.103 1020.52 Q134.047 1015.91 134.047 1007.19 Q134.047 998.436 137.103 993.853 Q140.181 989.247 145.992 989.247 Z" fill="#000000" fill-rule="nonzero" fill-opacity="1" /><path clip-path="url(#clip880)" d="M51.9875 887.45 L81.6633 887.45 L81.6633 891.385 L51.9875 891.385 L51.9875 887.45 Z" fill="#000000" fill-rule="nonzero" fill-opacity="1" /><path clip-path="url(#clip880)" d="M101.756 872.798 Q98.1447 872.798 96.316 876.362 Q94.5104 879.904 94.5104 887.034 Q94.5104 894.14 96.316 897.705 Q98.1447 901.246 101.756 901.246 Q105.39 901.246 107.196 897.705 Q109.024 894.14 109.024 887.034 Q109.024 879.904 107.196 876.362 Q105.39 872.798 101.756 872.798 M101.756 869.094 Q107.566 869.094 110.621 873.7 Q113.7 878.284 113.7 887.034 Q113.7 895.76 110.621 900.367 Q107.566 904.95 101.756 904.95 Q95.9456 904.95 92.8669 900.367 Q89.8114 895.76 89.8114 887.034 Q89.8114 878.284 92.8669 873.7 Q95.9456 869.094 101.756 869.094 Z" fill="#000000" fill-rule="nonzero" fill-opacity="1" /><path clip-path="url(#clip880)" d="M121.918 898.399 L126.802 898.399 L126.802 904.279 L121.918 904.279 L121.918 898.399 Z" fill="#000000" fill-rule="nonzero" fill-opacity="1" /><path clip-path="url(#clip880)" d="M137.033 869.719 L155.39 869.719 L155.39 873.654 L141.316 873.654 L141.316 882.126 Q142.334 881.779 143.353 881.617 Q144.371 881.432 145.39 881.432 Q151.177 881.432 154.556 884.603 Q157.936 887.774 157.936 893.191 Q157.936 898.77 154.464 901.871 Q150.992 904.95 144.672 904.95 Q142.496 904.95 140.228 904.58 Q137.982 904.209 135.575 903.469 L135.575 898.77 Q137.658 899.904 139.881 900.459 Q142.103 901.015 144.58 901.015 Q148.584 901.015 150.922 898.909 Q153.26 896.802 153.26 893.191 Q153.26 889.58 150.922 887.473 Q148.584 885.367 144.58 885.367 Q142.705 885.367 140.83 885.784 Q138.978 886.2 137.033 887.08 L137.033 869.719 Z" fill="#000000" fill-rule="nonzero" fill-opacity="1" /><path clip-path="url(#clip880)" d="M100.76 752.645 Q97.1493 752.645 95.3206 756.209 Q93.515 759.751 93.515 766.881 Q93.515 773.987 95.3206 777.552 Q97.1493 781.094 100.76 781.094 Q104.395 781.094 106.2 777.552 Q108.029 773.987 108.029 766.881 Q108.029 759.751 106.2 756.209 Q104.395 752.645 100.76 752.645 M100.76 748.941 Q106.571 748.941 109.626 753.547 Q112.705 758.131 112.705 766.881 Q112.705 775.608 109.626 780.214 Q106.571 784.797 100.76 784.797 Q94.9502 784.797 91.8715 780.214 Q88.816 775.608 88.816 766.881 Q88.816 758.131 91.8715 753.547 Q94.9502 748.941 100.76 748.941 Z" fill="#000000" fill-rule="nonzero" fill-opacity="1" /><path clip-path="url(#clip880)" d="M120.922 778.246 L125.807 778.246 L125.807 784.126 L120.922 784.126 L120.922 778.246 Z" fill="#000000" fill-rule="nonzero" fill-opacity="1" /><path clip-path="url(#clip880)" d="M145.992 752.645 Q142.381 752.645 140.552 756.209 Q138.746 759.751 138.746 766.881 Q138.746 773.987 140.552 777.552 Q142.381 781.094 145.992 781.094 Q149.626 781.094 151.431 777.552 Q153.26 773.987 153.26 766.881 Q153.26 759.751 151.431 756.209 Q149.626 752.645 145.992 752.645 M145.992 748.941 Q151.802 748.941 154.857 753.547 Q157.936 758.131 157.936 766.881 Q157.936 775.608 154.857 780.214 Q151.802 784.797 145.992 784.797 Q140.181 784.797 137.103 780.214 Q134.047 775.608 134.047 766.881 Q134.047 758.131 137.103 753.547 Q140.181 748.941 145.992 748.941 Z" fill="#000000" fill-rule="nonzero" fill-opacity="1" /><path clip-path="url(#clip880)" d="M101.756 632.492 Q98.1447 632.492 96.316 636.057 Q94.5104 639.598 94.5104 646.728 Q94.5104 653.834 96.316 657.399 Q98.1447 660.941 101.756 660.941 Q105.39 660.941 107.196 657.399 Q109.024 653.834 109.024 646.728 Q109.024 639.598 107.196 636.057 Q105.39 632.492 101.756 632.492 M101.756 628.788 Q107.566 628.788 110.621 633.395 Q113.7 637.978 113.7 646.728 Q113.7 655.455 110.621 660.061 Q107.566 664.644 101.756 664.644 Q95.9456 664.644 92.8669 660.061 Q89.8114 655.455 89.8114 646.728 Q89.8114 637.978 92.8669 633.395 Q95.9456 628.788 101.756 628.788 Z" fill="#000000" fill-rule="nonzero" fill-opacity="1" /><path clip-path="url(#clip880)" d="M121.918 658.094 L126.802 658.094 L126.802 663.973 L121.918 663.973 L121.918 658.094 Z" fill="#000000" fill-rule="nonzero" fill-opacity="1" /><path clip-path="url(#clip880)" d="M137.033 629.413 L155.39 629.413 L155.39 633.348 L141.316 633.348 L141.316 641.82 Q142.334 641.473 143.353 641.311 Q144.371 641.126 145.39 641.126 Q151.177 641.126 154.556 644.297 Q157.936 647.469 157.936 652.885 Q157.936 658.464 154.464 661.566 Q150.992 664.644 144.672 664.644 Q142.496 664.644 140.228 664.274 Q137.982 663.904 135.575 663.163 L135.575 658.464 Q137.658 659.598 139.881 660.154 Q142.103 660.709 144.58 660.709 Q148.584 660.709 150.922 658.603 Q153.26 656.496 153.26 652.885 Q153.26 649.274 150.922 647.168 Q148.584 645.061 144.58 645.061 Q142.705 645.061 140.83 645.478 Q138.978 645.895 137.033 646.774 L137.033 629.413 Z" fill="#000000" fill-rule="nonzero" fill-opacity="1" /><path clip-path="url(#clip880)" d="M91.5706 539.885 L99.2095 539.885 L99.2095 513.519 L90.8993 515.186 L90.8993 510.927 L99.1632 509.26 L103.839 509.26 L103.839 539.885 L111.478 539.885 L111.478 543.82 L91.5706 543.82 L91.5706 539.885 Z" fill="#000000" fill-rule="nonzero" fill-opacity="1" /><path clip-path="url(#clip880)" d="M120.922 537.941 L125.807 537.941 L125.807 543.82 L120.922 543.82 L120.922 537.941 Z" fill="#000000" fill-rule="nonzero" fill-opacity="1" /><path clip-path="url(#clip880)" d="M145.992 512.339 Q142.381 512.339 140.552 515.904 Q138.746 519.445 138.746 526.575 Q138.746 533.681 140.552 537.246 Q142.381 540.788 145.992 540.788 Q149.626 540.788 151.431 537.246 Q153.26 533.681 153.26 526.575 Q153.26 519.445 151.431 515.904 Q149.626 512.339 145.992 512.339 M145.992 508.635 Q151.802 508.635 154.857 513.242 Q157.936 517.825 157.936 526.575 Q157.936 535.302 154.857 539.908 Q151.802 544.492 145.992 544.492 Q140.181 544.492 137.103 539.908 Q134.047 535.302 134.047 526.575 Q134.047 517.825 137.103 513.242 Q140.181 508.635 145.992 508.635 Z" fill="#000000" fill-rule="nonzero" fill-opacity="1" /><path clip-path="url(#clip880)" d="M92.566 419.732 L100.205 419.732 L100.205 393.367 L91.8947 395.033 L91.8947 390.774 L100.159 389.107 L104.834 389.107 L104.834 419.732 L112.473 419.732 L112.473 423.667 L92.566 423.667 L92.566 419.732 Z" fill="#000000" fill-rule="nonzero" fill-opacity="1" /><path clip-path="url(#clip880)" d="M121.918 417.788 L126.802 417.788 L126.802 423.667 L121.918 423.667 L121.918 417.788 Z" fill="#000000" fill-rule="nonzero" fill-opacity="1" /><path clip-path="url(#clip880)" d="M137.033 389.107 L155.39 389.107 L155.39 393.043 L141.316 393.043 L141.316 401.515 Q142.334 401.167 143.353 401.005 Q144.371 400.82 145.39 400.82 Q151.177 400.82 154.556 403.992 Q157.936 407.163 157.936 412.579 Q157.936 418.158 154.464 421.26 Q150.992 424.339 144.672 424.339 Q142.496 424.339 140.228 423.968 Q137.982 423.598 135.575 422.857 L135.575 418.158 Q137.658 419.292 139.881 419.848 Q142.103 420.404 144.58 420.404 Q148.584 420.404 150.922 418.297 Q153.26 416.191 153.26 412.579 Q153.26 408.968 150.922 406.862 Q148.584 404.755 144.58 404.755 Q142.705 404.755 140.83 405.172 Q138.978 405.589 137.033 406.468 L137.033 389.107 Z" fill="#000000" fill-rule="nonzero" fill-opacity="1" /><polyline clip-path="url(#clip882)" style="stroke:#fabd23; stroke-linecap:round; stroke-linejoin:round; stroke-width:4; stroke-opacity:1; fill:none" points="446.925,1245.05 448.66,1243.32 449.52,1245.05 "/>
<polyline clip-path="url(#clip882)" style="stroke:#e65e2d; stroke-linecap:round; stroke-linejoin:round; stroke-width:4; stroke-opacity:1; fill:none" points="450.813,1245.05 451.063,1244.56 451.558,1245.05 "/>
<polyline clip-path="url(#clip882)" style="stroke:#f88a0b; stroke-linecap:round; stroke-linejoin:round; stroke-width:4; stroke-opacity:1; fill:none" points="452.84,1245.05 451.063,1243.28 450.167,1245.05 "/>
<polyline clip-path="url(#clip882)" style="stroke:#f1f27d; stroke-linecap:round; stroke-linejoin:round; stroke-width:4; stroke-opacity:1; fill:none" points="448.873,1245.05 448.66,1244.62 448.23,1245.05 "/>
<polyline clip-path="url(#clip882)" style="stroke:#190b3e; stroke-linecap:round; stroke-linejoin:round; stroke-width:4; stroke-opacity:1; fill:none" points="575.701,1245.05 576.022,1244.73 576.343,1245.05 "/>
<polyline clip-path="url(#clip882)" style="stroke:#460a69; stroke-linecap:round; stroke-linejoin:round; stroke-width:4; stroke-opacity:1; fill:none" points="576.664,1245.05 576.022,1244.41 575.38,1245.05 "/>
<polyline clip-path="url(#clip882)" style="stroke:#72196d; stroke-linecap:round; stroke-linejoin:round; stroke-width:4; stroke-opacity:1; fill:none" points="575.059,1245.05 576.022,1244.09 576.985,1245.05 "/>
<polyline clip-path="url(#clip882)" style="stroke:#9c2963; stroke-linecap:round; stroke-linejoin:round; stroke-width:4; stroke-opacity:1; fill:none" points="577.306,1245.05 576.022,1243.77 574.739,1245.05 "/>
<polyline clip-path="url(#clip882)" style="stroke:#c73e4c; stroke-linecap:round; stroke-linejoin:round; stroke-width:4; stroke-opacity:1; fill:none" points="574.418,1245.05 576.022,1243.45 577.627,1245.05 "/>
<polyline clip-path="url(#clip882)" style="stroke:#e65e2d; stroke-linecap:round; stroke-linejoin:round; stroke-width:4; stroke-opacity:1; fill:none" points="577.947,1245.05 576.022,1243.13 574.097,1245.05 "/>
<polyline clip-path="url(#clip882)" style="stroke:#f88a0b; stroke-linecap:round; stroke-linejoin:round; stroke-width:4; stroke-opacity:1; fill:none" points="573.776,1245.05 576.022,1242.81 578.268,1245.05 "/>
<polyline clip-path="url(#clip882)" style="stroke:#9c2963; stroke-linecap:round; stroke-linejoin:round; stroke-width:4; stroke-opacity:1; fill:none" points="772.927,1245.05 773.073,1244.91 773.218,1245.05 "/>
<polyline clip-path="url(#clip882)" style="stroke:#c73e4c; stroke-linecap:round; stroke-linejoin:round; stroke-width:4; stroke-opacity:1; fill:none" points="773.866,1245.05 773.073,1244.26 772.28,1245.05 "/>
<polyline clip-path="url(#clip882)" style="stroke:#e65e2d; stroke-linecap:round; stroke-linejoin:round; stroke-width:4; stroke-opacity:1; fill:none" points="771.633,1245.05 773.073,1243.61 774.513,1245.05 "/>
<polyline clip-path="url(#clip882)" style="stroke:#f88a0b; stroke-linecap:round; stroke-linejoin:round; stroke-width:4; stroke-opacity:1; fill:none" points="775.16,1245.05 773.073,1242.97 770.986,1245.05 "/>
<polyline clip-path="url(#clip882)" style="stroke:#fabd23; stroke-linecap:round; stroke-linejoin:round; stroke-width:4; stroke-opacity:1; fill:none" points="893.881,1245.05 895.629,1243.31 896.801,1245.05 "/>
<polyline clip-path="url(#clip882)" style="stroke:#f88a0b; stroke-linecap:round; stroke-linejoin:round; stroke-width:4; stroke-opacity:1; fill:none" points="897.661,1245.05 898.032,1243.93 899.159,1245.05 "/>
<polyline clip-path="url(#clip882)" style="stroke:#f1f27d; stroke-linecap:round; stroke-linejoin:round; stroke-width:4; stroke-opacity:1; fill:none" points="895.942,1245.05 895.629,1244.59 895.162,1245.05 "/>
<polyline clip-path="url(#clip882)" style="stroke:#fabd23; stroke-linecap:round; stroke-linejoin:round; stroke-width:4; stroke-opacity:1; fill:none" points="1152.76,868.587 1151.94,867.774 1152.76,866.948 "/>
<polyline clip-path="url(#clip882)" style="stroke:#f88a0b; stroke-linecap:round; stroke-linejoin:round; stroke-width:4; stroke-opacity:1; fill:none" points="1152.76,863.813 1151.9,862.968 1152.76,862.11 "/>
<polyline clip-path="url(#clip882)" style="stroke:#f88a0b; stroke-linecap:round; stroke-linejoin:round; stroke-width:4; stroke-opacity:1; fill:none" points="1152.76,671.582 1151.9,670.724 1152.76,669.879 "/>
<polyline clip-path="url(#clip882)" style="stroke:#fabd23; stroke-linecap:round; stroke-linejoin:round; stroke-width:4; stroke-opacity:1; fill:none" points="1152.76,666.744 1151.94,665.918 1152.76,665.105 "/>
<polyline clip-path="url(#clip882)" style="stroke:#f88a0b; stroke-linecap:round; stroke-linejoin:round; stroke-width:4; stroke-opacity:1; fill:none" points="899.159,288.638 898.032,289.764 897.661,288.638 "/>
<polyline clip-path="url(#clip882)" style="stroke:#fabd23; stroke-linecap:round; stroke-linejoin:round; stroke-width:4; stroke-opacity:1; fill:none" points="896.801,288.638 895.629,290.385 893.881,288.638 "/>
<polyline clip-path="url(#clip882)" style="stroke:#f1f27d; stroke-linecap:round; stroke-linejoin:round; stroke-width:4; stroke-opacity:1; fill:none" points="895.162,288.638 895.629,289.104 895.942,288.638 "/>
<polyline clip-path="url(#clip882)" style="stroke:#9c2963; stroke-linecap:round; stroke-linejoin:round; stroke-width:4; stroke-opacity:1; fill:none" points="773.218,288.638 773.073,288.783 772.927,288.638 "/>
<polyline clip-path="url(#clip882)" style="stroke:#c73e4c; stroke-linecap:round; stroke-linejoin:round; stroke-width:4; stroke-opacity:1; fill:none" points="772.28,288.638 773.073,289.43 773.866,288.638 "/>
<polyline clip-path="url(#clip882)" style="stroke:#e65e2d; stroke-linecap:round; stroke-linejoin:round; stroke-width:4; stroke-opacity:1; fill:none" points="774.513,288.638 773.073,290.077 771.633,288.638 "/>
<polyline clip-path="url(#clip882)" style="stroke:#f88a0b; stroke-linecap:round; stroke-linejoin:round; stroke-width:4; stroke-opacity:1; fill:none" points="770.986,288.638 773.073,290.724 775.16,288.638 "/>
<polyline clip-path="url(#clip882)" style="stroke:#190b3e; stroke-linecap:round; stroke-linejoin:round; stroke-width:4; stroke-opacity:1; fill:none" points="576.343,288.638 576.022,288.958 575.701,288.638 "/>
<polyline clip-path="url(#clip882)" style="stroke:#460a69; stroke-linecap:round; stroke-linejoin:round; stroke-width:4; stroke-opacity:1; fill:none" points="575.38,288.638 576.022,289.279 576.664,288.638 "/>
<polyline clip-path="url(#clip882)" style="stroke:#72196d; stroke-linecap:round; stroke-linejoin:round; stroke-width:4; stroke-opacity:1; fill:none" points="576.985,288.638 576.022,289.6 575.059,288.638 "/>
<polyline clip-path="url(#clip882)" style="stroke:#9c2963; stroke-linecap:round; stroke-linejoin:round; stroke-width:4; stroke-opacity:1; fill:none" points="574.739,288.638 576.022,289.921 577.306,288.638 "/>
<polyline clip-path="url(#clip882)" style="stroke:#c73e4c; stroke-linecap:round; stroke-linejoin:round; stroke-width:4; stroke-opacity:1; fill:none" points="577.627,288.638 576.022,290.242 574.418,288.638 "/>
<polyline clip-path="url(#clip882)" style="stroke:#e65e2d; stroke-linecap:round; stroke-linejoin:round; stroke-width:4; stroke-opacity:1; fill:none" points="574.097,288.638 576.022,290.563 577.947,288.638 "/>
<polyline clip-path="url(#clip882)" style="stroke:#f88a0b; stroke-linecap:round; stroke-linejoin:round; stroke-width:4; stroke-opacity:1; fill:none" points="578.268,288.638 576.022,290.884 573.776,288.638 "/>
<polyline clip-path="url(#clip882)" style="stroke:#e65e2d; stroke-linecap:round; stroke-linejoin:round; stroke-width:4; stroke-opacity:1; fill:none" points="451.558,288.638 451.063,289.133 450.813,288.638 "/>
<polyline clip-path="url(#clip882)" style="stroke:#f88a0b; stroke-linecap:round; stroke-linejoin:round; stroke-width:4; stroke-opacity:1; fill:none" points="450.167,288.638 451.063,290.414 452.84,288.638 "/>
<polyline clip-path="url(#clip882)" style="stroke:#fabd23; stroke-linecap:round; stroke-linejoin:round; stroke-width:4; stroke-opacity:1; fill:none" points="449.52,288.638 448.66,290.373 446.925,288.638 "/>
<polyline clip-path="url(#clip882)" style="stroke:#f1f27d; stroke-linecap:round; stroke-linejoin:round; stroke-width:4; stroke-opacity:1; fill:none" points="448.23,288.638 448.66,289.068 448.873,288.638 "/>
<polyline clip-path="url(#clip882)" style="stroke:#f88a0b; stroke-linecap:round; stroke-linejoin:round; stroke-width:4; stroke-opacity:1; fill:none" points="193.936,665.035 194.819,665.918 193.936,666.815 "/>
<polyline clip-path="url(#clip882)" style="stroke:#fabd23; stroke-linecap:round; stroke-linejoin:round; stroke-width:4; stroke-opacity:1; fill:none" points="193.936,669.949 194.723,670.724 193.936,671.511 "/>
<polyline clip-path="url(#clip882)" style="stroke:#fabd23; stroke-linecap:round; stroke-linejoin:round; stroke-width:4; stroke-opacity:1; fill:none" points="193.936,862.181 194.723,862.968 193.936,863.743 "/>
<polyline clip-path="url(#clip882)" style="stroke:#f88a0b; stroke-linecap:round; stroke-linejoin:round; stroke-width:4; stroke-opacity:1; fill:none" points="193.936,866.877 194.819,867.774 193.936,868.657 "/>
<path clip-path="url(#clip880)" d="M1393.94 1247.46 L2352.76 1247.46 L2352.76 286.231 L1393.94 286.231  Z" fill="#ffffff" fill-rule="evenodd" fill-opacity="1"/>
<defs>
  <clipPath id="clip883">
    <rect x="1393" y="286" width="960" height="962"/>
  </clipPath>
</defs>
<polyline clip-path="url(#clip880)" style="stroke:#000000; stroke-linecap:round; stroke-linejoin:round; stroke-width:4; stroke-opacity:1; fill:none" points="1393.94,1247.46 2352.76,1247.46 "/>
<polyline clip-path="url(#clip880)" style="stroke:#000000; stroke-linecap:round; stroke-linejoin:round; stroke-width:4; stroke-opacity:1; fill:none" points="1393.94,286.231 2352.76,286.231 "/>
<polyline clip-path="url(#clip880)" style="stroke:#000000; stroke-linecap:round; stroke-linejoin:round; stroke-width:4; stroke-opacity:1; fill:none" points="1511.98,1247.46 1511.98,1234.84 "/>
<polyline clip-path="url(#clip880)" style="stroke:#000000; stroke-linecap:round; stroke-linejoin:round; stroke-width:4; stroke-opacity:1; fill:none" points="1632.44,1247.46 1632.44,1234.84 "/>
<polyline clip-path="url(#clip880)" style="stroke:#000000; stroke-linecap:round; stroke-linejoin:round; stroke-width:4; stroke-opacity:1; fill:none" points="1752.89,1247.46 1752.89,1234.84 "/>
<polyline clip-path="url(#clip880)" style="stroke:#000000; stroke-linecap:round; stroke-linejoin:round; stroke-width:4; stroke-opacity:1; fill:none" points="1873.35,1247.46 1873.35,1234.84 "/>
<polyline clip-path="url(#clip880)" style="stroke:#000000; stroke-linecap:round; stroke-linejoin:round; stroke-width:4; stroke-opacity:1; fill:none" points="1993.8,1247.46 1993.8,1234.84 "/>
<polyline clip-path="url(#clip880)" style="stroke:#000000; stroke-linecap:round; stroke-linejoin:round; stroke-width:4; stroke-opacity:1; fill:none" points="2114.26,1247.46 2114.26,1234.84 "/>
<polyline clip-path="url(#clip880)" style="stroke:#000000; stroke-linecap:round; stroke-linejoin:round; stroke-width:4; stroke-opacity:1; fill:none" points="2234.71,1247.46 2234.71,1234.84 "/>
<path clip-path="url(#clip880)" d="M1459.01 1293.03 L1488.68 1293.03 L1488.68 1296.97 L1459.01 1296.97 L1459.01 1293.03 Z" fill="#000000" fill-rule="nonzero" fill-opacity="1" /><path clip-path="url(#clip880)" d="M1499.59 1305.93 L1507.22 1305.93 L1507.22 1279.56 L1498.91 1281.23 L1498.91 1276.97 L1507.18 1275.3 L1511.85 1275.3 L1511.85 1305.93 L1519.49 1305.93 L1519.49 1309.86 L1499.59 1309.86 L1499.59 1305.93 Z" fill="#000000" fill-rule="nonzero" fill-opacity="1" /><path clip-path="url(#clip880)" d="M1528.94 1303.98 L1533.82 1303.98 L1533.82 1309.86 L1528.94 1309.86 L1528.94 1303.98 Z" fill="#000000" fill-rule="nonzero" fill-opacity="1" /><path clip-path="url(#clip880)" d="M1544.05 1275.3 L1562.41 1275.3 L1562.41 1279.24 L1548.34 1279.24 L1548.34 1287.71 Q1549.35 1287.36 1550.37 1287.2 Q1551.39 1287.01 1552.41 1287.01 Q1558.2 1287.01 1561.58 1290.18 Q1564.96 1293.36 1564.96 1298.77 Q1564.96 1304.35 1561.48 1307.45 Q1558.01 1310.53 1551.69 1310.53 Q1549.52 1310.53 1547.25 1310.16 Q1545 1309.79 1542.59 1309.05 L1542.59 1304.35 Q1544.68 1305.49 1546.9 1306.04 Q1549.12 1306.6 1551.6 1306.6 Q1555.6 1306.6 1557.94 1304.49 Q1560.28 1302.38 1560.28 1298.77 Q1560.28 1295.16 1557.94 1293.06 Q1555.6 1290.95 1551.6 1290.95 Q1549.72 1290.95 1547.85 1291.37 Q1546 1291.78 1544.05 1292.66 L1544.05 1275.3 Z" fill="#000000" fill-rule="nonzero" fill-opacity="1" /><path clip-path="url(#clip880)" d="M1578.96 1293.03 L1608.64 1293.03 L1608.64 1296.97 L1578.96 1296.97 L1578.96 1293.03 Z" fill="#000000" fill-rule="nonzero" fill-opacity="1" /><path clip-path="url(#clip880)" d="M1619.54 1305.93 L1627.18 1305.93 L1627.18 1279.56 L1618.87 1281.23 L1618.87 1276.97 L1627.14 1275.3 L1631.81 1275.3 L1631.81 1305.93 L1639.45 1305.93 L1639.45 1309.86 L1619.54 1309.86 L1619.54 1305.93 Z" fill="#000000" fill-rule="nonzero" fill-opacity="1" /><path clip-path="url(#clip880)" d="M1648.89 1303.98 L1653.78 1303.98 L1653.78 1309.86 L1648.89 1309.86 L1648.89 1303.98 Z" fill="#000000" fill-rule="nonzero" fill-opacity="1" /><path clip-path="url(#clip880)" d="M1673.96 1278.38 Q1670.35 1278.38 1668.52 1281.94 Q1666.72 1285.49 1666.72 1292.62 Q1666.72 1299.72 1668.52 1303.29 Q1670.35 1306.83 1673.96 1306.83 Q1677.6 1306.83 1679.4 1303.29 Q1681.23 1299.72 1681.23 1292.62 Q1681.23 1285.49 1679.4 1281.94 Q1677.6 1278.38 1673.96 1278.38 M1673.96 1274.68 Q1679.77 1274.68 1682.83 1279.28 Q1685.91 1283.87 1685.91 1292.62 Q1685.91 1301.34 1682.83 1305.95 Q1679.77 1310.53 1673.96 1310.53 Q1668.15 1310.53 1665.08 1305.95 Q1662.02 1301.34 1662.02 1292.62 Q1662.02 1283.87 1665.08 1279.28 Q1668.15 1274.68 1673.96 1274.68 Z" fill="#000000" fill-rule="nonzero" fill-opacity="1" /><path clip-path="url(#clip880)" d="M1699.92 1293.03 L1729.59 1293.03 L1729.59 1296.97 L1699.92 1296.97 L1699.92 1293.03 Z" fill="#000000" fill-rule="nonzero" fill-opacity="1" /><path clip-path="url(#clip880)" d="M1749.69 1278.38 Q1746.07 1278.38 1744.25 1281.94 Q1742.44 1285.49 1742.44 1292.62 Q1742.44 1299.72 1744.25 1303.29 Q1746.07 1306.83 1749.69 1306.83 Q1753.32 1306.83 1755.12 1303.29 Q1756.95 1299.72 1756.95 1292.62 Q1756.95 1285.49 1755.12 1281.94 Q1753.32 1278.38 1749.69 1278.38 M1749.69 1274.68 Q1755.5 1274.68 1758.55 1279.28 Q1761.63 1283.87 1761.63 1292.62 Q1761.63 1301.34 1758.55 1305.95 Q1755.5 1310.53 1749.69 1310.53 Q1743.88 1310.53 1740.8 1305.95 Q1737.74 1301.34 1737.74 1292.62 Q1737.74 1283.87 1740.8 1279.28 Q1743.88 1274.68 1749.69 1274.68 Z" fill="#000000" fill-rule="nonzero" fill-opacity="1" /><path clip-path="url(#clip880)" d="M1769.85 1303.98 L1774.73 1303.98 L1774.73 1309.86 L1769.85 1309.86 L1769.85 1303.98 Z" fill="#000000" fill-rule="nonzero" fill-opacity="1" /><path clip-path="url(#clip880)" d="M1784.96 1275.3 L1803.32 1275.3 L1803.32 1279.24 L1789.25 1279.24 L1789.25 1287.71 Q1790.26 1287.36 1791.28 1287.2 Q1792.3 1287.01 1793.32 1287.01 Q1799.11 1287.01 1802.49 1290.18 Q1805.87 1293.36 1805.87 1298.77 Q1805.87 1304.35 1802.39 1307.45 Q1798.92 1310.53 1792.6 1310.53 Q1790.43 1310.53 1788.16 1310.16 Q1785.91 1309.79 1783.5 1309.05 L1783.5 1304.35 Q1785.59 1305.49 1787.81 1306.04 Q1790.03 1306.6 1792.51 1306.6 Q1796.51 1306.6 1798.85 1304.49 Q1801.19 1302.38 1801.19 1298.77 Q1801.19 1295.16 1798.85 1293.06 Q1796.51 1290.95 1792.51 1290.95 Q1790.63 1290.95 1788.76 1291.37 Q1786.91 1291.78 1784.96 1292.66 L1784.96 1275.3 Z" fill="#000000" fill-rule="nonzero" fill-opacity="1" /><path clip-path="url(#clip880)" d="M1850.73 1278.38 Q1847.12 1278.38 1845.29 1281.94 Q1843.49 1285.49 1843.49 1292.62 Q1843.49 1299.72 1845.29 1303.29 Q1847.12 1306.83 1850.73 1306.83 Q1854.36 1306.83 1856.17 1303.29 Q1858 1299.72 1858 1292.62 Q1858 1285.49 1856.17 1281.94 Q1854.36 1278.38 1850.73 1278.38 M1850.73 1274.68 Q1856.54 1274.68 1859.6 1279.28 Q1862.67 1283.87 1862.67 1292.62 Q1862.67 1301.34 1859.6 1305.95 Q1856.54 1310.53 1850.73 1310.53 Q1844.92 1310.53 1841.84 1305.95 Q1838.79 1301.34 1838.79 1292.62 Q1838.79 1283.87 1841.84 1279.28 Q1844.92 1274.68 1850.73 1274.68 Z" fill="#000000" fill-rule="nonzero" fill-opacity="1" /><path clip-path="url(#clip880)" d="M1870.89 1303.98 L1875.78 1303.98 L1875.78 1309.86 L1870.89 1309.86 L1870.89 1303.98 Z" fill="#000000" fill-rule="nonzero" fill-opacity="1" /><path clip-path="url(#clip880)" d="M1895.96 1278.38 Q1892.35 1278.38 1890.52 1281.94 Q1888.72 1285.49 1888.72 1292.62 Q1888.72 1299.72 1890.52 1303.29 Q1892.35 1306.83 1895.96 1306.83 Q1899.6 1306.83 1901.4 1303.29 Q1903.23 1299.72 1903.23 1292.62 Q1903.23 1285.49 1901.4 1281.94 Q1899.6 1278.38 1895.96 1278.38 M1895.96 1274.68 Q1901.77 1274.68 1904.83 1279.28 Q1907.91 1283.87 1907.91 1292.62 Q1907.91 1301.34 1904.83 1305.95 Q1901.77 1310.53 1895.96 1310.53 Q1890.15 1310.53 1887.07 1305.95 Q1884.02 1301.34 1884.02 1292.62 Q1884.02 1283.87 1887.07 1279.28 Q1890.15 1274.68 1895.96 1274.68 Z" fill="#000000" fill-rule="nonzero" fill-opacity="1" /><path clip-path="url(#clip880)" d="M1971.68 1278.38 Q1968.07 1278.38 1966.24 1281.94 Q1964.44 1285.49 1964.44 1292.62 Q1964.44 1299.72 1966.24 1303.29 Q1968.07 1306.83 1971.68 1306.83 Q1975.32 1306.83 1977.12 1303.29 Q1978.95 1299.72 1978.95 1292.62 Q1978.95 1285.49 1977.12 1281.94 Q1975.32 1278.38 1971.68 1278.38 M1971.68 1274.68 Q1977.49 1274.68 1980.55 1279.28 Q1983.63 1283.87 1983.63 1292.62 Q1983.63 1301.34 1980.55 1305.95 Q1977.49 1310.53 1971.68 1310.53 Q1965.87 1310.53 1962.79 1305.95 Q1959.74 1301.34 1959.74 1292.62 Q1959.74 1283.87 1962.79 1279.28 Q1965.87 1274.68 1971.68 1274.68 Z" fill="#000000" fill-rule="nonzero" fill-opacity="1" /><path clip-path="url(#clip880)" d="M1991.84 1303.98 L1996.73 1303.98 L1996.73 1309.86 L1991.84 1309.86 L1991.84 1303.98 Z" fill="#000000" fill-rule="nonzero" fill-opacity="1" /><path clip-path="url(#clip880)" d="M2006.96 1275.3 L2025.32 1275.3 L2025.32 1279.24 L2011.24 1279.24 L2011.24 1287.71 Q2012.26 1287.36 2013.28 1287.2 Q2014.3 1287.01 2015.32 1287.01 Q2021.1 1287.01 2024.48 1290.18 Q2027.86 1293.36 2027.86 1298.77 Q2027.86 1304.35 2024.39 1307.45 Q2020.92 1310.53 2014.6 1310.53 Q2012.42 1310.53 2010.15 1310.16 Q2007.91 1309.79 2005.5 1309.05 L2005.5 1304.35 Q2007.59 1305.49 2009.81 1306.04 Q2012.03 1306.6 2014.51 1306.6 Q2018.51 1306.6 2020.85 1304.49 Q2023.19 1302.38 2023.19 1298.77 Q2023.19 1295.16 2020.85 1293.06 Q2018.51 1290.95 2014.51 1290.95 Q2012.63 1290.95 2010.76 1291.37 Q2008.9 1291.78 2006.96 1292.66 L2006.96 1275.3 Z" fill="#000000" fill-rule="nonzero" fill-opacity="1" /><path clip-path="url(#clip880)" d="M2081.41 1305.93 L2089.05 1305.93 L2089.05 1279.56 L2080.74 1281.23 L2080.74 1276.97 L2089 1275.3 L2093.68 1275.3 L2093.68 1305.93 L2101.32 1305.93 L2101.32 1309.86 L2081.41 1309.86 L2081.41 1305.93 Z" fill="#000000" fill-rule="nonzero" fill-opacity="1" /><path clip-path="url(#clip880)" d="M2110.76 1303.98 L2115.64 1303.98 L2115.64 1309.86 L2110.76 1309.86 L2110.76 1303.98 Z" fill="#000000" fill-rule="nonzero" fill-opacity="1" /><path clip-path="url(#clip880)" d="M2135.83 1278.38 Q2132.22 1278.38 2130.39 1281.94 Q2128.58 1285.49 2128.58 1292.62 Q2128.58 1299.72 2130.39 1303.29 Q2132.22 1306.83 2135.83 1306.83 Q2139.46 1306.83 2141.27 1303.29 Q2143.1 1299.72 2143.1 1292.62 Q2143.1 1285.49 2141.27 1281.94 Q2139.46 1278.38 2135.83 1278.38 M2135.83 1274.68 Q2141.64 1274.68 2144.7 1279.28 Q2147.77 1283.87 2147.77 1292.62 Q2147.77 1301.34 2144.7 1305.95 Q2141.64 1310.53 2135.83 1310.53 Q2130.02 1310.53 2126.94 1305.95 Q2123.89 1301.34 2123.89 1292.62 Q2123.89 1283.87 2126.94 1279.28 Q2130.02 1274.68 2135.83 1274.68 Z" fill="#000000" fill-rule="nonzero" fill-opacity="1" /><path clip-path="url(#clip880)" d="M2202.36 1305.93 L2210 1305.93 L2210 1279.56 L2201.69 1281.23 L2201.69 1276.97 L2209.95 1275.3 L2214.63 1275.3 L2214.63 1305.93 L2222.27 1305.93 L2222.27 1309.86 L2202.36 1309.86 L2202.36 1305.93 Z" fill="#000000" fill-rule="nonzero" fill-opacity="1" /><path clip-path="url(#clip880)" d="M2231.71 1303.98 L2236.6 1303.98 L2236.6 1309.86 L2231.71 1309.86 L2231.71 1303.98 Z" fill="#000000" fill-rule="nonzero" fill-opacity="1" /><path clip-path="url(#clip880)" d="M2246.83 1275.3 L2265.18 1275.3 L2265.18 1279.24 L2251.11 1279.24 L2251.11 1287.71 Q2252.13 1287.36 2253.15 1287.2 Q2254.17 1287.01 2255.18 1287.01 Q2260.97 1287.01 2264.35 1290.18 Q2267.73 1293.36 2267.73 1298.77 Q2267.73 1304.35 2264.26 1307.45 Q2260.79 1310.53 2254.47 1310.53 Q2252.29 1310.53 2250.02 1310.16 Q2247.78 1309.79 2245.37 1309.05 L2245.37 1304.35 Q2247.45 1305.49 2249.68 1306.04 Q2251.9 1306.6 2254.37 1306.6 Q2258.38 1306.6 2260.72 1304.49 Q2263.05 1302.38 2263.05 1298.77 Q2263.05 1295.16 2260.72 1293.06 Q2258.38 1290.95 2254.37 1290.95 Q2252.5 1290.95 2250.62 1291.37 Q2248.77 1291.78 2246.83 1292.66 L2246.83 1275.3 Z" fill="#000000" fill-rule="nonzero" fill-opacity="1" /><polyline clip-path="url(#clip880)" style="stroke:#000000; stroke-linecap:round; stroke-linejoin:round; stroke-width:4; stroke-opacity:1; fill:none" points="1393.94,1247.46 1393.94,286.231 "/>
<polyline clip-path="url(#clip880)" style="stroke:#000000; stroke-linecap:round; stroke-linejoin:round; stroke-width:4; stroke-opacity:1; fill:none" points="2352.76,1247.46 2352.76,286.231 "/>
<polyline clip-path="url(#clip880)" style="stroke:#000000; stroke-linecap:round; stroke-linejoin:round; stroke-width:4; stroke-opacity:1; fill:none" points="1393.94,1128.21 1412.83,1128.21 "/>
<polyline clip-path="url(#clip880)" style="stroke:#000000; stroke-linecap:round; stroke-linejoin:round; stroke-width:4; stroke-opacity:1; fill:none" points="1393.94,1007.76 1412.83,1007.76 "/>
<polyline clip-path="url(#clip880)" style="stroke:#000000; stroke-linecap:round; stroke-linejoin:round; stroke-width:4; stroke-opacity:1; fill:none" points="1393.94,887.301 1412.83,887.301 "/>
<polyline clip-path="url(#clip880)" style="stroke:#000000; stroke-linecap:round; stroke-linejoin:round; stroke-width:4; stroke-opacity:1; fill:none" points="1393.94,766.846 1412.83,766.846 "/>
<polyline clip-path="url(#clip880)" style="stroke:#000000; stroke-linecap:round; stroke-linejoin:round; stroke-width:4; stroke-opacity:1; fill:none" points="1393.94,646.391 1412.83,646.391 "/>
<polyline clip-path="url(#clip880)" style="stroke:#000000; stroke-linecap:round; stroke-linejoin:round; stroke-width:4; stroke-opacity:1; fill:none" points="1393.94,525.936 1412.83,525.936 "/>
<polyline clip-path="url(#clip880)" style="stroke:#000000; stroke-linecap:round; stroke-linejoin:round; stroke-width:4; stroke-opacity:1; fill:none" points="1393.94,405.482 1412.83,405.482 "/>
<path clip-path="url(#clip880)" d="M1251.99 1128.66 L1281.66 1128.66 L1281.66 1132.6 L1251.99 1132.6 L1251.99 1128.66 Z" fill="#000000" fill-rule="nonzero" fill-opacity="1" /><path clip-path="url(#clip880)" d="M1292.57 1141.56 L1300.2 1141.56 L1300.2 1115.19 L1291.89 1116.86 L1291.89 1112.6 L1300.16 1110.93 L1304.83 1110.93 L1304.83 1141.56 L1312.47 1141.56 L1312.47 1145.49 L1292.57 1145.49 L1292.57 1141.56 Z" fill="#000000" fill-rule="nonzero" fill-opacity="1" /><path clip-path="url(#clip880)" d="M1321.92 1139.61 L1326.8 1139.61 L1326.8 1145.49 L1321.92 1145.49 L1321.92 1139.61 Z" fill="#000000" fill-rule="nonzero" fill-opacity="1" /><path clip-path="url(#clip880)" d="M1337.03 1110.93 L1355.39 1110.93 L1355.39 1114.87 L1341.32 1114.87 L1341.32 1123.34 Q1342.33 1122.99 1343.35 1122.83 Q1344.37 1122.64 1345.39 1122.64 Q1351.18 1122.64 1354.56 1125.81 Q1357.94 1128.99 1357.94 1134.4 Q1357.94 1139.98 1354.46 1143.08 Q1350.99 1146.16 1344.67 1146.16 Q1342.5 1146.16 1340.23 1145.79 Q1337.98 1145.42 1335.58 1144.68 L1335.58 1139.98 Q1337.66 1141.12 1339.88 1141.67 Q1342.1 1142.23 1344.58 1142.23 Q1348.58 1142.23 1350.92 1140.12 Q1353.26 1138.01 1353.26 1134.4 Q1353.26 1130.79 1350.92 1128.68 Q1348.58 1126.58 1344.58 1126.58 Q1342.7 1126.58 1340.83 1126.99 Q1338.98 1127.41 1337.03 1128.29 L1337.03 1110.93 Z" fill="#000000" fill-rule="nonzero" fill-opacity="1" /><path clip-path="url(#clip880)" d="M1250.99 1008.21 L1280.67 1008.21 L1280.67 1012.14 L1250.99 1012.14 L1250.99 1008.21 Z" fill="#000000" fill-rule="nonzero" fill-opacity="1" /><path clip-path="url(#clip880)" d="M1291.57 1021.1 L1299.21 1021.1 L1299.21 994.735 L1290.9 996.401 L1290.9 992.142 L1299.16 990.476 L1303.84 990.476 L1303.84 1021.1 L1311.48 1021.1 L1311.48 1025.04 L1291.57 1025.04 L1291.57 1021.1 Z" fill="#000000" fill-rule="nonzero" fill-opacity="1" /><path clip-path="url(#clip880)" d="M1320.92 1019.16 L1325.81 1019.16 L1325.81 1025.04 L1320.92 1025.04 L1320.92 1019.16 Z" fill="#000000" fill-rule="nonzero" fill-opacity="1" /><path clip-path="url(#clip880)" d="M1345.99 993.554 Q1342.38 993.554 1340.55 997.119 Q1338.75 1000.66 1338.75 1007.79 Q1338.75 1014.9 1340.55 1018.46 Q1342.38 1022 1345.99 1022 Q1349.63 1022 1351.43 1018.46 Q1353.26 1014.9 1353.26 1007.79 Q1353.26 1000.66 1351.43 997.119 Q1349.63 993.554 1345.99 993.554 M1345.99 989.851 Q1351.8 989.851 1354.86 994.457 Q1357.94 999.04 1357.94 1007.79 Q1357.94 1016.52 1354.86 1021.12 Q1351.8 1025.71 1345.99 1025.71 Q1340.18 1025.71 1337.1 1021.12 Q1334.05 1016.52 1334.05 1007.79 Q1334.05 999.04 1337.1 994.457 Q1340.18 989.851 1345.99 989.851 Z" fill="#000000" fill-rule="nonzero" fill-opacity="1" /><path clip-path="url(#clip880)" d="M1251.99 887.752 L1281.66 887.752 L1281.66 891.687 L1251.99 891.687 L1251.99 887.752 Z" fill="#000000" fill-rule="nonzero" fill-opacity="1" /><path clip-path="url(#clip880)" d="M1301.76 873.099 Q1298.14 873.099 1296.32 876.664 Q1294.51 880.206 1294.51 887.335 Q1294.51 894.442 1296.32 898.007 Q1298.14 901.548 1301.76 901.548 Q1305.39 901.548 1307.2 898.007 Q1309.02 894.442 1309.02 887.335 Q1309.02 880.206 1307.2 876.664 Q1305.39 873.099 1301.76 873.099 M1301.76 869.396 Q1307.57 869.396 1310.62 874.002 Q1313.7 878.586 1313.7 887.335 Q1313.7 896.062 1310.62 900.669 Q1307.57 905.252 1301.76 905.252 Q1295.95 905.252 1292.87 900.669 Q1289.81 896.062 1289.81 887.335 Q1289.81 878.586 1292.87 874.002 Q1295.95 869.396 1301.76 869.396 Z" fill="#000000" fill-rule="nonzero" fill-opacity="1" /><path clip-path="url(#clip880)" d="M1321.92 898.701 L1326.8 898.701 L1326.8 904.581 L1321.92 904.581 L1321.92 898.701 Z" fill="#000000" fill-rule="nonzero" fill-opacity="1" /><path clip-path="url(#clip880)" d="M1337.03 870.021 L1355.39 870.021 L1355.39 873.956 L1341.32 873.956 L1341.32 882.428 Q1342.33 882.081 1343.35 881.919 Q1344.37 881.734 1345.39 881.734 Q1351.18 881.734 1354.56 884.905 Q1357.94 888.076 1357.94 893.493 Q1357.94 899.072 1354.46 902.173 Q1350.99 905.252 1344.67 905.252 Q1342.5 905.252 1340.23 904.882 Q1337.98 904.511 1335.58 903.771 L1335.58 899.072 Q1337.66 900.206 1339.88 900.761 Q1342.1 901.317 1344.58 901.317 Q1348.58 901.317 1350.92 899.21 Q1353.26 897.104 1353.26 893.493 Q1353.26 889.882 1350.92 887.775 Q1348.58 885.669 1344.58 885.669 Q1342.7 885.669 1340.83 886.085 Q1338.98 886.502 1337.03 887.382 L1337.03 870.021 Z" fill="#000000" fill-rule="nonzero" fill-opacity="1" /><path clip-path="url(#clip880)" d="M1300.76 752.645 Q1297.15 752.645 1295.32 756.209 Q1293.52 759.751 1293.52 766.881 Q1293.52 773.987 1295.32 777.552 Q1297.15 781.094 1300.76 781.094 Q1304.39 781.094 1306.2 777.552 Q1308.03 773.987 1308.03 766.881 Q1308.03 759.751 1306.2 756.209 Q1304.39 752.645 1300.76 752.645 M1300.76 748.941 Q1306.57 748.941 1309.63 753.547 Q1312.7 758.131 1312.7 766.881 Q1312.7 775.608 1309.63 780.214 Q1306.57 784.797 1300.76 784.797 Q1294.95 784.797 1291.87 780.214 Q1288.82 775.608 1288.82 766.881 Q1288.82 758.131 1291.87 753.547 Q1294.95 748.941 1300.76 748.941 Z" fill="#000000" fill-rule="nonzero" fill-opacity="1" /><path clip-path="url(#clip880)" d="M1320.92 778.246 L1325.81 778.246 L1325.81 784.126 L1320.92 784.126 L1320.92 778.246 Z" fill="#000000" fill-rule="nonzero" fill-opacity="1" /><path clip-path="url(#clip880)" d="M1345.99 752.645 Q1342.38 752.645 1340.55 756.209 Q1338.75 759.751 1338.75 766.881 Q1338.75 773.987 1340.55 777.552 Q1342.38 781.094 1345.99 781.094 Q1349.63 781.094 1351.43 777.552 Q1353.26 773.987 1353.26 766.881 Q1353.26 759.751 1351.43 756.209 Q1349.63 752.645 1345.99 752.645 M1345.99 748.941 Q1351.8 748.941 1354.86 753.547 Q1357.94 758.131 1357.94 766.881 Q1357.94 775.608 1354.86 780.214 Q1351.8 784.797 1345.99 784.797 Q1340.18 784.797 1337.1 780.214 Q1334.05 775.608 1334.05 766.881 Q1334.05 758.131 1337.1 753.547 Q1340.18 748.941 1345.99 748.941 Z" fill="#000000" fill-rule="nonzero" fill-opacity="1" /><path clip-path="url(#clip880)" d="M1301.76 632.19 Q1298.14 632.19 1296.32 635.755 Q1294.51 639.296 1294.51 646.426 Q1294.51 653.532 1296.32 657.097 Q1298.14 660.639 1301.76 660.639 Q1305.39 660.639 1307.2 657.097 Q1309.02 653.532 1309.02 646.426 Q1309.02 639.296 1307.2 635.755 Q1305.39 632.19 1301.76 632.19 M1301.76 628.486 Q1307.57 628.486 1310.62 633.093 Q1313.7 637.676 1313.7 646.426 Q1313.7 655.153 1310.62 659.759 Q1307.57 664.343 1301.76 664.343 Q1295.95 664.343 1292.87 659.759 Q1289.81 655.153 1289.81 646.426 Q1289.81 637.676 1292.87 633.093 Q1295.95 628.486 1301.76 628.486 Z" fill="#000000" fill-rule="nonzero" fill-opacity="1" /><path clip-path="url(#clip880)" d="M1321.92 657.792 L1326.8 657.792 L1326.8 663.671 L1321.92 663.671 L1321.92 657.792 Z" fill="#000000" fill-rule="nonzero" fill-opacity="1" /><path clip-path="url(#clip880)" d="M1337.03 629.111 L1355.39 629.111 L1355.39 633.046 L1341.32 633.046 L1341.32 641.519 Q1342.33 641.171 1343.35 641.009 Q1344.37 640.824 1345.39 640.824 Q1351.18 640.824 1354.56 643.995 Q1357.94 647.167 1357.94 652.583 Q1357.94 658.162 1354.46 661.264 Q1350.99 664.343 1344.67 664.343 Q1342.5 664.343 1340.23 663.972 Q1337.98 663.602 1335.58 662.861 L1335.58 658.162 Q1337.66 659.296 1339.88 659.852 Q1342.1 660.407 1344.58 660.407 Q1348.58 660.407 1350.92 658.301 Q1353.26 656.194 1353.26 652.583 Q1353.26 648.972 1350.92 646.866 Q1348.58 644.759 1344.58 644.759 Q1342.7 644.759 1340.83 645.176 Q1338.98 645.593 1337.03 646.472 L1337.03 629.111 Z" fill="#000000" fill-rule="nonzero" fill-opacity="1" /><path clip-path="url(#clip880)" d="M1291.57 539.281 L1299.21 539.281 L1299.21 512.916 L1290.9 514.582 L1290.9 510.323 L1299.16 508.656 L1303.84 508.656 L1303.84 539.281 L1311.48 539.281 L1311.48 543.216 L1291.57 543.216 L1291.57 539.281 Z" fill="#000000" fill-rule="nonzero" fill-opacity="1" /><path clip-path="url(#clip880)" d="M1320.92 537.337 L1325.81 537.337 L1325.81 543.216 L1320.92 543.216 L1320.92 537.337 Z" fill="#000000" fill-rule="nonzero" fill-opacity="1" /><path clip-path="url(#clip880)" d="M1345.99 511.735 Q1342.38 511.735 1340.55 515.3 Q1338.75 518.842 1338.75 525.971 Q1338.75 533.078 1340.55 536.642 Q1342.38 540.184 1345.99 540.184 Q1349.63 540.184 1351.43 536.642 Q1353.26 533.078 1353.26 525.971 Q1353.26 518.842 1351.43 515.3 Q1349.63 511.735 1345.99 511.735 M1345.99 508.031 Q1351.8 508.031 1354.86 512.638 Q1357.94 517.221 1357.94 525.971 Q1357.94 534.698 1354.86 539.304 Q1351.8 543.888 1345.99 543.888 Q1340.18 543.888 1337.1 539.304 Q1334.05 534.698 1334.05 525.971 Q1334.05 517.221 1337.1 512.638 Q1340.18 508.031 1345.99 508.031 Z" fill="#000000" fill-rule="nonzero" fill-opacity="1" /><path clip-path="url(#clip880)" d="M1292.57 418.827 L1300.2 418.827 L1300.2 392.461 L1291.89 394.128 L1291.89 389.868 L1300.16 388.202 L1304.83 388.202 L1304.83 418.827 L1312.47 418.827 L1312.47 422.762 L1292.57 422.762 L1292.57 418.827 Z" fill="#000000" fill-rule="nonzero" fill-opacity="1" /><path clip-path="url(#clip880)" d="M1321.92 416.882 L1326.8 416.882 L1326.8 422.762 L1321.92 422.762 L1321.92 416.882 Z" fill="#000000" fill-rule="nonzero" fill-opacity="1" /><path clip-path="url(#clip880)" d="M1337.03 388.202 L1355.39 388.202 L1355.39 392.137 L1341.32 392.137 L1341.32 400.609 Q1342.33 400.262 1343.35 400.1 Q1344.37 399.915 1345.39 399.915 Q1351.18 399.915 1354.56 403.086 Q1357.94 406.257 1357.94 411.674 Q1357.94 417.252 1354.46 420.354 Q1350.99 423.433 1344.67 423.433 Q1342.5 423.433 1340.23 423.063 Q1337.98 422.692 1335.58 421.952 L1335.58 417.252 Q1337.66 418.387 1339.88 418.942 Q1342.1 419.498 1344.58 419.498 Q1348.58 419.498 1350.92 417.391 Q1353.26 415.285 1353.26 411.674 Q1353.26 408.063 1350.92 405.956 Q1348.58 403.85 1344.58 403.85 Q1342.7 403.85 1340.83 404.266 Q1338.98 404.683 1337.03 405.563 L1337.03 388.202 Z" fill="#000000" fill-rule="nonzero" fill-opacity="1" /><polyline clip-path="url(#clip883)" style="stroke:#912567; stroke-linecap:round; stroke-linejoin:round; stroke-width:4; stroke-opacity:1; fill:none" points="1646.58,1247.46 1646.89,1247.15 1647.2,1247.46 "/>
<polyline clip-path="url(#clip883)" style="stroke:#ac2f5c; stroke-linecap:round; stroke-linejoin:round; stroke-width:4; stroke-opacity:1; fill:none" points="1648.59,1247.46 1646.89,1245.75 1645.18,1247.46 "/>
<polyline clip-path="url(#clip883)" style="stroke:#c73e4c; stroke-linecap:round; stroke-linejoin:round; stroke-width:4; stroke-opacity:1; fill:none" points="1649.98,1247.46 1651.71,1245.75 1653.42,1247.46 "/>
<polyline clip-path="url(#clip883)" style="stroke:#dc5039; stroke-linecap:round; stroke-linejoin:round; stroke-width:4; stroke-opacity:1; fill:none" points="1652.04,1247.46 1651.71,1247.13 1651.38,1247.46 "/>
<polyline clip-path="url(#clip883)" style="stroke:#c73e4c; stroke-linecap:round; stroke-linejoin:round; stroke-width:4; stroke-opacity:1; fill:none" points="1772.56,1247.46 1774.57,1245.45 1776.98,1245.45 1778.99,1247.46 "/>
<polyline clip-path="url(#clip883)" style="stroke:#dc5039; stroke-linecap:round; stroke-linejoin:round; stroke-width:4; stroke-opacity:1; fill:none" points="1778.2,1247.46 1776.98,1246.24 1774.57,1246.24 1773.35,1247.46 "/>
<polyline clip-path="url(#clip883)" style="stroke:#ed6825; stroke-linecap:round; stroke-linejoin:round; stroke-width:4; stroke-opacity:1; fill:none" points="1774.15,1247.46 1774.57,1247.03 1776.98,1247.03 1777.41,1247.46 "/>
<polyline clip-path="url(#clip883)" style="stroke:#912567; stroke-linecap:round; stroke-linejoin:round; stroke-width:4; stroke-opacity:1; fill:none" points="1972.05,1247.46 1972.12,1247.39 1974.53,1247.39 1974.6,1247.46 "/>
<polyline clip-path="url(#clip883)" style="stroke:#ac2f5c; stroke-linecap:round; stroke-linejoin:round; stroke-width:4; stroke-opacity:1; fill:none" points="1976.16,1247.46 1974.53,1245.83 1972.12,1245.83 1970.49,1247.46 "/>
<polyline clip-path="url(#clip883)" style="stroke:#c73e4c; stroke-linecap:round; stroke-linejoin:round; stroke-width:4; stroke-opacity:1; fill:none" points="2093.27,1247.46 2094.98,1245.75 2097.39,1246.43 2097.91,1247.46 "/>
<polyline clip-path="url(#clip883)" style="stroke:#ac2f5c; stroke-linecap:round; stroke-linejoin:round; stroke-width:4; stroke-opacity:1; fill:none" points="2099.3,1247.46 2099.8,1246.45 2100.81,1247.46 "/>
<polyline clip-path="url(#clip883)" style="stroke:#dc5039; stroke-linecap:round; stroke-linejoin:round; stroke-width:4; stroke-opacity:1; fill:none" points="2095.64,1247.46 2094.98,1247.13 2094.65,1247.46 "/>
<polyline clip-path="url(#clip883)" style="stroke:#c73e4c; stroke-linecap:round; stroke-linejoin:round; stroke-width:4; stroke-opacity:1; fill:none" points="2352.76,993.85 2351,992.096 2352.76,991.228 "/>
<polyline clip-path="url(#clip883)" style="stroke:#912567; stroke-linecap:round; stroke-linejoin:round; stroke-width:4; stroke-opacity:1; fill:none" points="2352.76,989.929 2352.28,989.687 2352.76,989.208 "/>
<polyline clip-path="url(#clip883)" style="stroke:#ac2f5c; stroke-linecap:round; stroke-linejoin:round; stroke-width:4; stroke-opacity:1; fill:none" points="2352.76,987.922 2350.99,989.687 2352.76,990.578 "/>
<polyline clip-path="url(#clip883)" style="stroke:#dc5039; stroke-linecap:round; stroke-linejoin:round; stroke-width:4; stroke-opacity:1; fill:none" points="2352.76,991.877 2352.31,992.096 2352.76,992.539 "/>
<polyline clip-path="url(#clip883)" style="stroke:#c73e4c; stroke-linecap:round; stroke-linejoin:round; stroke-width:4; stroke-opacity:1; fill:none" points="2352.76,869.07 2350.51,866.823 2352.76,865.705 "/>
<polyline clip-path="url(#clip883)" style="stroke:#0a0723; stroke-linecap:round; stroke-linejoin:round; stroke-width:4; stroke-opacity:1; fill:none" points="2352.76,864.572 2352.44,864.414 2352.76,864.099 "/>
<polyline clip-path="url(#clip883)" style="stroke:#220b4c; stroke-linecap:round; stroke-linejoin:round; stroke-width:4; stroke-opacity:1; fill:none" points="2352.76,863.777 2352.12,864.414 2352.76,864.734 "/>
<polyline clip-path="url(#clip883)" style="stroke:#400966; stroke-linecap:round; stroke-linejoin:round; stroke-width:4; stroke-opacity:1; fill:none" points="2352.76,864.896 2351.8,864.414 2352.76,863.455 "/>
<polyline clip-path="url(#clip883)" style="stroke:#5b116e; stroke-linecap:round; stroke-linejoin:round; stroke-width:4; stroke-opacity:1; fill:none" points="2352.76,863.133 2351.47,864.414 2352.76,865.058 "/>
<polyline clip-path="url(#clip883)" style="stroke:#761b6d; stroke-linecap:round; stroke-linejoin:round; stroke-width:4; stroke-opacity:1; fill:none" points="2352.76,865.219 2351.15,864.414 2352.76,862.811 "/>
<polyline clip-path="url(#clip883)" style="stroke:#912567; stroke-linecap:round; stroke-linejoin:round; stroke-width:4; stroke-opacity:1; fill:none" points="2352.76,862.489 2350.83,864.414 2352.76,865.381 "/>
<polyline clip-path="url(#clip883)" style="stroke:#ac2f5c; stroke-linecap:round; stroke-linejoin:round; stroke-width:4; stroke-opacity:1; fill:none" points="2352.76,865.543 2350.51,864.414 2352.76,862.166 "/>
<polyline clip-path="url(#clip883)" style="stroke:#dc5039; stroke-linecap:round; stroke-linejoin:round; stroke-width:4; stroke-opacity:1; fill:none" points="2352.76,865.866 2350.83,866.823 2352.76,868.745 "/>
<polyline clip-path="url(#clip883)" style="stroke:#ed6825; stroke-linecap:round; stroke-linejoin:round; stroke-width:4; stroke-opacity:1; fill:none" points="2352.76,868.42 2351.16,866.823 2352.76,866.028 "/>
<polyline clip-path="url(#clip883)" style="stroke:#f7850e; stroke-linecap:round; stroke-linejoin:round; stroke-width:4; stroke-opacity:1; fill:none" points="2352.76,866.19 2351.48,866.823 2352.76,868.096 "/>
<polyline clip-path="url(#clip883)" style="stroke:#fba40a; stroke-linecap:round; stroke-linejoin:round; stroke-width:4; stroke-opacity:1; fill:none" points="2352.76,867.771 2351.81,866.823 2352.76,866.352 "/>
<polyline clip-path="url(#clip883)" style="stroke:#f9c52c; stroke-linecap:round; stroke-linejoin:round; stroke-width:4; stroke-opacity:1; fill:none" points="2352.76,866.513 2352.13,866.823 2352.76,867.446 "/>
<polyline clip-path="url(#clip883)" style="stroke:#f2e660; stroke-linecap:round; stroke-linejoin:round; stroke-width:4; stroke-opacity:1; fill:none" points="2352.76,867.121 2352.46,866.823 2352.76,866.675 "/>
<polyline clip-path="url(#clip883)" style="stroke:#c73e4c; stroke-linecap:round; stroke-linejoin:round; stroke-width:4; stroke-opacity:1; fill:none" points="2352.76,671.526 2350.51,669.278 2352.76,668.149 "/>
<polyline clip-path="url(#clip883)" style="stroke:#0a0723; stroke-linecap:round; stroke-linejoin:round; stroke-width:4; stroke-opacity:1; fill:none" points="2352.76,667.017 2352.46,666.869 2352.76,666.571 "/>
<polyline clip-path="url(#clip883)" style="stroke:#220b4c; stroke-linecap:round; stroke-linejoin:round; stroke-width:4; stroke-opacity:1; fill:none" points="2352.76,666.246 2352.13,666.869 2352.76,667.179 "/>
<polyline clip-path="url(#clip883)" style="stroke:#400966; stroke-linecap:round; stroke-linejoin:round; stroke-width:4; stroke-opacity:1; fill:none" points="2352.76,667.34 2351.81,666.869 2352.76,665.921 "/>
<polyline clip-path="url(#clip883)" style="stroke:#5b116e; stroke-linecap:round; stroke-linejoin:round; stroke-width:4; stroke-opacity:1; fill:none" points="2352.76,665.596 2351.48,666.869 2352.76,667.502 "/>
<polyline clip-path="url(#clip883)" style="stroke:#761b6d; stroke-linecap:round; stroke-linejoin:round; stroke-width:4; stroke-opacity:1; fill:none" points="2352.76,667.664 2351.16,666.869 2352.76,665.272 "/>
<polyline clip-path="url(#clip883)" style="stroke:#912567; stroke-linecap:round; stroke-linejoin:round; stroke-width:4; stroke-opacity:1; fill:none" points="2352.76,664.947 2350.83,666.869 2352.76,667.826 "/>
<polyline clip-path="url(#clip883)" style="stroke:#ac2f5c; stroke-linecap:round; stroke-linejoin:round; stroke-width:4; stroke-opacity:1; fill:none" points="2352.76,667.987 2350.51,666.869 2352.76,664.622 "/>
<polyline clip-path="url(#clip883)" style="stroke:#dc5039; stroke-linecap:round; stroke-linejoin:round; stroke-width:4; stroke-opacity:1; fill:none" points="2352.76,668.311 2350.83,669.278 2352.76,671.203 "/>
<polyline clip-path="url(#clip883)" style="stroke:#ed6825; stroke-linecap:round; stroke-linejoin:round; stroke-width:4; stroke-opacity:1; fill:none" points="2352.76,670.881 2351.15,669.278 2352.76,668.473 "/>
<polyline clip-path="url(#clip883)" style="stroke:#f7850e; stroke-linecap:round; stroke-linejoin:round; stroke-width:4; stroke-opacity:1; fill:none" points="2352.76,668.634 2351.47,669.278 2352.76,670.559 "/>
<polyline clip-path="url(#clip883)" style="stroke:#fba40a; stroke-linecap:round; stroke-linejoin:round; stroke-width:4; stroke-opacity:1; fill:none" points="2352.76,670.237 2351.8,669.278 2352.76,668.796 "/>
<polyline clip-path="url(#clip883)" style="stroke:#f9c52c; stroke-linecap:round; stroke-linejoin:round; stroke-width:4; stroke-opacity:1; fill:none" points="2352.76,668.958 2352.12,669.278 2352.76,669.915 "/>
<polyline clip-path="url(#clip883)" style="stroke:#f2e660; stroke-linecap:round; stroke-linejoin:round; stroke-width:4; stroke-opacity:1; fill:none" points="2352.76,669.593 2352.44,669.278 2352.76,669.12 "/>
<polyline clip-path="url(#clip883)" style="stroke:#c73e4c; stroke-linecap:round; stroke-linejoin:round; stroke-width:4; stroke-opacity:1; fill:none" points="2352.76,545.77 2350.99,544.005 2352.76,543.114 "/>
<polyline clip-path="url(#clip883)" style="stroke:#912567; stroke-linecap:round; stroke-linejoin:round; stroke-width:4; stroke-opacity:1; fill:none" points="2352.76,541.815 2352.31,541.596 2352.76,541.153 "/>
<polyline clip-path="url(#clip883)" style="stroke:#ac2f5c; stroke-linecap:round; stroke-linejoin:round; stroke-width:4; stroke-opacity:1; fill:none" points="2352.76,539.842 2351,541.596 2352.76,542.464 "/>
<polyline clip-path="url(#clip883)" style="stroke:#dc5039; stroke-linecap:round; stroke-linejoin:round; stroke-width:4; stroke-opacity:1; fill:none" points="2352.76,543.763 2352.28,544.005 2352.76,544.484 "/>
<polyline clip-path="url(#clip883)" style="stroke:#c73e4c; stroke-linecap:round; stroke-linejoin:round; stroke-width:4; stroke-opacity:1; fill:none" points="2100.81,286.231 2099.8,287.242 2099.3,286.231 "/>
<polyline clip-path="url(#clip883)" style="stroke:#ac2f5c; stroke-linecap:round; stroke-linejoin:round; stroke-width:4; stroke-opacity:1; fill:none" points="2097.91,286.231 2097.39,287.264 2094.98,287.947 2093.27,286.231 "/>
<polyline clip-path="url(#clip883)" style="stroke:#912567; stroke-linecap:round; stroke-linejoin:round; stroke-width:4; stroke-opacity:1; fill:none" points="2094.65,286.231 2094.98,286.56 2095.64,286.231 "/>
<polyline clip-path="url(#clip883)" style="stroke:#c73e4c; stroke-linecap:round; stroke-linejoin:round; stroke-width:4; stroke-opacity:1; fill:none" points="1976.16,286.231 1974.53,287.86 1972.12,287.86 1970.49,286.231 "/>
<polyline clip-path="url(#clip883)" style="stroke:#dc5039; stroke-linecap:round; stroke-linejoin:round; stroke-width:4; stroke-opacity:1; fill:none" points="1972.05,286.231 1972.12,286.299 1974.53,286.299 1974.6,286.231 "/>
<polyline clip-path="url(#clip883)" style="stroke:#761b6d; stroke-linecap:round; stroke-linejoin:round; stroke-width:4; stroke-opacity:1; fill:none" points="1777.41,286.231 1776.98,286.657 1774.57,286.657 1774.15,286.231 "/>
<polyline clip-path="url(#clip883)" style="stroke:#912567; stroke-linecap:round; stroke-linejoin:round; stroke-width:4; stroke-opacity:1; fill:none" points="1773.35,286.231 1774.57,287.45 1776.98,287.45 1778.2,286.231 "/>
<polyline clip-path="url(#clip883)" style="stroke:#ac2f5c; stroke-linecap:round; stroke-linejoin:round; stroke-width:4; stroke-opacity:1; fill:none" points="1778.99,286.231 1776.98,288.244 1774.57,288.244 1772.56,286.231 "/>
<polyline clip-path="url(#clip883)" style="stroke:#912567; stroke-linecap:round; stroke-linejoin:round; stroke-width:4; stroke-opacity:1; fill:none" points="1652.04,286.231 1651.71,286.56 1651.38,286.231 "/>
<polyline clip-path="url(#clip883)" style="stroke:#ac2f5c; stroke-linecap:round; stroke-linejoin:round; stroke-width:4; stroke-opacity:1; fill:none" points="1649.98,286.231 1651.71,287.947 1653.42,286.231 "/>
<polyline clip-path="url(#clip883)" style="stroke:#c73e4c; stroke-linecap:round; stroke-linejoin:round; stroke-width:4; stroke-opacity:1; fill:none" points="1648.59,286.231 1646.89,287.941 1645.18,286.231 "/>
<polyline clip-path="url(#clip883)" style="stroke:#dc5039; stroke-linecap:round; stroke-linejoin:round; stroke-width:4; stroke-opacity:1; fill:none" points="1646.58,286.231 1646.89,286.543 1647.2,286.231 "/>
<polyline clip-path="url(#clip883)" style="stroke:#912567; stroke-linecap:round; stroke-linejoin:round; stroke-width:4; stroke-opacity:1; fill:none" points="1393.94,541.153 1394.38,541.596 1393.94,541.815 "/>
<polyline clip-path="url(#clip883)" style="stroke:#ac2f5c; stroke-linecap:round; stroke-linejoin:round; stroke-width:4; stroke-opacity:1; fill:none" points="1393.94,542.464 1395.69,541.596 1393.94,539.842 "/>
<polyline clip-path="url(#clip883)" style="stroke:#c73e4c; stroke-linecap:round; stroke-linejoin:round; stroke-width:4; stroke-opacity:1; fill:none" points="1393.94,543.114 1395.7,544.005 1393.94,545.77 "/>
<polyline clip-path="url(#clip883)" style="stroke:#dc5039; stroke-linecap:round; stroke-linejoin:round; stroke-width:4; stroke-opacity:1; fill:none" points="1393.94,544.484 1394.42,544.005 1393.94,543.763 "/>
<polyline clip-path="url(#clip883)" style="stroke:#0a0723; stroke-linecap:round; stroke-linejoin:round; stroke-width:4; stroke-opacity:1; fill:none" points="1393.94,666.571 1394.23,666.869 1393.94,667.017 "/>
<polyline clip-path="url(#clip883)" style="stroke:#220b4c; stroke-linecap:round; stroke-linejoin:round; stroke-width:4; stroke-opacity:1; fill:none" points="1393.94,667.179 1394.56,666.869 1393.94,666.246 "/>
<polyline clip-path="url(#clip883)" style="stroke:#400966; stroke-linecap:round; stroke-linejoin:round; stroke-width:4; stroke-opacity:1; fill:none" points="1393.94,665.921 1394.88,666.869 1393.94,667.34 "/>
<polyline clip-path="url(#clip883)" style="stroke:#5b116e; stroke-linecap:round; stroke-linejoin:round; stroke-width:4; stroke-opacity:1; fill:none" points="1393.94,667.502 1395.21,666.869 1393.94,665.596 "/>
<polyline clip-path="url(#clip883)" style="stroke:#761b6d; stroke-linecap:round; stroke-linejoin:round; stroke-width:4; stroke-opacity:1; fill:none" points="1393.94,665.272 1395.53,666.869 1393.94,667.664 "/>
<polyline clip-path="url(#clip883)" style="stroke:#912567; stroke-linecap:round; stroke-linejoin:round; stroke-width:4; stroke-opacity:1; fill:none" points="1393.94,667.826 1395.86,666.869 1393.94,664.947 "/>
<polyline clip-path="url(#clip883)" style="stroke:#ac2f5c; stroke-linecap:round; stroke-linejoin:round; stroke-width:4; stroke-opacity:1; fill:none" points="1393.94,664.622 1396.18,666.869 1393.94,667.987 "/>
<polyline clip-path="url(#clip883)" style="stroke:#c73e4c; stroke-linecap:round; stroke-linejoin:round; stroke-width:4; stroke-opacity:1; fill:none" points="1393.94,668.149 1396.18,669.278 1393.94,671.526 "/>
<polyline clip-path="url(#clip883)" style="stroke:#dc5039; stroke-linecap:round; stroke-linejoin:round; stroke-width:4; stroke-opacity:1; fill:none" points="1393.94,671.203 1395.86,669.278 1393.94,668.311 "/>
<polyline clip-path="url(#clip883)" style="stroke:#ed6825; stroke-linecap:round; stroke-linejoin:round; stroke-width:4; stroke-opacity:1; fill:none" points="1393.94,668.473 1395.54,669.278 1393.94,670.881 "/>
<polyline clip-path="url(#clip883)" style="stroke:#f7850e; stroke-linecap:round; stroke-linejoin:round; stroke-width:4; stroke-opacity:1; fill:none" points="1393.94,670.559 1395.22,669.278 1393.94,668.634 "/>
<polyline clip-path="url(#clip883)" style="stroke:#fba40a; stroke-linecap:round; stroke-linejoin:round; stroke-width:4; stroke-opacity:1; fill:none" points="1393.94,668.796 1394.9,669.278 1393.94,670.237 "/>
<polyline clip-path="url(#clip883)" style="stroke:#f9c52c; stroke-linecap:round; stroke-linejoin:round; stroke-width:4; stroke-opacity:1; fill:none" points="1393.94,669.915 1394.57,669.278 1393.94,668.958 "/>
<polyline clip-path="url(#clip883)" style="stroke:#f2e660; stroke-linecap:round; stroke-linejoin:round; stroke-width:4; stroke-opacity:1; fill:none" points="1393.94,669.12 1394.25,669.278 1393.94,669.593 "/>
<polyline clip-path="url(#clip883)" style="stroke:#0a0723; stroke-linecap:round; stroke-linejoin:round; stroke-width:4; stroke-opacity:1; fill:none" points="1393.94,864.099 1394.25,864.414 1393.94,864.572 "/>
<polyline clip-path="url(#clip883)" style="stroke:#220b4c; stroke-linecap:round; stroke-linejoin:round; stroke-width:4; stroke-opacity:1; fill:none" points="1393.94,864.734 1394.57,864.414 1393.94,863.777 "/>
<polyline clip-path="url(#clip883)" style="stroke:#400966; stroke-linecap:round; stroke-linejoin:round; stroke-width:4; stroke-opacity:1; fill:none" points="1393.94,863.455 1394.9,864.414 1393.94,864.896 "/>
<polyline clip-path="url(#clip883)" style="stroke:#5b116e; stroke-linecap:round; stroke-linejoin:round; stroke-width:4; stroke-opacity:1; fill:none" points="1393.94,865.058 1395.22,864.414 1393.94,863.133 "/>
<polyline clip-path="url(#clip883)" style="stroke:#761b6d; stroke-linecap:round; stroke-linejoin:round; stroke-width:4; stroke-opacity:1; fill:none" points="1393.94,862.811 1395.54,864.414 1393.94,865.219 "/>
<polyline clip-path="url(#clip883)" style="stroke:#912567; stroke-linecap:round; stroke-linejoin:round; stroke-width:4; stroke-opacity:1; fill:none" points="1393.94,865.381 1395.86,864.414 1393.94,862.489 "/>
<polyline clip-path="url(#clip883)" style="stroke:#ac2f5c; stroke-linecap:round; stroke-linejoin:round; stroke-width:4; stroke-opacity:1; fill:none" points="1393.94,862.166 1396.18,864.414 1393.94,865.543 "/>
<polyline clip-path="url(#clip883)" style="stroke:#c73e4c; stroke-linecap:round; stroke-linejoin:round; stroke-width:4; stroke-opacity:1; fill:none" points="1393.94,865.705 1396.18,866.823 1393.94,869.07 "/>
<polyline clip-path="url(#clip883)" style="stroke:#dc5039; stroke-linecap:round; stroke-linejoin:round; stroke-width:4; stroke-opacity:1; fill:none" points="1393.94,868.745 1395.86,866.823 1393.94,865.866 "/>
<polyline clip-path="url(#clip883)" style="stroke:#ed6825; stroke-linecap:round; stroke-linejoin:round; stroke-width:4; stroke-opacity:1; fill:none" points="1393.94,866.028 1395.53,866.823 1393.94,868.42 "/>
<polyline clip-path="url(#clip883)" style="stroke:#f7850e; stroke-linecap:round; stroke-linejoin:round; stroke-width:4; stroke-opacity:1; fill:none" points="1393.94,868.096 1395.21,866.823 1393.94,866.19 "/>
<polyline clip-path="url(#clip883)" style="stroke:#fba40a; stroke-linecap:round; stroke-linejoin:round; stroke-width:4; stroke-opacity:1; fill:none" points="1393.94,866.352 1394.88,866.823 1393.94,867.771 "/>
<polyline clip-path="url(#clip883)" style="stroke:#f9c52c; stroke-linecap:round; stroke-linejoin:round; stroke-width:4; stroke-opacity:1; fill:none" points="1393.94,867.446 1394.56,866.823 1393.94,866.513 "/>
<polyline clip-path="url(#clip883)" style="stroke:#f2e660; stroke-linecap:round; stroke-linejoin:round; stroke-width:4; stroke-opacity:1; fill:none" points="1393.94,866.675 1394.23,866.823 1393.94,867.121 "/>
<polyline clip-path="url(#clip883)" style="stroke:#912567; stroke-linecap:round; stroke-linejoin:round; stroke-width:4; stroke-opacity:1; fill:none" points="1393.94,989.208 1394.42,989.687 1393.94,989.929 "/>
<polyline clip-path="url(#clip883)" style="stroke:#ac2f5c; stroke-linecap:round; stroke-linejoin:round; stroke-width:4; stroke-opacity:1; fill:none" points="1393.94,990.578 1395.7,989.687 1393.94,987.922 "/>
<polyline clip-path="url(#clip883)" style="stroke:#c73e4c; stroke-linecap:round; stroke-linejoin:round; stroke-width:4; stroke-opacity:1; fill:none" points="1393.94,991.228 1395.69,992.096 1393.94,993.85 "/>
<polyline clip-path="url(#clip883)" style="stroke:#dc5039; stroke-linecap:round; stroke-linejoin:round; stroke-width:4; stroke-opacity:1; fill:none" points="1393.94,992.539 1394.38,992.096 1393.94,991.877 "/>
<polyline clip-path="url(#clip883)" style="stroke:#ac2f5c; stroke-linecap:round; stroke-linejoin:round; stroke-width:4; stroke-opacity:1; fill:none" points="1567.03,1245.05 1567.39,1245.41 1567.74,1245.05 1567.39,1244.7 1567.03,1245.05 "/>
<polyline clip-path="url(#clip883)" style="stroke:#c73e4c; stroke-linecap:round; stroke-linejoin:round; stroke-width:4; stroke-opacity:1; fill:none" points="1571.81,1245.05 1572.21,1245.44 1572.6,1245.05 1572.21,1244.66 1571.81,1245.05 "/>
<polyline clip-path="url(#clip883)" style="stroke:#c73e4c; stroke-linecap:round; stroke-linejoin:round; stroke-width:4; stroke-opacity:1; fill:none" points="2174.09,1245.05 2174.48,1245.44 2175.28,1245.05 2174.48,1244.66 2174.09,1245.05 "/>
<polyline clip-path="url(#clip883)" style="stroke:#ac2f5c; stroke-linecap:round; stroke-linejoin:round; stroke-width:4; stroke-opacity:1; fill:none" points="2174.48,289.032 2174.09,288.641 2174.48,288.249 2175.28,288.641 2174.48,289.032 "/>
<polyline clip-path="url(#clip883)" style="stroke:#ac2f5c; stroke-linecap:round; stroke-linejoin:round; stroke-width:4; stroke-opacity:1; fill:none" points="1572.6,288.641 1572.21,289.032 1571.81,288.641 1572.21,288.249 1572.6,288.641 "/>
<polyline clip-path="url(#clip883)" style="stroke:#c73e4c; stroke-linecap:round; stroke-linejoin:round; stroke-width:4; stroke-opacity:1; fill:none" points="1567.74,288.641 1567.39,288.997 1567.03,288.641 1567.39,288.284 1567.74,288.641 "/>
</svg>
